<svg xmlns="http://www.w3.org/2000/svg" xmlns:xlink="http://www.w3.org/1999/xlink" width="750" height="500" fill-rule="evenodd"><defs><linearGradient id="a"><stop offset="0" stop-color="#403800"/><stop offset=".5" stop-color="#c8af00"/><stop offset="1" stop-color="#403900"/></linearGradient><linearGradient id="b"><stop offset="0" stop-color="#403800"/><stop offset=".5" stop-color="#c8af00"/><stop offset="1" stop-color="#403900"/></linearGradient><pattern xlink:href="#c" id="d" patternTransform="matrix(.61994 0 0 .61994 394.91 582.469)"/><pattern xlink:href="#c" id="e" patternTransform="matrix(.61994 0 0 .61994 394.91 582.469)"/><pattern xlink:href="#c" id="f" patternTransform="matrix(.61994 0 0 .61994 394.91 582.469)"/><pattern xlink:href="#c" id="g" patternTransform="matrix(.61994 0 0 .61994 394.91 582.469)"/><pattern xlink:href="#c" id="h" patternTransform="matrix(.61994 0 0 .61994 394.91 582.469)"/><pattern xlink:href="#c" id="i" patternTransform="matrix(.61994 0 0 .61994 394.91 582.469)"/><pattern xlink:href="#c" id="j" patternTransform="matrix(.61994 0 0 .61994 394.91 582.469)"/><pattern xlink:href="#c" id="k" patternTransform="matrix(.61994 0 0 .61994 394.91 582.469)"/><pattern xlink:href="#c" id="l" patternTransform="matrix(.61994 0 0 .61994 394.91 582.469)"/><pattern xlink:href="#c" id="m" patternTransform="matrix(.61994 0 0 .61994 394.91 582.469)"/><pattern xlink:href="#c" id="n" patternTransform="matrix(.61994 0 0 .61994 394.91 582.469)"/><pattern xlink:href="#c" id="o" patternTransform="matrix(.61994 0 0 .61994 394.91 582.469)"/><pattern xlink:href="#c" id="p" patternTransform="matrix(.61994 0 0 .61994 394.91 582.469)"/><pattern xlink:href="#c" id="q" patternTransform="matrix(.61994 0 0 .61994 394.91 582.469)"/><pattern xlink:href="#c" id="r" patternTransform="matrix(.61994 0 0 .61994 394.91 582.469)"/><pattern xlink:href="#c" id="s" patternTransform="matrix(.61994 0 0 .61994 394.91 582.469)"/><pattern xlink:href="#c" id="t" patternTransform="matrix(.61994 0 0 .61994 394.91 582.469)"/><pattern xlink:href="#c" id="u" patternTransform="matrix(.61994 0 0 .61994 394.91 582.469)"/><pattern xlink:href="#c" id="v" patternTransform="matrix(.61994 0 0 .61994 394.91 582.469)"/><pattern xlink:href="#c" id="w" patternTransform="matrix(.61994 0 0 .61994 394.91 582.469)"/><pattern xlink:href="#c" id="x" patternTransform="matrix(.61994 0 0 .61994 394.91 582.469)"/><pattern xlink:href="#c" id="y" patternTransform="matrix(.61994 0 0 .61994 394.91 582.469)"/><pattern xlink:href="#c" id="z" patternTransform="matrix(.61994 0 0 .61994 394.91 582.469)"/><pattern xlink:href="#c" id="A" patternTransform="matrix(.61994 0 0 .61994 394.91 582.469)"/><pattern xlink:href="#c" id="B" patternTransform="matrix(.61994 0 0 .61994 394.91 582.469)"/><pattern xlink:href="#c" id="C" patternTransform="matrix(.61994 0 0 .61994 394.91 582.469)"/><pattern xlink:href="#c" id="D" patternTransform="matrix(.61994 0 0 .61994 394.91 582.469)"/><pattern xlink:href="#c" id="E" patternTransform="matrix(.61994 0 0 .61994 394.91 582.469)"/><pattern xlink:href="#c" id="F" patternTransform="matrix(.61994 0 0 .61994 394.91 582.469)"/><pattern xlink:href="#c" id="G" patternTransform="matrix(.61994 0 0 .61994 394.91 582.469)"/><pattern xlink:href="#c" id="H" patternTransform="matrix(.61994 0 0 .61994 394.91 582.469)"/><pattern xlink:href="#c" id="I" patternTransform="matrix(.61994 0 0 .61994 394.91 582.469)"/><pattern id="c" patternTransform="translate(466.943 338.947)" height="22.283" width="52.022" patternUnits="userSpaceOnUse"><g fill="#a05a2c"><path d="M-538.751 372.795h66.355v30.882h-66.355z" transform="matrix(.78085 0 0 .7212 420.893 -268.854)"/><path d="M-538.751 372.795h66.355v30.882h-66.355z" transform="matrix(.78085 0 0 .7212 420.893 -268.854)"/><path d="M-537.022 372.995l64.01.142-.018 29.951-64.01-.142.018-29.95z" fill-rule="nonzero" stroke="#000" stroke-width=".401" stroke-linecap="square" transform="matrix(.78085 0 0 .7212 420.893 -268.854)"/><path d="M-538.49 403.447l.017-15.96 32.76.037-.018 15.96M-505.728 403.49l.018-15.895 32.953.037-.019 15.895" fill-rule="nonzero" stroke="#000" stroke-width=".3" stroke-linecap="square" transform="matrix(.78085 0 0 .7212 420.893 -268.854)"/><path d="M-523.063 372.97l35.193.036-.02 15.95-35.193-.037.02-15.95z" fill-rule="nonzero" stroke="#000" stroke-width=".311" stroke-linecap="square" transform="matrix(.78085 0 0 .7212 420.893 -268.854)"/><path d="M-472.563 388.98l-15.96-.018.018-15.96 15.96.018" fill-rule="nonzero" stroke="#000" stroke-width=".3" stroke-linecap="square" transform="matrix(.78085 0 0 .7212 420.893 -268.854)"/><path d="M-538.854 372.947l16.23.017-.018 15.958-16.23-.018" fill-rule="nonzero" stroke="#000" stroke-width=".303" stroke-linecap="square" transform="matrix(.78085 0 0 .7212 420.893 -268.854)"/></g></pattern><pattern xlink:href="#c" id="J" patternTransform="matrix(.61994 0 0 .61994 394.91 582.469)"/><linearGradient id="K"><stop offset="0" stop-color="#e9d5d5"/><stop offset="1" stop-color="#cc013e"/></linearGradient><linearGradient id="L"><stop offset="0" stop-color="#b3e5c9"/><stop offset="1" stop-color="#008070"/></linearGradient><linearGradient id="M"><stop offset="0" stop-color="#fff"/><stop offset="1" stop-color="#bac5e1"/></linearGradient><linearGradient id="N"><stop offset="0" stop-color="#63ddce"/><stop offset="1" stop-color="#008070"/></linearGradient><linearGradient id="O"><stop offset="0" stop-color="#f1a6bc"/><stop offset="1" stop-color="#cc013e"/></linearGradient></defs><path fill="#fbbb00" d="M0 0h750v500H0z"/><path d="M65 435h620V65H65v370z" fill="#078930"/><path d="M326.97 457.5s14.469-33.686 14.469-51.875c0-36.379-28.939-67.371-28.939-103.75 0-36.379 28.939-67.371 28.939-103.75 0-36.379-28.939-67.371-28.939-103.75 0-18.19 14.47-51.875 14.47-51.875h96.06s-14.469 33.686-14.469 51.875c0 36.379 28.939 67.371 28.939 103.75 0 36.379-28.939 67.371-28.939 103.75 0 36.379 28.939 67.371 28.939 103.75 0 18.19-14.47 51.875-14.47 51.875z" fill="#0f47af" stroke="#fbbb00" stroke-width="20"/><path d="M42.5 42.5v415h665v-415h-665zM65 65h620v370H65V65z" fill="#fff"/></svg>