<?xml version="1.0" encoding="UTF-8"?>
<!-- Creator: CorelDRAW -->
<svg id="svg2" width="1133.8583" height="1133.8583" clip-rule="evenodd" fill-rule="evenodd" image-rendering="optimizeQuality" shape-rendering="geometricPrecision" text-rendering="geometricPrecision" viewBox="0 0 13228500 15035136" xml:space="preserve" xmlns="http://www.w3.org/2000/svg" xmlns:cc="http://creativecommons.org/ns#" xmlns:dc="http://purl.org/dc/elements/1.1/">
 <defs id="defs4">
   <clipPath id="id0">
    <path id="path7" d="m1784240 1737320c0 515938-328749 934345-734129 934345s-734129-418407-734129-934345 328749-934345 734129-934345 734129 418407 734129 934345z"/>
   </clipPath>
    <clipPath id="id1">
     <path id="path10" d="m967340 2944830s36127-7026 42649-4016c6522 3515 13547-41145 36628-57198 26595-18065 70248-52184 113398-112897 0 0-9532-17561-51680-12041 0 0-1006 20571-5518 28599-5019 8029-27597 41145-56200 52183-28599 11036-50678 42649-60209 69745-9532 27096-19068 35625-19068 35625z"/>
    </clipPath>
    <clipPath id="id2">
     <path id="path13" d="m1101810 2936800s-37129 9031-42649-4017c-3010-6520-5015-56697-27597-72753-23083-15557-33260-29002-82442-66611-15064-11519-29453-19692-34968-29224-4017-7026-4518-16558-9034-20073 0 0 28102-3010 73258 8028 0 0-6525 22078 8029 29605 8028 4013 26595 31613 55194 45158 27092 12545 43650 57703 52180 82290 9536 27096 8029 27597 8029 27597z"/>
    </clipPath>
    <clipPath id="id3">
     <path id="path16" d="m1160020 2770720s-6522-17561-66734-13047c-57202 4517-89814 4016-99851 0-10537-4013-19568-6521-34119-9531-12044-2009-36630-4518-30105-4017-12542-1503-24085 0-24085 0s-2507 2008 4015-8530c5520-8530 17060-12541 32111-30106 4873-5685 80543-1279 86302 0 7027 1507 15055 1006 18066 0 3009-1002 37128-1503 52183 0 18520 4029 45164 5796 49200 5752 10590-116 14524 10306 16026 27365 1507 17563 2511 6525-3009 32114z"/>
    </clipPath>
 </defs>
 <rect id="rect3079" x="-903318" width="15035136" height="15035136" fill="#ffffff" fill-rule="nonzero"/><g id="Layer_x0020_1" transform="matrix(.6874767 0 0 .6839205 3934447.5 3071111.3)">
  
  
  
  
  
  
  
  <g id="g2435" transform="matrix(.59999997 0 0 .59999997 -2404931.8 -2413678)"><g id="_62557288">
   <g id="g21" fill="#fcbf49" stroke="#843511" stroke-width="21370">
    <path id="_62281912" d="m10179400 6526140 241340 6153710s0 120690 80410 120690c80450 0 80450-120690 80450-120690l241300-6153710"/>
    <path id="_62321800" d="m9910870 8519780c-361470 767900-40170 1407930-401270 2073230-361110 665290-130340 1245870-151080 1549460-20720 303620-285270 393470-218470 468600 66800 75150 343390-73790 447260-483620 103900-409820-155620-647290 277020-1462270 432630-815020 82860-1214460 519140-1946620"/>
    <path id="_62285944" d="m10822900 6526140-241300-6153710s0-120690-80450-120690c-80410 0-80410 120690-80410 120690l-241340 6153710"/>
    <path id="_61162472" d="m11091500 4532460c361440-767910 40160-1407890 401260-2073200 361120-665330 130350-1245860 151060-1549450 20740-303620 285260-393480 218490-468650-66800-75150-343390 73790-447290 483660-103890 409830 155660 647300-277010 1462280-432560 814970-82870 1214420-519150 1946600"/>
    <path id="_62322560" d="m10501200 6204390-6153710 241300s-120660 0-120660 80450c0 80400 120660 80400 120660 80400l6153710 241350"/>
    <path id="_62257808" d="m8507530 5935800c-767900-361440-1407930-40170-2073230-401280-665310-361100-1245830-130330-1549460-151040-303590-20710-393440-285260-468600-218500-75150 66810 73790 343390 483610 447280 409830 103910 647310-155640 1462310 277030 814970 432560 1214430 82870 1946570 519150"/>
    <path id="_59209688" d="m10501200 6847890 6153710-241350s120690 0 120690-80400c0-80450-120690-80450-120690-80450l-6153710-241300"/>
    <path id="_62275984" d="m12494900 7116440c767870 361470 1407860 40200 2073170 401270 665330 361110 1245860 130340 1549450 151080 303620 20710 393480 285270 468650 218500 75150-66850-73790-343420-483670-447290-409820-103900-647290 155620-1462270-277020-814970-432600-1214420-82860-1946570-519140"/>
    <path id="_62267280" d="m10273700 6298640-4180700 4521950s-85290 85290-28410 142160c56870 56880 142160-28410 142160-28410l4521950-4180700"/>
    <path id="_59279256" d="m8674000 7518470c-798540 287360-1023900 967110-1749680 1182220-725800 215150-973110 788770-1202470 988790-229360 200050-479930 76520-485830 176910-5890 100390 294980 190610 658230-25710 363250-216350 347710-567770 1229890-838140 882170-270360 917340-800110 1743530-1009330"/>
    <path id="_62265792" d="m10728700 6753640 4180740-4521950s85290-85330 28420-142210c-56880-56870-142210 28420-142210 28420l-4521950 4180740"/>
    <path id="_62286104" d="m12328400 5533790c798550-287390 1023860-967140 1749670-1182210 725800-215140 973130-788810 1202490-988830 229340-2e5 479890-76490 485790-176910 5930-100360-294960-190570-658200 25710-363250 216360-347700 567820-1229850 838190-882180 270360-917380 800110-1743610 1009320"/>
    <path id="_113050048" d="m10728700 6298640-4521950-4180740s-85290-85290-142160-28420c-56880 56880 28410 142210 28410 142210l4180700 4521950"/>
    <path id="_113311912" d="m9508870 4698920c-287390-798540-967140-1023850-1182250-1749660-215150-725770-788780-973130-988790-1202480-200050-229360-76490-479900-176880-485800-100420-5930-190640 294960 25710 658200 216320 363250 567740 347700 838110 1229880 270360 882150 800160 917380 1009360 1743580"/>
    <path id="_62282952" d="m10273700 6753640 4521950 4180700s85330 85290 142210 28410c56870-56870-28420-142160-28420-142160l-4180740-4521950"/>
    <path id="_59260032" d="m11493500 8353310c287410 798540 967160 1023900 1182220 1749660 215150 725810 788820 973130 988820 1202490 200020 229360 76490 479940 176930 485840 100340 5880 190570-294960-25710-658250-216360-363240-567790-347700-838190-1229850-270360-882170-800110-917370-1009330-1743560"/>
    <path id="_62275864" d="m10203900 6402980-2131970 5777630s-46190 111530 28130 142320c74350 30770 120530-80720 120530-80720l2577840-5592960"/>
    <path id="_62274736" d="m9192860 8142120c-627810 571170-575860 1285340-1164130 1761860-588210 476470-597170 1101160-732560 1373750-135300 272540-414100 254290-381120 349270s345490 63250 598290-275600c252840-338880 103980-657640 815500-1245000 711550-587380 541330-1090290 1224600-1599750"/>
    <path id="_59256160" d="m10798500 6649250 2131970-5777620s46170-111490-28180-142300c-74310-30750-120450 80700-120450 80700l-2577870 5592950"/>
    <path id="_59252880" d="m11809500 4910120c627800-571130 575840-1285310 1164090-1761820 588200-476520 597210-1101200 732550-1373750 135340-272590 414100-254290 381120-349270-32930-95030-345440-63270-598290 275600-252840 338830-103940 657640-815500 1244980-711520 587400-541300 1090310-1224550 1599760"/>
    <path id="_59210768" d="m10624300 6228850-5777640-2131970s-111520-46170-142280 28180c-30770 74310 80690 120480 80690 120480l5592960 2577840"/>
    <path id="_62322632" d="m8885190 5217780c-571120-627800-1285350-575850-1761860-1164090-476470-588200-1101160-597210-1373750-732550-272540-135340-254260-414100-349270-381120-94980 32930-63220 345440 275650 598290 338830 252840 657590 103940 1244980 815500 587350 711500 1090260 541300 1599720 1224550"/>
    <path id="_62263784" d="m10378100 6823380 5777620 2131970s111490 46220 142290-28130c30760-74350-80690-120500-80690-120500l-5592950-2577870"/>
    <path id="_62269304" d="m12117200 7834450c571130 627800 1285340 575890 1761820 1164130 476520 588210 1101200 597170 1373750 732560 272590 135300 254290 414100 349270 381120 95030-32980 63250-345440-275600-598290-338830-252860-657640-103990-1244990-815500-587390-711550-1090300-541340-1599750-1224600"/>
    <path id="_61378176" d="m10378100 6228850-5592960 2577870s-111490 46220-80690 120500c30830 74310 142280 28130 142280 28130l5777640-2131970"/>
    <path id="_60001312" d="m8433340 6743710c-847710-40080-1316070 501650-2068950 422660-752850-79000-1200870 356340-1489320 453340-288410 97040-472680-112980-516550-22490-43840 90460 199600 288980 617980 228110 418400-60870 538520-391470 1456990-303660 918470 87830 1153760-388160 1997110-265280"/>
    <path id="_61165536" d="m10624300 6823380 5592950-2577840s111450-46220 80690-120480c-30800-74350-142290-28180-142290-28180l-5777620 2131970"/>
    <path id="_62280440" d="m12569000 6308570c847790 40030 1316060-501670 2068950-422660 752860 78990 1200920-356350 1489360-453380 288400-97000 472670 113020 516560 22510 43870-90490-199610-289010-618000-228140-418380 60880-538510 391470-1456980 303670-918510-87790-1153750 388150-1997110 265320"/>
    <path id="_62321232" d="m10798500 6402980-2577840-5592950s-46220-111450-120530-80700c-74320 30810-28130 142300-28130 142300l2131970 5777620"/>
    <path id="_62295968" d="m10283600 4458310c40080-847790-501620-1316070-422660-2068950 78990-752860-356350-1200920-453350-1489360-97030-288400 112990-472640 22530-516560-90490-43870-289010 199610-228140 618000 60870 418380 391450 538510 303670 1456980-87840 918510 388150 1153750 265270 1997140"/>
    <path id="_60001432" d="m10203900 6649250 2577870 5592960s46170 111490 120450 80720c74350-30830 28180-142320 28180-142320l-2131970-5777630"/>
    <path id="_62269928" d="m10718700 8593970c-40050 847740 501650 1316050 422660 2068950-79000 752860 356350 1200870 453380 1489320 97000 288440-112970 472670-22530 516550 90510 43870 289030-199600 228160-617950-60880-418430-391470-538550-303670-1457020 87790-918470-388150-1153760-265320-1997100"/>
   </g>
   <g id="g55" fill="#843511">
    <path id="_61164032" d="m10340300 6526140 160860 4223130 160890-4223130"/>
    <path id="_59537288" d="m10662100 6526140-160890-4223170-160860 4223170"/>
    <path id="_62322464" d="m10501200 6365230-4223130 160910 4223130 160890"/>
    <path id="_59540024" d="m10501200 6687030 4223160-160890-4223160-160910"/>
    <path id="_61155936" d="m10387400 6412340-2872430 3099980 3099980-2872430"/>
    <path id="_62273672" d="m10615000 6639890 2872450-3099970-3.1e6 2872420"/>
    <path id="_62322120" d="m10615000 6412340-3099980-2872420 2872430 3099970"/>
    <path id="_59205184" d="m10387400 6639890 3.1e6 2872430-2872450-3099980"/>
    <path id="_62280576" d="m10352500 6464580-1467470 3963220 1764760-3840100"/>
    <path id="_62292232" d="m10649800 6587700 1467480-3963220-1764770 3840100"/>
    <path id="_59139440" d="m10562700 6377510-3963220-1467510 3840100 1764750"/>
    <path id="_62285312" d="m10439600 6674750 3963220 1467490-3840100-1764730"/>
    <path id="_62285400" d="m10439600 6377510-3840100 1764730 3963220-1467490"/>
    <path id="_62274512" d="m10562700 6674750 3840100-1764750-3963220 1467510"/>
    <path id="_59541424" d="m10649800 6464580-1764760-3840100 1467470 3963220"/>
    <path id="_62322936" d="m10352500 6587700 1764770 3840100-1467480-3963220"/>
   </g>
   <g id="g73" fill="#843511">
    <path id="_59287808" d="m10012700 8725240c-278590 764190 27330 1277910-353460 1939260 427530-487650 137680-1080180 503100-1867780"/>
    <path id="_59547504" d="m10989700 4327000c278610-764200-27330-1277880 353480-1939220-427550 487610-137690 1080160-503150 1867730"/>
    <path id="_25316296" d="m8302070 6037640c-764190-278610-1277920 27320-1939260-353480 487650 427550 1080210 137680 1867780 503150"/>
    <path id="_59541648" d="m12700300 7014590c764240 278610 1277920-27330 1939230 353480-487610-427550-1080180-137650-1867730-503100"/>
    <path id="_62281936" d="m8600820 7735760c-737400 343340-884360 922910-1621230 1121270 647130-42480 861150-666430 1676480-964900"/>
    <path id="_62268512" d="m12401600 5316520c737380-343350 884350-922960 1621220-1121320-647140 42510-861150 666480-1676490 964950"/>
    <path id="_61161312" d="m9291550 4625740c-343310-737380-922910-884360-1121270-1621220 42510 647130 666430 861150 964930 1676480"/>
    <path id="_62296512" d="m11710800 8426490c343350 737380 922960 884360 1121300 1621270-42460-647140-666460-861190-964930-1676490"/>
    <path id="_62279976" d="m9208360 8370910c-549860 599420-463850 1191130-1068710 1656340 581620-286870 540530-945280 1179590-1533030"/>
    <path id="_25016920" d="m11794000 4681320c549850-599370 463830-1191080 1068710-1656340-581620 286870-540580 945310-1179590 1533070"/>
    <path id="_62296464" d="m8656400 5233280c-599420-549860-1191090-463800-1656340-1068710 286870 581620 945260 540580 1533020 1179590"/>
    <path id="_61156584" d="m12346000 7819000c599380 549840 1191090 463800 1656340 1068660-286890-581620-945280-540530-1533080-1179590"/>
    <path id="_62269120" d="m8282540 6916430c-812640 35030-1170190 514250-1926950 415510 614200 208410 1050710-286140 1918190-249940"/>
    <path id="_59543528" d="m12719800 6135850c812630-35080 1170200-514260 1926910-415530-614150-208400-1050660 286160-1918110 249910"/>
    <path id="_59999472" d="m10110900 4307470c-35000-812640-514250-1170200-415510-1926910-208420 614150 286140 1050660 249970 1918140"/>
    <path id="_59543720" d="m10891500 8744770c35080 812670 514260 1170190 415520 1926950 208440-614150-286150-1050710-249900-1918160"/>
   </g>
   <path id="_113759672" d="m12914400 6526140c0-1332620-1080620-2413240-2413240-2413240-1332540 0-2413240 1080620-2413240 2413240 0 1332570 1080700 2413220 2413240 2413220 1332620 0 2413240-1080650 2413240-2413220z" fill="#fcbf49" stroke="#843511" stroke-width="14250"/>
   <g id="g92" fill="#843511">
    <path id="_113758720" d="m12150200 5963040c-462530-402200-1045700-462510-1367480-160850-64420 103850-129580 219950-150040 336030-39560 224320 48150 487060 206260 730300-16020-490-56220 19610-76330 39680-157260-301850-215460-623200-163640-917150 12280-69620 52080-150350 62970-212280 442560-378820 1045860-419020 1488260 184270z"/>
    <path id="_113757768" d="m11426300 5842390c-261440 0-321750 60310-442440 160890-120640 100510-180950 80420-201090 100510-20110 20110 0 80460 40200 60350 40200-20100 120690-60350 241380-160860 120690-100580 241310-100580 361950-100580 362000 0 563060 301690 603310 281550 40240-20150-201140-341860-603310-341860z"/>
    <path id="_113756968" d="m11888800 6184250c-261400-281550-744040-301660-945150 20140h80450c201100-321800 683740-181000 723950-40250v40250"/>
    <path id="_113746088" d="m11567000 6164140c0-99940-81010-181000-180960-181000-99940 0-180990 81060-180990 181000 0 99950 81050 181000 180990 181000 99950 0 180960-81050 180960-181000z"/>
    <path id="_114318984" d="m10943600 6204390c201110 181000 643500 201060 945150-20140l-140750-20110c-201070 221250-522850 201090-723950 40250v-40250"/>
    <path id="_113754304" d="m11908900 6284830c-341900 261400-683750 241310-884850 120620-201090-120620-201140-160860-160890-160860 40240 0 80440 40240 241330 120640 160860 80420 402170 80460 804410-80400z"/>
    <path id="_113752712" d="m10923500 6888130c47730 16990 80210 62740 80210 113640 0 66430-54170 120690-120640 120690-64550 0-118320-50950-120660-115490-19930 42010-100350 162670-261240 162670h-40200l6990 59940 33210 370c40250 0 160890 0 241310-60310 33260 47800 89850 77500 148540 77500 99660 0 180950-81330 180950-180990 0-87690-62880-163330-149150-178180"/>
    <path id="_113751912" d="m8823380 5963040c462550-402200 1045750-462510 1367500-160850 64470 103850 129620 219950 150080 336030 39550 224320-48120 487060-206270 730300 16030-490 56190 19610 76340 39680 157260-301850 215420-623200 163600-917150-12240-69620-52030-150350-62930-212280-442570-378820-1045860-419020-1488320 184270z"/>
    <path id="_113750608" d="m9547380 5842390c261440 0 321750 60310 442440 160890 120610 100510 181000 80420 201060 100510 20110 20110 0 80460-40160 60350-40240-20100-120690-60350-241350-160860-120730-100580-241330-100580-361990-100580-362000 0-563090 301690-603340 281550-40200-20150 201140-341860 603340-341860z"/>
    <path id="_113749432" d="m9084870 6184250c261420-281550 744060-301660 945160 20140h-80490c-201060-321800-683700-181000-723920-40250v40250"/>
    <path id="_62306064" d="m9406620 6164140c0-99940 81030-181000 180970-181000s181000 81060 181000 181000c0 99950-81060 181000-181000 181000s-180970-81050-180970-181000z"/>
    <path id="_113747776" d="m1.003e7 6204390c-201100 181000-643540 201060-945160-20140l140750-20110c201070 221250 522860 201090 723920 40250v-40250"/>
    <path id="_113746232" d="m9064730 6284830c341890 261400 683750 241310 884810 120620 201140-120620 201180-160860 160890-160860-40200 0-80400 40240-241300 120640-160890 80420-402200 80460-804400-80400z"/>
    <path id="_113745480" d="m10050100 6888130c-47710 16990-80240 62740-80240 113640 0 66430 54200 120690 120690 120690 64540 0 118310-50950 120640-115490 19900 42010 100350 162670 261250 162670h40200l-40200 60310c-40290 0-160900 0-241350-60310-33260 47800-89800 77500-148490 77500-99710 0-181000-81330-181000-180990 0-87690 62920-163330 149180-178180"/>
   </g>
  </g><g id="_59256184"><g stroke="#1f1a17">
   <path id="_62122824" d="m10626700 7467070s1747750-381040 1873370-533500" fill="none" stroke-width="10160"/>
   <path id="_62121832" d="m2367840 19361600s-1068020-16300-1410730-1219370c0 0 1479290 462740 1410730 1219370z" fill="#00923f" stroke-width="20320"/>
   <path id="_62120864" d="m2236510 19241900s-953810-805640-1079510-860090" fill="none" stroke-width="10160"/>
   <path id="_62119872" d="m10426800 7499720s-34260 549860 1193720 566160c0 0-325550-533490-1193720-566160z" fill="#00923f" stroke-width="20320"/>
   <path id="_62118744" d="m10426800 7499720s1770570-152420 2221810-620560c0 0-1336530 119760-2221810 620560z" fill="#00923f" stroke-width="20320"/>
   <path id="_62117720" d="m10478200 7516070s902400 500840 1050900 549810" fill="none" stroke-width="10160"/>
   <path id="_62116728" d="m8153630 8104020s668230 206820 1102320-190570c0 0-742480-157850-1102320 190570z" fill="#00923f" stroke-width="20320"/>
   <path id="_62115184" d="m12374400 29236600s-5123240-1099650-7356430-3957620c-308420-391950-1290800-1736520-2033270-3413210-993830-2242840-1673510-5323980-314140-8726300 2176050-5422000 7105080-5639750 7756200-5639750-651120 0-5226000 337560-7539160 5710490-576890 1339180-1022380 4082820-325590 6429070 616870 2063160 1085190 2955950 1844810 4093700 753930 1132310 1387900 2525890 4180850 3854170 1187970 560710 2810060 865550 3501120 1028850 142800 38140 325590 446390 285610 620600z" fill="#00923f" stroke-width="20320"/>
   </g><g id="g117">
    <path id="_62114184" d="m9073170 28049900s-251310 413690-1353630 272190c0 0 308440-479050 1170860-359290z" fill="#00923f"/>
    <path id="_62113192" d="m9073170 28049900s-251310 413690-1353630 272190c0 0 308440-479050 1170860-359290" fill="none" stroke="#1f1a17" stroke-width="20320"/>
   </g>
   <g id="g121">
    <path id="_62111432" d="m8245020 27445600s-651130-636910-399830-1028860c0 0 868170 517150 594020 1148620z" fill="#00923f"/>
    <path id="_62110440" d="m8245020 27445600s-651130-636910-399830-1028860c0 0 868170 517150 594020 1148620" fill="none" stroke="#1f1a17" stroke-width="20320"/>
   </g>
   <g id="g125">
    <path id="_62108656" d="m7776660 27206100s-131360-1186730-759630-1529700c0 0-142800-87110-108500 168760 34230 261320 217000 533510 416940 724030 194180 190550 319830 587930 319830 587930z" fill="#00923f"/>
    <path id="_62107608" d="m7776660 27206100s-131360-1186730-759630-1529700c0 0-142800-87110-108500 168760 34230 261320 217000 533510 416940 724030 194180 190550 319830 587930 319830 587930" fill="none" stroke="#1f1a17" stroke-width="20320"/>
   </g>
   <g id="g129">
    <path id="_62105448" d="m7302610 27102700s-234150 54440-359850 87110c-125620 32650-388330 413730-1307920 103410 0 0 68580-533460 1239390-310280 85690 16310 34300 32660 319880 70750z" fill="#00923f"/>
    <path id="_62104168" d="m7302610 27102700s-234150 54440-359850 87110c-125620 32650-388330 413730-1307920 103410 0 0 68580-533460 1239390-310280 85690 16310 34300 32660 319880 70750" fill="none" stroke="#1f1a17" stroke-width="20320"/>
   </g>
   <g id="g133">
    <path id="_62102648" d="m8245020 27690600s-942410 669600-1816240 342970c0 0 553990-533490 1199370-517140 651130 16300 251300 16300 251300 16300z" fill="#00923f"/>
    <path id="_62101856" d="m8245020 27690600s-942410 669600-1816240 342970c0 0 553990-533490 1199370-517140 651130 16300 251300 16300 251300 16300" fill="none" stroke="#1f1a17" stroke-width="20320"/>
   </g>
   <g id="g137">
    <path id="_62100072" d="m6046060 26346000c-68530-49000-142750-49000-285570-16300-148460 32620-1068020 32620-1570670-397430 0 0 1296550-119760 1639250 206860 0 0 57080 38110 108500 54460z" fill="#00923f"/>
    <path id="_62098992" d="m6046060 26346000c-68530-49000-142750-49000-285570-16300-148460 32620-1068020 32620-1570670-397430 0 0 1296550-119760 1639250 206860 0 0 57080 38110 108500 54460" fill="none" stroke="#1f1a17" stroke-width="20320"/>
   </g>
   <g id="g141">
    <path id="_62096968" d="m5686260 25932200s-308430-87110-434080-49010c-125650 32660-1119440 65360-1570680-860090 0 0 1050950 32670 1353640 342950 234190 239520 359840 293970 416930 326630z" fill="#00923f"/>
    <path id="_62095920" d="m5686260 25932200s-308430-87110-434080-49010c-125650 32660-1119440 65360-1570680-860090 0 0 1050950 32670 1353640 342950 234190 239520 359840 293970 416930 326630" fill="none" stroke="#1f1a17" stroke-width="20320"/>
   </g>
   <g id="g145">
    <path id="_62094120" d="m4858100 24968700s-148510-48970-308430-81670c-159910-38090-1245100-261270-1513550-740320 0 0 1296510-70800 1496390 342940l251310 326620z" fill="#00923f"/>
    <path id="_62093328" d="m4858100 24968700s-148510-48970-308430-81670c-159910-38090-1245100-261270-1513550-740320 0 0 1296510-70800 1496390 342940l251310 326620" fill="none" stroke="#1f1a17" stroke-width="20320"/>
   </g>
   <g id="g149">
    <path id="_62091464" d="m4578230 24146700c22820-299400 62830-1066960-137110-1584150 0 0-805290 375610 51460 1600460z" fill="#00923f"/>
    <path id="_62090472" d="m4578230 24146700c22820-299400 62830-1066960-137110-1584150 0 0-805290 375610 51460 1600460" fill="none" stroke="#1f1a17" stroke-width="20320"/>
   </g>
   <path id="_62088952" d="m3504460 22682300s-993820 239540-1370740-1034290c0 0 988040-152410 1370740 1034290z" fill="#00923f" stroke="#1f1a17" stroke-width="20320"/>
   <g id="g154">
    <path id="_62087640" d="m3864280 23215800s34310-87100 0-190560c-34280-103410-525480-549810-308430-1235720 217040-691360 217040-772990 217040-772990s251300 549800 199890 1219380c-57090 669570-17110 756680-17110 756680s-57080 87130-39980 136110z" fill="#00923f"/>
    <path id="_62086816" d="m3864280 23215800s34310-87100 0-190560c-34280-103410-525480-549810-308430-1235720 217040-691360 217040-772990 217040-772990s251300 549800 199890 1219380c-57090 669570-17110 756680-17110 756680s-57080 87130-39980 136110" fill="none" stroke="#1f1a17" stroke-width="20320"/>
   </g>
   <g id="g158">
    <path id="_62085088" d="m4269790 23869100c-119950-277630-525460-832860-1901950-805650 0 0 753920 1333710 1896250 979860z" fill="#00923f"/>
    <path id="_62084096" d="m4269790 23869100c-119950-277630-525460-832860-1901950-805650 0 0 753920 1333710 1896250 979860" fill="none" stroke="#1f1a17" stroke-width="20320"/>
   </g>
   <g id="g162">
    <path id="_62082368" d="m2796220 21201600c-222750-10910-1096590-108890-1530670-941790 0 0 1159450 27220 1542070 838340z" fill="#00923f"/>
    <path id="_62081576" d="m2796220 21201600c-222750-10910-1096590-108890-1530670-941790 0 0 1159450 27220 1542070 838340" fill="none" stroke="#1f1a17" stroke-width="20320"/>
   </g>
   <g id="g166">
    <path id="_62079312" d="m2539200 20417700c-222750 27220-702500 27220-1039490-402860-451210-566150-651130-909100-651130-909100s685390 136080 993830 342950c234190 157890 616850 560710 765320 849250z" fill="#00923f"/>
    <path id="_62077800" d="m2539200 20417700c-222750 27220-702500 27220-1039490-402860-451210-566150-651130-909100-651130-909100s685390 136080 993830 342950c234190 157890 616850 560710 765320 849250" fill="none" stroke="#1f1a17" stroke-width="20320"/>
   </g>
   <g id="g170">
    <path id="_62076040" d="m2773390 20896800c-91420-277670-376950-1339180 531180-1981530 0 0 199890 789330 108500 1170410-85670 359280-39960 740320-542580 860080z" fill="#00923f"/>
    <path id="_62075040" d="m2773390 20896800c-91420-277670-376950-1339180 531180-1981530 0 0 199890 789330 108500 1170410-85670 359280-39960 740320-542580 860080" fill="none" stroke="#1f1a17" stroke-width="20320"/>
   </g>
   <path id="_62073520" d="m2527790 19688300s611120-772980 376970-1132270c0 0-736810 288540-451200 1115970z" fill="#00923f" stroke="#1f1a17" stroke-width="20320"/>
   <path id="_62072728" d="m2219360 18811900s57130-936350 234200-1186750c199890-272190 365520-724010 742470-892790 0 0-91380 1562350-976670 2079540z" fill="#00923f" stroke="#1f1a17" stroke-width="20320"/>
   <g id="g176">
    <path id="_62071936" d="m1985210 16574500c-17150-65310-91390-119760-142800-136110-51390-16310-719670-255830-633980-1823630 0 0 851020 811120 742520 1736570l51370 141510z" fill="#00923f"/>
    <path id="_62071144" d="m1985210 16574500c-17150-65310-91390-119760-142800-136110-51390-16310-719670-255830-633980-1823630 0 0 851020 811120 742520 1736570l51370 141510" fill="none" stroke="#1f1a17" stroke-width="20320"/>
   </g>
   <g id="g180">
    <path id="_62069032" d="m2025170 17783000s0-70740-57110-87090c-108500-38100-616820 38130-1045210-1034300-291280-724020-165610-789370-108500-1154060 0 0 485470 206870 828170 914530 342690 702230 274150 963540 342690 1132320l91390 157860z" fill="#00923f"/>
    <path id="_62067944" d="m2025170 17783000s0-70740-57110-87090c-108500-38100-616820 38130-1045210-1034300-291280-724020-165610-789370-108500-1154060 0 0 485470 206870 828170 914530 342690 702230 274150 963540 342690 1132320l91390 157860" fill="none" stroke="#1f1a17" stroke-width="20320"/>
   </g>
   <g id="g184">
    <path id="_62066392" d="m2110860 17282200s74240-70790 91390-136110c17110-70760 165590-1034340 1085170-1241160 0 0-57120 996200-1028080 1426240l-125620 87110z" fill="#00923f"/>
    <path id="_62065600" d="m2110860 17282200s74240-70790 91390-136110c17110-70760 165590-1034340 1085170-1241160 0 0-57120 996200-1028080 1426240l-125620 87110" fill="none" stroke="#1f1a17" stroke-width="20320"/>
   </g>
   <g id="g188">
    <path id="_62063816" d="m2145140 16628900c5700-43570 11400-92540 22810-157860 0 0 79980-892780 502650-1028860 108500-32700 434050-397430 508320-446390 0 0 142780 1273810-1028080 1752870z" fill="#00923f"/>
    <path id="_62063024" d="m2145140 16628900c5700-43570 11400-92540 22810-157860 0 0 79980-892780 502650-1028860 108500-32700 434050-397430 508320-446390 0 0 142780 1273810-1028080 1752870" fill="none" stroke="#1f1a17" stroke-width="20320"/>
   </g>
   <g id="g192">
    <line id="_62061312" x1="2196510" x2="2196510" y1="14990300" y2="14990300" fill="#00923f"/>
    <line id="_62060248" x1="2196510" x2="2196510" y1="14990300" y2="14990300" fill="none" stroke="#1f1a17" stroke-width="20320"/>
   </g>
   <g id="g196">
    <path id="_62058464" d="m2196510 14990300c-137060-70750-565440-315710-645380-729440-85690-500850 39960-1273830 39960-1273830s605420 538900 668250 827420c45710 206870 114250 489970-11410 1143200z" fill="#00923f"/>
    <path id="_62057672" d="m2196510 14990300c-137060-70750-565440-315710-645380-729440-85690-500850 39960-1273830 39960-1273830s605420 538900 668250 827420c45710 206870 114250 489970-11410 1143200" fill="none" stroke="#1f1a17" stroke-width="20320"/>
   </g>
   <g id="g200">
    <path id="_62055224" d="m2276490 15338700s125650-54430 199890-32650c68570 16350 1028080-261320 1205120-1203070 0 0-194190-185080-719670 359300-525430 549800-434040 566150-508270 653250l-159920 119760z" fill="#00923f"/>
    <path id="_62053896" d="m2276490 15338700s125650-54430 199890-32650c68570 16350 1028080-261320 1205120-1203070 0 0-194190-185080-719670 359300-525430 549800-434040 566150-508270 653250l-159920 119760" fill="none" stroke="#1f1a17" stroke-width="20320"/>
   </g>
   <path id="_62052120" d="m2310750 14854200s-108500-713100 559740-1094180c668250-375600 508320-190510 902400-495360 0 0 171360 631470-668240 1028860-108540 54450-719660 321190-793900 560680z" fill="#00923f" stroke="#1f1a17" stroke-width="20320"/>
   <path id="_62050936" d="m2384990 14103000s-491170-653250-434040-1066990c51370-408250 199890-598770 217000-685920 0 0 251350 299410 325580 587940 34260 136110 177070 549800-108540 1164970z" fill="#00923f" stroke="#1f1a17" stroke-width="20320"/>
   <g id="g206">
    <path id="_62049912" d="m2653450 13417100s17150-174200 17150-223180c0-54430-325590-430030-302760-876440 17150-446390 159950-1017970 342740-1344610 0 0 159910 381080 217040 484490 51370 103410 268410 892750-74280 1497040 0 0-108500 103420-125660 288500z" fill="#00923f"/>
    <path id="_62049120" d="m2653450 13417100s17150-174200 17150-223180c0-54430-325590-430030-302760-876440 17150-446390 159950-1017970 342740-1344610 0 0 159910 381080 217040 484490 51370 103410 268410 892750-74280 1497040 0 0-108500 103420-125660 288500" fill="none" stroke="#1f1a17" stroke-width="20320"/>
   </g>
   <g id="g210">
    <path id="_62047352" d="m3270310 12094300v-103410s-616860-517150 0-1497030c0 0 593970 582460 159880 1393570 0 0-51380 87110-91390 168780z" fill="#00923f"/>
    <path id="_62046560" d="m3270310 12094300v-103410s-616860-517150 0-1497030c0 0 593970 582460 159880 1393570 0 0-51380 87110-91390 168780" fill="none" stroke="#1f1a17" stroke-width="20320"/>
   </g>
   <g id="g214">
    <path id="_62044712" d="m2853340 13313700s108490-32700 182780-32700c68530 0 611120-190520 793880-293930 177080-103410 468370-549800 576860-756710 0 0-439780 10910-725360 239520-125650 103450-628230 468180-793860 620600z" fill="#00923f"/>
    <path id="_62043640" d="m2853340 13313700s108490-32700 182780-32700c68530 0 611120-190520 793880-293930 177080-103410 468370-549800 576860-756710 0 0-439780 10910-725360 239520-125650 103450-628230 468180-793860 620600" fill="none" stroke="#1f1a17" stroke-width="20320"/>
   </g>
   <g id="g218">
    <path id="_62042120" d="m3087530 12747500s91390-87110 217040-87110c125620 0 976640-582470 1102290-1241160 0 0-616820-32700-1010900 636910-399850 675010-291310 549800-325580 604250z" fill="#00923f"/>
    <path id="_62040832" d="m3087530 12747500s91390-87110 217040-87110c125620 0 976640-582470 1102290-1241160 0 0-616820-32700-1010900 636910-399850 675010-291310 549800-325580 604250" fill="none" stroke="#1f1a17" stroke-width="20320"/>
   </g>
   <path id="_61766120" d="m4406860 10423000s0-1050640 828200-1409890c0 0 182780 892750-828200 1409890z" fill="#00923f" stroke="#1f1a17" stroke-width="20320"/>
   <g id="g223">
    <path id="_62038320" d="m3847130 11114400s-416940-1137700 811040-2014190c0 0 68530 1208550-748180 1954350z" fill="#00923f"/>
    <path id="_62037328" d="m3847130 11114400s-416940-1137700 811040-2014190c0 0 68530 1208550-748180 1954350" fill="none" stroke="#1f1a17" stroke-width="20320"/>
   </g><g fill="#00923f" stroke="#1f1a17" stroke-width="20320">
   <path id="_62035664" d="m4909480 10080100s902440 0 1427870-446360c0 0-1028060-206860-1427870 446360z"/>
   <path id="_62034672" d="m5215050 9479270s217040-963540 851020-1066990c0 0-91390 805680-851020 1066990z"/>
   <path id="_62033648" d="m6354500 8926010s536880 244970 1256540-223220c0 0-936700-168760-1256540 223220z"/>
   <path id="_62032656" d="m10426800 7499720s34260 549860-1193710 566160c0 0 325540-533490 1193710-566160z"/>
   <path id="_62031864" d="m7268350 7690280s-862470 702230-839570 1115960c0 0 445450-223210 553990-255870 102800-38100 359800-430050 285580-860090z"/>
   <path id="_62030872" d="m7216920 8359860s68540-620610 753920-740370c0 0 108550 342980-753920 740370z"/>
   <path id="_62029880" d="m7034180 8495970s685360 174170 1587790-239530c0 0-845310-293970-1587790 239530z"/>
   <path id="_62028888" d="m7810930 8104020s342700-451870 1045190-381080c0 0-325540 446400-1045190 381080z"/></g><g fill="none" stroke="#1f1a17" stroke-width="10160">
   <line id="_62027800" x1="8930410" x2="7828090" y1="28033500" y2="28289400"/>
   <path id="_62026832" d="m8027980 27636200s-1245100 342930-1393610 359280"/>
   <path id="_62025864" d="m6999880 27102700s-970920 54440-1130850 103420"/>
   <path id="_62024896" d="m8330690 27342200s-359850-734920-451240-838330"/>
   <path id="_62023928" d="m7668160 27053600s-542630-1241160-651130-1306490"/>
   <path id="_62022960" d="m5760490 26209900s-759630-54440-1410710-223170"/>
   <path id="_62021968" d="m5326450 25779800s-525480-239530-633980-261320c-108540-16300-736800-326580-828190-408250"/>
   <path id="_62021000" d="m4641060 24745500s-1227990-495400-1393650-517190"/>
   <path id="_62020032" d="m4515410 24075900s-308440-996160-108550-1322830"/>
   <path id="_62019064" d="m4149840 23923500s-1462120-691360-1622050-778470"/>
   <path id="_62018096" d="m3847130 22872800s-165630-1186700-39980-1448020"/>
   <line id="_62016976" x1="3378810" x2="2544950" y1="22578900" y2="21893000"/>
   <path id="_62016008" d="m2853340 20858700s359810-1497080 434080-1703900"/>
   <path id="_62015040" d="m2727680 21098200s-491170-462710-1353630-756680"/>
   <path id="_62014072" d="m2510640 19584800s74290-511710 359850-838340"/>
   <path id="_62013072" d="m1099930 19312700s1033790 876440 1353630 996200"/>
   <path id="_62012104" d="m2345010 18621300s633980-1529700 759640-1682130"/>
   <path id="_62011136" d="m1968060 17641400s-1045210-1355490-1062360-1976090"/>
   <path id="_62010168" d="m2276490 17195000s793890-979850 902430-1132280"/>
   <path id="_62009168" d="m2293640 16574500s633980-876430 759630-1306480"/>
   <path id="_62008200" d="m1876670 16302300s-502620-794770-593970-1513350"/>
   <path id="_62007232" d="m2436400 15235300s959560-566150 1136600-1045200"/>
   <path id="_62006240" d="m2384990 14669200s371250-587940 668280-669610c325540-81630 685390-631480 685390-631480"/>
   <path id="_62005272" d="m1642520 13210200s434080 1611370 542580 1682130"/>
   <line id="_62004184" x1="2202250" x2="2384990" y1="12540700" y2="13917900"/>
   <path id="_62003216" d="m2727680 11147100s91400 1703870 17160 1872630"/>
   <path id="_62002248" d="m2887640 13210200s1262200-740360 1393570-860120"/>
   <path id="_62001280" d="m3230300 12573300s868180-1012550 1068070-1050640"/>
   <path id="_62000312" d="m3304570 10662600s34230 1105050 34230 1224810"/>
   <path id="_61999344" d="m3938550 10907500s519730-1616800 645380-1654940"/>
   <line id="_61998392" x1="4566770" x2="5183640" y1="10216200" y2="9132870"/>
   <line id="_61997440" x1="5323600" x2="6066070" y1="9337720" y2="8412280"/>
   <line id="_61996488" x1="5160790" x2="6337350" y1="9992970" y2="9633710"/>
   <path id="_61995520" d="m6480150 8789900s736770-876450 771050-1012510"/>
   <path id="_61994552" d="m6405880 8909660s953850-168740 1079510-190520"/>
   <path id="_61993584" d="m7142680 8463270s1296530-174170 1387900-190520"/>
   <path id="_61992584" d="m7268350 8310840s668230-587900 685390-636910"/>
   <line id="_61991632" x1="7919480" x2="8856120" y1="8065880" y2="7722940"/>
   <line id="_61990680" x1="8262130" x2="9164560" y1="8104020" y2="7929800"/>
   <line id="_61989592" x1="10426800" x2="9307330" y1="7499720" y2="8065880"/>
   <path id="_61988592" d="m11437800 28496200s245600 430040 199920 517150"/>
   <path id="_61987624" d="m11574800 28539800s205640 386510 194240 479050"/>
   <path id="_61986656" d="m11689100 28572500s245600 397390 245600 511710"/>
   <path id="_61985688" d="m11843300 28626900s217040 255870 217040 506280"/>
   <path id="_61984720" d="m11986000 28626900s211340 391950 199890 533540"/>
   <path id="_61983696" d="m12094600 28659600s217000 413690 217000 522580"/>
   <line id="_61982744" x1="12140200" x2="10780900" y1="28675900" y2="28343800"/>
   <line id="_61981656" x1="10798100" x2="12077500" y1="28392800" y2="28735800"/>
   </g><g id="g283">
    <path id="_61980648" d="m4029890 11174300c154230 59890 536880 108860 1188010-511710 0 0-696790-206870-1216560 408260z" fill="#00923f"/>
    <path id="_61979656" d="m4029890 11174300c154230 59890 536880 108860 1188010-511710 0 0-696790-206870-1216560 408260" fill="none" stroke="#1f1a17" stroke-width="20320"/>
   </g>
   <path id="_61977992" d="m4475430 10466600s639680-538930 1227990-283090c0 0-451240 566150-1227990 283090z" fill="#00923f" stroke="#1f1a17" stroke-width="20320"/><g fill="none" stroke="#1f1a17" stroke-width="10160">
   <path id="_61977000" d="m10510900 7465530s921120-149470 1052570-217230c132420-60850 1011910-296410 1011910-296410"/>
   <path id="_61975968" d="m4098480 11130700s885270-446390 1045200-397380"/>
   <line id="_61975016" x1="4583930" x2="5669110" y1="10461100" y2="10216200"/>
   </g><g id="g291">
    <path id="_61974016" d="m7810930 27429300s-936700 430040-1513520 70760c0 0 485470-293970 1422130-174210z" fill="#00923f"/>
    <path id="_61973024" d="m7810930 27429300s-936700 430040-1513520 70760c0 0 485470-293970 1422130-174210" fill="none" stroke="#1f1a17" stroke-width="20320"/>
   </g>
   <line id="_61971176" x1="7559620" x2="6600100" y1="27412900" y2="27516400" fill="none" stroke="#1f1a17" stroke-width="10160"/>
   <g id="g296">
    <path id="_61970176" d="m6143200 26079200s97100-805680-376970-1328310c0 0-491200 348410 319840 1268420z" fill="#00923f"/>
    <path id="_61969184" d="m6143200 26079200s97100-805680-376970-1328310c0 0-491200 348410 319840 1268420" fill="none" stroke="#1f1a17" stroke-width="20320"/>
   </g>
   <path id="_61967472" d="m6086070 25932200s-302710-528020-308460-1061560" fill="none" stroke="#1f1a17" stroke-width="10160"/>
   <g id="g301">
    <path id="_61966472" d="m5749080 25714500s291280-985330-422630-1622240c0 0-839620 462710 279830 1556890z" fill="#00923f"/>
    <path id="_61965480" d="m5749080 25714500s291280-985330-422630-1622240c0 0-839620 462710 279830 1556890" fill="none" stroke="#1f1a17" stroke-width="20320"/>
   </g>
   <path id="_61963808" d="m5669110 25534900s-422630-789320-342660-1295590" fill="none" stroke="#1f1a17" stroke-width="10160"/>
   <g id="g306">
    <path id="_61962808" d="m6771430 26612700s102800-789380-279830-1328270c0 0-525480 304800 177030 1295570z" fill="#00923f"/>
    <path id="_61961816" d="m6771430 26612700s102800-789380-279830-1328270c0 0-525480 304800 177030 1295570" fill="none" stroke="#1f1a17" stroke-width="20320"/>
   </g><g fill="none" stroke="#1f1a17" stroke-width="10160">
   <path id="_61960176" d="m6674340 26498400s-228450-664140-182740-1088740"/>
   <path id="_61959208" d="m10952300 28485400s45670 114290-91390 266750"/>
   <path id="_61957608" d="m11049400 28496200s5710 157900-91390 283090"/>
   </g><path id="_61164152" d="m2138210 18314900s-982230-103530-1158700-721180c0 0 810840-2910 1158700 721180z" fill="#00923f" stroke="#1f1a17" stroke-width="20320"/>
   <line id="_59550104" x1="1985010" x2="979510" y1="18223600" y2="17593700" fill="none" stroke="#1f1a17" stroke-width="10160"/>
  </g><path id="path315" d="m17842400 17373200c0 5159380-3287490 9343450-7341290 9343450s-7341290-4184070-7341290-9343450 3287490-9343450 7341290-9343450 7341290 4184070 7341290 9343450z" fill="#ffffff"/><g id="g317" clip-path="url(#id0)" transform="scale(10)">
   <g id="_59256688">
    <rect id="_61727848" x="-3574.85" y="326934" width="2109330" height="1394160" fill="#75aadb"/>
    <g id="g321" stroke="#1f1a17">
     <g id="g323">
      <path id="_61724904" d="m893929 1063520s-22737 75283-38905 152083c-16169 76796-22232 70229-19200 130857 0 0-28798 47494 201090 47494 207661 0 178859-47494 178859-47494s-8589-103576-21726-119742c0 0 5557-103580-29307-135913 0 0-3532-63663-41428-85894 0 0-6567-54569-60631-60632 0 0-22736-25766-60628-25766 0 0-67198 19200-79831 31829 0 0-67198 57600-79828 79831 0 0-44970 9599-28802 41936 15665 31829 70230 12633 66695-6567 0 0 51029-6570 73768-25770 0 0 0-19197-22739-22232 0 0 22739 9602 22739 22232v0s51026 32337 89426 6570c0 0-39913 27285-89426-6570 11116 8083 0 0 0 0s-35874 23748-60126 23748z" fill="#da251d" stroke-width="3302"/>
      <g id="g326" fill="none" stroke-width="762">
       <path id="_61723912" d="m846940 1088780s16165-5558 17682-16169"/>
       <path id="_61722920" d="m834815 1087770s13134-6567 16168-12630"/>
       <path id="_61721928" d="m821172 1080690s6063 505 12126-4040"/>
       <path id="_61720936" d="m814098 1072110s5557 3031 12128-2526"/>
       <path id="_61719944" d="m878264 1056950s4550 4545 13139 6063"/>
       <path id="_61718952" d="m885340 1050380s12629 10107 25263 9601"/>
       <path id="_61717952" d="m903527 1046340s9602 8589 21726 8589"/>
       <path id="_61716960" d="m945971 1010460s-5557 8085 1514 15157"/>
       <path id="_61715968" d="m954055 1018550s-4043 15156 502 20713"/>
       <path id="_61714976" d="m963653 1026130s-6567 11624 0 18696"/>
       <path id="_61713952" d="m973757 1033710s-4041 9602 5053 16674"/>
       <path id="_61712960" d="m842899 1028650s11117-4039 17682-504"/>
       <path id="_61711968" d="m851488 1018550s10608-3539 18695 0"/>
       <path id="_61710976" d="m863613 1005410s11620-4550 21727-1518"/>
       <path id="_61709952" d="m878264 990255s10107-4043 18191 2527"/>
       <path id="_61708960" d="m980327 925580s17683-3027 27789 5054"/>
       <path id="_61707968" d="m962136 932151s26276-4546 36382 1009"/>
       <path id="_61706976" d="m946472 937201s32842-5050 41940 3035"/>
       <path id="_61705952" d="m936369 941749s31830-4548 39914 4041"/>
       <path id="_61704960" d="m929799 945790s26275-2524 34359 5561"/>
       <path id="_61703968" d="m922222 952360s21218-4044 26272 3536"/>
       <path id="_61702976" d="m913129 958423s17683-3031 23240 4043"/>
       <path id="_61701952" d="m906053 965497s15157-3031 21728 2528"/>
       <path id="_61700960" d="m898981 972064s15157-3535 19200 1518"/>
       <path id="_61699968" d="m889381 980149s9600-4044 19200 1517"/>
       <path id="_61698976" d="m1018720 920023s8593 5056 7580 14654"/>
       <path id="_61697984" d="m1035910 925580s10607 11621 10607 17686"/>
       <path id="_61696992" d="m1060660 943266s5052 6568 5561 16674"/>
       <path id="_61696000" d="m1076830 947307s6572 18190 1518 27792"/>
       <path id="_61695008" d="m1090470 953877s4043 17178 504 26272"/>
       <path id="_61694016" d="m1106130 968025s6567 25767-4548 49007"/>
       <path id="_61693024" d="m1111190 1037750c8085-17178 8589-46485 8589-46485"/>
       <path id="_61692032" d="m1130390 1010970s0 37895-13643 57095"/>
       <path id="_61691040" d="m1142510 1022590s8589 36378-15159 77305"/>
       <path id="_61690048" d="m1158180 1055940s-2526 40926-27789 69220"/>
       <path id="_61689056" d="m1166260 1090800s-27789 67194-39914 81849"/>
       <path id="_61688064" d="m1173330 1104440s-15155 59110-45470 89426"/>
       <path id="_61687072" d="m1182430 1120610s-10608 50020-42441 78818"/>
       <path id="_61686080" d="m1190010 1151940s-15159 39914-37387 58606"/>
       <path id="_61685088" d="m1193540 1176700s-1514 26271-17178 37891"/>
       <path id="_61684096" d="m1067230 1174170s-27285 19702-46485 23745"/>
       <path id="_61683104" d="m1027320 1185780s-23748 13141-35874 15159"/>
       <path id="_61682112" d="m1076830 1181240s-12628 12630-31828 17686"/>
       <path id="_61681120" d="m1087940 1185780s-12125 9602-21723 13642"/>
       <path id="_61680128" d="m1099060 1189830s-8589 9097-16674 11115"/>
      </g>
      <g id="g373" fill="none" stroke-width="762">
       <line id="_61678480" x1="1116750" x2="1098560" y1="983180" y2="999349"/>
       <line id="_61677504" x1="1103100" x2="1088960" y1="964990" y2="973582"/>
       <line id="_61676528" x1="1109670" x2="1090470" y1="970551" y2="981666"/>
       <path id="_61675536" d="m1112700 976105s-14146 12633-19704 14150"/>
       <path id="_61674544" d="m1120790 992782s-16674 17682-20209 17682"/>
       <line id="_61673568" x1="1123310" x2="1100580" y1="1005410" y2="1024610"/>
       <path id="_61672576" d="m1130390 1010970s-18191 18695-21726 21727"/>
       <line id="_61671600" x1="1138470" x2="1110180" y1="1017540" y2="1046340"/>
       <line id="_61670624" x1="1145540" x2="1113710" y1="1028150" y2="1058460"/>
       <line id="_61669648" x1="1152110" x2="1116750" y1="1039260" y2="1072110"/>
       <line id="_61668664" x1="1194050" x2="1182430" y1="1210540" y2="1219640"/>
       <line id="_61667688" x1="1194050" x2="1170300" y1="1200440" y2="1216100"/>
       <path id="_61666696" d="m1193540 1186800s-32843 27285-36882 27285"/>
       <path id="_61665704" d="m1193540 1173160s-40923 35368-49008 35873"/>
       <path id="_61664712" d="m1192030 1160530s-32842 31830-47998 39914"/>
       <path id="_61663720" d="m1188490 1147890s-45471 43957-52546 44462"/>
       <path id="_61662728" d="m1186980 1134760s-47998 44967-52042 44967"/>
       <line id="_61661752" x1="1182930" x2="1130390" y1="1126170" y2="1167600"/>
       <path id="_61660744" d="m1180410 1116570s-30824 26271-44466 35368"/>
       <path id="_61659784" d="m1175860 1106970s-27789 23244-37391 30316"/>
       <path id="_61658792" d="m1167780 1096860s-19200 18696-33347 27790"/>
       <path id="_61657800" d="m1164740 1084740s-21723 22228-37387 30820"/>
       <path id="_61656776" d="m1162220 1072610s-24757 27789-46989 37391"/>
       <path id="_61655784" d="m1159190 1063010s-24758 24252-37896 28798"/>
       <path id="_61654792" d="m1155650 1050380s-19709 20718-34361 30315"/>
      </g>
      <g id="g400" fill="none" stroke-width="762">
       <line id="_61653144" x1="891403" x2="910098" y1="1076650" y2="1071100"/>
       <line id="_61652168" x1="887866" x2="912624" y1="1088780" y2="1080690"/>
       <line id="_61651192" x1="884327" x2="908581" y1="1099900" y2="1093330"/>
       <line id="_61650216" x1="878773" x2="903022" y1="1115560" y2="1105960"/>
       <line id="_61649240" x1="877255" x2="902009" y1="1126170" y2="1118080"/>
       <line id="_61648264" x1="873211" x2="900496" y1="1140310" y2="1129200"/>
       <line id="_61647288" x1="870183" x2="894938" y1="1152440" y2="1142840"/>
       <line id="_61646312" x1="867149" x2="889885" y1="1166080" y2="1157500"/>
       <line id="_61645336" x1="863105" x2="885340" y1="1181240" y2="1170630"/>
       <line id="_61644328" x1="860581" x2="885844" y1="1191850" y2="1182250"/>
       <line id="_61643352" x1="859064" x2="884327" y1="1201960" y2="1193360"/>
       <line id="_61642376" x1="856542" x2="890894" y1="1210040" y2="1199430"/>
      </g>
      <g id="g414" fill="none" stroke-width="762">
       <path id="_61640712" d="m941927 1058460s16169-10611 18187-14650"/>
       <path id="_61639712" d="m948999 1067050s19200-13641 21730-17682"/>
       <path id="_61638720" d="m954557 1075640s22739-13138 28801-21218"/>
       <path id="_61637728" d="m974769 1080690s19197-19200 20714-23745"/>
       <path id="_61636736" d="m986390 1085240s21218-19705 23244-27790"/>
       <path id="_61635736" d="m1010640 1080690s10103-12630 13639-25767"/>
       <path id="_61634744" d="m1028330 1075140s8589-10611 9598-24252"/>
      </g>
     </g><g fill="none" stroke-width="762">
     <line id="_61632424" x1="889381" x2="857551" y1="1318670" y2="1361620"/>
     <path id="_61631432" d="m1083400 1379300s26272 10611 50020 8084"/>
     <path id="_61630440" d="m1094510 1373240s34357 15155 73261 10103"/>
     <path id="_61629448" d="m1132910 1372220s30820 16677 71744-6063"/>
     <path id="_61628456" d="m1152110 1364140s38905 9602 56591-3537"/>
     <line id="_61627480" x1="1152110" x2="1096030" y1="1322710" y2="1388900"/>
     <line id="_61626504" x1="1160700" x2="1113710" y1="1325740" y2="1384350"/>
     <line id="_61625528" x1="1172830" x2="1130890" y1="1330290" y2="1380310"/>
     <line id="_61624552" x1="1182930" x2="1146050" y1="1335850" y2="1381830"/>
     <line id="_61623576" x1="1194050" x2="1172830" y1="1341910" y2="1376270"/>
     <line id="_61622600" x1="1205160" x2="1192530" y1="1346460" y2="1368180"/>
     <path id="_61621608" d="m847949 1366160c2526-6062 13138-9598 18695-12124"/>
     <path id="_61620616" d="m860077 1372730c0-2023 5054-5054 6567-5559"/>
     <path id="_61618992" d="m1211230 1353020c504 5053-3537 7579-7072 9602"/>
    </g></g>
    <path id="_61618120" d="m1064850 1261840v1335360c-31593 63786-61403 3576-61403 3576v-1338930s61403-27939 61403 0z" fill="#8f5444" stroke="#1f1a17" stroke-width="3302"/>
    <g id="g438" stroke="#1f1a17">
     <g id="g440">
      <g id="g442">
       <path id="_61616696" d="m834815 1353530c6566-28802 113679-59115 203108-59115 90948 0 177850 49513 179363 57596 1013 4549-8080-107616-19196-123785-8084-11620-116209-27285-115704-27285-19200 0-15156-1517-53557-2018-66693-1013-160163 22228-168248 25259-8083 3539-20713-7072-26274 56591-7072 77809 508 72757 508 72757z" fill="#da251d" stroke-width="3302"/><g fill="none" stroke-width="762">
       <line id="_61615688" x1="1198090" x2="1147060" y1="1228230" y2="1239340"/>
       <line id="_61614712" x1="1202130" x2="1159190" y1="1237320" y2="1249950"/>
       <line id="_61613736" x1="1206170" x2="1157670" y1="1249950" y2="1264100"/>
       <line id="_61612760" x1="1207690" x2="1149580" y1="1262080" y2="1282790"/>
       <line id="_61611752" x1="1210720" x2="1167270" y1="1276230" y2="1290370"/>
       <line id="_61610776" x1="1213250" x2="1166260" y1="1290370" y2="1309070"/>
       <line id="_61609800" x1="1215770" x2="1174850" y1="1306540" y2="1324230"/>
       <line id="_61608824" x1="1217290" x2="1189500" y1="1323220" y2="1333830"/>
       <line id="_61607848" x1="1218300" x2="1207180" y1="1338370" y2="1343430"/>
       <line id="_61606872" x1="1053080" x2="1026300" y1="1214080" y2="1229740"/>
       <line id="_61605896" x1="1058640" x2="1035910" y1="1219640" y2="1230760"/>
       <line id="_61604920" x1="1057630" x2="1.045e6" y1="1228230" y2="1234800"/>
       <line id="_61603944" x1="1065710" x2="1052070" y1="1229740" y2="1237830"/>
       <line id="_61602968" x1="1078350" x2="1064200" y1="1230760" y2="1239340"/>
       <line id="_61601992" x1="1087940" x2="1075310" y1="1233280" y2="1240350"/>
       <line id="_61601016" x1="1100070" x2="1090470" y1="1234800" y2="1239340"/>
       <line id="_61600040" x1="1109670" x2="1103100" y1="1236310" y2="1240350"/>
       <line id="_61599056" x1="858055" x2="872707" y1="1225200" y2="1229740"/>
       <line id="_61598080" x1="846940" x2="867149" y1="1229740" y2="1236310"/>
       <line id="_61597104" x1="842899" x2="863613" y1="1237320" y2="1245910"/>
       <line id="_61596128" x1="840373" x2="855529" y1="1244900" y2="1252480"/>
       <line id="_61595120" x1="838351" x2="851488" y1="1252480" y2="1259550"/>
       <line id="_61594144" x1="836329" x2="847949" y1="1261070" y2="1265620"/>
       <line id="_61593168" x1="834815" x2="845422" y1="1269660" y2="1274710"/>
       <line id="_61592192" x1="834307" x2="843909" y1="1280780" y2="1284820"/>
       <line id="_61591184" x1="834307" x2="842899" y1="1289870" y2="1295430"/>
       <line id="_61590208" x1="833298" x2="841381" y1="1298460" y2="1303510"/>
      </g></g>
      <g id="g472" fill="none" stroke-width="762">
       <line id="_61588560" x1="1167780" x2="1202130" y1="1227720" y2="1238840"/>
       <line id="_61587584" x1="1158180" x2="1206170" y1="1231760" y2="1250460"/>
       <line id="_61586600" x1="1156660" x2="1207180" y1="1241870" y2="1260060"/>
       <line id="_61585624" x1="1161210" x2="1209210" y1="1251470" y2="1272190"/>
       <line id="_61584648" x1="1161210" x2="1213250" y1="1265620" y2="1286840"/>
       <line id="_61583672" x1="1164740" x2="1214260" y1="1277740" y2="1299470"/>
       <line id="_61582696" x1="1174340" x2="1214760" y1="1294420" y2="1311090"/>
       <line id="_61581720" x1="1168780" x2="1215770" y1="1301990" y2="1324730"/>
       <line id="_61580744" x1="1174850" x2="1216280" y1="1316140" y2="1336860"/>
      </g>
     </g><g fill="none"><g stroke-width="762">
     <path id="_61578408" d="m1089460 1307550s53050 24757 72755 25262"/>
     <line id="_61577432" x1="947485" x2="986390" y1="1334330" y2="1297950"/>
     <line id="_61576456" x1="966685" x2="931316" y1="1299970" y2="1333830"/>
     <line id="_61575480" x1="941927" x2="912624" y1="1305030" y2="1339890"/>
     <line id="_61574504" x1="922222" x2="889381" y1="1309570" y2="1352010"/>
     <line id="_61573528" x1="905044" x2="873211" y1="1313610" y2="1358580"/>
     <line id="_61572552" x1="867149" x2="850983" y1="1327260" y2="1350500"/>
     <line id="_61571576" x1="1065710" x2="1090980" y1="1319170" y2="1301990"/>
     <line id="_61570568" x1="1066220" x2="1102600" y1="1326750" y2="1304020"/>
     <line id="_61569592" x1="1067230" x2="1115730" y1="1336860" y2="1307550"/>
     <line id="_61568616" x1="1068750" x2="1127350" y1="1346460" y2="1312100"/>
     <path id="_61567624" d="m1074300 1327260s64676 31328 119241 24757"/>
     <path id="_61566600" d="m1075310 1317150s54061 30315 120250 29302"/>
     <path id="_61565608" d="m1074300 1307550s56087 30315 97518 32337"/>
     <line id="_61564776" x1="959614" x2="1005590" y1="1339380" y2="1296940"/>
     <path id="_61563784" d="m1006600 1312100s34863-7075 52546 1514"/>
     </g><path id="_61562760" d="m840373 1350500s50521-52546 199572-52546c20715 0 104589 6061 174819 56587" stroke-width="1270"/><g stroke-width="762">
     <path id="_61561768" d="m1005590 1307550s18691-9598 53555-1009"/>
     <path id="_61560744" d="m845931 1352010s64167-50020 190983-50020c86903 0 152587 41432 174815 55578"/>
     <path id="_61559720" d="m884327 1335850s85389-33852 153596-28293c67707 5557 112169 18191 157133 46989"/>
     <path id="_61558696" d="m840877 1360600c504-6566 6567-9598 11621-11620 9598-3535 19200-7071 29811-5557"/>
     <path id="_61557040" d="m1139480 1317150c-2022 2526-5054 3030-7076 5052-8085 10608-14651 20713-24253 29303"/>
    </g></g></g>
    <g id="g505" stroke="#1f1a17">
     <g id="g507"><g fill="#ef9ba0" stroke-width="3302">
      <path id="_61553512" d="m323842 2084520c19082-5367 118636-31593 144863-35769 26830-3576 94191-28017 107901-32188 13117-3581 97174-22059 138306-22059 41732 0 71538-20868 143672-30402 71538-9538 65572-13115 65572-13115s-67957 29807-45303 69747c22649 39346 82862-4171 90610-7752 7752-3576 72728-30998 100750-32788 28016-1786 52460 6e2 71538 31002 19073 30406 35169 36960 45903 63189 8344 19078 40536 113865 14305 121614-8942 2385-21462 3577-40535-22654-18483-26230-69752-95977-69752-95977s81076 101345 85248 118631c3577 16692-12515 26231-29211 20268-54247-17883-58419-36364-95383-73325 0 0 53656 66769 90615 71540 20268 2980-22654 24439-38154 26229-14902 2386-47090-13114-94189-63789 0 0 51267 50675 85250 66175 0 0-38151 24436-87035-2386-48889-26229-73328-57827-105521-63789-31593-5363-88230-13116-112670-5363-24441 7154-79286 42923-111479 60209-31597 16692-116247 58419-131147 67366-14905 9534-101345 67959-120423 77496 0 0-48884-98958-63786-144862-20863-63189-39945-147248-39945-147248z"/>
      <path id="_61552432" d="m839506 2169170c-9539 0-20863 1190-19078 22059 1791 20863 10730 29805 22059 29805 11324 0 19673-6556 19673-25039 0-19077 9539-24440-22654-26825z"/>
      <path id="_61551352" d="m862755 2200760c595 15500-9539 22654 14306 31001 25636 8348 33983-4171 33983-22654 0-19077 10134-33387-20867-32192-16092 596-28017-14902-27422 23845z"/>
      <path id="_61550240" d="m909253 2216260c-595 11925-2980 30403 21459 33383 20869 2386 22059-17882 23849-25629 1791-7754-5961-25041-17886-32788-20863-14311-25631-12520-27422 25034z"/>
      <path id="_61549016" d="m954561 2224020c-1195 9534 7154 32188 26232 33978 19076 1790 33978-11329 28020-17288-3581-3575-47098-26825-54252-35768-5961-5963 1791 4171 0 19078z"/></g><g fill="none" stroke-width="1016">
      <line id="_61548040" x1="826986" x2="838316" y1="2172150" y2="2175720"/>
      <line id="_61547064" x1="821623" x2="836525" y1="2180500" y2="2187050"/>
      <line id="_61546056" x1="820428" x2="839506" y1="2191230" y2="2197790"/>
      <line id="_61545080" x1="826391" x2="840697" y1="2207920" y2="2209710"/>
      <line id="_61544104" x1="865736" x2="912236" y1="2179900" y2="2187050"/>
      <line id="_61543128" x1="865141" x2="909849" y1="2186460" y2="2194810"/>
      <line id="_61542120" x1="862160" x2="894948" y1="2.196e6" y2="2203150"/>
      <line id="_61541144" x1="862755" x2="888390" y1="2204940" y2="2209710"/>
      <line id="_61540168" x1="862160" x2="887200" y1="2215670" y2="2222820"/>
      <line id="_61539192" x1="916407" x2="930712" y1="2184670" y2="2189440"/>
      <line id="_61538216" x1="912831" x2="933698" y1="2191830" y2="2197790"/>
      <line id="_61537240" x1="911044" x2="923560" y1="2209110" y2="2210900"/>
      <line id="_61536264" x1="912236" x2="925946" y1="2221040" y2="2225210"/>
      <line id="_61535288" x1="912831" x2="930122" y1="2231770" y2="2235340"/>
      <line id="_61534312" x1="953366" x2="963500" y1="2212690" y2="2216260"/>
      <line id="_61533336" x1="954561" x2="969463" y1="2224020" y2="2227590"/>
      <line id="_61532360" x1="956352" x2="970659" y1="2236530" y2="2238920"/>
      <line id="_61531384" x1="963500" x2="979598" y1="2246670" y2="2248460"/>
      <line id="_61530408" x1="1093460" x2="1112540" y1="2080940" y2="2082730"/>
      <line id="_61529432" x1="1099420" x2="1115520" y1="2085710" y2="2091080"/>
      <line id="_61528456" x1="1110750" x2="1123870" y1="2100020" y2="2102400"/>
      <line id="_61527480" x1="1118500" x2="1129830" y1="2108370" y2="2111940"/>
      <line id="_61526504" x1="1126850" x2="1136980" y1="2119690" y2="2121480"/>
      <line id="_61525496" x1="1.134e6" x2="1145330" y1="2128630" y2="2132810"/>
      <line id="_61524520" x1="1141750" x2="1161420" y1="2141150" y2="2144130"/>
      <line id="_61523544" x1="1150100" x2="1172150" y1="2150690" y2="2156060"/>
      <path id="_61522552" d="m1156060 2160820s50671 9539 52461-4766"/>
      <path id="_61521528" d="m1162610 2168580s48884 5361 48884-2983"/>
      <path id="_61520536" d="m1166190 2173940s35769 10734 46500-595"/>
      <path id="_61519264" d="m1129830 2207920s45903-16095 41132-27425c0 0 33983 5962 40540 2386"/>
      <path id="_61518272" d="m1177520 2190030s22653 4771 29207 0"/>
      <path id="_61517264" d="m1057100 1990330s29211-11920 36364-9534"/>
      <path id="_61516272" d="m1105980 1983770c-12520-6562-31003 14305-31003 14305"/>
      <path id="_61515280" d="m1094650 1996890s16095-11925 26229-7157"/>
      <path id="_61514288" d="m1107170 2002850s16693-9539 23249-4768"/>
      <path id="_61513264" d="m1122080 2008210s10134-3576 14902-1790"/>
      <path id="_61512272" d="m1128640 2015960s9539-3576 14305-1786"/>
      <path id="_61511280" d="m1136380 2022520s8347-4768 13115 1195"/>
      <path id="_61510288" d="m1140560 2033850s9539-6558 15500-1790"/>
      <path id="_61509264" d="m1150100 2042190s7748-5363 13114-2982"/>
      <path id="_61508272" d="m1154870 2050540s10729-3576 14902-2385"/>
      <path id="_61507280" d="m1163210 2060080s11330-6558 14311-2981"/>
      <path id="_61506288" d="m1169170 2067830s10134-2981 14305-1191"/>
      <path id="_61505264" d="m1172150 2077960s13115-6558 15501-3578"/>
      <path id="_61504272" d="m1176920 2085710s10734-4771 13714-2981"/>
      <path id="_61503280" d="m1180500 2094060s10137-3576 13115-1786"/>
      <path id="_61502288" d="m1180500 2101800s13115-2980 16096 0"/>
      <path id="_61501264" d="m1187050 2110150s8348-1192 11924 0"/>
      <path id="_61500272" d="m1191820 2119690s6561-4171 10137 595"/>
      <path id="_61499280" d="m1195400 2128630s6557-2385 9539 2381"/>
      <path id="_61498288" d="m1198380 2137570s5363 6e2 8344 3576"/>
      <path id="_61497296" d="m1200170 2147710s7744 1195 9535 4771"/>
      <path id="_61496304" d="m1120290 2203150s44118-10134 42922-26230"/>
      <path id="_61495312" d="m1136980 2212690s37559-11324 35768-21458"/>
      <path id="_61494320" d="m1150100 2216260s25634-8939 26825-17883"/>
      <line id="_61493488" x1="1097630" x2="1162610" y1="2080940" y2="2165590"/>
      <path id="_61492496" d="m1017750 2178710s64981 64384 82862 60208"/>
      <path id="_61489824" d="m1057700 2224020c5958 2980 31593 19671 31593 19671s-23850 5958-28616 5958c-56632 0-104921-45903-112669-53651-32193-30998-122804-29211-122804-29211h-11329c-6559 0-29808-2382-123999 54250-4768 2983-12520 5963-16093 7749-3580 1790-5961 3577-11329 7749-5962 3580-10134 4175-14305 7156-3578 2978-17883 9539-23849 10726-5364 6e2 -10135 6562-14903 8947-4771 2978-22653 13707-25634 14307-2981 1191-18478 3576-23249 8347-4771 4768-25635 17883-25635 17883s-4768 4766-11324 9534c-6559 4771-16098 6562-21459 10734-5963 3576-12520 10730-15502 13710-2386 2981-41135 26230-57828 33384"/>
      <path id="_61486960" d="m323842 2087500c2986 1790 63194-16692 69752-16692 6554 0 38747-7749 42323-7749 3580 0 48883-6557 51866-8344 2980-1790 26230-6561 30405-7752 10135-3577 35764-14905 40532-16097 4176-595 11925-9537 20274-10134 8942-1194 70942-17886 83457-17886 6558 0 28022-8344 39346-4171 7749 3576 40535-3578 48289-3578 7153 0 37554-7152 44112-8344 6559-1195 24445-9542 31003-9542 6557 0 38745-3577 48884-1787 10729 1787 14305 1192 14305 1192l2982-5958s-64386-1195-93598 11324c-29210 12520-29805 8344-36364 8344-6558 0 14906-5363 19673-6553 4772-6e2 40540-13115 58423-13115s45308-2981 56633-3581c11329-1190 6558-6558 6558-6558s-15497 6558-44113 3581"/>
      <path id="_61485344" d="m385841 2071400s98364-19673 109694-20864c11324-595 69747-25039 69747-25039s6553-2981 13712-4768c7747-1790 17286-5962 17286-5962s-29211 5962-47094 14306c-17883 8348-36959 12524-42327 14907-5961 2980-33383 7747-40537 8942-7751 595-17290 2382-22654 4172-5961 2386-41730 10730-41730 10730s43518-16097 56633-16097"/>
      <path id="_61484344" d="m1082730 2243090s-32193 11321-75710-9542"/>
      <path id="_61483512" d="m1078560 2240110s-18481 6554-42925 595"/>
      <path id="_61482680" d="m1058880 2227590s27425 16095-17883 11324"/>
      <path id="_61239224" d="m1094650 2085710 6.2e4 85844c5961 16691-48886 25035-48886 25035"/>
      <path id="_61238624" d="m1066640 2154270s49480 59614 95978 61400"/>
      <path id="_61237376" d="m1027890 2184670s53652 56037 79881 53652c0 0 48886-15501 33984-19673-44713-14306-72733-51865-72733-51865"/>
      <path id="_61236384" d="m1138180 2217460s-24444 19074-41732 17883"/>
      <path id="_61235392" d="m1126850 2212090s-14902 19672-41731 17886"/>
      <path id="_61234400" d="m1118500 2207920s-22654 19674-44713 17288"/>
     </g></g>
     <g id="g583">
      <path id="_61231232" d="m1740870 2212690s-72730-33978-98960-41132c-9539-2980-32788-8348-79286-28617-13115-5366-114457-42920-184209-82862-69747-39346-125784-82267-192551-129957-13115-9542-35768-28020-47093-37559-11329-9539-42922-24440-81073-11325-37560 13115-109097 58418-138905 71533-30402 13117-56632 37556-39939 67962 17286 29807 51269 15497 79286-1790-1195 596 83457-35769 97767-35769 20864 0 58420-28611 111479 6.2e4 52457 90616 48881 110884 41132 146653 0 0 14906 7748 43518 7748 9539 0 48883 47094 107303 81077 58423 33978 221168 180631 256937 191956 0 0 45308-74520 66176-113865 37554-72725 58418-146053 58418-146053z" fill="#ef9ba0" stroke-width="3302"/>
      <path id="_61229776" d="m893158 1975420c8344-4766 45903-4766 50671 2982 5966 8347-7154 29211-21461 35769-23844 10730-39344 11920-42325 595-4768-18482-11329-25039 13115-39346z" fill="#ef9ba0" stroke-width="3302"/><g fill="none"><g stroke-width="1016">
      <path id="_61228784" d="m891967 2024310s13711 9539 24440 11325"/>
      <path id="_61227792" d="m914617 2018940s11329 11329 22653 8943"/>
      <path id="_61226768" d="m925946 2014170s17291 6557 32193 4767"/>
      <path id="_61225776" d="m981388 1995100s7752 6558 16096 5963"/>
      <path id="_61224784" d="m998674 1986750s6558 6554 19673 5363"/>
      <path id="_61223792" d="m1023120 1978410s9542 6557 17886 6557"/>
      <path id="_61222800" d="m1044580 1976620s8944 5366 15502 5366"/>
      <line id="_61221696" x1="1108960" x2="1101210" y1="1962910" y2="1980190"/>
      <path id="_61220704" d="m1061870 1971850s13714 7154 21463 7154"/>
      <path id="_61219712" d="m1120880 1988540s25637 8347 33388 7747"/>
      <path id="_61218720" d="m1136980 2002850s10729 3576 19673 3576"/>
      <path id="_61217728" d="m1159630 2033850s11324 1786 21463 2981"/>
      <path id="_61216736" d="m1169770 2045770s9539 7752 22054 7752"/>
      <path id="_61215744" d="m1181100 2064850s9537 3576 20264 1790"/>
      <path id="_61214752" d="m1188840 2079150s12517 2386 24444 6e2"/>
      <path id="_61213760" d="m1193610 2090480s14905 4766 27425 1790"/>
      </g><path id="_61212768" d="m1198380 2101800s40537 13715 59015-20268" stroke-width="3302"/><g stroke-width="1016">
      <path id="_61211776" d="m1205540 2119690s5961 0 10729-1790"/>
      <path id="_61210784" d="m1209710 2132810s2982 1785 9539-2983"/>
      <path id="_61209792" d="m1212690 2149500s6557 1790 11328-1791"/>
      <path id="_61208800" d="m1212690 2170360s19672 5363 23249 1791"/>
      <path id="_61207808" d="m1212690 2179900s15500 5366 22057 2981"/>
      <path id="_61206976" d="m1212690 2186460s13115 10134 39345 10134c0 0 11324 7753 14905 10734 5963 3576 64381 52461 73325 56037 9539 4168 69152 47094 115055 82859 11920 9539 94788 78096 102535 85253 19078 15497 58420 38151 58420 38151"/>
      <path id="_61446136" d="m894353 1969460s23244-6554 36359-4172"/>
      <path id="_61445144" d="m918792 1952770s47691-7747 53652-1785"/>
      <path id="_61444152" d="m954561 1933700s29212-4178 35766 1190"/>
      <path id="_61443160" d="m980793 1920580s28020-3573 32788 2385"/>
      <path id="_61442168" d="m997484 1910440s26826-1191 30997 4771"/>
      <path id="_61441176" d="m1020140 1900310s15498-4768 28613 5366"/>
      <path id="_61440184" d="m1036230 1891370s19076-3578 32193 7748"/>
      <path id="_61439192" d="m1054120 1884220s14307-3581 25636 5363"/>
      <path id="_61438200" d="m1097630 1876470s11330 4771 1791 17286"/>
      <path id="_61437208" d="m1117310 1882430s13115 8944 7749 20268"/>
      <path id="_61436376" d="m1132210 1888990s5963 7152 1190 18481"/>
      <path id="_61435544" d="m1149500 1910440s4771-2978 9539-1191"/>
      <path id="_61434408" d="m1159630 1921770s11324-2982 16095 0"/>
      <path id="_61433152" d="m1180500 1927140s20864 22654 28020 27422c7749 4766 43518 22054 53057 30401 9539 8344 45308 38751 72133 55442 8943 5363 88825 45903 97169 50076 8348 3576 85844 34573 93001 41135 1787 1192 101937 40537 98959 39941 20864 4168 111475 35769 118033 41132"/>
     </g></g></g>
    </g>
   </g>
  </g><path id="path624" d="m17842400 17373200c0 5159380-3287490 9343450-7341290 9343450s-7341290-4184070-7341290-9343450 3287490-9343450 7341290-9343450 7341290 4184070 7341290 9343450z" fill="none" stroke="#1f1a17" stroke-width="33020"/><g id="_62322200"><g stroke="#1f1a17">
   <line id="_61956480" x1="17177800" x2="18205900" y1="12899900" y2="13656600" fill="none" stroke-width="10160"/>
   <path id="_61955512" d="m13745200 27086300s22860-5430 62840-16320" fill="none" stroke-width="10160"/>
   <path id="_61954464" d="m16995100 12731200s1068060 479040 1210810 805680c142810 326630 159960 239520 159960 239520s-336990-97970-594000-223210c-268470-125200-559730-43540-776770-821990z" fill="#00923f" stroke-width="20320"/>
   <path id="_61952304" d="m10426800 7499720s-1770550-152420-2221760-620560c0 0 1336490 119760 2221760 620560z" fill="#00923f" stroke-width="20320"/>
   <path id="_61950360" d="m10375400 7467070s-1970460-397390-2096110-549800" fill="none" stroke-width="10160"/>
   </g><g id="g632">
    <path id="_61942392" d="m12123100 27930100c137050-21740 416930 87100 485460 87100 91380 0 725350 103420 1176560-326620 0 0-833860-206840-1302220 81650 0 0-199890 87110-302690 87110z" fill="#00923f"/>
    <path id="_61940880" d="m12123100 27930100c137050-21740 416930 87100 485460 87100 91380 0 725350 103420 1176560-326620 0 0-833860-206840-1302220 81650 0 0-199890 87110-302690 87110" fill="none" stroke="#1f1a17" stroke-width="20320"/>
   </g>
   <g id="g636">
    <path id="_61939120" d="m13728100 27157100c125650 27220 365500 59890 416930 81630 74240 38130 633970 38130 719660 21780 91380-21780 868130-21780 1262240-397380 0 0-479750-337500-1205120-255870-651130 65320-759670 272190-902430 342970z" fill="#00923f"/>
    <path id="_61937816" d="m13728100 27157100c125650 27220 365500 59890 416930 81630 74240 38130 633970 38130 719660 21780 91380-21780 868130-21780 1262240-397380 0 0-479750-337500-1205120-255870-651130 65320-759670 272190-902430 342970" fill="none" stroke="#1f1a17" stroke-width="20320"/>
   </g>
   <path id="_61936352" d="m13808000 2.707e7c159910-38080 611150-141540 771080-87090 199880 70750 862420-87100 953810-87100h508320" fill="none" stroke="#1f1a17" stroke-width="10160"/>
   <path id="_61935352" d="m12340100 27913800s1085220-70750 1262300-174210" fill="none" stroke="#1f1a17" stroke-width="10160"/>
   <g id="g642">
    <path id="_61933920" d="m12523000 27565400s182720-195960 234150-255830c68540-87110 125650-277620 159910-397380 57130-168780 234170-342980 325590-446410 91340-103440 542550-462730 651100-582500 108500-119730-165630 740370-325590 892800-165630 157850-399780 446380-399780 446380s-359850 206870-468360 326630z" fill="#00923f"/>
    <path id="_61932792" d="m12523000 27565400s182720-195960 234150-255830c68540-87110 125650-277620 159910-397380 57130-168780 234170-342980 325590-446410 91340-103440 542550-462730 651100-582500 108500-119730-165630 740370-325590 892800-165630 157850-399780 446380-399780 446380s-359850 206870-468360 326630" fill="none" stroke="#1f1a17" stroke-width="20320"/>
   </g><g stroke="#1f1a17">
   <path id="_61931000" d="m13836600 26073800s-953820 1371790-1136600 1388140" fill="none" stroke-width="10160"/>
   <path id="_61566656" d="m18817000 19105800s-51430-936310-234170-1186700c-199920-277670-68560-566170-685380-996250 0 0 34260 1665810 919550 2182950z" fill="#00923f" stroke-width="20320"/>
   <path id="_61611808" d="m18691300 18915300s-576810-1393620-668200-1720250" fill="none" stroke-width="10160"/>
   <path id="_61927912" d="m8621970 29236600s5088950-1056090 7362130-3957620c308430-391950 1290810-1736520 2033330-3413210 993770-2242840 1679170-5323980 314130-8726300-2170430-5422000-7110850-5639750-7761950-5639750 651100 0 5231750 337560 7544910 5710490 576810 1339180 1022350 4082820 325540 6429070-611120 2063160-1085210 2955950-1839140 4093700-759620 1132310-1393550 2525890-4186500 3854170-1188010 560710-2815780 865550-3501170 1028850-148500 38140-325540 446390-291280 620600z" fill="#00923f" stroke-width="20320"/>
   </g><g id="g650">
    <path id="_61926856" d="m11597700 27946400c325590-250390 491170-419170 514030-517150 257050-898220 879570-1012550 879570-1012550 257020 402820-759630 1219420-759630 1219420-91390 70760-451190 277620-451190 277620z" fill="#00923f"/>
    <path id="_61925808" d="m11597700 27946400c325590-250390 491170-419170 514030-517150 257050-898220 879570-1012550 879570-1012550 257020 402820-759630 1219420-759630 1219420-91390 70760-451190 277620-451190 277620" fill="none" stroke="#1f1a17" stroke-width="20320"/>
   </g>
   <g id="g654">
    <path id="_61924136" d="m13585300 27015600s376960-1186720 845320-1409940c0 0 39960 691360-576860 1241160z" fill="#00923f"/>
    <path id="_61923112" d="m13585300 27015600s376960-1186720 845320-1409940c0 0 39960 691360-576860 1241160" fill="none" stroke="#1f1a17" stroke-width="20320"/>
   </g>
   <g id="g658">
    <path id="_61921384" d="m14670400 26449400c68570-49000 394110 136130 645430 87110 114240-21780 1090870-402820 1227970-517150 0 0-970970 32660-1313660 190520-165630 70760-165630 119810-365510 119810z" fill="#00923f"/>
    <path id="_61920336" d="m14670400 26449400c68570-49000 394110 136130 645430 87110 114240-21780 1090870-402820 1227970-517150 0 0-970970 32660-1313660 190520-165630 70760-165630 119810-365510 119810" fill="none" stroke="#1f1a17" stroke-width="20320"/>
   </g>
   <g id="g662">
    <path id="_61918472" d="m15190200 26019300s291270-136110 416940-103450c125650 32700 1153730 16350 1587780-1203030 0 0-776740 326630-1085180 636880-302710 310320-685390 446390-736770 479090z" fill="#00923f"/>
    <path id="_61917424" d="m15190200 26019300s291270-136110 416940-103450c125650 32700 1153730 16350 1587780-1203030 0 0-776740 326630-1085180 636880-302710 310320-685390 446390-736770 479090" fill="none" stroke="#1f1a17" stroke-width="20320"/>
   </g>
   <g id="g666">
    <path id="_61915696" d="m15247300 25736300c0-70760-57120-430060-57120-430060s-34270-549800 274120-876430c0 0 222790 517150 34270 925450-62830 141500-165580 277610-165580 277610z" fill="#00923f"/>
    <path id="_61914616" d="m15247300 25736300c0-70760-57120-430060-57120-430060s-34270-549800 274120-876430c0 0 222790 517150 34270 925450-62830 141500-165580 277610-165580 277610" fill="none" stroke="#1f1a17" stroke-width="20320"/>
   </g>
   <g id="g670">
    <path id="_61912944" d="m17646200 22029100s-776790-620560 51370-1703870c0 0 371270 1034290 0 1633110z" fill="#00923f"/>
    <path id="_61911952" d="m17646200 22029100s-776790-620560 51370-1703870c0 0 371270 1034290 0 1633110" fill="none" stroke="#1f1a17" stroke-width="20320"/>
   </g>
   <g id="g674">
    <path id="_61910280" d="m17412000 22780400c211320 27180 993770 48970 1313660-1045210 0 0-948110-146980-1342240 963500z" fill="#00923f"/>
    <path id="_61909488" d="m17412000 22780400c211320 27180 993770 48970 1313660-1045210 0 0-948110-146980-1342240 963500" fill="none" stroke="#1f1a17" stroke-width="20320"/>
   </g>
   <g id="g678">
    <path id="_61907504" d="m17137900 23215800s-34310-87100 0-190560c39960-103410 325540-391900 165610-860090-239890-680480-234190-342930-234190-342930s-182770-32700-125650 636860c51430 669620 108540 533510 108540 533510s51380 87130 34260 136110z" fill="#00923f"/>
    <path id="_61906680" d="m17137900 23215800s-34310-87100 0-190560c39960-103410 325540-391900 165610-860090-239890-680480-234190-342930-234190-342930s-182770-32700-125650 636860c51430 669620 108540 533510 108540 533510s51380 87130 34260 136110" fill="none" stroke="#1f1a17" stroke-width="20320"/>
   </g>
   <g id="g682">
    <path id="_61904872" d="m16795200 23858200c114200-212310 411210-571600 1267950-538930 0 0-245620 849200-1302230 696790z" fill="#00923f"/>
    <path id="_61903880" d="m16795200 23858200c114200-212310 411210-571600 1267950-538930 0 0-245620 849200-1302230 696790" fill="none" stroke="#1f1a17" stroke-width="20320"/>
   </g>
   <path id="_61902216" d="m17897500 21909300s811000-119760 776730-756680c0 0-759630 87100-776730 756680z" fill="#00923f" stroke="#1f1a17" stroke-width="20320"/>
   <g id="g687">
    <path id="_61900920" d="m18348700 20379600s416930 185110 1028050-190520c628270-386510 885320-740360 885320-740360s-936700-16320-1245120 190550c-262720 179650-502620 408270-622570 631480z" fill="#00923f"/>
    <path id="_61899640" d="m18348700 20379600s416930 185110 1028050-190520c628270-386510 885320-740360 885320-740360s-936700-16320-1245120 190550c-262720 179650-502620 408270-622570 631480" fill="none" stroke="#1f1a17" stroke-width="20320"/>
   </g>
   <path id="_61898176" d="m18314400 20978400s-74240-1513350-616870-2063160c0 0-194190 789330-108500 1170410 91390 375600 148510 789340 725370 892750z" fill="#00923f" stroke="#1f1a17" stroke-width="20320"/>
   <g id="g692">
    <path id="_61897176" d="m18714200 19350800c239900-48970 1028080-288530 1313660-1295610 0 0-1376500 517190-1393600 1241160z" fill="#00923f"/>
    <path id="_61896384" d="m18714200 19350800c239900-48970 1028080-288530 1313660-1295610 0 0-1376500 517190-1393600 1241160" fill="none" stroke="#1f1a17" stroke-width="20320"/>
   </g>
   <g id="g696">
    <path id="_61894352" d="m18982600 17783000s0-70740 51390-87090c57110-16320 736810-440920 1045230-1154070 131370-293970 74240-582490 22830-947180 0 0-365520 277580-708220 979840-342690 707710-302730 811120-376950 979900l-91390 157860z" fill="#00923f"/>
    <path id="_61892992" d="m18982600 17783000s0-70740 51390-87090c57110-16320 736810-440920 1045230-1154070 131370-293970 74240-582490 22830-947180 0 0-365520 277580-708220 979840-342690 707710-302730 811120-376950 979900l-91390 157860" fill="none" stroke="#1f1a17" stroke-width="20320"/>
   </g>
   <g id="g700">
    <path id="_61891392" d="m18891300 17538000s-74220-326630-91370-391950c-17130-70760 34260-794770-885300-1001640 0 0-142760 930880 833870 1360930l108540 119760z" fill="#00923f"/>
    <path id="_61890600" d="m18891300 17538000s-74220-326630-91370-391950c-17130-70760 34260-794770-885300-1001640 0 0-142760 930880 833870 1360930l108540 119760" fill="none" stroke="#1f1a17" stroke-width="20320"/>
   </g>
   <g id="g704">
    <path id="_61888872" d="m18885600 16492800c-11450-81670-28560-206870-51410-310280 0 0-365520-642400-793910-773030-108490-38090-302680-141510-376950-190520 0 0 51410 843780 1170860 1333700z" fill="#00923f"/>
    <path id="_61887824" d="m18885600 16492800c-11450-81670-28560-206870-51410-310280 0 0-365520-642400-793910-773030-108490-38090-302680-141510-376950-190520 0 0 51410 843780 1170860 1333700" fill="none" stroke="#1f1a17" stroke-width="20320"/>
   </g>
   <g id="g708">
    <path id="_61885824" d="m18822700 15050200c251300-402860 502610-451870 628270-789360 177020-479060-34270-1273830-34270-1273830s-605450 538900-668280 827420c-39970 163350-74240 696800 0 1105100z" fill="#00923f"/>
    <path id="_61884776" d="m18822700 15050200c251300-402860 502610-451870 628270-789360 177020-479060-34270-1273830-34270-1273830s-605450 538900-668280 827420c-39970 163350-74240 696800 0 1105100" fill="none" stroke="#1f1a17" stroke-width="20320"/>
   </g>
   <path id="_61883056" d="m18691300 14854200s-68530-751200-593960-1023390c-679690-359280-434090-157890-828170-462740 0 0-182780 538930 628280 925450 108490 54450 725320 321190 793850 560680z" fill="#00923f" stroke="#1f1a17" stroke-width="20320"/>
   <g id="g713">
    <path id="_61881120" d="m18348700 13417100s-17110-174200-17110-223180c0-54430 182740-740360 159880-1186750-17120-446400-234160-669570-411230-996200 0 0-108500 430040-165630 533500-51360 103410-108500 805640 234200 1409930 0 0 108500 103420 131320 288500z" fill="#00923f"/>
    <path id="_61880016" d="m18348700 13417100s-17110-174200-17110-223180c0-54430 182740-740360 159880-1186750-17120-446400-234160-669570-411230-996200 0 0-108500 430040-165630 533500-51360 103410-108500 805640 234200 1409930 0 0 108500 103420 131320 288500" fill="none" stroke="#1f1a17" stroke-width="20320"/>
   </g>
   <g id="g717">
    <path id="_61878328" d="m17737600 12094300v-103410s342660-1241210-274160-2221050c0 0-234190 1306480 199890 2117590 0 0-34260 87110 0 168780z" fill="#00923f"/>
    <path id="_61877400" d="m17737600 12094300v-103410s342660-1241210-274160-2221050c0 0-234190 1306480 199890 2117590 0 0-34260 87110 0 168780" fill="none" stroke="#1f1a17" stroke-width="20320"/>
   </g>
   <g id="g721">
    <path id="_61875432" d="m17914600 12747500s-85640-87110-217040-87110c-125650 0-970920-582470-1096620-1241160 0 0 611170-32700 1010980 636910 394070 675010 285580 549800 319840 604250z" fill="#00923f"/>
    <path id="_61874640" d="m17914600 12747500s-85640-87110-217040-87110c-125650 0-970920-582470-1096620-1241160 0 0 611170-32700 1010980 636910 394070 675010 285580 549800 319840 604250" fill="none" stroke="#1f1a17" stroke-width="20320"/>
   </g>
   <g id="g725">
    <path id="_61872712" d="m17086400 11234200c-342690-794820-1187960-740360-1187960-740360-22900-54460 525430 947180 1130850 947180 91390 0 239890 81670 239890 81670z" fill="#00923f"/>
    <path id="_61871688" d="m17086400 11234200c-342690-794820-1187960-740360-1187960-740360-22900-54460 525430 947180 1130850 947180 91390 0 239890 81670 239890 81670" fill="none" stroke="#1f1a17" stroke-width="20320"/>
   </g>
   <g id="g729">
    <path id="_61870016" d="m16435300 10199800c108550-201430 354120-838340-199890-1377240 0 0-519760 642320 97100 1371810z" fill="#00923f"/>
    <path id="_61869024" d="m16435300 10199800c108550-201430 354120-838340-199890-1377240 0 0-519760 642320 97100 1371810" fill="none" stroke="#1f1a17" stroke-width="20320"/>
   </g>
   <g id="g733">
    <path id="_61866984" d="m17160700 11114400s468360-653220-382660-1290130c0 0-422630 549820 302720 1241160z" fill="#00923f"/>
    <path id="_61865992" d="m17160700 11114400s468360-653220-382660-1290130c0 0-422630 549820 302720 1241160" fill="none" stroke="#1f1a17" stroke-width="20320"/>
   </g><g fill="#00923f" stroke="#1f1a17" stroke-width="20320">
   <path id="_61864320" d="m16492400 10510100s-885270-87110-1159400-293930c-234200-179650 850970-348410 1159400 293930z"/>
   <path id="_61863328" d="m16092600 10080100s-930960-27190-1422160-446360c0 0 1028080-206860 1422160 446360z"/>
   <path id="_61862336" d="m15607200 9666340s-34280-1012550-508330-1252050c0 0-394070 838310 508330 1252050z"/>
   <path id="_61861336" d="m15155900 9356060s-451190 364720-993820-119780c0 0 434080-239520 993820 119780z"/>
   <path id="_61860344" d="m14647600 8926010s-536900 244970-1262250-223220c0 0 942400-168760 1262250 223220z"/>
   <path id="_61859000" d="m13876500 7929800s988130 653230 970960 1066960c0 0-576840-326620-685380-359280-108500-38100-359800-277620-285580-707680z"/>
   <path id="_61858008" d="m14087900 8566720s-811040 103420-1713440-310280c0 0 976640-223210 1713440 310280z"/>
   <path id="_61857016" d="m13317800 8086890s-204780-522280-901850-631490c0 0 189760 512680 901850 631490z"/></g><g fill="none" stroke="#1f1a17" stroke-width="10160">
   <path id="_61856048" d="m12071700 27636200s725350-941800 862430-1099660"/>
   <path id="_61855080" d="m13745200 26879400s508330-892750 559740-1083310"/>
   <path id="_61854112" d="m14881800 26416700s434090 0 1462140-326630"/>
   <path id="_61853120" d="m15681400 25779800s519720-239530 628220-261320c108550-16300 651130-533450 742520-615120"/>
   <path id="_61852152" d="m16795200 23956200s1005220-462710 1176550-549800"/>
   <path id="_61851184" d="m17120700 22976300s17150-653260 0-1083340"/>
   <line id="_61850096" x1="17480500" x2="18314400" y1="22666000" y2="21980100"/>
   <path id="_61849096" d="m18023100 21773200s416930-397360 525430-468140"/>
   <path id="_61848128" d="m17663300 21822300s-17110-1012560-17110-1116010"/>
   <path id="_61847160" d="m18223000 20842400s-416940-789370-502620-1687550"/>
   <path id="_61846192" d="m20045000 19584800s-1262250 636910-1587790 756670"/>
   <path id="_61845192" d="m18765600 19241900s651130-397340 1079470-963500"/>
   <path id="_61844224" d="m19034000 17641400s685380-996200 976660-1682110"/>
   <path id="_61843256" d="m18834100 17505300s-696810-1028870-811010-1186760"/>
   <path id="_61842288" d="m18799900 16454700s-394130-391950-993800-1066950"/>
   <path id="_61841144" d="m18622800 14669200s-376930-587940-668240-669610c-325540-81630-616820-446390-616820-446390"/>
   <path id="_61840176" d="m19359600 13210200s-434080 1611370-542580 1682130"/>
   <path id="_61839208" d="m18114500 11266800s74240 1584110 142760 1752870"/>
   <path id="_61838240" d="m17771800 12573300s-868170-1012550-1062350-1050640"/>
   <path id="_61837272" d="m17520500 10063700s234160 996230 159920 1633160"/>
   <path id="_61836304" d="m17120700 11337600s-868170-794770-1045210-740360"/>
   <path id="_61835336" d="m17069300 10907500s-125650-724060-217000-876490"/>
   <line id="_61834248" x1="16366800" x2="16275400" y1="10047400" y2="8980460"/>
   <line id="_61833296" x1="15607200" x2="15190200" y1="9579230" y2="8599380"/>
   <line id="_61832344" x1="15064600" x2="14162100" y1="9356060" y2="9236280"/>
   <line id="_61831392" x1="15841300" x2="14670400" y1="9992970" y2="9633710"/>
   <line id="_61830440" x1="16418200" x2="15333000" y1="10461100" y2="10216200"/>
   <path id="_61829472" d="m14522000 8789900s-519750-549800-559730-685880"/>
   <path id="_61828504" d="m14596200 8909660s-959510-168740-1085170-190520"/>
   <path id="_61827536" d="m13945100 8512270s-1387890-223170-1479290-239520"/>
   <line id="_61826608" x1="13257800" x2="1.245e7" y1="8048580" y2="7481250"/>
   <path id="_61825640" d="m15333000 25632800s114200-936320 91340-1039730"/>
   </g><g id="g777">
    <path id="_61824576" d="m16075500 24761800c0-65330-74240-533500-74240-533500s-17150-756680 382680-1115960c0 0 142750 446390-62840 1241200-40010 141500-62820 179610-62820 179610z" fill="#00923f"/>
    <path id="_61823784" d="m16075500 24761800c0-65330-74240-533500-74240-533500s-17150-756680 382680-1115960c0 0 142750 446390-62840 1241200-40010 141500-62820 179610-62820 179610" fill="none" stroke="#1f1a17" stroke-width="20320"/>
   </g>
   <line id="_61821416" x1="16166900" x2="16309600" y1="24593100" y2="23319300" fill="none" stroke="#1f1a17" stroke-width="10160"/>
   <path id="_59547696" d="m18974300 16260800s-125870-979620 434400-1293820c0 0 189900 788300-434400 1293820z" fill="#00923f" stroke="#1f1a17" stroke-width="20320"/><g fill="none" stroke="#1f1a17" stroke-width="10160">
   <line id="_59256088" x1="19027900" x2="19408700" y1="16090700" y2="14967000"/>
   <path id="_61949392" d="m8867570 28659600s953820-179650 1313630-310320"/>
   <line id="_61948168" x1="8839020" x2="10095500" y1="28703100" y2="2.842e7"/>
   <path id="_61947200" d="m8901800 28659600s-216990 283060-222700 522580"/>
   <path id="_61946232" d="m8964670 28643200s-262760 413740-188520 506280"/>
   <path id="_61945264" d="m9061760 28632400s-222740 364720-188470 517150"/>
   <path id="_61944160" d="m9153150 28588800s-217040 397340-177060 517120"/>
   <path id="_61943184" d="m9233090 28572500s-194190 397390-148470 533470"/>
  </g></g><g id="_113797216">
   <path id="_60778416" d="m10767200 28555100s5e3 190710-55200 265950" fill="none" stroke="#1f1a17" stroke-width="10160"/>
   <path id="_62282336" d="m9673400 29448300s361270-70260 426490-40160c65220 35150 135470-411450 366280-571980 265950-180650 702480-521840 1133980-1128970 0 0-95320-175610-516800-120410 0 0-10060 205710-55180 285990-50190 80290-275970 411450-562000 521830-285990 110360-506780 426490-602090 697450-95320 270960-190680 356250-190680 356250z" fill="#75aadb"/>
   <g id="g794" clip-path="url(#id1)" transform="scale(10)">
    <g id="g796">
     <path id="_622811761" d="m1150620 2762250c-975-518-1915-948-2659-1247-7657-3077-17181-3560-25942-3013-933 8568-8408 25088-14571 34869-16103 25560-26569 44271-57171 56080-25307 9765-45575 38883-54283 63638-1771 5036-8090 21816-11357 28559 4934-644 12289-1576 18477-1172 1478-3152 6676-17323 7513-19342 3295-7944 6727-15806 11063-23251 4900-8414 11066-16486 19129-22094l93-64c44510-25356 85729-69198 109708-112963z" fill="#ffffff"/>
    </g>
   </g>
   <path id="path799" d="m9673400 29448300s361270-70260 426490-40160c65220 35150 135470-411450 366280-571980 265950-180650 702480-521840 1133980-1128970 0 0-95320-175610-516800-120410 0 0-10060 205710-55180 285990-50190 80290-275970 411450-562000 521830-285990 110360-506780 426490-602090 697450-95320 270960-190680 356250-190680 356250z" fill="none" stroke="#1f1a17" stroke-width="33020"/>
   <path id="_59543744" d="m11018100 29368000s-371290 90310-426490-40170c-30100-65200-50150-566970-275970-727530-230830-155570-332600-290020-824420-666110-150640-115190-294530-196920-349680-292240-40170-70260-45180-165580-90340-200730 0 0 281020-30100 732580 80280 0 0-65250 220780 80290 296050 80280 40130 265950 316130 551940 451580 270920 125450 436500 577030 521800 822900 95360 270960 80290 275970 80290 275970z" fill="#75aadb"/>
   <g id="g802" clip-path="url(#id2)" transform="scale(10)">
    <g id="g804">
     <path id="_595370081" d="m917015 2743740c4893 14573 7479 18443 20090 28618l247-322 8064 6171c19212 14703 37779 29897 56301 45442 11477 9632 23092 19579 35526 27959l105 71 104 73c11364 8081 14671 22896 18804 35834 2850 8923 8877 18128 10471 27349 585 3384 1115 6776 1694 10160 214 1251 3881 12927 4237 14254 2357 1335 8500 336 10788 251 3058-113 6333-417 9595-871-1656-5439-6965-20819-8853-26184-7853-22636-23153-56714-44016-76662-11331-10835-25255-16152-36389-27064-4086-4004-9109-8821-13108-12907-1373-1403-4320-4558-5979-5549-10145-10497-21999-26200-21103-41272-6475-1386-44518-5272-46578-5351z" fill="#ffffff"/>
    </g>
   </g>
   <path id="path807" d="m11018100 29368000s-371290 90310-426490-40170c-30100-65200-50150-566970-275970-727530-230830-155570-332600-290020-824420-666110-150640-115190-294530-196920-349680-292240-40170-70260-45180-165580-90340-200730 0 0 281020-30100 732580 80280 0 0-65250 220780 80290 296050 80280 40130 265950 316130 551940 451580 270920 125450 436500 577030 521800 822900 95360 270960 80290 275970 80290 275970z" fill="none" stroke="#1f1a17" stroke-width="33020"/>
   <path id="_113314744" d="m11600200 27707200s-65220-175610-667340-130470c-572020 45170-898140 40160-998510 0-105370-40130-195680-65210-341190-95310-120440-20090-366300-45180-301050-40170-125420-15030-240850 0-240850 0s-25070 20080 40150-85300c55200-85300 170600-125410 321110-301060 48730-56850 805430-12790 863020 0 70270 15070 150550 10060 180660 0 30090-10020 371280-15030 521830 0 185200 40290 451640 57960 492000 57520 105900-1160 145240 103060 160260 273650 15070 175630 25110 65250-30090 321140z" fill="#75aadb"/>
   <g id="g810" clip-path="url(#id3)" transform="scale(10)">
    <g id="g812">
     <path id="_1138054561" d="m961818 2733110c97 16 194 32 291 48 96 20 192 40 289 60 12630 2613 24407 5624 36456 10213 39 15 79 30 119 45 39 15 78 31 118 47 4993 1984 21222 2090 26691 2110 21986 80 44406-1424 66345-3156 17168-1287 54402 3705 71881 8961-253-2080-3e2 -9773-468-11732-8897-4250-29827-12779-39720-14984-3784-141-7651-989-11346-1685-5394-1017-10727-1838-16191-2385-6952-695-14280-791-21268-853-5680-51-11371-18-17049 132-2714 71-6053 71-8806 4e2 -7307 2012-17694 1583-24806 57-37-8-74-16-110-24-6421-1426-14056-1659-20627-1738-24045-287-46371-2133-70372-4447-3299 3507-12528 10800-16126 13922 15153 1817 29756 2517 44699 5009z" fill="#ffffff"/>
    </g>
   </g><g fill="none" stroke="#1f1a17">
   <path id="path815" d="m11600200 27707200s-65220-175610-667340-130470c-572020 45170-898140 40160-998510 0-105370-40130-195680-65210-341190-95310-120440-20090-366300-45180-301050-40170-125420-15030-240850 0-240850 0s-25070 20080 40150-85300c55200-85300 170600-125410 321110-301060 48730-56850 805430-12790 863020 0 70270 15070 150550 10060 180660 0 30090-10020 371280-15030 521830 0 185200 40290 451640 57960 492000 57520 105900-1160 145240 103060 160260 273650 15070 175630 25110 65250-30090 321140z" stroke-width="33020"/><g stroke-width="10160">
   <path id="_62294768" d="m10145100 28670600s-170630 200700-205750 366280c-30090 165590-210710 396420-210710 396420"/>
   <line id="_59210464" x1="9743670" x2="10115000" y1="29378000" y2="29352900"/>
   <line id="_61164544" x1="9808890" x2="10165100" y1="29267600" y2="29242500"/>
   <line id="_62276992" x1="9854060" x2="10210300" y1="29172300" y2="29177300"/>
   <line id="_62320912" x1="9894190" x2="10250400" y1="29092000" y2="29102100"/>
   <line id="_59548504" x1="9934300" x2="10290600" y1="29006700" y2="29006700"/>
   <line id="_61162128" x1="9974430" x2="10320700" y1="28901400" y2="28931500"/>
   <path id="_62277280" d="m10019600 28821100s125420 15070 200650 10020"/>
   <line id="_62269848" x1="10084800" x2="10180200" y1="28760900" y2="28760900"/>
   <path id="_59548952" d="m10621700 29352900s356260 10060 376340-30070"/>
   <path id="_62269144" d="m10591600 29282700s371290 10020 396380-25100"/>
   <path id="_60001288" d="m10576600 29212500s361270 0 381350-25130"/>
   <path id="_61165776" d="m10561500 29122100s356260 25090 386360-5010"/>
   <path id="_60003792" d="m10551500 29051900s311120 15070 351240-4970"/>
   <path id="_62263640" d="m10526400 28981700s311090 5010 351210-25110"/>
   <path id="_62321656" d="m10511300 28931500s230810-5010 275970-30100"/>
   <path id="_116611712" d="m11113500 27626900s386360-50180 446530 95360"/>
   <path id="_114351496" d="m11088400 27707200s431500 20080 446570 70270"/>
   <path id="_113760472" d="m11083400 27777400s366280 5010 381350 70210"/>
   <path id="_114354304" d="m11028200 27872800c80240-25100 291000 0 356220 55190"/>
   <path id="_114275080" d="m11013100 27933000s321140 35120 331150 75280"/>
   <path id="_114352864" d="m10932800 28038300s331160 5020 346230 55190"/>
   <path id="_114496792" d="m10882600 28108600s301070 10020 326160 30100"/>
   <path id="_24581512" d="m10822400 28163800s195690 10020 220780 30100"/>
   <line id="_59358208" x1="10767200" x2="10867600" y1="28213900" y2="28254100"/>
   <path id="_113762064" d="m9156580 27466300s-45140-5010 30100 95350c55200 70230 25090 105380 150520 165590 45200 25090 321130 260900 446590 351210 125430 85330 476670 371320 476670 371320"/>
   <path id="_113757624" d="m9156580 27466300s577030 55190 617160 95350"/>
   <path id="_113763976" d="m9181670 27571700s536870 35110 602120 110390"/>
   <path id="_113765152" d="m9241880 27631900s471650 25090 506760 55200"/>
   <path id="_113766456" d="m9337200 27727300s406470 0 451610 35120"/>
   <line id="_113767256" x1="9457640" x2="9864080" y1="27792500" y2="27817600"/>
   <path id="_113768848" d="m9537930 27862700s371290 15030 401380 15030"/>
   <path id="_113752568" d="m9633290 27943000s306020 10030 346190 10030"/>
   <path id="_59269584" d="m9718540 28023300s286030-10060 336210-10060"/>
   <path id="_61767856" d="m9783790 28078500s301030-10020 331170-10020"/>
   <path id="_62291536" d="m9879140 28138700s275980-15070 306050-15070"/>
   <path id="_113767112" d="m9939310 28213900s265950-35110 301060-25050"/>
   <path id="_113771536" d="m10034700 28274200s225790-60250 260900-45180"/>
   <path id="_113772712" d="m10109900 28324400s225820-70300 265950-65250"/>
   <path id="_113774016" d="m10165100 28369500s220770-80290 265940-80290"/>
   <path id="_113774816" d="m10205300 28404600s235820-80240 265920-80240"/>
   <path id="_113776408" d="m9156580 27521500s536870 40160 602120 110390"/>
   <path id="_59547312" d="m11088400 27657000s406410 0 446570 95360"/>
   </g></g><g stroke="#1f1a17"><path id="_116625864" d="m10505500 28347900c33180 11080 93970 44230 132670 55270 33170 5520 99480 110570 82910 149260-16600 33140 16570 187930-60830 232150-77350 44230-149220 121590-232150 116100-88430-11090-193440-71870-210020-105050-16610-33170-88440-160310-82920-210060 11050-55260 71840-154750 127100-182400 49790-27620 33180-99490 243240-55270z" fill="#75aadb" stroke-width="33020"/>
   <path id="_62273528" d="m9166640 27451300s577030 55200 617150 95310" fill="none" stroke-width="10160"/>
   <path id="_25085888" d="m11113500 27626900s336170-15030 446530 95360" fill="none" stroke-width="10160"/>
  </g></g></g>
 </g>
</svg>
