<?xml version="1.0" encoding="UTF-8" standalone="no"?>
<!-- Generator: Adobe Illustrator 16.0.0, SVG Export Plug-In . SVG Version: 6.00 Build 0)  -->

<svg
   xmlns:dc="http://purl.org/dc/elements/1.1/"
   xmlns:cc="http://creativecommons.org/ns#"
   xmlns:rdf="http://www.w3.org/1999/02/22-rdf-syntax-ns#"
   xmlns:svg="http://www.w3.org/2000/svg"
   xmlns="http://www.w3.org/2000/svg"
   xmlns:sodipodi="http://sodipodi.sourceforge.net/DTD/sodipodi-0.dtd"
   xmlns:inkscape="http://www.inkscape.org/namespaces/inkscape"
   version="1.1"
   id="Layer_1"
   x="0px"
   y="0px"
   width="600px"
   height="400px"
   viewBox="0 0 600 400"
   enable-background="new 0 0 600 400"
   xml:space="preserve"
   sodipodi:docname="Flag_of_Tirol_(state).svg"
   inkscape:version="0.92.5 (2060ec1f9f, 2020-04-08)"><metadata
   id="metadata133"><rdf:RDF><cc:Work
       rdf:about=""><dc:format>image/svg+xml</dc:format><dc:type
         rdf:resource="http://purl.org/dc/dcmitype/StillImage" /></cc:Work></rdf:RDF></metadata><defs
   id="defs131" /><sodipodi:namedview
   pagecolor="#ffffff"
   bordercolor="#666666"
   borderopacity="1"
   objecttolerance="10"
   gridtolerance="10"
   guidetolerance="10"
   inkscape:pageopacity="0"
   inkscape:pageshadow="2"
   inkscape:window-width="1366"
   inkscape:window-height="705"
   id="namedview129"
   showgrid="false"
   inkscape:zoom="1"
   inkscape:cx="251.65445"
   inkscape:cy="200"
   inkscape:window-x="-8"
   inkscape:window-y="-8"
   inkscape:window-maximized="1"
   inkscape:current-layer="Layer_1" />
<rect
   x="0"
   y="200"
   fill="#DA121A"
   width="600"
   height="200"
   id="rect2" />
<rect
   x="0"
   fill="#FFFFFF"
   width="600"
   height="200"
   id="rect4" />
<g
   id="g126"
   transform="matrix(1.0118884,0,0,1.0118884,47.014672,48.216869)">
	<g
   id="g8">
		<path
   d="m 167.21,51.905 h 165.6 v 118.8 c 0,43.199 -36,77.4 -82.8,77.4 -46.801,0 -82.801,-34.201 -82.801,-77.4 v -118.8"
   id="path6"
   inkscape:connector-curvature="0"
   style="fill:#ffffff;stroke:#000000;stroke-width:1.44000006;stroke-linecap:round;stroke-linejoin:round" />
	</g>
	<g
   id="g58">
		<g
   id="g46">
			<g
   id="g24">
				<g
   id="g14">
					<path
   d="m 242.64,90.68 c 3.563,-0.764 7.857,-0.43 12.218,0 0.166,-3.392 1.554,-6.727 3.946,-9.713 -4.021,1.456 -5.127,4.03 -6.854,6.248 l -3.846,-7.918 -2.884,7.884 c -2.441,-1.893 -4.636,-5.04 -7.438,-5.304 2.297,2.741 3.98,5.657 4.858,8.803 z"
   id="path10"
   inkscape:connector-curvature="0"
   style="fill:#fcdd09;stroke:#000000;stroke-width:0.54000002;stroke-linecap:round;stroke-linejoin:round" />
					<path
   d="m 241.64,92.49 c 2.528,2.758 3.729,5.136 5.334,7.629 -2.437,-0.525 -5.959,-0.777 -7.368,-2.915 -0.804,-1.221 -2.438,2 -2.894,3.509 -0.922,-1.253 -1.35,-2.204 -1.83,-4.794 -0.176,-0.948 -0.768,-2.3 0.911,-3.117 1.905,-0.927 3.933,-0.094 5.847,-0.312 z"
   id="path12"
   inkscape:connector-curvature="0"
   style="fill:#fcdd09;stroke:#000000;stroke-width:0.54000002;stroke-linecap:round;stroke-linejoin:round" />
				</g>
				<path
   d="m 247.8,101.6 c -3.237,-1.213 -6.479,-0.356 -9.713,0.455 -2.287,0.574 -5.02,2.074 -6.223,-2.049 -1.618,1.993 -0.817,5.361 2.277,4.933 5.832,-0.808 9.159,-3.22 13.659,-3.339 z"
   id="path16"
   inkscape:connector-curvature="0"
   style="fill:#da121a;stroke:#000000;stroke-width:0.54000002;stroke-linecap:round;stroke-linejoin:round" />
				<g
   id="g22">
					<path
   d="m 224.85,195.359 c -4.247,-2.187 -7.268,-4.272 -11.912,-6.867 -6.239,-2.473 -7.07,1.354 -4.723,3.22 0.057,-2.545 0.714,-3.821 3.327,-0.966 -2.544,2.41 -0.389,2.813 2.469,2.039 l 9.551,4.828 c -5.185,0.857 -12.311,-1.131 -14.166,0 -4.347,-1.252 -7.504,5.199 -2.468,6.011 -1.512,-3.442 0.319,-3.8 2.468,-3.862 0.077,3.471 3.501,4.141 4.078,0.858 l 10.09,-0.106 c -1.967,5.258 -5.364,6.153 -5.259,10.625 -3.217,4.691 4.215,7.551 5.04,3 -1.937,1.357 -4.701,0.84 -3.542,-2.146 1.248,-0.082 2.759,0.746 3.542,-0.859 0.658,-1.352 -1.693,-2.398 -0.43,-4.4 l 3.863,-6.117 h 8.693 c 2.729,0 1.421,2.339 2.783,2.054 0.841,-0.175 2.428,-0.735 2.367,-3.021 2.707,-0.416 2.824,0.963 1.824,3.113 3.875,-2.082 2.806,-5.313 -1.932,-5.26 -1.324,-1.475 -3.78,0.189 -4.723,0.43 -1.807,0.461 -5.116,-0.216 -8.05,-0.322 l 9.551,-16.527 0.645,-6.977 -4.776,4.615 z"
   id="path18"
   inkscape:connector-curvature="0"
   style="fill:#fcdd09;stroke:#000000;stroke-width:0.54000002;stroke-linecap:round;stroke-linejoin:round" />
					<path
   d="m 276.98,196.88 c 4.03,-2.56 7.232,-5.06 11.626,-8.06 5.081,-3.707 7.545,1.242 5.372,3.313 -0.284,-2.494 -1.736,-3.83 -4.083,-1.801 1.611,2.703 0.108,3.98 -2.655,2.708 l -6.65,4.454 c 5.24,0.387 9.807,-1.626 11.757,-0.666 4.216,-1.639 8.624,2.908 2.923,5.232 2.182,-3.867 -0.66,-3.756 -2.807,-3.627 0.036,2.77 -3.32,3.717 -3.983,1.223 l -10.061,0.8 c 2.433,5.062 5.896,5.647 6.192,10.11 3.625,4.384 -3.52,7.898 -4.753,3.445 2.05,1.178 4.758,0.416 3.334,-2.455 -1.251,0.03 -3.136,1.219 -4.061,-0.31 -0.777,-1.287 1.401,-1.707 0.185,-3.738 l -4.398,-7.339 -5.926,0.174 c -0.979,1.102 -3.558,2.456 -4.105,-0.513 -3.258,-0.254 -2.918,0.914 -1.435,3.2 -4.047,-1.725 -3.271,-5.039 1.451,-5.41 0.587,-1.4 4.458,0.732 8.327,-0.206 l -7.887,-15.069 -1.041,-6.891 5.02,4.546 z"
   id="path20"
   inkscape:connector-curvature="0"
   style="fill:#fcdd09;stroke:#000000;stroke-width:0.54000002;stroke-linecap:round;stroke-linejoin:round" />
				</g>
			</g>
			<g
   id="g30">
				<path
   d="m 309.32,173.279 c -5.508,-5.652 -10.658,-10.289 -15.995,-17.889 l -1.264,0.723 c 5.061,7.146 10.941,12.429 17.259,17.171"
   id="path26"
   inkscape:connector-curvature="0"
   style="stroke:#000000;stroke-width:0.36000001;stroke-linecap:round;stroke-linejoin:round" />
				<path
   d="m 323.08,149.54 c -7.43,-1.189 -13.578,-4.071 -17.604,-8.587 l 1.266,-0.737 c 4.893,5.305 9.814,6.392 16.338,9.324"
   id="path28"
   inkscape:connector-curvature="0"
   style="stroke:#000000;stroke-width:0.36000001;stroke-linecap:round;stroke-linejoin:round" />
			</g>
			<path
   d="m 251.25,221.12 c -2.025,2.629 -4.35,3.175 -6.653,3.862 2.677,-3.879 4.867,-7.854 6.116,-12.02 -2.473,2.924 -5.631,5.725 -8.585,6.439 -4.261,1.031 -8.097,-0.572 -10.194,-3.863 3.22,1.193 6.254,1 9.658,-0.751 4.78,-2.462 6.616,-6.229 8.156,-10.194 -2.657,3.479 -5.535,4.85 -8.763,2.896 5.886,-3.184 8.705,-9.627 8.978,-20.497 0.119,-4.737 -1.05,-11.384 -2.879,-18.091 l -8.647,18.427 c -1.203,-4.591 -1.535,-9.04 -0.314,-13.224 -3.981,4.818 -7.964,6.416 -11.946,8.994 5.233,-9.412 8.84,-15.395 11.795,-20.977 -4.162,3.917 -8.308,2.561 -8.815,-1.628 -3.061,4.177 -7.992,3.589 -8.989,-1.048 -8.342,15.061 -18.534,25.211 -28.14,24.643 6.532,-7.314 13.681,-16.389 20.617,-27.343 -3.905,2.774 -8.811,-0.909 -6.277,-4.696 -1.574,0.904 -3.147,1.028 -4.722,-0.089 -7.475,6.368 -17.647,16.343 -27.386,13.091 7.635,-4.587 14.947,-11.934 22.581,-19.274 0.237,-1.235 -0.061,-2.363 1.502,-3.863 -4.997,1.877 -6.726,-3.541 -3.648,-5.795 -8.26,1.276 -20.864,4.442 -23.825,-3.434 6.818,-0.055 14.879,-3.068 22.21,-4.937 -4.119,-0.262 -4.131,-7.535 0.859,-8.156 -6.679,-3.716 -15.563,-6.29 -17.708,-14.273 5.974,1.962 11.948,4.752 17.922,5.151 -2.059,-2.285 -0.068,-7.03 4.293,-5.903 -5.814,-3.237 -13.1,-4.998 -14.917,-12.234 8.764,6.477 21.598,7.835 27.581,10.195 4.649,1.834 3.627,6.05 2.146,9.444 -2.02,4.628 -0.35,9.642 2.146,13.737 4.066,6.673 12.887,10.331 19.289,9.201 3.57,-0.631 6.967,-5.884 9.09,-10.166 -1.472,1.405 -2.658,1.953 -3.946,2.808 3.05,-4.515 5.282,-7.939 5.995,-14.266 -0.83,1.245 -1.495,1.833 -2.125,2.277 1.204,-4.123 1.522,-8.246 1.519,-12.369 1.856,-0.314 2.959,0.137 4.25,0.379 1.354,0.255 2.303,-1.195 0.683,-2.277 -1.491,-0.996 -2.775,-0.104 -4.174,-2.732 -1.207,-2.268 -2.756,-4.225 -4.401,-6.071 2.482,-1.911 5.303,-1.125 8.347,-0.987 3.432,0.157 7.167,0.365 10.473,-1 -1.357,1.287 -2.828,2.863 -5.691,3.585 2.342,2.514 3.651,5.322 4.478,8.272 1.92,6.853 2.146,12.584 2.428,18.516 0.207,4.376 -0.225,9.325 -0.071,12.53 8.853,0.645 19.72,-1.758 23.862,-9.265 2.317,-4.199 3.32,-6.491 2.146,-10.474 -1.302,-4.417 -1.288,-9.279 3.361,-11.11 5.983,-2.36 18.13,-3.718 26.21,-8.753 -1.813,7.239 -9.482,9.169 -15.297,11.02 4.821,-1.095 7.105,4.831 3.079,6.965 5.975,-0.399 13.314,-2.279 19.288,-4.241 -2.131,8.06 -10.483,8.975 -17.328,11.693 3.22,0.401 5.159,6.1 0.635,8.01 1.416,1.038 2.559,2.137 2.5,3.101 7.337,1.868 13.04,3.895 19.862,3.95 -2.961,7.876 -13.895,4.862 -22.16,3.586 0.346,1.571 -0.472,5.092 -5.242,2.456 1.564,1.5 1.948,5.284 -0.773,5.836 6.658,7.34 14.462,15.749 22.2,20.334 -10.451,3.963 -22.779,-8.104 -28.979,-15.748 1.011,2.729 -1.041,7.478 -6.586,4 0.389,1.666 0.041,3.092 -1.173,3.918 4.116,6.699 9.367,19.031 16.959,26.351 -9.607,0.575 -17.276,-7.372 -25.618,-24.05 -1.545,1.066 -3.811,1.498 -6.842,-2.065 -0.509,4.188 -4.01,5.867 -8.171,1.95 2.955,5.582 6.775,13.174 12.01,22.586 -3.982,-2.578 -7.105,-3.316 -11.09,-8.135 1.221,4.188 0.996,8.847 -0.207,13.438 -2.611,-7.148 -5.431,-12.842 -8.326,-17.996 -1.829,6.705 -0.852,10.99 -0.733,15.728 0.273,10.87 4.272,17.101 10.158,20.282 -3.228,1.953 -5.57,1.226 -8.227,-2.254 1.54,3.967 2.731,7.842 7.512,10.304 3.404,1.753 6.117,0.228 9.337,-0.966 -2.098,3.291 -4.754,5.646 -9.01,4.615 -2.954,-0.715 -5.898,-2.871 -8.371,-5.795 0.713,4.594 3.226,7.496 5.903,11.375 -2.305,-0.152 -4.627,-1.234 -6.654,-3.863 0.036,3.463 0.104,8.061 -1.895,9.438 -1.998,-1.203 -2.681,-5.05 -2.646,-8.511 h 0.01 z"
   id="path32"
   inkscape:connector-curvature="0"
   style="fill:#da121a;stroke:#000000;stroke-width:0.54000002;stroke-linecap:round;stroke-linejoin:round" />
			<g
   id="g44">
				<path
   d="m 216.05,178.41 c 6.161,-3.084 10.323,-8.792 13.376,-16.234 -0.107,-1.443 -0.104,-2.275 -1.369,-0.138 -1.94,6.194 -6.986,11.298 -12.011,16.373"
   id="path34"
   inkscape:connector-curvature="0"
   style="stroke:#000000;stroke-width:0.36000001;stroke-linecap:round;stroke-linejoin:round" />
				<path
   d="m 188.04,172.07 c 6.181,-4.909 12.133,-9.664 18.314,-15.924 l 0.922,1.037 c -6.238,6.357 -12.39,11.03 -19.236,14.887"
   id="path36"
   inkscape:connector-curvature="0"
   style="stroke:#000000;stroke-width:0.36000001;stroke-linecap:round;stroke-linejoin:round" />
				<path
   d="m 176.23,146.96 c 7.029,0.503 12.629,-1.304 18.464,-4.805 l -1.126,-1.093 c -5.336,4.217 -10.84,4.381 -17.338,5.898"
   id="path38"
   inkscape:connector-curvature="0"
   style="stroke:#000000;stroke-width:0.36000001;stroke-linecap:round;stroke-linejoin:round" />
				<path
   d="m 176.87,119.6 c 3.935,3.118 8.396,4.126 12.892,4.998 l 0.309,-1.134 c -3.216,-0.331 -7.462,-1.503 -13.09,-3.863"
   id="path40"
   inkscape:connector-curvature="0"
   style="stroke:#000000;stroke-width:0.36000001;stroke-linecap:round;stroke-linejoin:round" />
				<path
   d="m 185.58,102.97 c 2.466,2.165 4.995,4.01 7.741,4.775 l 0.377,-1.099 c -2.484,-0.518 -5.359,-2.06 -8.118,-3.676"
   id="path42"
   inkscape:connector-curvature="0"
   style="stroke:#000000;stroke-width:0.36000001;stroke-linecap:round;stroke-linejoin:round" />
			</g>
		</g>
		<g
   id="g52">
			<path
   d="m 237.29,148.25 c -13.806,-2.549 -25.307,-8.967 -30.691,-20.498 4.279,0.714 6.086,-2.124 4.937,-4.293 -1.15,-2.169 -4.137,-3.15 -6.332,0.322 -0.353,-4.603 -3.086,-6.665 -5.473,-5.04 -2.388,1.621 -0.942,5.873 2.36,6.868 -3.72,-0.362 -5.625,3.21 -4.293,5.04 1.333,1.834 4.829,2.161 6.439,-1.288 7.792,14.171 18.959,20.475 34.34,22.966 -0.349,-1.358 -1.063,-2.933 -1.289,-4.078 z"
   id="path48"
   inkscape:connector-curvature="0"
   style="fill:#fcdd09;stroke:#000000;stroke-width:0.54000002" />
			<path
   d="m 218.29,211.21 c 0.505,0.017 1.01,0.192 1.516,0.813 m 20.8,-14.38 c -0.137,0.496 -0.107,1.16 -0.044,1.856 m -31.2,-1.913 c -0.011,0.6 -0.021,1.381 -0.031,2.18 m 2.29,-9.05 c 0.51,-0.411 1.02,-0.536 1.528,-1.899 m 24.526,-13.236 -11.755,21.929"
   id="path50"
   inkscape:connector-curvature="0"
   style="fill:none;stroke:#000000;stroke-width:0.54000002;stroke-linecap:round;stroke-linejoin:round" />
		</g>
		<path
   d="m 241.38,124.74 c -7.568,-4.46 -17.341,-10.174 -19.08,-24.04 -1.319,-10.539 2.089,-20.233 11.99,-28.381"
   id="path54"
   inkscape:connector-curvature="0"
   style="fill:none;stroke:#000000;stroke-width:0.72000003" />
		<path
   d="m 232.36,106.61 c 3.501,4.561 3.672,9.783 2.61,14.06 -3.241,-4.4 -3.763,-8.907 -2.61,-14.06 z"
   id="path56"
   inkscape:connector-curvature="0"
   style="fill:#078930;stroke:#000000;stroke-width:0.54000002;stroke-linecap:round;stroke-linejoin:round" />
	</g>
	<g
   id="g76">
		
			<circle
   cx="222.50999"
   cy="107.98"
   id="ellipse60"
   r="1.53"
   style="fill:#078930;stroke:#000000;stroke-width:0.54000002;stroke-linecap:round;stroke-linejoin:round" />
		<g
   id="g74">
			<path
   d="m 218.67,117.56 c 4.778,4.04 11.503,4.812 16.314,3.318 -5.05,-3.02 -11.271,-4.152 -16.314,-3.318 z"
   id="path62"
   inkscape:connector-curvature="0"
   style="fill:#078930;stroke:#000000;stroke-width:0.54000002;stroke-linecap:round;stroke-linejoin:round" />
			<path
   d="m 230.26,87.7 c -0.479,5.73 -4.129,11.438 -7.792,13.886 0.564,-5.436 3.473,-10.852 7.792,-13.886 z"
   id="path64"
   inkscape:connector-curvature="0"
   style="fill:#078930;stroke:#000000;stroke-width:0.54000002;stroke-linecap:round;stroke-linejoin:round" />
			<path
   d="m 238.02,75.46 c -3.04,4.881 -8.45,7.795 -12.826,7.767 2.873,-3.508 7.705,-6.715 12.826,-7.767 z"
   id="path66"
   inkscape:connector-curvature="0"
   style="fill:#078930;stroke:#000000;stroke-width:0.54000002;stroke-linecap:round;stroke-linejoin:round" />
			<path
   d="m 246.14,64.779 c -2.992,4.91 -7.629,7.871 -12.11,7.671 2.399,-4.503 6.887,-6.89 12.11,-7.671 z"
   id="path68"
   inkscape:connector-curvature="0"
   style="fill:#078930;stroke:#000000;stroke-width:0.54000002;stroke-linecap:round;stroke-linejoin:round" />
			<path
   d="m 226.38,68.56 c 1.652,5.689 0.652,10.831 -1.466,14.821 -1.354,-5.235 -1.141,-9.823 1.466,-14.821 z"
   id="path70"
   inkscape:connector-curvature="0"
   style="fill:#078930;stroke:#000000;stroke-width:0.54000002;stroke-linecap:round;stroke-linejoin:round" />
			<path
   d="m 214.65,88.61 c 0.479,5.73 3.343,10.365 7.649,12.92 -0.026,-5.758 -3.651,-9.242 -7.649,-12.92 z"
   id="path72"
   inkscape:connector-curvature="0"
   style="fill:#078930;stroke:#000000;stroke-width:0.54000002;stroke-linecap:round;stroke-linejoin:round" />
		</g>
	</g>
	<g
   id="g82">
		<path
   d="m 261.66,124.81 c 7.115,-5.153 15.592,-11.977 16.021,-25.947 0.321,-10.616 -2.482,-18.873 -13.11,-26.05"
   id="path78"
   inkscape:connector-curvature="0"
   style="fill:none;stroke:#000000;stroke-width:0.72000003" />
		<path
   d="m 268.95,105.62 c -3.056,4.87 -3.878,11.244 -2.418,15.4 2.813,-3.775 4.051,-10.381 2.418,-15.4 z"
   id="path80"
   inkscape:connector-curvature="0"
   style="fill:#078930;stroke:#000000;stroke-width:0.54000002;stroke-linecap:round;stroke-linejoin:round" />
	</g>
	<g
   id="g110">
		<g
   id="g100">
			
				<circle
   cx="-269.10999"
   cy="118.11"
   r="1.53"
   id="circle84"
   style="fill:#078930;stroke:#000000;stroke-width:0.54000002;stroke-linecap:round;stroke-linejoin:round" />
			<g
   id="g98">
				<path
   d="m 282.24,117.5 c -4.376,4.467 -10.999,5.418 -15.626,3.777 4.739,-3.486 10.526,-4.133 15.626,-3.777 z"
   id="path86"
   inkscape:connector-curvature="0"
   style="fill:#078930;stroke:#000000;stroke-width:0.54000002;stroke-linecap:round;stroke-linejoin:round" />
				<path
   d="m 258.77,75.74 c 3.912,4.214 9.993,6.05 14.284,5.189 -3.487,-2.898 -9.06,-5.128 -14.284,-5.189 z"
   id="path88"
   inkscape:connector-curvature="0"
   style="fill:#078930;stroke:#000000;stroke-width:0.54000002;stroke-linecap:round;stroke-linejoin:round" />
				<path
   d="m 251.45,66.33 c 3.441,4.607 8.943,7.27 13.383,6.649 -2.66,-4.864 -8.112,-6.362 -13.383,-6.649 z"
   id="path90"
   inkscape:connector-curvature="0"
   style="fill:#078930;stroke:#000000;stroke-width:0.54000002;stroke-linecap:round;stroke-linejoin:round" />
				<path
   d="m 269.8,66.874 c -1.108,5.819 0.754,9.772 3.238,13.544 0.855,-5.339 -0.172,-8.814 -3.238,-13.544 z"
   id="path92"
   inkscape:connector-curvature="0"
   style="fill:#078930;stroke:#000000;stroke-width:0.54000002;stroke-linecap:round;stroke-linejoin:round" />
				<path
   d="m 285.95,92.26 c -0.242,4.839 -4.182,9.861 -8.684,11.596 1.762,-6.646 4.595,-8.924 8.684,-11.596 z"
   id="path94"
   inkscape:connector-curvature="0"
   style="fill:#078930;stroke:#000000;stroke-width:0.54000002;stroke-linecap:round;stroke-linejoin:round" />
				<path
   d="m 268.68,87.58 c 0.349,6.775 3.963,12.07 8.607,14.864 -0.158,-4.705 -4.35,-11.81 -8.607,-14.864 z"
   id="path96"
   inkscape:connector-curvature="0"
   style="fill:#078930;stroke:#000000;stroke-width:0.54000002;stroke-linecap:round;stroke-linejoin:round" />
			</g>
		</g>
		<g
   id="g108">
			<path
   d="m 282.44,179.08 c -5.817,-3.691 -9.38,-9.793 -11.663,-17.505 l 0.673,-2.021 c 1.758,6.814 6.509,13.967 10.99,19.523"
   id="path102"
   inkscape:connector-curvature="0"
   style="stroke:#000000;stroke-width:0.36000001;stroke-linecap:round;stroke-linejoin:round" />
			<path
   d="m 324.381,121.27 c -4.386,2.445 -9.595,2.614 -14.171,2.751 l -0.122,-1.276 c 3.226,0.191 8.356,-0.05 14.293,-1.475"
   id="path104"
   inkscape:connector-curvature="0"
   style="stroke:#000000;stroke-width:0.36000001;stroke-linecap:round;stroke-linejoin:round" />
			<path
   d="m 315.62,104.16 c -2.907,2.745 -5.815,3.811 -8.724,4.569 l -0.159,-1.635 c 2.495,-0.152 5.825,-1.374 8.883,-2.934"
   id="path106"
   inkscape:connector-curvature="0"
   style="stroke:#000000;stroke-width:0.36000001;stroke-linecap:round;stroke-linejoin:round" />
		</g>
	</g>
	<g
   id="g124">
		<path
   d="m 262.46,146.63 c 13.758,-1.888 24.061,-8.03 30.355,-18.19 -4.28,0.714 -6.086,-2.123 -4.938,-4.293 1.15,-2.169 4.138,-3.15 6.332,0.322 0.354,-4.603 3.086,-6.665 5.474,-5.04 2.387,1.621 0.941,5.873 -2.361,6.868 3.721,-0.362 5.625,3.21 4.293,5.04 -1.332,1.834 -4.829,2.161 -6.439,-1.288 -7.947,12.836 -18.549,18.217 -32.34,20.605 z"
   id="path112"
   inkscape:connector-curvature="0"
   style="fill:#fcdd09;stroke:#000000;stroke-width:0.54000002" />
		<g
   id="g122">
			<path
   d="m 263.13,153.05 c -0.579,-3.838 -1.01,-7.67 -0.606,-11.231 0.676,-6.01 5.304,-4.37 9.713,-5.464 5.642,-1.399 10.344,-4.605 13.811,-8.954 m -24.898,34.408 c 3.089,6.192 5.997,11.297 8.8,15.775 m 12.234,-18.459 c 4.638,7.178 7.604,15.16 14.81,21.57 m -9.748,-22.099 c -1.46,1.686 -5.03,1.439 -7.457,-1.227 0.02,1.688 -0.071,2.746 -1.213,3.542 m 21.06,-10.494 c 7.231,6.354 8.771,8.765 15.432,12.829 m -13.237,-17.07 c -0.693,0.105 -2.04,-0.289 -2.997,-0.428 1.655,1.785 1.636,7.214 -3.688,5.05 m 14.06,-16.959 c 4.438,0.966 10.578,1.833 15.051,1.489 m -14.22,-4.971 c 0.122,2.591 -1.485,4.747 -4.047,4.901 1.011,0.819 1.62,1.486 1.755,2.465 m 1.164,-23.2 c 3.828,-0.59 6.897,-1.404 10.725,-3.678 m -14.987,1.076 c 3.575,0.18 6.644,4.206 2.324,7.322 m 2.738,-20.711 c -8.177,4.841 -18.971,3.73 -18.848,12.839 m -56.14,23.524 c 0.682,7.631 2.83,14.635 5.125,20.58 2.052,5.317 5.599,5.924 7.289,13.529 m 14.417,-35.459 c -5.771,4.739 -2.318,14.823 -0.953,22.221 m -20.941,7.609 c -3.089,6.193 -5.997,11.297 -8.8,15.775 m -16.527,-18.138 c -4.638,7.176 -8.354,13.01 -15.346,18.459 m 13.611,-22.595 c -1.235,4.25 4.248,6.124 7.512,2.411 m -18.333,-12.01 c -7.232,6.355 -14.16,11.497 -20.82,15.561 m 15.915,-17.08 c 0.974,1.394 2.24,1.924 4.833,1.547 -1.125,1.253 -0.89,3.263 -0.143,4.748 m -10.946,-19.16 c -5.073,0.875 -10.37,1.95 -14.06,1.717 m 16.451,-6.891 c -3.598,2.866 -2.986,7.38 1.458,8.299 M 191.9,114.112 c -3.828,-0.59 -7.655,-2.77 -11.483,-5.04 m 13.468,1.079 c 0.614,0.866 1.087,1.368 1.594,1.667 -3.149,0.18 -5.347,3.898 -2.962,6.961 m -3.541,-21.716 c 5.452,2.857 8.771,4.12 18.04,7.287 7.1,2.425 5.191,5.437 3.458,8.06 m 5.353,17.593 c 4.093,7.03 12.236,10.281 19.639,10.303 m 5.527,-35.683 c 1.262,-0.675 2.598,-1.304 4.847,-1.556 m -5.13,-9.876 c 1.931,2.22 3.099,5.454 5.64,6.146 m 5.529,-5.03 c -0.177,1.687 -0.508,3.194 -1.983,4.638 m -6.27,-7.475 c 0.584,2.342 2.114,2.876 3.718,2.696 4.878,-0.547 9.604,0.761 12.977,-1.366 m -7.639,4.213 c 3.864,6.33 5.344,12.382 5.767,18.341 m -9.04,-3.949 c 0.095,4.055 -0.046,7.646 -0.518,10.849 2.212,-2.953 3.01,-6.845 3.527,-10.931 m -6.588,2.041 c 1.052,-1.783 1.934,-4.162 2.58,-7.361 m -5.116,19.23 c 1.608,-1.603 2.988,-4.089 4.585,-7.01 m -11.492,16.896 c 3.089,-1.342 6.177,-3.581 9.266,-8.118 m 3.02,-2.392 c -0.178,3.807 -1.114,7.613 -2.724,11.42 3.644,-2.369 5.129,-7.54 5.974,-12.06 m -9.946,-35.878 c 3.833,-1.033 9.716,-0.719 13.168,-0.018 m -1.982,105.71 c 0.357,12.296 0.502,23.535 0.662,34.852 m 2.576,-61.17 7.189,12.02 m -25.863,-17.01 c 1.43,-2.191 1.861,-6.06 3.862,-3.705"
   id="path114"
   inkscape:connector-curvature="0"
   style="fill:none;stroke:#000000;stroke-width:0.54000002;stroke-linecap:round;stroke-linejoin:round" />
			<path
   d="m 246.59,94.2 c 0.327,1.787 0.863,3.364 1.903,4.438 l 0.196,-4.385 z"
   id="path116"
   inkscape:connector-curvature="0"
   style="stroke:#000000;stroke-width:0.54000002;stroke-linecap:round;stroke-linejoin:round" />
			<path
   d="m 284.64,210.63 c -0.502,0.062 -0.989,0.283 -1.437,0.947 m -18.366,-13.819 c 0.182,0.482 0.211,1.145 0.211,1.844 m 27.365,-2.86 c 0.064,0.597 0.038,0.89 0.12,1.686 m -2.64,-8.129 c -0.544,-0.363 -0.947,-0.705 -1.197,-1.486 m -23.846,-12.481 10.273,21.029"
   id="path118"
   inkscape:connector-curvature="0"
   style="fill:none;stroke:#000000;stroke-width:0.54000002;stroke-linecap:round;stroke-linejoin:round" />
			<path
   d="m 248.52,98.6 c 1.714,-0.787 2.185,-2.662 2.58,-4.357 l -2.527,0.022 c -0.679,1.682 -0.159,3.093 -0.053,4.335 z"
   id="path120"
   inkscape:connector-curvature="0"
   style="fill:#ffffff;stroke:#000000;stroke-width:0.54000002;stroke-linecap:round;stroke-linejoin:round" />
		</g>
	</g>
</g>
</svg>