<?xml version="1.0" encoding="UTF-8" standalone="no"?>
<svg xmlns:dc="http://purl.org/dc/elements/1.1/" xmlns:cc="http://creativecommons.org/ns#" xmlns:rdf="http://www.w3.org/1999/02/22-rdf-syntax-ns#" xmlns:svg="http://www.w3.org/2000/svg" xmlns="http://www.w3.org/2000/svg" xmlns:xlink="http://www.w3.org/1999/xlink" width="1200" height="600" viewBox="-4800 -2400 9600 4800" version="1.1" id="svg52">
  <metadata id="metadata56">
    <rdf:RDF>
      <cc:Work rdf:about="">
        <dc:format>image/svg+xml</dc:format>
        <dc:type rdf:resource="http://purl.org/dc/dcmitype/StillImage"/>
        <dc:title>Flag of Nova Scotia</dc:title>
      </cc:Work>
    </rdf:RDF>
  </metadata>
  <title id="title2">Flag of Nova Scotia</title>
  <defs id="defs10">
    <path id="f" d="m-4800-2400h9600v4800h-9600z"/>
    <clipPath id="c">
      <use xlink:href="#f" id="use7"/>
    </clipPath>
  </defs>
  <use xlink:href="#f" fill="#fff" id="use12"/>
  <path clip-path="url(#c)" fill="none" stroke="#0047b6" stroke-width="960" d="m-4800-2400 9600 4800m-9600 0 9600-4800" id="path14"/>
  <g id="g1251" transform="matrix(7.3835992,0,0,7.2986277,-3691.7996,-2170.3416)" style="stroke-width:1.08977">
    <path id="path2390" style="display:inline;overflow:visible;visibility:visible;fill:none;fill-opacity:1;fill-rule:evenodd;stroke:#800080;stroke-width:1.08977;stroke-linecap:butt;stroke-linejoin:miter;stroke-miterlimit:4.9;stroke-dasharray:none;stroke-dashoffset:0;stroke-opacity:1;marker:none;marker-start:none;marker-mid:none;marker-end:none;enable-background:accumulate" d="M 500,443.5 C 559.36548,422.80831 602,366.38999 602,300 V 175 H 500 398 v 125 c 0,66.38999 42.63452,122.80831 102,143.5 z"/>
    <path id="path2394" style="display:inline;overflow:visible;visibility:visible;fill:none;fill-opacity:1;fill-rule:evenodd;stroke:#00ff00;stroke-width:1.08977;stroke-linecap:butt;stroke-linejoin:miter;stroke-miterlimit:4.9;stroke-dasharray:none;stroke-dashoffset:0;stroke-opacity:1;marker:none;marker-start:none;marker-mid:none;marker-end:none;enable-background:accumulate" d="M 500,427.5 C 550.91943,407.58918 587,357.98252 587,300 V 190 h -87 -87 v 110 c 0,57.98252 36.08057,107.58918 87,127.5 z"/>
    <path id="path2406" style="display:inline;overflow:visible;visibility:visible;fill:#fdd44f;fill-opacity:1;fill-rule:evenodd;stroke:#000000;stroke-width:1.08977;stroke-linecap:butt;stroke-linejoin:miter;stroke-miterlimit:4.9;stroke-dashoffset:0;stroke-opacity:1;marker:none;marker-start:none;marker-mid:none;marker-end:none;enable-background:accumulate" d="M 500,448.2 C 561.13316,426.69917 605,368.44127 605,300 V 171 H 500 395 v 129 c 0,68.44127 43.86684,126.69917 105,148.2 z"/>
    <path d="m 428.9056,204.90559 c -0.967,-2.9972 -3.7371,-6.29241 -6.3901,-8.51144 1.7358,1.45181 3.5217,3.36428 4.8198,5.35261 0.7469,0.0618 1.4956,0.0289 2.2228,-0.12304 -1.5012,-1.50088 -2.6422,-3.16962 -4.0272,-4.65701 -5.4276,-5.8241 -7.18,-6.13915 -10.4291,-9.3082 -1.1215,-1.09391 -4.7788,-4.30832 -2.3693,-6.68976 2.0828,-2.05857 6.5879,1.06013 9.836,-2.11528 1.5727,-1.53723 1.6132,-3.08661 0.9303,-4.95706 -1.5977,3.77257 -4.0419,3.04619 -6.6565,2.16526 -2.8141,-0.9482 -5.6483,-1.53524 -7.3922,-0.0231 -1.5676,1.35927 -1.3034,3.39211 -0.5405,5.07397 -2.6897,-3.48108 -6.4892,-6.02591 -10.4096,-6.61257 0.5867,3.92038 3.1315,7.7199 6.6126,10.40959 -1.6819,-0.76291 -3.7147,-1.02713 -5.074,0.54046 -1.5122,1.74392 -0.9251,4.57814 0.0231,7.39225 0.8809,2.61462 1.6073,5.05885 -2.1653,6.65647 1.8705,0.68293 3.4198,0.64245 4.9571,-0.93032 3.1754,-3.24809 0.0567,-7.75314 2.1152,-9.83595 2.3815,-2.40949 5.5959,1.24785 6.6898,2.36934 3.1691,3.24909 3.4841,5.00141 9.3082,10.4291 1.4874,1.385 3.1561,2.52596 4.657,4.02712 0.1519,-0.72715 0.1849,-1.47585 0.1231,-2.22271 -1.9884,-1.29819 -3.9008,-3.0841 -5.3527,-4.81988 2.2191,2.65305 5.5143,5.42317 8.5115,6.39012 z" style="display:inline;overflow:visible;visibility:visible;fill:#d21034;fill-opacity:1;fill-rule:evenodd;stroke:#000000;stroke-width:0.544886;stroke-linecap:round;stroke-linejoin:miter;stroke-miterlimit:8;stroke-dasharray:none;stroke-dashoffset:0;stroke-opacity:1;marker:none;marker-start:none;marker-mid:none;marker-end:none;enable-background:accumulate" id="path2396"/>
    <path d="m 500,175 c 1.0294,2.02183 1.6319,7.55492 1.325,11 0.2008,-2.25397 0.7577,-7.76747 3.5789,-9.9059 -0.7753,2.79756 -1.1392,6.39498 -1.114,8.95572 0.1028,10.49009 1.2497,14.48827 4.8249,14.43719 2.6157,-0.0374 2.8458,-2.47681 5.8258,-2.48701 1.9802,-0.007 2.9795,0.94449 3.663,2.75 -2.2348,-0.91292 -4.0916,0.0509 -5.3316,1.70702 -1.1398,1.52234 -2.8148,2.65166 -4.6171,2.64967 -2.575,-0.003 -4.7389,-1.94571 -5.6699,-4.64318 0.3721,4.1759 -0.4402,7.41203 -2.485,10.03649 -2.0448,-2.62446 -2.8571,-5.86059 -2.485,-10.03649 -0.931,2.69747 -3.0949,4.64039 -5.6699,4.64318 -1.8023,0.002 -3.4773,-1.12733 -4.6171,-2.64967 -1.24,-1.6561 -3.0968,-2.61994 -5.3316,-1.70702 0.6835,-1.80551 1.6828,-2.75667 3.663,-2.75 2.98,0.0102 3.2101,2.44964 5.8258,2.48701 3.5752,0.0511 4.7221,-3.9471 4.8249,-14.43719 0.0252,-2.56074 -0.3387,-6.15816 -1.114,-8.95572 2.8212,2.13843 3.3781,7.65193 3.5789,9.9059 -0.3069,-3.44508 0.2956,-8.97817 1.325,-11 z" style="display:inline;overflow:visible;visibility:visible;fill:#d21034;fill-opacity:1;fill-rule:evenodd;stroke:#000000;stroke-width:0.544886;stroke-linecap:round;stroke-linejoin:miter;stroke-miterlimit:8;stroke-dasharray:none;stroke-dashoffset:0;stroke-opacity:1;marker:none;marker-start:none;marker-mid:none;marker-end:none;enable-background:accumulate" id="path2412"/>
    <path id="path2399" style="display:inline;overflow:visible;visibility:visible;fill:#d21034;fill-opacity:1;fill-rule:evenodd;stroke:#000000;stroke-width:0.544886;stroke-linecap:round;stroke-linejoin:miter;stroke-miterlimit:8;stroke-dasharray:none;stroke-dashoffset:0;stroke-opacity:1;marker:none;marker-start:none;marker-mid:none;marker-end:none;enable-background:accumulate" d="m 571.0944,204.90559 c 0.967,-2.9972 3.7371,-6.29241 6.3901,-8.51144 -1.7358,1.45181 -3.5217,3.36428 -4.8198,5.35261 -0.7469,0.0618 -1.4956,0.0289 -2.2228,-0.12304 1.5012,-1.50088 2.6422,-3.16962 4.0272,-4.65701 5.4276,-5.8241 7.18,-6.13915 10.4291,-9.3082 1.1215,-1.09391 4.7788,-4.30832 2.3693,-6.68976 -2.0828,-2.05857 -6.5879,1.06013 -9.836,-2.11528 -1.5727,-1.53723 -1.6132,-3.08661 -0.9303,-4.95706 1.5977,3.77257 4.0419,3.04619 6.6565,2.16526 2.8141,-0.9482 5.6483,-1.53524 7.3922,-0.0231 1.5676,1.35927 1.3034,3.39211 0.5405,5.07397 2.6897,-3.48108 6.4892,-6.02591 10.4096,-6.61257 -0.5867,3.92038 -3.1315,7.7199 -6.6126,10.40959 1.6819,-0.76291 3.7147,-1.02713 5.074,0.54046 1.5122,1.74392 0.9251,4.57814 -0.0231,7.39225 -0.8809,2.61462 -1.6073,5.05885 2.1653,6.65647 -1.8705,0.68293 -3.4198,0.64245 -4.9571,-0.93032 -3.1754,-3.24809 -0.0567,-7.75314 -2.1152,-9.83595 -2.3815,-2.40949 -5.5959,1.24785 -6.6898,2.36934 -3.1691,3.24909 -3.4841,5.00141 -9.3082,10.4291 -1.4874,1.385 -3.1561,2.52596 -4.657,4.02712 -0.1519,-0.72715 -0.1849,-1.47585 -0.1231,-2.22271 1.9884,-1.29819 3.9008,-3.0841 5.3527,-4.81988 -2.2191,2.65305 -5.5143,5.42317 -8.5115,6.39012 z"/>
    <path id="path2405" style="display:inline;overflow:visible;visibility:visible;fill:#d21034;fill-opacity:1;fill-rule:evenodd;stroke:#000000;stroke-width:0.544886;stroke-linecap:round;stroke-linejoin:miter;stroke-miterlimit:8;stroke-dasharray:none;stroke-dashoffset:0;stroke-opacity:1;marker:none;marker-start:none;marker-mid:none;marker-end:none;enable-background:accumulate" d="m 399,277.5 c 2.0218,-1.0294 7.5549,-1.6319 11,-1.325 -2.254,-0.2008 -7.7675,-0.7577 -9.9059,-3.5789 2.7976,0.7753 6.395,1.1392 8.9557,1.114 10.4901,-0.1028 14.4883,-1.2497 14.4372,-4.8249 -0.0374,-2.6157 -2.4768,-2.8458 -2.487,-5.8258 -0.007,-1.9802 0.9445,-2.9795 2.75,-3.663 -0.9129,2.2348 0.0509,4.0916 1.707,5.3316 1.5224,1.1398 2.6517,2.8148 2.6497,4.6171 -0.003,2.575 -1.9457,4.7389 -4.6432,5.6699 4.1759,-0.3721 7.412,0.4402 10.0365,2.485 -2.6245,2.0448 -5.8606,2.8571 -10.0365,2.485 2.6975,0.931 4.6404,3.0949 4.6432,5.6699 0.002,1.8023 -1.1273,3.4773 -2.6497,4.6171 -1.6561,1.24 -2.6199,3.0968 -1.707,5.3316 -1.8055,-0.6835 -2.7567,-1.6828 -2.75,-3.663 0.0102,-2.98 2.4496,-3.2101 2.487,-5.8258 0.0511,-3.5752 -3.9471,-4.7221 -14.4372,-4.8249 -2.5607,-0.0252 -6.1581,0.3387 -8.9557,1.114 2.1384,-2.8212 7.6519,-3.3781 9.9059,-3.5789 -3.4451,0.3069 -8.9782,-0.2956 -11,-1.325 z"/>
    <path d="m 601,277.5 c -2.0218,-1.0294 -7.5549,-1.6319 -11,-1.325 2.254,-0.2008 7.7675,-0.7577 9.9059,-3.5789 -2.7976,0.7753 -6.395,1.1392 -8.9557,1.114 -10.4901,-0.1028 -14.4883,-1.2497 -14.4372,-4.8249 0.0374,-2.6157 2.4768,-2.8458 2.487,-5.8258 0.007,-1.9802 -0.9445,-2.9795 -2.75,-3.663 0.9129,2.2348 -0.0509,4.0916 -1.707,5.3316 -1.5224,1.1398 -2.6517,2.8148 -2.6497,4.6171 0.003,2.575 1.9457,4.7389 4.6432,5.6699 -4.1759,-0.3721 -7.412,0.4402 -10.0365,2.485 2.6245,2.0448 5.8606,2.8571 10.0365,2.485 -2.6975,0.931 -4.6404,3.0949 -4.6432,5.6699 -0.002,1.8023 1.1273,3.4773 2.6497,4.6171 1.6561,1.24 2.6199,3.0968 1.707,5.3316 1.8055,-0.6835 2.7567,-1.6828 2.75,-3.663 -0.0102,-2.98 -2.4496,-3.2101 -2.487,-5.8258 -0.0511,-3.5752 3.9471,-4.7221 14.4372,-4.8249 2.5607,-0.0252 6.1581,0.3387 8.9557,1.114 -2.1384,-2.8212 -7.6519,-3.3781 -9.9059,-3.5789 3.4451,0.3069 8.9782,-0.2956 11,-1.325 z" style="display:inline;overflow:visible;visibility:visible;fill:#d21034;fill-opacity:1;fill-rule:evenodd;stroke:#000000;stroke-width:0.544886;stroke-linecap:round;stroke-linejoin:miter;stroke-miterlimit:8;stroke-dasharray:none;stroke-dashoffset:0;stroke-opacity:1;marker:none;marker-start:none;marker-mid:none;marker-end:none;enable-background:accumulate" id="path2402"/>
    <path id="path2409" style="display:inline;overflow:visible;visibility:visible;fill:#d21034;fill-opacity:1;fill-rule:evenodd;stroke:#000000;stroke-width:0.544886;stroke-linecap:round;stroke-linejoin:miter;stroke-miterlimit:8;stroke-dasharray:none;stroke-dashoffset:0;stroke-opacity:1;marker:none;marker-start:none;marker-mid:none;marker-end:none;enable-background:accumulate" d="m 448.50996,359.75 c -2.26563,0.11941 -8.22471,2.86418 -11.0548,4.85252 1.85162,-1.3009 7.21403,-5.03994 7.65534,-8.55237 -2.03515,2.07023 -4.96864,4.18407 -7.19887,5.4426 -9.13609,5.15602 -13.17208,6.16188 -14.91543,3.04011 -1.27546,-2.28396 0.72207,-3.70293 -0.75909,-6.28879 -0.9843,-1.71825 -2.30772,-2.10807 -4.21307,-1.79725 1.90799,1.47895 2.00171,3.56888 1.18749,5.4708 -0.74854,1.7483 -0.88904,3.76354 0.0138,5.32338 1.28993,2.22861 4.05448,3.13116 6.85608,2.58868 -3.80248,1.7657 -6.19888,4.08722 -7.44936,7.17032 3.29528,0.4586 6.50398,-0.45598 9.93436,-2.86618 -1.8706,2.15502 -2.47125,5.00047 -1.18618,7.23188 0.89942,1.56184 2.71492,2.44778 4.60326,2.67368 2.05422,0.24582 3.8173,1.37195 4.14411,3.7638 1.22185,-1.49468 1.54597,-2.8357 0.55007,-4.54725 -1.49884,-2.57566 -3.72647,-1.55523 -5.06671,-3.80179 -1.83185,-3.07067 1.05724,-6.06301 10.09053,-11.39709 2.20503,-1.30217 5.50242,-2.78573 8.31287,-3.5131 -3.26251,-1.37403 -9.18182,1.40043 -11.23424,2.35353 3.13699,-1.45676 8.49357,-5.24509 9.7298,-7.14748 z"/>
    <path d="m 551.49004,359.75 c 2.26563,0.11941 8.22471,2.86418 11.0548,4.85252 -1.85162,-1.3009 -7.21403,-5.03994 -7.65534,-8.55237 2.03515,2.07023 4.96864,4.18407 7.19887,5.4426 9.13609,5.15602 13.17208,6.16188 14.91543,3.04011 1.27546,-2.28396 -0.72207,-3.70293 0.75909,-6.28879 0.9843,-1.71825 2.30772,-2.10807 4.21307,-1.79725 -1.90799,1.47895 -2.00171,3.56888 -1.18749,5.4708 0.74854,1.7483 0.88904,3.76354 -0.0138,5.32338 -1.28993,2.22861 -4.05448,3.13116 -6.85608,2.58868 3.80248,1.7657 6.19888,4.08722 7.44936,7.17032 -3.29528,0.4586 -6.50398,-0.45598 -9.93436,-2.86618 1.8706,2.15502 2.47125,5.00047 1.18618,7.23188 -0.89942,1.56184 -2.71492,2.44778 -4.60326,2.67368 -2.05422,0.24582 -3.8173,1.37195 -4.14411,3.7638 -1.22185,-1.49468 -1.54597,-2.8357 -0.55007,-4.54725 1.49884,-2.57566 3.72647,-1.55523 5.06671,-3.80179 1.83185,-3.07067 -1.05724,-6.06301 -10.09053,-11.39709 -2.20503,-1.30217 -5.50242,-2.78573 -8.31287,-3.5131 3.26251,-1.37403 9.18182,1.40043 11.23424,2.35353 -3.13699,-1.45676 -8.49357,-5.24509 -9.7298,-7.14748 z" style="display:inline;overflow:visible;visibility:visible;fill:#d21034;fill-opacity:1;fill-rule:evenodd;stroke:#000000;stroke-width:0.544886;stroke-linecap:round;stroke-linejoin:miter;stroke-miterlimit:8;stroke-dasharray:none;stroke-dashoffset:0;stroke-opacity:1;marker:none;marker-start:none;marker-mid:none;marker-end:none;enable-background:accumulate" id="path2414"/>
    <path d="m 500,440.5 c 1.0294,-2.02183 1.6319,-7.55492 1.325,-11 0.2008,2.25397 0.7577,7.76747 3.5789,9.9059 -0.7753,-2.79756 -1.1392,-6.39498 -1.114,-8.95572 0.1028,-10.49009 0.7204,-15.94287 4.4187,-16.62469 1.8045,-0.33267 3.6277,0.41891 5.2319,-0.38799 2.0826,-1.04752 2.3546,-3.81949 1.7256,-6.0625 -0.7348,2.00667 -2.5913,3.23395 -4.2691,3.23048 -1.9327,-0.004 -2.4384,-0.60747 -3.897,-0.60548 -2.575,0.004 -3.584,1.80253 -4.515,4.5 0.3721,-4.1759 -0.4402,-7.37554 -2.485,-10 -2.0448,2.62446 -2.8571,5.8241 -2.485,10 -0.931,-2.69747 -1.94,-4.49649 -4.515,-4.5 -1.4586,-0.002 -1.9643,0.60148 -3.897,0.60548 -1.6778,0.003 -3.5343,-1.22381 -4.2691,-3.23048 -0.629,2.24301 -0.357,5.01498 1.7256,6.0625 1.6042,0.8069 3.4274,0.0553 5.2319,0.38799 3.6983,0.68182 4.3159,6.1346 4.4187,16.62469 0.0252,2.56074 -0.3387,6.15816 -1.114,8.95572 2.8212,-2.13843 3.3781,-7.65193 3.5789,-9.9059 -0.3069,3.44508 0.2956,8.97817 1.325,11 z" style="display:inline;overflow:visible;visibility:visible;fill:#d21034;fill-opacity:1;fill-rule:evenodd;stroke:#000000;stroke-width:0.544886;stroke-linecap:round;stroke-linejoin:miter;stroke-miterlimit:8;stroke-dasharray:none;stroke-dashoffset:0;stroke-opacity:1;marker:none;marker-start:none;marker-mid:none;marker-end:none;enable-background:accumulate" id="path2417"/>
    <path id="path2400" style="display:inline;overflow:visible;visibility:visible;fill:#fdd44f;fill-opacity:1;fill-rule:evenodd;stroke:none;stroke-width:0.544886;stroke-linecap:round;stroke-linejoin:miter;stroke-miterlimit:4;stroke-dasharray:none;stroke-dashoffset:0;stroke-opacity:1;marker:none;marker-start:none;marker-mid:none;marker-end:none;enable-background:accumulate" d="m 500,430.20424 c 51.83104,-20.46062 88.54087,-70.9977 88.54087,-130.05671 V 187.99576 H 411.45913 v 112.15177 c 0,59.05901 36.70983,109.59609 88.54087,130.05671 z m 0,-7.90848 c 47.29734,-20.53435 80.41214,-67.64868 80.41214,-122.45038 V 195.00424 H 419.58786 v 104.84114 c 0,54.8017 33.1148,101.91603 80.41214,122.45038 z"/>
    <path id="path2418" style="display:inline;overflow:visible;visibility:visible;fill:#d21034;fill-opacity:1;fill-rule:evenodd;stroke:#000000;stroke-width:0.544886;stroke-linecap:round;stroke-linejoin:miter;stroke-miterlimit:4;stroke-dasharray:none;stroke-dashoffset:0;stroke-opacity:1;marker:none;marker-start:none;marker-mid:none;marker-end:none;enable-background:accumulate" d="M 500,432.2 C 552.6852,411.40219 590,360.03228 590,300 V 186 h -90 -90 v 114 c 0,60.03228 37.3148,111.40219 90,132.2 z m 0,-3.8 C 550.70932,407.82024 586.5,358.0644 586.5,300 V 189.5 H 500 413.5 V 300 c 0,58.0644 35.79068,107.82024 86.5,128.4 z"/>
    <path id="path2422" style="display:inline;overflow:visible;visibility:visible;fill:#d21034;fill-opacity:1;fill-rule:evenodd;stroke:#000000;stroke-width:0.544886;stroke-linecap:round;stroke-linejoin:miter;stroke-miterlimit:4;stroke-dasharray:none;stroke-dashoffset:0;stroke-opacity:1;marker:none;marker-start:none;marker-mid:none;marker-end:none;enable-background:accumulate" d="M 500,424.1 C 548.44816,403.72011 582.5,355.8125 582.5,300 V 193.5 H 500 417.5 V 300 c 0,55.8125 34.05184,103.72011 82.5,124.1 z m 0,-3.8 C 546.46674,400.12626 579,353.83931 579,300 V 197 h -79 -79 v 103 c 0,53.83931 32.53326,100.12626 79,120.3 z"/>
    <path style="display:inline;overflow:visible;visibility:visible;fill:#d21034;fill-opacity:1;fill-rule:evenodd;stroke:#000000;stroke-width:0.544886;stroke-linecap:round;stroke-linejoin:miter;stroke-miterlimit:4;stroke-dashoffset:0;stroke-opacity:1;marker:none;marker-start:none;marker-mid:none;marker-end:none;enable-background:accumulate" d="m 476.1409,224.01594 c 2.336,-1.59896 4.2676,1.84444 7.2479,2.91681 3.0734,1.1059 6.8546,1.06066 9.7227,0.61872 -2.7194,2.41791 -10.1758,5.92483 -15.1144,2.82843 -2.4499,-1.53604 -3.3758,-5.32379 -1.8562,-6.36396 z" id="rect2399"/>
    <path id="path2407" style="display:inline;overflow:visible;visibility:visible;fill:#d21034;fill-opacity:1;fill-rule:evenodd;stroke:#000000;stroke-width:0.544886;stroke-linecap:round;stroke-linejoin:miter;stroke-miterlimit:8;stroke-dasharray:none;stroke-dashoffset:0;stroke-opacity:1;marker:none;marker-start:none;marker-mid:none;marker-end:none;enable-background:accumulate" d="m 511.3157,333.86957 c -6.8257,-15.96877 -7.7646,-38.38403 -17.3269,-36.32636 1.5349,-1.60328 2.0456,-4.28304 1.2864,-6.16837 -1.0847,3.61372 -4.2051,6.80263 -8.1817,6.95139 1.0888,-4.57622 -1.9123,-8.14128 -5.9116,-8.09188 -1.051,6.65181 -6.9663,12.11521 -14.1737,11.89196 3.4376,-9.01207 -3.0035,-13.02976 -8.9962,-8.51932 2.5546,4.54147 2.3472,10.37303 -2.2715,13.08118 -1.162,-1.81724 -3.7136,-3.84398 -3.85,-7.54753 -2.0708,2.48565 -6.5005,4.44411 -10.0915,4.76521 0.259,-2.79225 -0.9815,-7.48036 1.8158,-10.44101 -3.6332,2.27464 -8.123,1.90618 -10.6406,-0.28797 2.9634,-2.9492 5.533,-7.24324 10.1961,-6.9096 -3.8346,-2.11951 -3.3321,-7.60568 -4.5172,-9.80585 5.2246,-0.15418 11.2051,-0.36244 14.0021,6.52289 2.8709,-2.12862 6.2714,-3.52802 10.755,-4.74971 7.1311,-1.94304 12.8966,-1.86566 19.3414,-5.25356 4.1079,-2.15945 6.4185,-5.51183 6.9315,-8.28802 -2.6508,2.75151 -9.1942,7.52552 -13.642,7.5185 0.7269,-1.37838 1.1983,-2.63897 1.3315,-4.07817 -2.9136,2.08194 -6.5508,3.90714 -10.9301,4.60857 0.2277,-1.43151 0.5714,-3.61848 0.1753,-4.87643 -1.536,1.99435 -4.4948,4.0617 -6.7834,4.95838 2.369,-3.97135 2.878,-10.85687 1.8329,-16.28757 1.2196,-0.94219 2.3197,-2.12284 3.2929,-3.54816 -1.9346,2.83327 -4.3702,4.69972 -7.2508,5.64823 3.35,-5.33227 4.2711,-12.95481 1.8587,-20.29644 -0.7963,1.6035 -1.6333,3.40272 -3.2119,4.80278 0.6067,-4.47418 -0.4234,-11.18946 -1.8037,-14.183 -0.4439,2.33389 -1.2745,4.99057 -2.8842,6.88488 -1.9133,-6.78713 -6.1406,-7.77203 -5.0418,-13.68559 -4.4612,5.49037 -10.6501,3.19254 -14.5908,3.13627 0.9471,-4.55978 3.7467,-8.69815 8.5373,-10.86876 -5.6681,-0.20499 -6.4751,-6.31044 -7.3994,-8.67362 2.7621,0.30687 8.0077,-0.54413 10.418,3.88243 0.2605,-5.02066 3.0428,-6.32861 3.6477,-7.64303 0.9128,1.33628 3.7882,2.52825 4.1656,7.48907 3.5652,-3.99452 7.068,-2.84345 9.6237,-2.53851 0.1035,2.77834 0.9937,8.53614 -5.1625,10.94204 1.4885,-0.58171 2.565,-1.35937 3.3403,-2.24349 -0.7753,0.88412 -0.8418,2.74373 -0.1378,3.78714 1.5702,2.32739 4.5871,5.47899 8.201,9.40912 2.0847,2.26714 3.7919,6.10011 5.8856,9.45789 1.7199,2.75831 4.0658,5.9806 6.2708,8.10469 5.7321,-3.78472 9.4871,-2.16695 20.2447,-6.63273 3.9845,-1.65408 7.9631,-4.23036 11.5763,-2.39133 7.0876,3.60738 10.7722,19.99793 9.8019,32.25838 -0.2837,3.58401 -0.1534,7.74312 0.4043,11.26085 2.0224,12.75753 6.6833,15.36236 11.6234,24.21463 2.3206,4.15825 1.5998,10.85271 6.6936,11.06634 2.7917,0.11708 6.3975,-2.38238 6.1686,-8.77693 -0.198,-5.53437 -4.2671,-16.25941 -13.9417,-12.89253 0.2141,-3.77585 3.8153,-7.4236 7.3076,-9.08979 -5.1285,-4.73653 -8.2664,-14.66032 -8.1289,-25.39903 0.2629,-20.19811 11.2439,-25.58717 11.2365,-36.09751 -0.005,-7.01101 -3.2413,-12.02087 -10.8733,-10.70777 6.5149,-8.85859 18.8191,-6.58732 23.3721,1.93673 3.7067,6.93965 3.3155,16.72486 0.1199,24.22385 4.1463,-2.12806 9.5386,-3.37732 13.052,-0.8749 -16.9732,7.85869 -23.8854,22.04747 -19.8306,36.92966 2.91,-3.93141 7.3676,-6.65299 11.5973,-7.35736 -3.2046,2.72745 -5.9245,7.22569 -5.9476,13.02446 -0.0337,8.71914 3.3105,16.15406 3.2994,23.69367 -0.0141,9.72756 -5.7581,17.50636 -15.1084,18.95883 2.3299,6.74285 13.3756,8.05903 19.0042,1.76483 2.0921,6.82872 -2.9612,14.23028 -9.5963,15.16631 3.905,1.63242 8.4575,6.5561 7.5008,11.50981 -8.2809,-5.55402 -16.9474,3.68792 -13.7842,14.30471 -2.7204,-0.29545 -5.5069,-2.04025 -7.1168,-4.44773 -0.0637,2.98364 -0.4581,8.96081 2.3646,13.84624 -1.9954,1.2755 -5.0583,1.67216 -7.4316,1.49351 0.2872,2.10308 0.9093,6.97404 -0.3019,9.77729 -2.7935,-1.2161 -7.0832,-4.76782 -7.8093,-8.55804 -2.1783,2.08645 -5.8457,3.86265 -8.5331,4.75866 1.6744,3.75383 2.0612,9.23182 0.5748,12.96053 -2.8946,-3.58077 -9.2778,-3.37055 -10.9066,-7.14164 -1.4493,5.71445 -6.3921,6.9888 -9.0627,8.87061 -0.9285,-3.07594 -3.0256,-5.74489 -1.4337,-9.85287 -4.9444,3.02706 -10.2668,1.39251 -12.0601,1.74006 0.494,-4.66866 6.7387,-10.04345 10.0864,-10.92296 -2.7625,-0.50964 -6.8337,-5.71594 -8.4406,-7.33993 7.3079,-1.85985 16.8628,-3.83284 21.7579,2.50759 3.8975,-3.27705 6.3609,-2.83329 9.7538,-4.9802 3.7707,-2.38595 6.4771,-8.70077 11.9591,-12.12827 -6.5573,-5.56689 -13.1788,-13.56014 -17.3021,-23.2067 z"/>
    <path id="path2401" d="m 508.4779,266.9523 c 0.8541,3.38197 5.7017,6.65866 9.1551,6.68477 1.4025,-2.33419 1.1205,-5.90715 -0.8651,-8.49837 4.7484,-0.41947 8.6398,4.68121 7.9631,11.78086 1.5176,-1.24993 2.3751,-3.28525 2.3368,-5.90975 -0.0454,-3.25671 -1.9218,-7.99776 -1.6484,-13.0213 0.2785,-5.11708 2.7068,-8.40007 5.2858,-10.47096 -3.4472,-0.70234 -7.1843,-0.24255 -10.3253,2.34877 1.0269,-3.89801 5.3431,-6.34942 9.3724,-6.41991 0.7963,-7.11626 -2.2308,-16.03269 -5.8518,-20.04966 4.1604,-0.23272 8.0444,-5.3429 7.8926,-6.12708 -2.6467,-1.6832 -6.5766,-1.37983 -9.2944,-0.39644 1.3267,-2.2205 2.0711,-6.42986 1.1932,-8.9265 -1.5897,1.46836 -3.8173,3.50469 -6.7279,3.88673 -3.0942,0.40614 -5.988,-1.39667 -9.7024,-0.51037 -4.1911,1.00004 -6.3123,3.95575 -10.0991,4.89058 -5.9332,1.46469 -11.7236,-1.12662 -13.405,1.18387 -1.1172,1.53523 -0.2416,3.47047 0.6036,5.8229 0.4426,1.23193 0.5766,2.7158 0.5767,4.16385 2.7304,0.62915 5.7721,0.53723 8.1737,0.16718 -1.4669,1.3043 -4.3123,2.92548 -7.3972,3.65611 0.2828,3.7174 -1.2391,8.3794 1.0181,9.12359 2.0467,0.67479 6.8686,-0.68648 10.1431,-3.84795 0.0307,2.07862 -1.5779,4.76064 -0.0656,9.421 6.7417,-2.27531 8.839,-5.25124 11.2361,-7.88721 0.5497,2.40222 2.4772,6.68605 4.8871,5.61488" style="display:inline;overflow:visible;visibility:visible;fill:#d21034;fill-opacity:1;fill-rule:evenodd;stroke:#000000;stroke-width:0.544886;stroke-linecap:round;stroke-linejoin:miter;stroke-miterlimit:4;stroke-dashoffset:0;stroke-opacity:1;marker:none;marker-start:none;marker-mid:none;marker-end:none;enable-background:accumulate"/>
    <path id="path2403" d="m 500.2638,217.49525 c 1.7136,0.115 3.8473,0.13989 5.8477,0.0562 -0.9694,0.73041 -2.4258,1.67483 -3.6769,2.39093 -0.9499,-0.59854 -1.5261,-1.33202 -2.1708,-2.44715 z" style="display:inline;overflow:visible;visibility:visible;fill:#d21034;fill-opacity:1;fill-rule:evenodd;stroke:#000000;stroke-width:0.544886;stroke-linecap:round;stroke-linejoin:miter;stroke-miterlimit:4;stroke-dashoffset:0;stroke-opacity:1;marker:none;marker-start:none;marker-mid:none;marker-end:none;enable-background:accumulate"/>
    <path d="m 485.6508,307.49565 c -6.1686,0.65744 -7.1155,6.20793 -17.8649,10.00729 2.0212,4.27971 11.0895,4.84453 16.0406,4.95307 -3.3164,4.06621 -4.3783,10.79422 -3.798,17.76046 -2.4793,-2.88659 -21.8705,-1.35823 -25.9829,-6.28147 0.7202,-7.36074 -4.7847,-10.5623 -7.3974,-12.64323 -2.0634,1.88469 -3.0202,6.02663 -3.0265,8.33048 -2.2574,-0.51431 -7.0705,-0.47802 -10.5095,1.13457 1.1049,3.77045 4.4244,5.70514 7.7532,7.11273 -2.3399,2.40287 -3.2783,7.54128 -2.6955,10.8289 1.6998,-0.17175 4.3447,-0.25495 7.3686,-2.56589 -0.5343,2.49185 0.2809,5.48045 2.1462,7.71894 2.5759,-0.8547 5.4206,-3.38522 6.5533,-6.26877 2.7937,1.26868 11.2867,1.27112 9.7236,9.83147 3.1825,-3.29158 8.3337,-4.07373 10.165,-6.03812 0.2706,2.63279 -1.0081,5.75893 -3.009,8.01608 2.4761,-0.19085 6.118,-1.86891 7.4272,-3.70836 -0.161,2.57426 1.5086,6.19785 2.6159,8.15625 2.4092,-0.7366 4.2425,-3.47418 4.9576,-5.50763 4.11,3.02508 8.6222,2.1606 12.296,0.39344 -7.42,-5.3084 -6.4003,-15.73313 -0.6323,-18.19025 7.036,-2.99727 17.8024,4.27175 10.4181,15.48 4.6621,-2.20352 9.2213,-5.22014 11.3008,-8.43658 -3.1695,-4.04001 -6.0213,-8.64707 -8.1852,-13.70946 -5.214,-12.19819 -6.993,-28.15799 -11.8046,-34.09763 -0.6124,9.789 -9.2503,7.23239 -13.8603,7.72371 z" style="display:inline;overflow:visible;visibility:visible;fill:#d21034;fill-opacity:1;fill-rule:evenodd;stroke:#000000;stroke-width:0.544886;stroke-linecap:round;stroke-linejoin:miter;stroke-miterlimit:8;stroke-dasharray:none;stroke-dashoffset:0;stroke-opacity:1;marker:none;marker-start:none;marker-mid:none;marker-end:none;enable-background:accumulate" id="path2408"/>
  </g>
</svg>