<?xml version="1.0" encoding="UTF-8" standalone="no"?>
<svg
   xmlns:dc="http://purl.org/dc/elements/1.1/"
   xmlns:cc="http://creativecommons.org/ns#"
   xmlns:rdf="http://www.w3.org/1999/02/22-rdf-syntax-ns#"
   xmlns:svg="http://www.w3.org/2000/svg"
   xmlns="http://www.w3.org/2000/svg"
   version="1.1"
   id="Ebene_1"
   x="0px"
   y="0px"
   width="500"
   height="600"
   viewBox="-176.966 -215.01 500 599.99999"
   enable-background="new -176.966 -215.01 408.272 494.945"
   xml:space="preserve"><metadata
   id="metadata4617"><rdf:RDF><cc:Work
       rdf:about=""><dc:format>image/svg+xml</dc:format><dc:type
         rdf:resource="http://purl.org/dc/dcmitype/StillImage" /><dc:title></dc:title></cc:Work></rdf:RDF></metadata><defs
   id="defs4615">
	
	
	
	
	
	
	
	
	
	
	
</defs>

<g
   id="g824"><path
     id="path5818"
     d="m -172.96598,-211.00998 v 345.3744 a 245.99999,246.69601 0 0 0 491.99996,0 v -345.3744 z"
     style="fill:#ffffff;fill-opacity:1;stroke:#000000;stroke-width:8.00004005;stroke-miterlimit:4;stroke-dasharray:none" /></g><path
   style="opacity:1;fill:#ff0000;fill-opacity:1;stroke:#0b0000;stroke-width:4;stroke-linecap:round;stroke-linejoin:miter;stroke-miterlimit:4;stroke-dasharray:none;stroke-dashoffset:0;stroke-opacity:1"
   d="m 120.87213,-189.3121 a 22.051837,22.127499 0 0 0 -22.05326,22.12661 22.051837,22.127499 0 0 0 2.47092,10.16138 c -8.36526,4.21436 -16.12053,8.74903 -23.25864,13.65995 a 22.051837,22.127499 0 0 0 -17.67129,-8.93097 22.051837,22.127499 0 0 0 -22.05094,22.1266 22.051837,22.127499 0 0 0 7.65802,16.7476 c -5.25543,6.84634 -9.81083,14.23294 -13.641,22.244999 a 22.051837,22.127499 0 0 0 -10.37188,-2.611727 22.051837,22.127499 0 0 0 -22.05326,22.128917 22.051837,22.127499 0 0 0 19.88542,22.019812 c -0.23444,1.463095 -0.46716,2.92852 -0.67095,4.422543 C -9.36801,163.5933 -3.12081,216.24024 -30.8007,333.79137 -7.57528,325.90786 11.92418,265.66634 33.26989,231.37661 l 31.28915,127.08345 33.5241,-131.56867 c 20.53519,36.82906 32.01715,97.28049 61.83566,109.89012 -17.5283,-106.15591 -34.10626,-223.70878 -43.95382,-348.358774 -2.92561,-37.032289 4.41253,-48.688363 16.38955,-69.523184 12.30638,-21.407752 80.07499,-44.749572 89.39759,13.455659 7.59694,47.431091 -44.26557,45.961126 -58.10842,17.943183 l -25.32933,20.183476 c 20.40346,16.527765 29.39707,42.768469 75.98334,33.24678 a 22.051837,22.127499 0 0 0 21.21341,16.102211 22.051837,22.127499 0 0 0 22.05094,-22.128928 22.051837,22.127499 0 0 0 -5.8534,-14.980907 c 4.6061,-7.170272 8.45023,-16.233543 11.49628,-26.298412 a 22.051837,22.127499 0 0 0 7.23001,1.248999 22.051837,22.127499 0 0 0 22.05095,-22.12661 22.051837,22.127499 0 0 0 -22.05095,-22.128928 22.051837,22.127499 0 0 0 -1.01798,0.03708 c -0.49309,-9.054332 -2.35033,-17.878565 -5.88118,-26.247335 a 22.051837,22.127499 0 0 0 10.51764,-18.84162 22.051837,22.127499 0 0 0 -22.05095,-22.1266 22.051837,22.127499 0 0 0 -16.16283,7.11552 c -7.20139,-5.37534 -15.18427,-9.93315 -23.58717,-13.65066 a 22.051837,22.127499 0 0 0 1.02261,-6.64889 22.051837,22.127499 0 0 0 -22.05094,-22.12661 22.051837,22.127499 0 0 0 -21.54658,17.47656 c -3.96231,-0.40995 -7.89332,-0.64808 -11.75772,-0.69646 -5.29639,-0.0663 -10.45988,0.22754 -15.42711,0.85201 a 22.051837,22.127499 0 0 0 -21.62061,-17.87123 z"
   id="path6434" /><path
   style="fill:none;fill-rule:evenodd;stroke:#000000;stroke-width:4;stroke-linecap:butt;stroke-linejoin:miter;stroke-miterlimit:4;stroke-dasharray:none;stroke-opacity:1"
   d="m 64.55905,358.46006 c 0,0 -0.98816,-200.09938 -2.23458,-299.767724 -0.28682,-22.935258 1.03109,-45.121847 2.23498,-68.027081 0.98964,-18.829158 -4.5946,-40.141113 8.19493,-69.522173 6.54009,-15.024358 13.56259,-24.091862 23.83981,-32.892222 11.6583,-9.98297 27.03892,-17.14571 40.97469,-20.9314 11.04975,-3.0017 30.42732,-5.6226 41.71967,-3.73776 12.7382,2.12617 24.12243,5.00089 35.01472,11.96081 9.63775,6.15831 18.21753,16.93071 23.83981,26.911807 4.98458,8.849005 8.33615,18.990721 8.19494,29.154463 0.93701,32.164707 -19.24931,43.655788 -34.26973,44.056178 -16.07027,0.428375 -19.34577,-4.655067 -28.30977,-7.62454"
   id="path6514" /><rect
   style="opacity:1;fill:#ff0000;fill-opacity:1;stroke:#000000;stroke-width:4;stroke-linecap:round;stroke-linejoin:miter;stroke-miterlimit:4;stroke-dasharray:none;stroke-dashoffset:0;stroke-opacity:1"
   id="rect6487-3"
   width="154.19331"
   height="72.757988"
   x="-12.343102"
   y="-12.732811" /><rect
   style="opacity:1;fill:#ff0000;fill-opacity:1;stroke:#000000;stroke-width:4;stroke-linecap:round;stroke-linejoin:miter;stroke-miterlimit:4;stroke-dasharray:none;stroke-dashoffset:0;stroke-opacity:1"
   id="rect6487"
   width="188.95602"
   height="36.538342"
   x="-29.724457"
   y="5.3770123" /></svg>