<?xml version="1.0" encoding="UTF-8" standalone="no"?>
<!-- Creator: CorelDRAW -->

<svg
   xmlns:dc="http://purl.org/dc/elements/1.1/"
   xmlns:cc="http://creativecommons.org/ns#"
   xmlns:rdf="http://www.w3.org/1999/02/22-rdf-syntax-ns#"
   xmlns:svg="http://www.w3.org/2000/svg"
   xmlns="http://www.w3.org/2000/svg"
   xmlns:xlink="http://www.w3.org/1999/xlink"
   xmlns:sodipodi="http://sodipodi.sourceforge.net/DTD/sodipodi-0.dtd"
   xmlns:inkscape="http://www.inkscape.org/namespaces/inkscape"
   xml:space="preserve"
   width="500"
   height="706.625"
   style="fill-rule:evenodd"
   viewBox="0 0 500 701.67665"
   id="svg2"
   version="1.1"
   inkscape:version="0.48.5 r10040"
   sodipodi:docname="svg.svg"><metadata
   id="metadata252"><rdf:RDF><cc:Work
       rdf:about=""><dc:format>image/svg+xml</dc:format><dc:type
         rdf:resource="http://purl.org/dc/dcmitype/StillImage" /></cc:Work></rdf:RDF></metadata><sodipodi:namedview
   pagecolor="#ffffff"
   bordercolor="#666666"
   borderopacity="1"
   objecttolerance="10"
   gridtolerance="10"
   guidetolerance="10"
   inkscape:pageopacity="0"
   inkscape:pageshadow="2"
   inkscape:window-width="1920"
   inkscape:window-height="1017"
   id="namedview250"
   showgrid="false"
   showguides="true"
   inkscape:guide-bbox="true"
   inkscape:zoom="0.66106443"
   inkscape:cx="130.61705"
   inkscape:cy="333.21583"
   inkscape:window-x="-8"
   inkscape:window-y="-8"
   inkscape:window-maximized="1"
   inkscape:current-layer="svg2"
   fit-margin-top="0"
   fit-margin-left="0"
   fit-margin-right="0"
   fit-margin-bottom="0"><inkscape:grid
     type="xygrid"
     id="grid3859"
     empspacing="5"
     visible="true"
     enabled="true"
     snapvisiblegridlinesonly="true"
     originx="0px"
     originy="-5px" /></sodipodi:namedview>
 <defs
   id="defs4">
  <style
   type="text/css"
   id="style6">
   
    .str1 {stroke:#1F1A17;stroke-width:0.216}
    .str0 {stroke:black;stroke-width:0.216}
    .str3 {stroke:#1F1A17;stroke-width:0.992126}
    .str2 {stroke:white;stroke-width:1.41732}
    .fil12 {fill:none}
    .fil4 {fill:none;fill-rule:nonzero}
    .fil11 {fill:white}
    .fil8 {fill:#0446E4}
    .fil6 {fill:#ED1A24}
    .fil9 {fill:#ED241A}
    .fil0 {fill:#F00000}
    .fil7 {fill:#F3A29A}
    .fil2 {fill:#FFD90F}
    .fil10 {fill:black}
    .fil3 {fill:#E5E5E5}
    .fil5 {fill:white}
    .fil1 {fill:#004A8D}
   
  </style>
 
 <style
   id="style3233"
   type="text/css">
   
    .str2 {stroke:white;stroke-width:0.216}
    .str0 {stroke:#F00000;stroke-width:0.216}
    .str1 {stroke:black;stroke-width:0.216}
    .fil1 {fill:none;fill-rule:nonzero}
    .fil10 {fill:#1F1A17}
    .fil12 {fill:white}
    .fil8 {fill:#0446E4}
    .fil6 {fill:#ED1A24}
    .fil9 {fill:#ED241A}
    .fil0 {fill:#F00000}
    .fil7 {fill:#F3A29A}
    .fil5 {fill:#FFCB05}
    .fil4 {fill:#FFD90F}
    .fil11 {fill:black}
    .fil2 {fill:#E5E5E5}
    .fil3 {fill:white}
    .fil13 {fill:#F00000;fill-rule:nonzero}
   
  </style>
  
 <style
   id="style6-7"
   type="text/css">
   
    .str4 {stroke:#1F1A17;stroke-width:0.216}
    .str0 {stroke:#F00000;stroke-width:0.216}
    .str1 {stroke:#FFD90F;stroke-width:0.216}
    .str2 {stroke:black;stroke-width:0.216}
    .str3 {stroke:#004A8D;stroke-width:0.216}
    .fil15 {fill:none}
    .fil1 {fill:none;fill-rule:nonzero}
    .fil14 {fill:#1F1A17}
    .fil12 {fill:white}
    .fil8 {fill:#0446E4}
    .fil6 {fill:#ED1A24}
    .fil9 {fill:#ED241A}
    .fil0 {fill:#F00000}
    .fil7 {fill:#F3A29A}
    .fil13 {fill:red}
    .fil5 {fill:#FFCB05}
    .fil2 {fill:#FFD90F}
    .fil11 {fill:black}
    .fil3 {fill:#E5E5E5}
    .fil4 {fill:white}
    .fil10 {fill:#004A8D}
   
  </style>
  
  
  
  
  
  
  
  
  
  
  
  
  
  
  
  
  
  
  
  
  
  
  
  
  
  
  
  
  
  
  
  
  
  
  
  
  
  
  
  
  
  
  
  
  
  
  
  
  
  
  
  
  
  
  
  
  
  
  
  
  
  
  
  
  
  
  
  
  
  
  
  
  
  
  
  
  
  
  
  
  
  
  
  
  
  
  
  
  
  
  
  
  
  
  
  
  
  
  
  
  
  
  
  
  
  
  
  
  
  
  
  
  
 
 <clipPath
   clipPathUnits="userSpaceOnUse"
   id="clipPath10172"><path
     sodipodi:nodetypes="csc"
     inkscape:connector-curvature="0"
     id="path10174"
     d="m 0,467.25 c 0,87.40704 60,239.34375 250,239.34375 190,0 250.00001,-151.9367 250,-239.34375"
     style="fill:#004a8d;fill-opacity:1;stroke:none" /></clipPath></defs>
 <g
   id="Layer_x0020_1"
   transform="translate(0,-2.375)">
  <metadata
   id="CorelCorpID_0Corel-Layer" />
  
  
  <g
   id="g3891"
   transform="translate(0.45314,-0.7123329)"
   style="fill:#ffd90f;fill-opacity:1;stroke:#000000;stroke-width:0.25;stroke-miterlimit:4;stroke-dasharray:none"><path
     style="fill:#ffd90f;fill-opacity:1;stroke:none"
     d="m 480,203.40625 -460.9063,0 c -9.97852,0 -9.97852,-19.28125 0,-19.28125 l 4.84375,0 0,-1.8125 -2.5,0 0,-29.75 2.5,0 0,-2.15625 -4.8437,0 c -9.97852,0 -9.97852,-14.4375 0,-14.4375 l 4.96875,0 0,-38.53125 c 4.56264,-1.9443 6.01356,-6.15655 6.75,-16.96875 C 29.7055,71.25016 26.384305,67.944862 19,64.45127 14.163581,48.742032 28.88165,27.78585 3.09375,13.15625 c 0,0 6.20099,-11.375 15.90625,-11.375 l -5e-5,0 c 9.7118,0 17.2351,6.24017 24.25,14.78125 L 55.6562,14.875 c -0.951,21.4685 -5.73955,39.30125 -16.84375,52.46875 15.1453,-9.3498 33.795,-16.90063 52.875,-21.6875 l -2.9375,10.28125 c 9.8765,6.2535 16.50503,16.32013 23.28125,25.5625 -6.8737,9.7353 -12.8011,19.57118 -22.6875,23.5 l 0.59375,11.40625 C 71.73445,114.69015 54.534,109.18597 37.9062,99.875 c 9.48259,15.77284 25.9279,26.25153 46.125,25.65625 17.0909,0.356 34.30267,-8.6157 42.84375,-31.9375 l 20.6875,0.84375 c 0.7114,6.4834 18.0248,30.53069 47,30.53125 22.4048,0 34.50532,-14.47355 40.1875,-25.65625 -16.9399,9.70021 -33.89905,19.61411 -50.84375,15.96875 l 1.1875,-8.5625 C 176.9634,99.727854 168.64018,95.005 162.0312,80.6875 168.9435,71.5024 177.22008,64.2113 185.68745,58.78125 L 185.0937,47.9375 c 16.4047,3.7151 32.04945,8.86739 46.09375,17.125 -8.3124,-14.3365 -15.86343,-29.0313 -19.5,-45.625 l 9.46875,2.84375 c 7.7851,-8.5561 17.66495,-14.41171 28.39065,-19.96875 10.7257,5.55704 20.60555,11.41265 28.39065,19.96875 l 9.46875,-2.84375 c -3.63657,16.5937 -11.1876,31.2885 -19.5,45.625 C 281.95055,56.80489 297.5953,51.6526 314,47.9375 l -0.59375,10.84375 C 321.87362,64.2113 330.1502,71.5024 337.0625,80.6875 330.45352,95.005 322.1303,99.727854 314,106.71875 l 1.1875,8.5625 c -16.9447,3.64536 -33.90385,-6.26854 -50.84375,-15.96875 5.68218,11.1827 17.7827,25.65625 40.1875,25.65625 28.9752,-5.6e-4 46.2886,-24.04785 47,-30.53125 l 20.6875,-0.84375 c 8.54108,23.3218 25.75285,32.2935 42.84375,31.9375 20.1971,0.59528 36.64241,-9.88341 46.125,-25.65625 -16.6278,9.31097 -33.82825,14.81515 -52.03125,16.53125 L 409.75,105 c -9.8864,-3.92882 -15.8138,-13.7647 -22.6875,-23.5 6.77622,-9.24237 13.40475,-19.309 23.28125,-25.5625 l -2.9375,-10.28125 c 19.08,4.78687 37.7297,12.3377 52.875,21.6875 C 449.17705,54.17625 444.3885,36.3435 443.4375,14.875 l 12.40625,1.6875 c 7.0149,-8.54108 14.5382,-14.78125 24.25,-14.78125 l -5e-5,0 c 9.70526,0 15.90625,11.375 15.90625,11.375 -25.7879,14.6296 -11.06983,35.585782 -15.90625,51.29502 -7.3843,3.493592 -10.7055,6.79889 -11.8125,16.01748 0.73644,10.8122 2.18736,15.02445 6.75,16.96875 l 0,38.53125 4.96875,0 c 9.97852,0 9.97852,14.4375 0,14.4375 l -4.8437,0 0,2.15625 2.5,0 0,29.75 -2.5,0 0,1.8125 4.84375,0 c 9.97852,0 9.97852,19.28125 0,19.28125 z"
     id="polygon14"
     inkscape:connector-curvature="0"
     transform="translate(0,-1.1939171)"
     sodipodi:nodetypes="ccsccccccsscccccccccccccccccccccccccccccccccccccccccccccccccccccccccccssccccccsc" /><g
     id="g18"
     style="fill:#ffd90f;fill-opacity:1;stroke:#000000;stroke-width:0.25;stroke-miterlimit:4;stroke-dasharray:none">
   
  </g><g
     id="g26"
     style="fill:#ffd90f;fill-opacity:1;stroke:#000000;stroke-width:0.25;stroke-miterlimit:4;stroke-dasharray:none">
   
  </g><g
     id="g34"
     style="fill:#ffd90f;fill-opacity:1;stroke:#000000;stroke-width:0.25;stroke-miterlimit:4;stroke-dasharray:none">
   
  </g><g
     id="g120"
     style="fill:#ffd90f;fill-opacity:1;stroke:#000000;stroke-width:0.25;stroke-miterlimit:4;stroke-dasharray:none">
   
  </g><g
     id="g128"
     style="fill:#ffd90f;fill-opacity:1;stroke:#000000;stroke-width:0.25;stroke-miterlimit:4;stroke-dasharray:none">
   
  </g><g
     id="g136"
     style="fill:#ffd90f;fill-opacity:1;stroke:#000000;stroke-width:0.25;stroke-miterlimit:4;stroke-dasharray:none">
   
  </g><g
     id="g146"
     style="fill:#ffd90f;fill-opacity:1;stroke:#000000;stroke-width:0.25;stroke-miterlimit:4;stroke-dasharray:none">
   
  </g><g
     id="g5570"
     style="stroke-width:1.5;stroke-miterlimit:4;stroke-dasharray:none"
     transform="translate(-0.9827485,0)"><path
       id="path5568"
       d="m 484.03945,148.228 -467.019703,0"
       style="fill:none;stroke:#a08700;stroke-width:1.5;stroke-linecap:round;stroke-miterlimit:4;stroke-opacity:1;stroke-dasharray:none"
       inkscape:connector-curvature="0"
       sodipodi:nodetypes="cc" /><path
       id="path156"
       d="m 17.019747,135.7829 467.019703,0"
       style="fill:none;stroke:#ffffff;stroke-width:1.5;stroke-linecap:round;stroke-miterlimit:4;stroke-dasharray:none"
       inkscape:connector-curvature="0"
       sodipodi:nodetypes="cc" /></g><path
     id="path22"
     d="m 15.4352,68.417 c 4.17232,-2.8766 9.53944,-2.58945 11.626,0.57515 2.38365,2.87547 0.595559,7.76495 -3.57761,10.6415 -4.17345,2.59314 -9.54086,2.30627 -11.6277,-0.57515 C 9.77441,75.89447 11.262031,71.00527 15.4352,68.417 z"
     class="fil5"
     inkscape:connector-curvature="0"
     style="fill:#ffffff;fill-opacity:1;stroke:none" /><g
     style="fill:#ffd90f;fill-opacity:1;stroke:#000000;stroke-width:0.25;stroke-miterlimit:4;stroke-dasharray:none"
     id="g5167"
     transform="matrix(-1,0,0,1,499.0937,0)">
   <path
   sodipodi:nodetypes="czczczczc"
   style="fill:none;stroke:#a08700;stroke-width:1;stroke-miterlimit:4;stroke-opacity:1;stroke-dasharray:none"
   inkscape:connector-curvature="0"
   class="fil4 str0"
   d="m 24.097485,94.702379 c 0,0 12.213976,36.829681 57.371198,36.829681 45.157217,0 55.758407,-36.829681 55.758407,-36.829681 0,0 9.4702,36.736921 53.96627,36.829681 44.49608,0.0927 58.35349,-38.829681 58.35349,-38.829681 0,0 13.85741,38.922381 58.35349,38.829681 44.49607,-0.0928 53.96627,-36.829681 53.96627,-36.829681 0,0 10.60119,36.829681 55.75841,36.829681 45.15722,0 57.37119,-36.829681 57.37119,-36.829681"
   id="path5169" />
  </g><g
     id="g4827"
     transform="matrix(-1,0,0,1,499.53235,0)"
     style="stroke-width:0.25;stroke-miterlimit:4;stroke-dasharray:none"><path
       transform="translate(-0.79175568,0)"
       style="fill:#a68c01;fill-opacity:1;stroke:none"
       d="m 249.711,57.0342 2.135,0.0876 -1.0675,-40.5975 z"
       id="polygon144"
       inkscape:connector-curvature="0"
       sodipodi:nodetypes="cccc" /><path
       style="fill:#a68c01;fill-opacity:1;stroke:none"
       d="m 329.731,80.35745 -58.976,-0.84105 0.049,1.6821 z"
       id="polygon152"
       inkscape:connector-curvature="0"
       sodipodi:nodetypes="cccc" /><path
       sodipodi:nodetypes="cccc"
       inkscape:connector-curvature="0"
       id="path4836"
       d="m 170.24,80.35745 58.976,-0.84105 -0.049,1.6821 z"
       style="fill:#a68c01;fill-opacity:1;stroke:none" /></g><g
     id="g4860"
     transform="translate(-0.46375,0)"
     style="stroke-width:0.25;stroke-miterlimit:4;stroke-dasharray:none"><path
       style="fill:#e5e5e5;fill-opacity:1;stroke:none"
       inkscape:connector-curvature="0"
       class="fil3"
       d="m 250.16,62.6502 c 9.53915,0 17.2854,7.76495 17.2854,16.9736 0,9.20325 -7.74624,16.6864 -17.2854,16.6864 -9.83764,0 -17.5842,-7.48262 -17.5842,-16.6864 2.8e-4,-9.2092 7.74624,-16.9736 17.5842,-16.9736 z"
       id="path126" /><path
       style="fill:#ffffff;fill-opacity:1;stroke:none"
       inkscape:connector-curvature="0"
       class="fil5"
       d="m 242.404,70.128 c 4.17175,-2.8766 9.53434,-2.58832 11.6209,0.575433 2.38394,2.87518 0.6001,7.76977 -3.57307,10.6464 -4.17288,2.58775 -9.54057,2.30117 -11.6272,-0.575433 -2.08517,-3.16857 -0.59386,-8.05805 3.57931,-10.6464 z"
       id="path132" /></g><path
     style="fill:#a68c01;fill-opacity:1;stroke:none"
     d="M 42.865456,81.729455 101.29,80.885705 42.865456,80.041955 z"
     id="polygon142"
     inkscape:connector-curvature="0"
     sodipodi:nodetypes="cccc" /><g
     id="g5194"
     style="stroke-width:0.25;stroke-miterlimit:4;stroke-dasharray:none"><g
       transform="translate(-0.19776646,0.27091064)"
       id="g5022"
       style="stroke-width:0.25;stroke-miterlimit:4;stroke-dasharray:none"><path
         id="path56"
         d="m 133.791,154.389 c 15.118,0 27.4601,5.24183 27.4601,11.651 0,6.40574 -12.3421,11.6461 -27.4601,11.6461 -15.2238,0 -27.5661,-5.24041 -27.5661,-11.6461 0,-6.40942 12.3423,-11.6507 27.5661,-11.651 z"
         class="fil8"
         inkscape:connector-curvature="0"
         style="fill:#004a8d;fill-opacity:1;stroke:none" /><path
         style="fill:#ffffff;fill-opacity:1;stroke:none"
         d="m 127.80602,158.02483 c -1.20912,-0.026 -2.63142,0.12679 -4.12465,0.4375 -3.98165,0.83396 -6.94159,2.74204 -6.63664,4.15625 0.30944,1.41392 3.87412,1.82857 7.75309,1 3.98165,-0.83367 6.94636,-2.74233 6.63665,-4.15625 -0.19041,-0.8837 -1.61326,-1.3941 -3.62845,-1.4375 z m 26.39153,1.28125 c 2.34583,1.50123 3.69047,3.33435 3.69047,5.25 0,5.57713 -11.4525,10.15569 -25.33711,10.15625 -13.47356,0 -24.60346,-4.24491 -25.21306,-9.65625 -0.10127,0.16611 -0.093,0.33417 -0.093,0.5 0,5.65962 11.74252,10.3125 26.23646,10.3125 14.39232,0 26.11242,-4.65795 26.11242,-10.3125 0,-2.3298 -2.02973,-4.50046 -5.39615,-6.25 z"
         id="path58"
         inkscape:connector-curvature="0" /></g><g
       transform="translate(0.28363348,0.28362774)"
       id="g4981"
       style="stroke-width:0.25;stroke-miterlimit:4;stroke-dasharray:none"><path
         transform="translate(-5e-5,-1.1939171)"
         style="fill:#ff867d;fill-opacity:1;stroke:none"
         d="m 21.022246,153.10818 -0.0066,14.12617 -7.765625,0 7.765625,14.07815 0,-14.07815 43.453125,0 z"
         id="polygon72"
         inkscape:connector-curvature="0"
         sodipodi:nodetypes="ccccccc" /><path
         style="fill:#ffffff;fill-opacity:1;stroke:none"
         d="m 21.015625,161.5 0,5.73435 19.484375,0 z m 0,5.73435 -3.953125,0 3.953125,7.32815 z"
         transform="translate(-5e-5,-1.1939171)"
         id="polygon82"
         inkscape:connector-curvature="0"
         sodipodi:nodetypes="cccccccc" /><path
         sodipodi:nodetypes="ccccccc"
         inkscape:connector-curvature="0"
         id="path5591"
         d="m 21.022196,180.11858 -0.0066,-14.12617 -7.765625,0 7.765625,-14.07815 0,14.07815 43.453125,0 z"
         style="fill:#e70924;fill-opacity:1;stroke:none" /></g><g
       style="stroke-width:0.22938725;stroke-miterlimit:4;stroke-dasharray:none"
       transform="matrix(1.08986,0,0,1.08986,-10.708304,-14.627282)"
       id="g5015"><g
         id="g4987"
         transform="matrix(0.86670223,0,0,1,11.753487,0)"
         style="stroke-width:0.24639639;stroke-miterlimit:4;stroke-dasharray:none"><path
           style="fill:#e5e5e5;fill-opacity:1;stroke:none"
           inkscape:connector-curvature="0"
           class="fil3"
           d="m 88.2264,155.389 c 3.28989,0 5.96665,2.24277 5.96665,4.90989 0,2.66003 -2.67676,4.90819 -5.96665,4.90819 -3.39336,-2.8e-4 -6.07011,-2.24759 -6.07011,-4.90819 0,-2.66712 2.67676,-4.90933 6.07011,-4.90989 z"
           id="path102" /><path
           style="fill:#ffffff;fill-opacity:1;stroke:none"
           inkscape:connector-curvature="0"
           class="fil5"
           d="m 85.5545,157.553 c 1.43773,-0.83395 3.29103,-0.74976 4.00734,0.16611 0.823748,0.83339 0.209764,2.24731 -1.23279,3.08098 -1.43915,0.74608 -3.29103,0.66274 -4.01244,-0.16583 -0.716315,-0.91616 -0.204662,-2.33008 1.23789,-3.08126 z"
           id="path104" /></g><use
         style="stroke-width:0.22938725;stroke-miterlimit:4;stroke-dasharray:none"
         x="0"
         y="0"
         xlink:href="#g4987"
         id="use4991"
         transform="translate(0,11.438755)"
         width="500"
         height="709" /></g><g
       transform="translate(-1.0780869,0.28362774)"
       id="g5053"
       style="stroke-width:0.25;stroke-miterlimit:4;stroke-dasharray:none"><path
         style="fill:#e70924;fill-opacity:1;stroke:none"
         d="m 250.625,153.07812 0,14.14063 47.21875,0 z m 0,14.14063 -47.21875,0 47.21875,14.17187 z"
         id="polygon38"
         inkscape:connector-curvature="0"
         sodipodi:nodetypes="cccccccc"
         transform="translate(-5e-5,-1.1939171)" /><path
         style="fill:#ff867d;fill-opacity:1;stroke:none"
         d="m 250.625,153.07812 -47.21875,14.14063 47.21875,0 z m 0,14.14063 0,14.17187 47.21875,-14.17187 z"
         transform="translate(-5e-5,-1.1939171)"
         id="polygon42"
         inkscape:connector-curvature="0"
         sodipodi:nodetypes="cccccccc" /><path
         style="fill:#ffffff;fill-opacity:1;stroke:none"
         d="m 250.625,153.07812 -11,3.27869 11,10.86194 z m 0,14.14063 0,14.17187 11,-3.23472 z"
         transform="translate(-5e-5,-1.1939171)"
         id="polygon46"
         inkscape:connector-curvature="0"
         sodipodi:nodetypes="cccccccc" /></g><use
       height="709"
       width="500"
       transform="translate(96.300987,0)"
       id="use5080"
       xlink:href="#g5015"
       y="0"
       x="0"
       style="stroke-width:0.25;stroke-miterlimit:4;stroke-dasharray:none" /><use
       id="use5130"
       xlink:href="#g5022"
       y="0"
       x="0"
       width="500"
       height="709"
       transform="translate(232.01326,0)"
       style="stroke-width:0.25;stroke-miterlimit:4;stroke-dasharray:none" /><use
       transform="matrix(-1,0,0,1,499.09374,0)"
       id="use5132"
       xlink:href="#g4981"
       y="0"
       x="0"
       width="500"
       height="709"
       style="stroke-width:0.25;stroke-miterlimit:4;stroke-dasharray:none" /><use
       id="use5134"
       xlink:href="#g5015"
       y="0"
       x="0"
       width="500"
       height="709"
       transform="translate(328.31424,0)"
       style="stroke-width:0.25;stroke-miterlimit:4;stroke-dasharray:none" /><use
       id="use5138"
       xlink:href="#use5080"
       y="0"
       x="0"
       width="500"
       height="709"
       transform="translate(135.71227,0)"
       style="stroke-width:0.25;stroke-miterlimit:4;stroke-dasharray:none" /></g><path
     sodipodi:nodetypes="cccc"
     inkscape:connector-curvature="0"
     id="path5232"
     d="m 456.22824,81.729455 -58.42454,-0.84375 58.42454,-0.84375 z"
     style="fill:#a68c01;fill-opacity:1;stroke:none" /><use
     x="0"
     y="0"
     xlink:href="#g4860"
     id="use5270"
     transform="translate(-112.70298,0)"
     width="500"
     height="709"
     style="stroke-width:0.25;stroke-miterlimit:4;stroke-dasharray:none" /><use
     height="709"
     width="500"
     transform="translate(-226.9734,0)"
     id="use5283"
     xlink:href="#g4860"
     y="0"
     x="0"
     style="stroke-width:0.25;stroke-miterlimit:4;stroke-dasharray:none" /><use
     height="709"
     width="500"
     transform="translate(226.0459,0)"
     id="use5296"
     xlink:href="#g4860"
     y="0"
     x="0"
     style="stroke-width:0.25;stroke-miterlimit:4;stroke-dasharray:none" /><use
     x="0"
     y="0"
     xlink:href="#g4860"
     id="use5298"
     transform="translate(111.77548,0)"
     width="500"
     height="709"
     style="stroke-width:0.25;stroke-miterlimit:4;stroke-dasharray:none" /><g
     id="g5574"
     transform="matrix(1,0,0,1.3453721,-0.9827485,1.4420429)"
     style="stroke-width:1.29321301;stroke-miterlimit:4;stroke-dasharray:none"><path
       style="fill:none;stroke:#a08700;stroke-width:1.29321301;stroke-linecap:round;stroke-miterlimit:4;stroke-opacity:1;stroke-dasharray:none"
       d="m 484.03945,148.228 -467.019703,0"
       id="path5576"
       inkscape:connector-curvature="0"
       sodipodi:nodetypes="cc" /><path
       style="fill:none;stroke:#ffffff;stroke-width:1.29321301;stroke-linecap:round;stroke-miterlimit:4;stroke-dasharray:none"
       d="m 17.019747,135.7829 467.019703,0"
       id="path5578"
       inkscape:connector-curvature="0"
       sodipodi:nodetypes="cc" /></g></g><path
   style="fill:#e70924;fill-opacity:1;stroke:none"
   d="m 250,467.25 0,-265.65625 -250,0 L 0,467.25"
   transform="translate(0,-0.099175)"
   id="path3863"
   inkscape:connector-curvature="0"
   sodipodi:nodetypes="cccc" />
  
  
  
  
  
  
  
  
  
  
  
  
  
  
  
  
  
  
  
  
  
  
  
  
  
  
  
  
  
  
  
  
  
  
  
  
  
  
  
  
  
  
  
  
  
  
  
  
  
  
  
  
  
  
  
  
  
  
  
  
  
  
  
  
  
  
  
  
  
  
  
  
  
  
  
  
  
  
  
  
  
  
  
  
  
  
  
  
  
  
  
  
  
  
  
  
  
  
  
  
  
  
  
  
  
  
  
  
  
  
 <path
   style="fill:#e70924;fill-opacity:1;stroke:none"
   d="m 500,467.25 0,-265.65625 -250,0 0,265.65625"
   transform="translate(0,-0.099175)"
   id="path3867"
   inkscape:connector-curvature="0"
   sodipodi:nodetypes="cccc" /><path
   style="fill:#004a8d;fill-opacity:1;stroke:none"
   d="m 0,467.15082 c 0,87.40705 60,239.34375 250,239.34375 190,0 250.00001,-151.9367 250,-239.34375"
   id="path6456"
   inkscape:connector-curvature="0"
   sodipodi:nodetypes="csc" /><path
   inkscape:connector-curvature="0"
   id="path8602"
   d="M 250,467.14235 C 250.00001,379.73529 250,201.5 250,201.5"
   style="fill:none;fill-opacity:1;stroke:#ffffff;stroke-width:0.5;stroke-miterlimit:4;stroke-dasharray:none"
   sodipodi:nodetypes="cc" /><g
   transform="matrix(0.89974662,0,0,0.89974662,9.9387612,-23.459685)"
   style="fill-rule:evenodd"
   id="g8687"><g
     id="g9055"
     transform="matrix(0.94232033,0,0,0.93590804,3.928456,12.734908)"><g
       id="g3422"><path
         id="path3424"
         d="m 115.971,476.417 0.33449,0.10091 -5.7e-4,0 -0.057,0.16129 -0.0706,0.15648 -0.0822,0.1525 -0.0919,0.14882 -0.10091,0.14542 -0.10828,0.1423 -0.11396,0.14031 -0.11792,0.13833 -0.12075,0.13635 -0.12331,0.13521 -0.12302,0.13323 -0.12303,0.13351 -0.12019,0.13181 -0.11678,0.13181 -0.11282,0.13097 -0.10602,0.13096 -0.0986,0.13124 -0.0899,0.12983 -0.0811,0.13067 -0.0689,0.13011 -0.0575,0.12955 -0.0453,0.13011 -0.0312,0.12926 -0.017,0.13011 -0.003,0.13238 0.0142,0.13492 0.0315,0.13862 0.0499,0.14343 0.0714,0.14939 0.0938,0.15534 0.11878,0.16214 0.14598,0.16781 -0.25568,0.23754 -0.16186,-0.18822 -0.13692,-0.18538 -0.1114,-0.18369 -0.0867,-0.18227 -0.0635,-0.18028 -0.0394,-0.1783 -0.0181,-0.17575 0.003,-0.17206 0.0221,-0.16866 0.0397,-0.16441 0.055,-0.15903 0.0683,-0.15562 0.0814,-0.15052 0.0901,-0.14712 0.0995,-0.14456 0.10715,-0.14089 0.11282,-0.13946 0.11678,-0.13777 0.12076,-0.13578 0.12302,-0.13464 0.12303,-0.13351 0.12302,-0.13323 0.12048,-0.13238 0.11792,-0.13238 0.11282,-0.13153 0.10715,-0.13181 0.0998,-0.13266 0.0913,-0.13181 0.0828,-0.13238 0.0709,-0.13209 0.0598,-0.1321 0.0473,-0.13237 -5.7e-4,0 z m 0.33449,0.10091 -5.7e-4,0 0.0598,-0.19644 -0.0592,0.19644 z m 1.38954,-4.85632 0.11225,0.33052 -0.15987,0.0615 -0.14514,0.0709 -0.13068,0.0794 -0.11678,0.0876 -0.1063,0.0953 -0.0944,0.10233 -0.0845,0.11083 -0.076,0.11764 -0.0669,0.12472 -0.0593,0.13238 -0.0513,0.13805 -0.0442,0.144 -0.0383,0.14967 -0.032,0.1542 -0.0261,0.15959 -0.0221,0.16215 -0.0182,0.16611 -0.0139,0.16809 -0.0113,0.17008 -0.009,0.17121 -0.007,0.17207 -0.007,0.17206 -0.007,0.17206 -0.007,0.17093 -0.008,0.16951 -0.0102,0.16725 -0.0136,0.16497 -0.0164,0.16214 -0.0207,0.15874 -0.0267,0.15449 -0.0329,0.15052 -0.0388,0.14542 -0.33449,-0.10091 0.0349,-0.12671 0.0284,-0.13408 0.0238,-0.14088 0.0196,-0.14741 0.0164,-0.1525 0.0125,-0.15817 0.0102,-0.16214 0.008,-0.16555 0.007,-0.16923 0.007,-0.17092 0.007,-0.1732 0.007,-0.1749 0.009,-0.17518 0.0113,-0.17575 0.015,-0.1749 0.0181,-0.17404 0.0232,-0.17348 0.0289,-0.17037 0.0349,-0.16894 0.0422,-0.16611 0.0499,-0.16214 0.0592,-0.15846 0.0689,-0.15279 0.0794,-0.14797 0.0907,-0.14201 0.10375,-0.13408 0.1165,-0.12671 0.12955,-0.11735 0.144,-0.10687 0.15789,-0.0958 0.17234,-0.0845 0.18709,-0.0723 z"
         class="fil13"
         inkscape:connector-curvature="0"
         style="fill:#f00000;fill-rule:nonzero" /></g><path
       style="fill:#ffd90f"
       d="m 75.193416,215.74778 c -4.464926,3.20827 -7.212149,6.02879 -8.727431,14.32193 l 7.033095,-1.05496 c 1.886636,-4.15464 5.62227,-7.91738 4.763323,-10.90131 z m 13.554691,1.69434 c -0.07133,0.002 -0.130273,0.006 -0.191811,0.032 -3.992226,5.54781 -11.646707,10.08379 -14.321938,15.63265 l -4.667417,0.25575 c -7.470429,-0.89006 -16.518354,2.36812 -21.514875,7.70444 -7.06173,2.60181 -11.465191,5.92492 -12.339884,6.48962 -0.764598,3.39835 -1.052956,4.49948 0.479529,5.75436 l 3.45261,-3.45261 0.319686,1.79024 -4.315763,4.66741 c 0.278357,3.75357 2.142113,5.69091 4.123952,5.46663 3.903312,-6.25655 12.39484,-5.32666 15.153122,1.08695 1.149374,1.30035 1.275501,3.84095 0.41559,6.13796 -11.112441,-10.97694 -20.134485,-1.70991 -22.53787,-2.23779 -8.10974,-1.33064 -2.726949,-7.3351 -5.850256,-8.27987 -12.327787,3.52275 -1.749118,22.20232 12.819414,12.3079 0.889378,7.03526 0.480232,12.07532 5.530569,11.4128 9.195872,-2.57923 17.095405,3.06189 24.455987,11.76445 0.688316,-4.08472 1.013646,-8.53336 2.045991,-12.27594 l 7.576561,3.9641 -1.982054,-10.74145 8.375776,1.08693 -9.782394,-12.75548 10.166017,0.60741 C 80.40333,254.74862 73.545468,257.73984 73.818766,249.50667 l 1.438587,-1.40663 c 2.901783,7.41408 12.35004,10.79703 16.048243,19.72464 l -9.238929,-1.56645 c 2.471119,4.26335 4.930613,7.80796 6.713408,12.75548 l -8.887273,-1.79026 c 2.429184,5.48787 1.849947,9.03043 1.470556,12.65957 l -7.544592,-5.27485 -2.397646,15.69658 c -1.106859,-1.38835 -9.554792,-11.45511 -10.869328,-11.15705 -2.758306,13.96359 -2.42094,15.29791 -2.626844,17.75855 0.337924,2.14632 3.481065,2.30201 4.594183,4.11058 -0.72552,2.25592 -3.811841,4.65414 -4.382609,6.40768 -0.101973,2.59059 5.316893,3.40357 5.682279,5.31958 0.09625,1.78888 -4.263647,2.42461 -4.322159,4.38261 1.44889,2.55477 5.263127,4.3754 6.105427,6.25655 l -3.778111,2.50866 7.163298,9.00702 c 3.01026,-3.56188 1.34644,-11.78859 0.483598,-15.50537 l 1.934393,0.3627 c 5.273749,15.9496 -1.458466,21.84006 5.803178,67.06956 -3.849461,-1.80572 -10.772786,-5.63343 -13.631423,-3.92923 -4.810687,-0.5574 -9.436159,-0.10371 -12.664227,2.02507 1.035263,1.69235 5.193271,2.35297 7.314422,3.53631 -2.275428,0.56427 -8.390857,5.41203 -9.27904,9.39994 l 9.037241,-1.48102 c -2.275428,1.35222 -5.905558,6.69719 -6.377451,10.24623 l 11.092533,-5.41025 c -1.966159,1.2417 -5.119269,8.65628 -4.956881,11.57613 7.391321,-4.80024 18.152332,-3.21631 29.952861,-4.23148 2.432804,-0.33966 11.39289,-5.20662 9.943987,-20.94585 l 2.236641,-16.01973 4.050132,0.33247 c -1.39731,-3.66981 -1.25255,-7.68054 -1.87394,-11.51568 l 3.44564,-0.33247 -0.9672,-12.18063 2.81091,0.33247 c -1.69247,-7.66217 2.10025,-15.13355 2.1762,-19.61595 0.0559,-3.2438 -1.6843,-5.03531 -3.26429,-9.15814 l 0.63472,-0.63472 c 1.16686,3.38162 3.13732,5.03969 4.41283,8.97679 1.13652,3.50329 -0.51075,7.53818 -0.57427,10.42759 18.16256,-2.14278 16.7496,-8.28154 27.02218,-13.47367 l 1,4.1875 c 8.18571,-6.76431 24.62451,-5.25856 25.75,-9.75 -3.58545,-0.76072 -7.43428,-0.89287 -11.875,-0.71875 3.37927,-2.34296 9.15133,-2.96388 13.21875,-3.78125 -1.06964,-9.10068 2.71978,-16.03127 -0.0625,-19.53125 13.16232,10.64416 -5.77258,20.89595 8.45703,48.91346 11.80342,36.2413 30.57138,15.28325 32.6174,43.61573 -2.79674,-0.19191 -9.35834,-3.89706 -11.92201,-2.35383 -3.52933,-0.32482 -7.04197,0.14751 -9.62932,2.84294 l 5.34962,2.41497 c -1.67529,1.71187 -7.29834,3.75564 -8.34541,5.80816 1.98882,0.5707 5.6381,0.92695 7.00037,2.35384 -2.09316,1.82582 -4.69641,4.41493 -6.63353,6.7558 2.51438,0 7.44471,-1.89018 9.53761,-0.51967 -2.51124,1.82653 -4.39812,3.83127 -5.65532,6.11385 6.80334,0.97013 21.28408,-2.0403 30.59984,-1.92586 4.92056,-0.28475 8.88248,-3.88882 9.35419,-15.07065 l -0.0611,-26.80264 c -2.43249,-4.27327 -8.89726,-1.10759 -12.6251,-12.10543 2.42888,-0.91758 3.50978,0.37166 2.99578,-1.40618 -0.94924,-3.2822 -3.78828,-6.96108 -4.52425,-11.00494 l 3.4849,2.62896 c -1.98783,-3.8817 -3.41605,-7.15112 -4.46311,-11.37177 l 2.99578,-0.18341 -4.27969,-10.51583 5.10506,0.58082 c -2.91944,-14.10997 -6.12099,-23.67304 -12.1087,-31.08082 3.26248,-4.25972 10.20716,-1.6979 18.125,-9.375 l -4.59375,-1.75 c 4.38768,-3.73394 5.95387,-14.0535 7.34375,-18.25 l -3.9375,2.34375 c 2.08469,-6.97078 -4.29608,-16.90225 -7.34375,-22.9375 l -3.25,5.21875 c -1.3926,-3.14979 -5.76242,-2.15064 -8.4375,-2.96875 0.26741,2.56736 3.04853,5.51643 2.03125,8.78125 -1.60519,-2.56466 -4.23856,-1.63982 -5.84375,-1.875 20.54229,30.37133 -9.37229,25.46353 -24.78125,21.65625 -11.09905,-3.17064 -23.49623,-1.40288 -35.4375,2.21875 l 0.15625,-3.46875 c -9.76449,3.15077 -19.71069,4.97667 -27.46676,-1.55657 l 3.35995,-1.84151 c -1.43767,-3.73577 -8.32726,-7.56862 -10.20908,-10.82292 l 4.36147,-0.74306 c -1.49384,-3.85672 -6.09398,-8.38471 -7.753729,-12.24444 l 4.781469,0.67846 c -2.13098,-7.055 -7.689599,-11.59683 -12.86219,-17.62181 4.297867,-3.7724 1.70873,-12.13723 2.205835,-17.64668 -1.539002,-0.7813 -3.661381,-3.23117 -4.731356,-3.19685 z m -4.635448,10.70948 c -2.552527,8.70121 -3.559198,11.27118 -0.383624,14.1621 l -6.489628,-5.2109 c 1.820942,-2.9197 5.067716,-5.78944 6.873252,-8.9512 z m -22.665745,16.81548 c -1.531723,2.74406 -4.407767,2.68277 -4.955135,7.57656 -3.038191,-0.17787 -4.105163,-4.55222 -4.443637,-6.52158 z m -11.956261,23.08134 c 1.681709,-0.0124 3.593643,0.36221 5.786319,1.11891 -1.575684,3.97927 -6.11311,7.13817 -13.203036,1.59842 2.170243,-1.59022 4.473633,-2.69566 7.416717,-2.71733 z"
       transform="matrix(1.148027,0,0,1.1558926,-11.977678,31.173692)"
       id="path3552"
       inkscape:connector-curvature="0"
       sodipodi:nodetypes="ccccccccccccccccccccccccccccccccccccccccccccccccccccccccccccccccccccccccccccccccccccccccccccccccccccccccccccccccccccccccccccccccccccc" /><path
       id="path3560"
       d="m 56.029758,403.72395 c -1.573023,1.89064 -1.831336,1.3057 -2.945628,3.50329 1.237688,4.10807 4.790274,5.027 5.355087,7.2083 -1.550657,2.07172 -1.417025,2.1808 -3.351646,4.48578 1.488798,1.74838 8.091512,9.13707 11.626199,13.87224 0.376272,2.90467 -1.660529,4.66405 -0.390368,5.10731 -7.692592,-2.65414 -20.891475,-4.43921 -27.956294,-9.75017 -0.744343,0.0514 -2.346417,0.34535 -4.387546,-1.14234 2.654048,8.54813 5.16057,27.29221 12.135395,35.22782 -3.926792,0.46046 -6.107567,-0.3573 -8.697328,-1.2415 -0.21213,2.41932 2.36995,6.39137 2.615997,9.12102 -5.232873,-1.71665 -8.068695,-3.55184 -10.689821,-5.96483 -0.386462,2.94475 2.19618,6.80299 1.07263,9.80952 -5.983875,-6.72944 -7.39903,-7.44582 -9.177104,-10.99363 -0.681346,3.45885 -0.39542,5.86653 -1.487881,8.48766 -3.20963,-4.23099 -5.135659,-9.10109 -5.498353,-14.81159 -4.132119,-4.79557 -2.6695,-29.25026 -0.510242,-36.95503 1.819978,-6.93535 1.621481,-15.64766 15.780009,-17.48085 l 26.506895,1.51691 z"
       class="fil4"
       inkscape:connector-curvature="0"
       style="fill:#ffd90f"
       sodipodi:nodetypes="cccccccccccccccccccc" /><path
       id="path3562"
       d="m 177.02,417.859 c -0.58422,12.40434 7.64306,29.83319 15.442,41.89904 2.05176,8.17968 6.81266,10.27942 2.03363,19.84299 l -7.57581,22.59019 c -2.12659,9.27821 -13.03406,11.88868 -14.65562,12.54162 -4.43948,-0.20313 -8.42604,-0.18097 -13.03656,-0.77392 -6.97254,-0.89649 -11.61958,4.46963 -13.32913,3.9708 1.0506,-2.44355 -0.16308,-5.57341 3.06055,-7.2819 -2.36808,-4.16454 -8.20316,2.42608 -9.75885,2.17706 -1.28579,-1.994 1.67969,-8.7583 8.71151,-9.74607 -1.98182,-2.76637 -10.49885,2.64538 -11.54886,0.73325 -0.85911,-2.35908 7.6194,-6.4308 10.7335,-8.05714 -0.77798,-1.5867 -7.46669,-1.10926 -8.47631,-2.57472 4.06087,-2.7768 8.09852,-3.58566 11.91899,-3.68762 3.79481,-4.0386 9.46408,0.90457 13.24385,0.42451 4.19527,-0.36506 5.54225,-9.4553 6.82421,-13.11868 -0.64467,-18.13512 -12.82715,-12.39225 -13.83544,-26.07401 -1.28863,-0.29657 -4.51134,-1.53668 -5.80025,-1.19925 2.18665,-4.86952 5.3949,-4.99426 6.1594,-10.44231 l -5.51282,0.13936 c 0.20211,-3.42321 3.38003,-16.11163 8.17682,-17.12768 6.45846,-3.00895 10.1188,-3.2541 17.225,-4.23552 z"
       class="fil4"
       inkscape:connector-curvature="0"
       style="fill:#ffd90f"
       sodipodi:nodetypes="ccccccccccccccccccccccc" /><path
       id="path3564"
       d="m 90.081652,282.56 c 3.754985,-5.01352 5.515193,-7.02049 9.457798,-11.62132 2.75368,-0.2059 5.9026,-1.73818 8.6563,-1.11934 1.12658,2.26824 -0.0198,6.30249 -0.77137,8.56726 -5.00134,5.12023 -10.607845,6.6644 -12.89383,7.67613 l -4.448926,-3.5027 z"
       class="fil11"
       inkscape:connector-curvature="0"
       style="fill:#1a1a1a"
       sodipodi:nodetypes="ccccccc" /><path
       id="path3566"
       d="m 73.554603,280.25331 c 2.451915,-4.60274 3.962885,-6.55749 7.473259,-9.91768 2.215434,-0.16615 4.770631,-0.19109 6.985317,0.30632 0.906283,1.82329 0.302594,5.17751 -0.301844,7.00104 -4.090357,2.71285 -4.291673,0.18761 -9.625339,5.7682 z"
       class="fil10"
       inkscape:connector-curvature="0"
       style="fill:#1a1a1a"
       sodipodi:nodetypes="cccccc" /></g><g
     style="fill-rule:evenodd;stroke:#e70924;stroke-width:0.47615835;stroke-miterlimit:4;stroke-opacity:1;stroke-dasharray:none"
     id="g6248"
     transform="matrix(1.9977728,0,0,1.9977728,-131.84267,84.889261)"><path
       inkscape:transform-center-y="-6.0000018"
       sodipodi:nodetypes="zczsz"
       inkscape:connector-curvature="0"
       id="path6250"
       d="m 135.99135,180.10303 c 2.10103,0.68267 4.47027,5.65833 4.47027,5.65833 0,0 -4.84138,2.63279 -6.94241,1.95013 -2.101,-0.68266 -3.42148,-2.41403 -2.56815,-5.0403 0.85332,-2.62627 2.93928,-3.25082 5.04029,-2.56816 z"
       style="fill:#ffffff;fill-opacity:1;fill-rule:evenodd;stroke:#e70924;stroke-width:0.55633146;stroke-miterlimit:4;stroke-opacity:1;stroke-dasharray:none" /><path
       style="fill:#ffffff;fill-opacity:1;fill-rule:evenodd;stroke:#e70924;stroke-width:0.55633146;stroke-miterlimit:4;stroke-opacity:1;stroke-dasharray:none"
       d="m 134,187.36218 c 0,2.20915 -4,6 -4,6 0,0 -4,-3.79085 -4,-6 0,-2.20913 1.23858,-4 4,-4 2.76142,0 4,1.79087 4,4 z"
       id="path6252"
       inkscape:connector-curvature="0"
       sodipodi:nodetypes="zczsz"
       inkscape:transform-center-y="-6.0000018" /><path
       inkscape:transform-center-y="-6.0000018"
       sodipodi:nodetypes="zczsz"
       inkscape:connector-curvature="0"
       id="path6254"
       d="m 129.70285,175.96596 c 1.2985,-1.78724 6.76278,-2.50296 6.76278,-2.50296 0,0 1.00786,5.418 -0.29065,7.20524 -1.29849,1.78722 -3.35317,2.50805 -5.58721,0.88493 -2.23403,-1.62313 -2.18342,-3.79999 -0.88492,-5.58721 z"
       style="fill:#ffffff;fill-opacity:1;fill-rule:evenodd;stroke:#e70924;stroke-width:0.55633146;stroke-miterlimit:4;stroke-opacity:1;stroke-dasharray:none" /><path
       inkscape:transform-center-y="-6.0000018"
       sodipodi:nodetypes="zczsz"
       inkscape:connector-curvature="0"
       id="path6256"
       d="m 123.82501,180.66825 c -1.29851,-1.78724 -0.29065,-7.20525 -0.29065,-7.20525 0,0 5.46428,0.71573 6.76278,2.50297 1.2985,1.78722 1.34911,3.96408 -0.88493,5.5872 -2.23403,1.62313 -4.28871,0.9023 -5.5872,-0.88492 z"
       style="fill:#ffffff;fill-opacity:1;fill-rule:evenodd;stroke:#e70924;stroke-width:0.55633146;stroke-miterlimit:4;stroke-opacity:1;stroke-dasharray:none" /><path
       inkscape:transform-center-y="-6.0000018"
       sodipodi:nodetypes="zczsz"
       inkscape:connector-curvature="0"
       id="path6258"
       d="m 126.4808,187.7115 c -2.10103,0.68266 -6.94241,-1.95013 -6.94241,-1.95013 0,0 2.36924,-4.97566 4.47027,-5.65833 2.10101,-0.68266 4.18697,-0.0581 5.0403,2.56816 0.85332,2.62627 -0.46716,4.35764 -2.56816,5.0403 z"
       style="fill:#ffffff;fill-opacity:1;fill-rule:evenodd;stroke:#e70924;stroke-width:0.55633146;stroke-miterlimit:4;stroke-opacity:1;stroke-dasharray:none" /><path
       inkscape:transform-center-y="-5.7291782"
       sodipodi:nodetypes="zczzz"
       inkscape:connector-curvature="0"
       id="path6260"
       d="m 134.24894,175.60655 c 0,2.10942 -4.24894,5.34937 -4.24894,5.34937 0,0 -4.24896,-3.23995 -4.24896,-5.34937 0,-2.10941 1.06224,-3.24438 4.24896,-3.24438 3.18671,0 4.24894,1.13497 4.24894,3.24438 z"
       style="fill:#ffffff;fill-opacity:1;fill-rule:evenodd;stroke:#e70924;stroke-width:0.55633146;stroke-miterlimit:4;stroke-opacity:1;stroke-dasharray:none" /><path
       style="fill:#ffffff;fill-opacity:1;fill-rule:evenodd;stroke:#e70924;stroke-width:0.55633146;stroke-miterlimit:4;stroke-opacity:1;stroke-dasharray:none"
       d="m 124.88801,176.2336 c 2.00617,0.65184 3.77456,5.69403 3.77456,5.69403 0,0 -4.39438,3.0398 -6.40056,2.38795 -2.00617,-0.65184 -2.75734,-2.01282 -1.77259,-5.04357 0.98475,-3.03074 2.39242,-3.69026 4.39859,-3.03841 z"
       id="path6262"
       inkscape:connector-curvature="0"
       sodipodi:nodetypes="zczzz"
       inkscape:transform-center-y="-5.7291782" /><path
       style="fill:#ffffff;fill-opacity:1;fill-rule:evenodd;stroke:#e70924;stroke-width:0.55633146;stroke-miterlimit:4;stroke-opacity:1;stroke-dasharray:none"
       d="m 122.59168,185.33014 c 1.23988,-1.70656 6.58174,-1.83027 6.58174,-1.83027 0,0 1.53309,5.11865 0.2932,6.82521 -1.23988,1.70655 -2.76637,2.00039 -5.34448,0.12728 -2.5781,-1.8731 -2.77034,-3.41567 -1.53046,-5.12222 z"
       id="path6264"
       inkscape:connector-curvature="0"
       sodipodi:nodetypes="zczzz"
       inkscape:transform-center-y="-5.7291782" /><path
       style="fill:#ffffff;fill-opacity:1;fill-rule:evenodd;stroke:#e70924;stroke-width:0.55633146;stroke-miterlimit:4;stroke-opacity:1;stroke-dasharray:none"
       d="m 130.5334,190.32507 c -1.23989,-1.70656 0.29318,-6.8252 0.29318,-6.8252 0,0 5.34187,0.1237 6.58176,1.83026 1.23988,1.70654 1.04763,3.24912 -1.53048,5.12223 -2.5781,1.8731 -4.10458,1.57925 -5.34446,-0.12729 z"
       id="path6266"
       inkscape:connector-curvature="0"
       sodipodi:nodetypes="zczzz"
       inkscape:transform-center-y="-5.7291782" /><path
       style="fill:#ffffff;fill-opacity:1;fill-rule:evenodd;stroke:#e70924;stroke-width:0.55633146;stroke-miterlimit:4;stroke-opacity:1;stroke-dasharray:none"
       d="m 137.73798,184.31556 c -2.00618,0.65185 -6.40055,-2.38794 -6.40055,-2.38794 0,0 1.76838,-5.0422 3.77456,-5.69404 2.00616,-0.65185 3.41384,0.008 4.39859,3.03843 0.98474,3.03074 0.23357,4.39171 -1.7726,5.04355 z"
       id="path6268"
       inkscape:connector-curvature="0"
       sodipodi:nodetypes="zczzz"
       inkscape:transform-center-y="-5.7291782" /><path
       style="fill:#ffffff;fill-opacity:1;fill-rule:evenodd;stroke:#e70924;stroke-width:0.55633146;stroke-miterlimit:4;stroke-opacity:1;stroke-dasharray:none"
       d="m 133.53025,182.36218 c 0,1.94971 -1.58055,3.53025 -3.53025,3.53025 -1.9497,0 -3.53025,-1.58054 -3.53025,-3.53025 0,-1.94971 1.58055,-3.53025 3.53025,-3.53025 1.9497,0 3.53025,1.58054 3.53025,3.53025 z"
       id="path6270"
       inkscape:connector-curvature="0" /></g><use
     x="0"
     y="0"
     xlink:href="#g6248"
     id="use9794"
     transform="translate(0,69.84514)"
     width="500"
     height="701.67664" /><use
     height="701.67664"
     width="500"
     transform="translate(-80.91675,69.84514)"
     id="use9796"
     xlink:href="#g6248"
     y="0"
     x="0" /><use
     x="0"
     y="0"
     xlink:href="#g6248"
     id="use9798"
     transform="translate(79.8917,69.84514)"
     width="500"
     height="701.67664" /><g
     id="g9827"
     transform="translate(0.52136144,0)"><polygon
       transform="matrix(-0.95159686,0,0,0.95159686,248.55108,9.394056)"
       id="polygon3396"
       points="138.842,285.924 146.707,297.1 133.099,295.872 127.354,308.277 121.611,295.872 108.003,297.1 115.868,285.924 108.003,274.753 121.611,275.976 127.354,263.577 133.099,275.976 146.707,274.753 "
       class="fil3"
       style="fill:#ffffff" /><use
       height="701.67664"
       width="500"
       transform="translate(-95.969344,2.8036993e-8)"
       id="use9800"
       xlink:href="#polygon3396"
       y="0"
       x="0" /><use
       x="0"
       y="0"
       xlink:href="#polygon3396"
       id="use9813"
       transform="translate(95.969324,-2.8036993e-8)"
       width="500"
       height="701.67664" /></g></g><g
   style="fill-rule:evenodd"
   id="g6423"
   transform="matrix(0.90997793,0,0,0.86465102,255.16261,-58.535537)"><g
     id="g9972"
     transform="translate(-7.4805481,0)"><g
       transform="matrix(1.0733149,0.14792994,-0.11762739,1.0498953,54.370655,-9.622501)"
       id="g9954"><path
         style="fill:#ffffff"
         d="M 279.1875 415.25 L 261.34375 422.84375 C 272.03534 437.59787 280.72021 452.39805 287.34375 467.25 L 305.6875 467.25 L 307 466.4375 C 301.59156 449.88079 292.32643 432.81854 279.1875 415.25 z M 258.65625 423.875 L 250 426.9375 L 250 467.25 L 283.78125 467.25 C 276.33783 450.4633 268.06223 435.76446 258.65625 423.875 z "
         transform="matrix(1.0082937,-0.14206828,0.11888841,1.0848213,-292.36512,114.73126)"
         id="path188" /><path
         style="fill:#ffffff"
         inkscape:connector-curvature="0"
         id="path190"
         d="m 41.4669,524.815 14.8422,-8.53427 c 13.1102,11.2552 23.747,26.4682 31.9108,45.6398 l -12.6159,12.9869 c -8.90561,-19.1713 -20.285,-35.8691 -34.1371,-50.0925 z"
         class="fil11" /><path
         style="fill:#ffffff"
         inkscape:connector-curvature="0"
         id="path192"
         d="M 90.8173,558.209 C 82.87093,542.687 72.9142,527.9684 60.0197,514.4245 l 3.71055,-1.85528 c 27.4581,-1.11317 21.5212,27.4581 32.2818,41.1871 l -5.19477,4.45266 z"
         class="fil11" /><path
         style="fill:#ffd90f"
         inkscape:connector-curvature="0"
         id="path194"
         d="m 61.875,510.343 -0.742111,-5.19477 c 8.28681,-3.33921 11.626,-9.64715 10.0185,-18.9238 l 5.19477,-1.11317 c 5.31808,26.3452 32.157701,4.20548 59.368801,2.59739 l -7.42111,14.8422 c -10.266,4.824 -23.0057,6.43181 -38.218701,6.30794 l -2.22633,1.11317 c 9.091,7.2343 18.738201,18.2412 23.376501,35.9924 l -4.82372,14.1001 c -19.294901,-13.6055 -10.389501,-55.7822 -44.526601,-49.7214 z"
         class="fil2" /><path
         style="fill:#ffd90f"
         inkscape:connector-curvature="0"
         id="path196"
         d="m 95.641,512.941 c 7.97783,7.54413 14.4096,16.3256 17.4396,27.8291 10.7101,-2.16851 18.6231,-7.19008 20.8953,-11.8287 1.27106,-2.59512 0.21968,-13.1134 -4.93994,-22.6794 -9.64744,3.21591 -20.7791,5.44224 -33.395,6.679 z"
         class="fil2" /><path
         style="fill:#ffffff"
         inkscape:connector-curvature="0"
         id="path198"
         d="m 79.3146,438.73 0.742111,46.3819 c 5.0709,22.0159 32.034299,2.10246 43.042399,0.37105 -3.3395,-20.6555 -5.19477,-40.19779 -10.0185,-61.9662 -3.83103,14.1636 -12.119,12.9266 -33.765999,15.2133 z"
         class="fil11" /><path
         style="fill:#ffffff"
         inkscape:connector-curvature="0"
         id="path200"
         d="m 90.8173,386.782 -14.8422,29.3134 2.96844,19.6659 c 14.5347,-0.62221 22.7225,-2.85534 27.6534,-6.07663 3.01436,-1.96923 8.29276,-21.5362 7.96791,-30.2868 l -23.7475,-12.6159 z"
         class="fil11" /><path
         style="fill:#ffffff"
         inkscape:connector-curvature="0"
         id="path202"
         d="m 51.4854,403.479 13.729,-32.2818 c 7.66829,4.45266 20.5316,8.16322 22.6344,13.358 0.989292,1.97915 -9.15279,18.8002 -13.729,28.2002 -6.06076,0.61824 -13.9765,-6.5554 -22.6344,-9.27638 z"
         class="fil11" /><path
         style="fill:#ffffff"
         inkscape:connector-curvature="0"
         id="path204"
         d="m 63.7302,370.827 -2.96844,6.679 -8.16322,-3.3395 c -3.71055,-1.73169 -0.371055,-8.65786 4.45266,-6.679 l 6.679,3.3395 z"
         class="fil11" /><path
         style="fill:#ffffff"
         inkscape:connector-curvature="0"
         id="path206"
         d="m 59.6486,380.474 -2.96844,5.56583 -8.16322,-3.3395 c -3.71055,-1.73169 -0.371055,-7.91575 4.45266,-5.93688 l 6.679,3.71055 z"
         class="fil11" /><path
         style="fill:#ffffff"
         inkscape:connector-curvature="0"
         id="path208"
         d="m 55.9381,389.008 -2.96844,6.30794 -8.16322,-3.3395 c -3.71055,-1.73169 -0.371055,-8.28681 4.45266,-6.30794 l 6.679,3.3395 z"
         class="fil11" /><path
         style="fill:#ffffff"
         inkscape:connector-curvature="0"
         id="path210"
         d="m 51.8565,397.914 -2.96844,5.56583 -7.42111,-3.3395 c -3.71055,-1.73169 -1.11317,-7.91575 3.71055,-5.93688 l 6.679,3.71055 z"
         class="fil11" /><path
         style="fill:#ffd90f"
         inkscape:connector-curvature="0"
         id="path212"
         d="m 76.3461,373.795 -12.9869,-6.679 c -2.41172,-10.5131 6.86466,-13.9762 13.729,-11.3635 6.8641,2.61241 10.946,12.0438 -0.742111,18.0425 z"
         class="fil2" /><path
         style="fill:#ffd90f"
         inkscape:connector-curvature="0"
         id="path214"
         d="m 28.1089,412.756 4.45266,9.64744 c 16.0787,-9.46205 27.7047,-5.38129 34.8792,11.8738 l 7.79216,-2.96844 c -6.77197,-24.5832 -23.9023,-30.0869 -47.124,-18.5528 z"
         class="fil2" /><path
         style="fill:#ffffff"
         inkscape:connector-curvature="0"
         id="path216"
         d="m 42.209,421.661 -24.1186,62.7083 c -6.49446,17.8727 -5.5046,30.9833 -1.11317,41.9292 10.7612,-7.42054 20.4092,-17.3152 24.4897,-32.6529 l 19.6659,-64.5636 c -2.22662,-9.15506 -12.6164,-11.0098 -18.9238,-7.42111 z M 17.3483,524.072 47.4038,435.0187 c 2.71559,-7.19263 7.17052,-7.43244 11.8738,-6.679 l 0,2.22633 c -4.45295,-0.24718 -7.91632,1.48479 -10.3895,5.19477 l -29.5486,87.1141 -1.99106,1.19707 z"
         class="fil11" /></g><g
       transform="matrix(1.0927923,-0.0856899,0.06471832,1.0761907,-38.822738,12.455087)"
       id="g9943"><path
         style="fill:#ffffff"
         d="M 394.5 313.96875 L 390.15625 316 L 389.59375 318.46875 L 391.46875 319.03125 L 392.84375 322.75 L 391.375 323.53125 L 390.78125 325.65625 L 391.6875 328.03125 L 390.65625 329.15625 L 389.6875 331.65625 L 391.625 333.25 L 389.90625 335.09375 L 389.40625 338.625 L 390.65625 340.9375 L 388.46875 342.15625 L 387.5625 345.34375 L 388.96875 349.40625 L 386.5625 352.34375 L 387.875 355.71875 L 385.46875 359.03125 L 386.4375 362.4375 L 385.03125 363.5625 L 384.53125 367.4375 L 386.15625 369.71875 L 383.59375 369.90625 L 383.6875 371.96875 L 383.59375 376.15625 L 382.53125 376.9375 L 381.59375 379.4375 L 384.4375 383.375 L 381.90625 384.625 L 382.125 388.0625 L 383.34375 389.71875 L 380.84375 391.28125 L 381 393.6875 L 382.65625 396.375 L 380.53125 397.90625 L 380.8125 402.40625 L 382.03125 404.03125 L 380.34375 406.59375 L 380.53125 409.34375 L 383.21875 411.25 L 380.0625 413.90625 L 383.28125 418.15625 L 383.375 419.875 L 380.8125 420.09375 L 380.65625 423.5625 L 383.53125 427.875 L 381.25 427.34375 L 381.90625 431.4375 L 385.40625 434.3125 L 382.53125 435.5625 L 384.625 439.5625 L 388.34375 439.3125 L 390.25 439.84375 L 388.125 441.40625 L 390.125 444.03125 L 394.90625 443.3125 L 396.09375 444.96875 L 394.34375 446.5 L 396.6875 448.03125 L 402.625 447.9375 L 404.125 448.875 L 401.625 450.09375 L 406.625 452.84375 L 409.53125 451.9375 L 412.15625 452.78125 L 410.40625 453.9375 L 415.40625 456.71875 L 419.4375 456.40625 L 421.34375 456.9375 L 419.96875 458.8125 L 424.53125 460.90625 L 428.1875 459.90625 L 429.75 460.84375 L 429.84375 462.59375 L 433.28125 464.03125 L 438.0625 463.6875 L 436.75 466.21875 L 440.5 467.25 L 443.75 467.25 L 446.0625 466.90625 L 445.9375 467.25 L 452.6875 467.25 L 449.78125 466.375 C 449.10456 464.95934 446.32649 463.20052 451.65625 463.3125 L 456.6875 465.59375 L 453.78125 467.25 L 499.71875 467.25 L 499.71875 419.78125 L 497.90625 419.6875 L 497.3125 421.90625 L 493.625 419.4375 L 487.15625 419.09375 L 487.3125 421.875 L 485.5 422 L 484.1875 418.96875 L 479.40625 419.34375 L 478.40625 421.5 L 476.5 420.25 L 476.34375 418.53125 L 471.0625 416.46875 L 471.21875 419.25 L 469.3125 418 L 466.84375 414.375 L 464.90625 413.46875 L 463.59375 416 L 462.03125 414.375 L 461.875 412.3125 L 457.375 410.90625 L 456.75 413.375 L 455.25 412.46875 L 453.5625 409.46875 L 450.25 409.6875 L 449.1875 410.84375 L 446.46875 408.625 L 443.125 408.84375 L 441.75 410.34375 L 439.75 408.0625 L 435.3125 408.375 L 435.40625 409.75 L 433.5625 409.90625 L 430.84375 408.03125 L 424.4375 412.3125 L 425.375 415.40625 L 423.125 414.84375 L 420.625 416.4375 L 420.875 420.21875 L 418.53125 418.65625 L 416.75 419.46875 L 416.875 421.5625 L 415.46875 422.71875 L 414.21875 420.71875 L 412.40625 421.1875 L 411.0625 423.0625 L 408.34375 421.5 L 408.21875 419.4375 L 406.375 419.25 L 401.0625 417.875 L 404.625 415.875 L 404.90625 414.125 L 402.46875 410.84375 L 406.25 411.9375 L 407.96875 410.09375 L 407.4375 407 L 410.875 408.8125 L 412.6875 408.34375 L 411.8125 406.3125 L 416 408.09375 L 421.59375 408.375 L 426.6875 406.96875 L 427.46875 401.6875 L 425.21875 401.15625 L 428.5 399.875 L 428.1875 395.375 L 425.8125 393.125 L 428.375 392.59375 L 427.8125 389.53125 L 425.0625 386.96875 L 427.65625 386.75 L 427.8125 383.625 L 424.65625 380.375 L 427.0625 380.21875 L 426.25 376.46875 L 422.78125 374.65625 L 425.34375 373.75 L 425.8125 369.5625 L 422.34375 367.71875 L 424.84375 366.15625 L 424.6875 363.03125 L 421.5625 361.1875 L 423.375 360.03125 L 423.09375 355.875 L 420.40625 354.34375 L 422.9375 353.125 L 421.875 348.34375 L 418.75 345.8125 L 421.34375 345.59375 L 421.03125 341.125 L 418.6875 338.5 L 420.8125 337.3125 L 420.59375 333.875 L 419.375 332.5625 L 420.71875 330.0625 L 422.1875 324.03125 L 418.875 324.28125 L 415.5625 324.84375 L 414.625 321.46875 L 411.53125 319.625 L 407.53125 320.96875 L 403.96875 317.40625 L 400.3125 318.375 L 399.25 318.4375 L 394.5 313.96875 z M 414.875 355.65625 L 417.5 357 L 418.625 361.34375 L 415.0625 363.40625 L 414.03125 360.71875 L 415.3125 360.21875 L 415.71875 357.125 L 414.875 355.65625 z M 416.40625 366.625 C 418.39691 366.49091 420.2341 369.2705 420.15625 370.96875 L 418.0625 373.3125 L 416.4375 371.25 L 416.84375 368.125 L 416 366.6875 C 416.13375 366.65155 416.27354 366.63396 416.40625 366.625 z M 417.96875 376.90625 C 419.95941 376.77216 421.76535 379.55175 421.6875 381.25 L 420.96875 384.21875 L 418.625 382.15625 L 418.40625 378.46875 L 417.5625 376.96875 C 417.69625 376.9328 417.83604 376.91521 417.96875 376.90625 z M 418.90625 387.40625 C 420.87119 387.38088 422.4841 391.0205 422.40625 392.71875 L 420.8125 395.21875 L 419.34375 393.625 L 419.125 389.9375 L 418.5 387.46875 C 418.63375 387.4328 418.77525 387.40798 418.90625 387.40625 z M 418.75 398.53125 C 420.72369 398.44673 422.34992 401.64413 421.34375 404.0625 L 419.21875 405.59375 L 417.125 402.84375 L 418.9375 401.0625 L 418.34375 398.59375 C 418.4775 398.5578 418.61842 398.53686 418.75 398.53125 z M 422.46875 410.75 L 412.15625 411.5 C 401.42417 415.05685 411.07474 421.32222 416.59375 416.75 L 422.46875 410.75 z M 396.28125 430.21875 L 400.1875 430.625 L 400.90625 432.40625 L 397.59375 432.21875 L 396.28125 430.21875 z M 392.71875 434.78125 L 397.1875 437.125 L 393.875 439 L 390.25 437.90625 C 389.57331 436.49059 387.38899 434.66927 392.71875 434.78125 z M 403.5625 434.96875 L 407.3125 435.21875 L 407.4375 437.71875 L 404.125 436.84375 L 403.5625 434.96875 z M 409.9375 439.34375 L 413.8125 439.75 L 414.53125 441.5 L 411.25 441.34375 L 409.9375 439.34375 z M 400.21875 440.90625 L 403.21875 441.09375 L 405.03125 441.9375 L 401.34375 444 C 398.97199 444.03789 397.90425 443.46074 398.21875 442.1875 L 400.21875 440.90625 z M 419.375 443.5 L 424.625 443.9375 L 423.84375 445.9375 L 419.875 446.65625 L 419.375 443.5 z M 429.90625 447.96875 L 434.84375 448.3125 L 434.0625 450.3125 L 429.03125 450.53125 L 429.90625 447.96875 z M 421.59375 450.28125 L 426.625 452.40625 L 423.3125 454.3125 L 419.71875 453.21875 C 419.04206 451.80309 416.26399 450.16926 421.59375 450.28125 z M 438.90625 452.03125 L 442.9375 452.15625 L 442.0625 454.46875 L 438.46875 454.15625 L 438.90625 452.03125 z M 448.0625 455.8125 L 452.0625 455.9375 L 451.1875 458.1875 L 447.625 457.9375 L 448.0625 455.8125 z M 431.59375 455.90625 L 434.59375 456.09375 L 438.40625 457.9375 L 432.71875 459.03125 C 430.34699 459.06914 429.27925 458.46074 429.59375 457.1875 L 431.59375 455.90625 z M 458.875 460.125 L 461.4375 461.28125 L 462.96875 461.09375 L 462.0625 463.34375 L 458.46875 463.09375 L 458.875 460.125 z M 472.21875 464.5625 L 471.8125 467.09375 L 467.03125 467.03125 L 467.46875 464.90625 L 472.21875 464.5625 z "
         transform="matrix(1.0008947,0.07969458,-0.06334559,1.0696133,-216.23774,34.00817)"
         id="path230" /><path
         inkscape:connector-curvature="0"
         style="fill:#ffffff"
         id="path232"
         d="m 219.945,411.272 -14.4712,9.27638 c 12.9742,25.7879 15.107,50.8961 12.2448,75.6953 l 25.9739,21.5212 c 3.29358,-35.498 -2.30315,-70.996 -23.7475,-106.493 z"
         class="fil11" /><path
         inkscape:connector-curvature="0"
         style="fill:#ffd90f;fill-opacity:1"
         id="path234"
         d="m 218.831,397.171 -25.9739,17.4396 c -8.47219,7.1195 -7.35704,14.677 -2.88312,16.6805 8.35824,3.74315 15.1977,-1.90828 10.3042,-9.63043 l 28.2002,-19.6659 c 5.0709,-3.95802 4.35544,-10.1032 -1.25263,-13.8682 -7.62804,-5.12107 -15.1356,2.42731 -8.39481,9.04451 z"
         class="fil2" /><path
         style="fill:#ffffff"
         inkscape:connector-curvature="0"
         id="path236"
         d="m 171.336,375.65 c -5.80876,7.51975 -10.3045,8.23833 -11.8738,23.3765 l 4.68425,3.65698 4.9235,0.57317 4.12129,3.46451 4.66413,0.57515 2.49222,2.15688 1.21124,2.08743 c 4.04703,0.46573 8.0487,0.65962 11.9251,0.10176 l 20.5234,-13.729 c -0.0839,-2.24136 -0.51902,-5.0692 -1.11317,-8.16322 -4.73046,1.13726 -5.94057,-2.59115 -5.19477,-9.64744 0.55417,-0.56296 1.04513,-1.19027 1.85528,-1.11317 0.24746,0.0842 -0.66643,2.3451 0.30472,4.27295 0.39402,0.78208 -0.79143,2.47125 0.66615,4.40249 0.78916,0.34101 1.57861,0.2554 2.36863,-0.25625 -0.33959,-3.72189 0.0604,-8.11928 -1.21436,-9.20892 -1.04854,-0.89632 -2.26176,-0.84756 -4.2069,0.37445 -3.86079,2.42504 -4.21144,5.60155 -4.13773,9.53037 -0.72426,1.7932 -0.34186,3.24454 -0.3566,4.98501 -2.40662,0.55389 -4.81323,4.43651 -7.47553,4.41468 -4.43679,-0.0366 -5.61487,-3.97843 -13.8226,-4.59156 -0.0848,-1.59109 -2.0812,-2.64076 -2.3692,-4.0184 -0.4269,-2.04265 -2.14158,-2.00721 -2.36665,-3.68986 -0.24492,-1.83033 -5.15112,-5.85355 -5.60863,-9.55446 z"
         class="fil11" /><path
         inkscape:connector-curvature="0"
         style="fill:#ffffff"
         id="path238"
         d="m 194.719,395.022 c -1.57635,-1.68576 -4.55868,-1.83487 -4.72933,-3.13682 3.78964,-2.75896 7.55717,-5.58312 11.6952,-7.2978 -0.8314,2.13421 -1.19339,4.97225 -1.34192,8.13005 -1.25688,0.17065 -2.25808,0.40564 -3.38712,1.47232 0.53263,-2.90154 -1.04372,-3.92599 -3.57903,-4.09692 0.44759,1.64324 1.72573,2.64614 1.34221,4.92917 z"
         class="fil11" /><path
         style="fill:#ffffff"
         inkscape:connector-curvature="0"
         id="path240"
         d="m 202.324,380.939 c 0.85209,-3.30775 -2.12995,-5.97487 -3.57903,-5.50545 l -13.5485,8.9623 c -1.60299,1.17439 -3.69468,2.98828 -2.53588,5.01081 0.56891,0.99326 2.65862,2.07411 5.02838,0.62249 0.12813,-2.79553 -1.85329,-3.73408 -1.72573,-5.50545 4.36734,-0.0539 3.72898,2.63452 4.5377,4.0972 1.4709,-1.63843 3.14334,-2.78986 4.78602,-3.85172 2.40038,-1.55112 4.81096,-2.76605 7.03701,-3.83018 z"
         class="fil11" /><path
         style="fill:#ffffff"
         inkscape:connector-curvature="0"
         id="path242"
         d="m 197.787,373.129 c 1.21947,-1.83458 -0.47367,-3.94725 -3.32334,-4.2891 -4.09011,2.43269 -8.49969,6.46555 -11.8871,7.87408 -3.02485,1.21635 -1.83175,8.68451 3.1955,4.92917 0.57515,-2.49704 -1.1503,-2.94491 -1.72545,-4.41723 1.91792,-1.42016 4.0697,-0.31068 3.51496,3.13682 l 10.2254,-7.23374 z"
         class="fil11" /><path
         style="fill:#ffffff"
         inkscape:connector-curvature="0"
         id="path244"
         d="m 193.058,367.175 -7.09399,4.99323 c 0.11168,-4.07197 -1.01282,-3.43729 -2.08148,-3.70857 -0.94337,-0.23924 -1.54545,-0.01 -1.90063,1.21011 1.51937,1.77194 2.39981,3.22299 1.87313,3.97077 -4.8994,2.34709 -6.34819,-1.38728 -4.15389,-3.90501 2.34312,-2.13392 5.32573,-4.01159 7.9886,-6.01739 1.2223,-0.432 2.51887,-0.86627 3.53225,-0.53235 1.41987,0.468 2.6348,2.54891 1.836,3.9892 z"
         class="fil11" /><path
         style="fill:#ffd90f"
         inkscape:connector-curvature="0"
         id="path246"
         d="m 188.967,354.692 c -3.11386,-4.50596 -10.6722,-5.37137 -16.1218,-1.59109 -4.2035,2.91628 -6.22092,9.13153 -4.16608,13.5712 3.26495,6.98117 7.32785,12.7922 11.7879,18.7472 l 1.21436,-0.96038 c -2.85931,-1.98992 -3.18954,-4.68936 -1.78951,-7.8738 -3.83471,-2.04888 -4.26047,-5.03632 -1.27814,-8.96202 l 5.4961,-3.84095 c -1.77874,-2.99821 -0.92636,-5.3881 1.72545,-7.36186 l 3.13172,-1.72828 z"
         class="fil2" /></g></g><g
     id="g5350"
     transform="matrix(0.81319112,0,0,0.85638944,25.151896,92.816803)"><polyline
       class="fil12 str2"
       points="75.6046,318.137 71.523,311.829 75.6046,304.779 "
       id="polyline228"
       transform="matrix(1.1474122,0,0,1.1210269,-10.54336,-37.694787)"
       style="fill:none;stroke:#ffffff;stroke-width:1.68823338" /><polyline
       style="fill:none;stroke:#ffffff;stroke-width:1.68823338"
       transform="matrix(-1.1474122,0,0,1.1210269,272.56237,-37.694787)"
       id="polyline5339"
       points="75.6046,318.137 71.523,311.829 75.6046,304.779 "
       class="fil12 str2" /><path
       inkscape:connector-curvature="0"
       style="fill:#ffd90f"
       d="m 131,254.96875 c -3.55017,1.48394 -7.88688,3.46314 -11.96875,5.9375 1.60554,7.67793 4.05772,11.8574 6.65625,15.5625 L 122.71875,275.75 c -3.95745,-2.62885 -7.91667,-4.67407 -11.875,-6.3125 -2.10246,3.4628 -3.69905,7.42174 -4.8125,11.875 1.23506,3.95745 2.96004,7.91667 5.1875,11.875 4.94759,-1.42271 9.89674,-3.52607 14.84375,-5.9375 -1.36035,13.8526 -17.19425,17.68742 -20.78125,5.9375 l -1.84375,-0.375 c -12.962305,16.598 -20.044477,2.86006 -22.09375,-5.1875 4.020238,1.60724 7.85394,3.5825 11.6875,5.5625 2.22633,-3.3378 4.46173,-6.7939 6.6875,-11.125 -1.11317,-4.08189 -2.70947,-8.1687 -4.8125,-12.25 -4.94703,1.23676 -9.89589,3.44034 -14.84375,6.65625 l -1.5,0 c 2.84797,-4.94816 4.46258,-9.8973 3.34375,-14.84375 l -15.9375,-4.8125 c 4.02123,13.9133 7.58632,28.26065 9.625,44.15625 l -4.0625,2.21875 0,3.34375 3.875,0.78125 12.0625,7.1875 -12,6.34375 -1.53125,0.53125 c -3.965049,0 -3.529692,6.6875 -0.125,6.6875 l 114.40625,0 c 3.40469,0 3.8088,-6.6875 -0.15625,-6.6875 l -1.5,-0.53125 -12.03125,-6.34375 12.09375,-7.1875 3.875,-0.78125 0,-3.34375 -4.09375,-2.21875 c 2.03868,-15.8956 5.63502,-30.24295 9.65625,-44.15625 l -15.96875,4.8125 c -1.11883,4.94645 0.49578,9.89559 3.34375,14.84375 l -1.46875,0 c -4.94786,-3.21591 -9.89672,-5.41949 -14.84375,-6.65625 -2.10303,4.0813 -3.73058,8.16811 -4.84375,12.25 2.22577,4.3311 4.46117,7.7872 6.6875,11.125 3.83356,-1.98 7.66726,-3.95526 11.6875,-5.5625 -2.04928,8.04756 -9.10019,21.7855 -22.0625,5.1875 l -1.875,0.375 c -3.587,11.74992 -19.4209,7.9151 -20.78125,-5.9375 4.94701,2.41143 9.89616,4.51479 14.84375,5.9375 2.22746,-3.95833 3.98369,-7.91755 5.21875,-11.875 -1.11345,-4.45326 -2.74129,-8.4122 -4.84375,-11.875 -3.95833,1.63843 -7.91755,3.68365 -11.875,6.3125 l -2.96875,0.71875 c 2.59853,-3.7051 5.08196,-7.88457 6.6875,-15.5625 -4.08187,-2.47436 -8.44982,-4.45356 -12,-5.9375 z m 0,53.0625 L 142.25,314.5 131,321 119.75,314.5 131,308.03125 z"
       id="path5341"
       transform="translate(0,-2.5)" /><ellipse
       d="m 112.33822,312.75601 c 0,3.17631 -3.65479,5.75122 -8.16322,5.75122 -4.508419,0 -8.163217,-2.57491 -8.163217,-5.75122 0,-3.17631 3.654798,-5.75122 8.163217,-5.75122 4.50843,0 8.16322,2.57491 8.16322,5.75122 z"
       class="fil1"
       cx="104.175"
       cy="312.75601"
       rx="8.1632204"
       ry="5.7512202"
       id="ellipse222"
       sodipodi:cx="104.175"
       sodipodi:cy="312.75601"
       sodipodi:rx="8.1632204"
       sodipodi:ry="5.7512202"
       transform="matrix(-1,0,0,1,207.26263,0)"
       style="fill:#004a8d;fill-opacity:1;fill-rule:nonzero" /><ellipse
       d="m 168.19423,312.75601 c 0,3.17631 -3.6548,5.75122 -8.16322,5.75122 -4.50843,0 -8.16322,-2.57491 -8.16322,-5.75122 0,-3.17631 3.65479,-5.75122 8.16322,-5.75122 4.50842,0 8.16322,2.57491 8.16322,5.75122 z"
       style="fill:#004a8d;fill-opacity:1;fill-rule:nonzero"
       sodipodi:ry="5.7512202"
       sodipodi:rx="8.1632204"
       sodipodi:cy="312.75601"
       sodipodi:cx="160.03101"
       class="fil1"
       cx="160.03101"
       cy="312.75601"
       rx="8.1632204"
       ry="5.7512202"
       id="ellipse224"
       transform="translate(-1.0873814,0)" /></g></g><g
   id="g1910"
   transform="translate(1057.1109,240.38201)" /><g
   transform="matrix(0.62076917,0,0.06951406,0.63189481,71.187556,419.34767)"
   style="fill:#ffd90f;fill-opacity:1;fill-rule:evenodd;stroke:#004a8d;stroke-width:2.39499068;stroke-miterlimit:4;stroke-opacity:1;stroke-dasharray:none"
   id="g10058"><path
     inkscape:connector-curvature="0"
     d="m 122.08091,224.84734 c 0,0 -2,-13.25 0.25,-16.5 2.25,-3.25 11.25,-1.75 13,0.25 1.75,2 0.5,20.25 0.5,20.25 l -13.75,-4 z"
     style="fill:#ffd90f;fill-opacity:1;fill-rule:evenodd;stroke:none;stroke-width:2.39499067999999980;stroke-linecap:butt;stroke-linejoin:miter;stroke-miterlimit:4;stroke-opacity:1;stroke-dasharray:none"
     id="path2174" /><path
     inkscape:connector-curvature="0"
     d="m 149.08091,229.34734 c 0,0 -2,-13.25 0.25,-16.5 2.25,-3.25 11.25,-1.75 13,0.25 1.75,2 0.5,20.25 0.5,20.25 l -13.75,-4 z"
     style="fill:#ffd90f;fill-opacity:1;fill-rule:evenodd;stroke:none;stroke-width:2.39499067999999980;stroke-linecap:butt;stroke-linejoin:miter;stroke-miterlimit:4;stroke-opacity:1;stroke-dasharray:none"
     id="path2176" /><path
     inkscape:connector-curvature="0"
     d="m 282.08091,235.84734 c 0,0 -2,-13.25 0.25,-16.5 2.25,-3.25 11.25,-1.75 13,0.25 1.75,2 0.5,20.25 0.5,20.25 l -13.75,-4 z"
     style="fill:#ffd90f;fill-opacity:1;fill-rule:evenodd;stroke:none;stroke-width:2.39499067999999980;stroke-linecap:butt;stroke-linejoin:miter;stroke-miterlimit:4;stroke-opacity:1;stroke-dasharray:none"
     id="path2178" /><path
     inkscape:connector-curvature="0"
     d="m 307.33091,235.09734 c 0,0 -2,-13.25 0.25,-16.5 2.25,-3.25 11.25,-1.75 13,0.25 1.75,2 0.5,20.25 0.5,20.25 l -13.75,-4 z"
     style="fill:#ffd90f;fill-opacity:1;fill-rule:evenodd;stroke:none;stroke-width:2.39499067999999980;stroke-linecap:butt;stroke-linejoin:miter;stroke-miterlimit:4;stroke-opacity:1;stroke-dasharray:none"
     id="path2180" /><path
     inkscape:connector-curvature="0"
     d="m 407.97451,211.63812 c -26.2705,8.77664 -79.4587,22.12428 -160.6436,22.45921 -120.94788,0.49897 -150.000003,-24 -174.999998,-34 l 0,-11 -35,-10 c 5,40 15.363369,93.42634 32,111.5 14.738086,16.01113 31.519798,23.5 48.146688,23.5 16.6269,0 228.60331,0 228.60331,0 15,0.75 40.4128,-27.42639 55.5,-49.75 15.0093,-22.20829 17.7901,-36.93892 25.75,-60.25 l -15.4257,-3.31009 z"
     style="fill:#ffd90f;fill-opacity:1;fill-rule:evenodd;stroke:#004a8d;stroke-opacity:1"
     id="path2164"
     sodipodi:nodetypes="cscccszcsccc" /><path
     inkscape:connector-curvature="0"
     d="m 443.33091,183.34734 23.00269,1.72602 c 0,0 -15.85698,34.39813 -16.04837,50.91652 13.40141,28.48937 0.94789,75.31205 -26.93587,76.56201 -16.0987,0 -48.31739,0 -48.31739,0 15.94777,-18.00668 25.2027,-30.13933 39.16213,-56.46535 13.90599,-26.22529 29.13681,-72.7392 29.13681,-72.7392 z"
     style="fill:#ffd90f;fill-opacity:1;fill-rule:evenodd;stroke:none"
     id="path2166"
     sodipodi:nodetypes="cccccsc" /><path
     inkscape:connector-curvature="0"
     d="m 368.09304,202.98435 c 23.76255,-5.21217 45.78011,-2.92104 56.73787,-0.88701 10.95776,2.03403 36.5055,6.77515 41.25,7.5 4.5,0.6875 6.4375,-12.1875 2.5,-13 -4.1776,-0.86204 -21.5942,-2.08779 -40.25,-6.25 -18.6558,-4.16221 -37.95493,-7.06869 -62.1972,-3.4782 z"
     style="fill:#ffd90f;fill-opacity:1;fill-rule:evenodd;stroke:#004a8d;stroke-width:2.39499068;stroke-linecap:butt;stroke-linejoin:miter;stroke-miterlimit:4;stroke-opacity:1;stroke-dasharray:none"
     id="path2168"
     sodipodi:nodetypes="czsszcc" /><path
     inkscape:connector-curvature="0"
     d="m 396.10571,266.91968 c -6.94732,-4.14596 -13.53022,3.16689 -7.5109,8.17363 5.90931,4.91521 26.95087,18.22496 32.03177,21.20723 5.24606,3.07924 13.98379,-7.52075 8.61544,-11.04543 -5.46749,-3.58977 -26.28814,-14.24862 -33.13631,-18.33543 z"
     style="fill:#ffd90f;fill-opacity:1;fill-rule:evenodd;stroke:#004a8d;stroke-width:2.39499068;stroke-linecap:butt;stroke-linejoin:miter;stroke-miterlimit:4;stroke-opacity:1;stroke-dasharray:none"
     id="path2170" /><path
     inkscape:connector-curvature="0"
     d="m 418.67566,222.84734 c -4.8705,-2.9872 -9.9691,4.49467 -4.75,8.5 5.375,4.125 15.8125,11.125 21.25,15 5.273,3.75779 11.7368,-7.05999 6.25,-10.25 -5.375,-3.125 -18.0625,-10.375 -22.75,-13.25 z"
     style="fill:#ffd90f;fill-opacity:1;fill-rule:evenodd;stroke:#004a8d;stroke-width:2.39499068;stroke-linecap:butt;stroke-linejoin:miter;stroke-miterlimit:4;stroke-opacity:1;stroke-dasharray:none"
     id="path2172" /><path
     inkscape:connector-curvature="0"
     d="m 60.153604,228.15503 c 0,0 53.827286,38.2001 177.694446,38.2001 100.08477,0 160.85217,-33.4906 160.85217,-33.4906 m 13.23349,-31.47518 c 1.20959,2.13469 -34.56549,76.90622 -44.10626,86.02268 -12.55069,11.99252 -27.26504,15.71265 -54.67403,15.71265 -27.40899,0 -169.83209,0.70711 -184.30065,0.70711 -14.46856,0 -36.128116,-7.63463 -52.944911,-27.608 -16.816794,-19.97336 -18.77316,-80.8445 -18.77316,-80.8445 l 22.371084,5.9835"
     style="fill:none;stroke:#004a8d;stroke-width:2.39499068;stroke-linecap:butt;stroke-linejoin:miter;stroke-miterlimit:4;stroke-opacity:1;stroke-dasharray:none"
     id="path3132"
     sodipodi:nodetypes="csccszzzcc" /><path
     inkscape:connector-curvature="0"
     d="m 67.303604,260.34472 c 0,0 70.044746,34.42538 170.100346,33.36472 100.05561,-1.06066 142.98679,-25.75168 142.98679,-25.75168"
     style="fill:none;stroke:#004a8d;stroke-width:2.39499068;stroke-linecap:butt;stroke-linejoin:miter;stroke-miterlimit:4;stroke-opacity:1;stroke-dasharray:none"
     id="path3134"
     sodipodi:nodetypes="csc" /></g><path
   style="fill:#ffffff;fill-opacity:1;fill-rule:evenodd;stroke:none"
   d="M -0.4375 477.5 L -0.4375 514.5 C 17.450154 514.5 17.424846 526.6875 35.3125 526.6875 C 53.20014 526.6875 53.23734 514.5 71.125 514.5 C 89.012654 514.5 88.987348 526.6875 106.875 526.6875 C 124.76265 526.6875 124.79985 514.5 142.6875 514.5 C 160.57515 514.5 160.54984 526.6875 178.4375 526.6875 C 196.32514 526.6875 196.33111 514.5 214.21875 514.5 C 232.1064 514.5 232.0811 526.6875 249.96875 526.6875 C 267.85641 526.6875 267.89361 514.5 285.78125 514.5 C 303.66891 514.5 303.6436 526.6875 321.53125 526.6875 C 339.41889 526.6875 339.42485 514.5 357.3125 514.5 C 375.20015 514.5 375.2061 526.6875 393.09375 526.6875 C 410.9814 526.6875 410.98734 514.5 428.875 514.5 C 446.76265 514.5 446.73734 526.6875 464.625 526.6875 C 482.51264 526.6875 482.54986 514.5 500.4375 514.5 L 500.4375 477.5 C 482.54985 477.5 482.51264 489.71875 464.625 489.71875 C 446.73734 489.71875 446.76265 477.5 428.875 477.5 C 410.98734 477.5 410.98139 489.71875 393.09375 489.71875 C 375.2061 489.71875 375.20015 477.5 357.3125 477.5 C 339.42485 477.5 339.41889 489.71875 321.53125 489.71875 C 303.6436 489.71875 303.66891 477.5 285.78125 477.5 C 267.89361 477.5 267.85641 489.71875 249.96875 489.71875 C 232.0811 489.71875 232.10641 477.5 214.21875 477.5 C 196.33109 477.5 196.32514 489.71875 178.4375 489.71875 C 160.54984 489.71875 160.57515 477.5 142.6875 477.5 C 124.79985 477.5 124.76264 489.71875 106.875 489.71875 C 88.987348 489.71875 89.012654 477.5 71.125 477.5 C 53.23734 477.5 53.20014 489.71875 35.3125 489.71875 C 17.424846 489.71875 17.450154 477.5 -0.4375 477.5 z M -0.4375 629.53125 L -0.4375 666.53125 C 17.450154 666.53125 17.424846 678.71875 35.3125 678.71875 C 53.20014 678.71875 53.23734 666.53125 71.125 666.53125 C 89.012654 666.53125 88.987348 678.71875 106.875 678.71875 C 124.76265 678.71875 124.79985 666.53125 142.6875 666.53125 C 160.57515 666.53125 160.54984 678.71875 178.4375 678.71875 C 196.32514 678.71875 196.33111 666.53125 214.21875 666.53125 C 232.1064 666.53125 232.0811 678.71875 249.96875 678.71875 C 267.85641 678.71875 267.89361 666.53125 285.78125 666.53125 C 303.66891 666.53125 303.6436 678.71875 321.53125 678.71875 C 339.41889 678.71875 339.42485 666.53125 357.3125 666.53125 C 375.20015 666.53125 375.2061 678.71875 393.09375 678.71875 C 410.9814 678.71875 410.98734 666.53125 428.875 666.53125 C 446.76265 666.53125 446.73734 678.71875 464.625 678.71875 C 482.51264 678.71875 482.54986 666.53125 500.4375 666.53125 L 500.4375 629.53125 C 482.54985 629.53125 482.51264 641.75 464.625 641.75 C 446.73734 641.75 446.76265 629.53125 428.875 629.53125 C 410.98734 629.53125 410.98139 641.75 393.09375 641.75 C 375.2061 641.75 375.20015 629.53125 357.3125 629.53125 C 339.42485 629.53125 339.41889 641.75 321.53125 641.75 C 303.6436 641.75 303.66891 629.53125 285.78125 629.53125 C 267.89361 629.53125 267.85641 641.75 249.96875 641.75 C 232.0811 641.75 232.10641 629.53125 214.21875 629.53125 C 196.33109 629.53125 196.32514 641.75 178.4375 641.75 C 160.54984 641.75 160.57515 629.53125 142.6875 629.53125 C 124.79985 629.53125 124.76264 641.75 106.875 641.75 C 88.987348 641.75 89.012654 629.53125 71.125 629.53125 C 53.23734 629.53125 53.20014 641.75 35.3125 641.75 C 17.424846 641.75 17.450154 629.53125 -0.4375 629.53125 z "
   transform="translate(0,-0.099175)"
   id="path4127"
   clip-path="url(#clipPath10172)" /></g>
</svg>