<?xml version="1.0" encoding="UTF-8" standalone="no"?>
<!-- Creator: CorelDRAW -->

<svg
   xmlns:dc="http://purl.org/dc/elements/1.1/"
   xmlns:cc="http://creativecommons.org/ns#"
   xmlns:rdf="http://www.w3.org/1999/02/22-rdf-syntax-ns#"
   xmlns:svg="http://www.w3.org/2000/svg"
   xmlns="http://www.w3.org/2000/svg"
   xmlns:xlink="http://www.w3.org/1999/xlink"
   xmlns:sodipodi="http://sodipodi.sourceforge.net/DTD/sodipodi-0.dtd"
   xmlns:inkscape="http://www.inkscape.org/namespaces/inkscape"
   xml:space="preserve"
   width="500"
   height="706.625"
   style="fill-rule:evenodd"
   viewBox="0 0 500 701.67665"
   id="svg2"
   version="1.1"
   inkscape:version="0.48.5 r10040"
   sodipodi:docname="svg.svg"><metadata
   id="metadata252"><rdf:RDF><cc:Work
       rdf:about=""><dc:format>image/svg+xml</dc:format><dc:type
         rdf:resource="http://purl.org/dc/dcmitype/StillImage" /></cc:Work></rdf:RDF></metadata><sodipodi:namedview
   pagecolor="#ffffff"
   bordercolor="#666666"
   borderopacity="1"
   objecttolerance="10"
   gridtolerance="10"
   guidetolerance="10"
   inkscape:pageopacity="0"
   inkscape:pageshadow="2"
   inkscape:window-width="1920"
   inkscape:window-height="1017"
   id="namedview250"
   showgrid="false"
   showguides="false"
   inkscape:guide-bbox="true"
   inkscape:zoom="0.66106443"
   inkscape:cx="423.79215"
   inkscape:cy="440.91323"
   inkscape:window-x="-8"
   inkscape:window-y="-8"
   inkscape:window-maximized="1"
   inkscape:current-layer="svg2"
   fit-margin-top="0"
   fit-margin-left="0"
   fit-margin-right="0"
   fit-margin-bottom="0"><inkscape:grid
     type="xygrid"
     id="grid3859"
     empspacing="5"
     visible="true"
     enabled="true"
     snapvisiblegridlinesonly="true"
     originx="0px"
     originy="-5px" /><sodipodi:guide
     orientation="0,1"
     position="-690,85"
     id="guide3861" /></sodipodi:namedview>
 <defs
   id="defs4">
  <style
   type="text/css"
   id="style6">
   
    .str1 {stroke:#1F1A17;stroke-width:0.216}
    .str0 {stroke:black;stroke-width:0.216}
    .str3 {stroke:#1F1A17;stroke-width:0.992126}
    .str2 {stroke:white;stroke-width:1.41732}
    .fil12 {fill:none}
    .fil4 {fill:none;fill-rule:nonzero}
    .fil11 {fill:white}
    .fil8 {fill:#0446E4}
    .fil6 {fill:#ED1A24}
    .fil9 {fill:#ED241A}
    .fil0 {fill:#F00000}
    .fil7 {fill:#F3A29A}
    .fil2 {fill:#FFD90F}
    .fil10 {fill:black}
    .fil3 {fill:#E5E5E5}
    .fil5 {fill:white}
    .fil1 {fill:#004A8D}
   
  </style>
 
 <style
   id="style3233"
   type="text/css">
   
    .str2 {stroke:white;stroke-width:0.216}
    .str0 {stroke:#F00000;stroke-width:0.216}
    .str1 {stroke:black;stroke-width:0.216}
    .fil1 {fill:none;fill-rule:nonzero}
    .fil10 {fill:#1F1A17}
    .fil12 {fill:white}
    .fil8 {fill:#0446E4}
    .fil6 {fill:#ED1A24}
    .fil9 {fill:#ED241A}
    .fil0 {fill:#F00000}
    .fil7 {fill:#F3A29A}
    .fil5 {fill:#FFCB05}
    .fil4 {fill:#FFD90F}
    .fil11 {fill:black}
    .fil2 {fill:#E5E5E5}
    .fil3 {fill:white}
    .fil13 {fill:#F00000;fill-rule:nonzero}
   
  </style>
  </defs>
 <g
   id="Layer_x0020_1"
   transform="translate(0,-2.375)">
  <metadata
   id="CorelCorpID_0Corel-Layer" />
  
  
  <g
   id="g3891"
   transform="translate(0.45314,-0.7123329)"
   style="fill:#ffd90f;fill-opacity:1;stroke:#000000;stroke-width:0.25;stroke-miterlimit:4;stroke-dasharray:none"><path
     style="fill:#ffd90f;fill-opacity:1;stroke:none"
     d="m 480,203.40625 -460.9063,0 c -9.97852,0 -9.97852,-19.28125 0,-19.28125 l 4.84375,0 0,-1.8125 -2.5,0 0,-29.75 2.5,0 0,-2.15625 -4.8437,0 c -9.97852,0 -9.97852,-14.4375 0,-14.4375 l 4.96875,0 0,-38.53125 c 4.56264,-1.9443 6.01356,-6.15655 6.75,-16.96875 C 29.7055,71.25016 26.384305,67.944862 19,64.45127 14.163581,48.742032 28.88165,27.78585 3.09375,13.15625 c 0,0 6.20099,-11.375 15.90625,-11.375 l -5e-5,0 c 9.7118,0 17.2351,6.24017 24.25,14.78125 L 55.6562,14.875 c -0.951,21.4685 -5.73955,39.30125 -16.84375,52.46875 15.1453,-9.3498 33.795,-16.90063 52.875,-21.6875 l -2.9375,10.28125 c 9.8765,6.2535 16.50503,16.32013 23.28125,25.5625 -6.8737,9.7353 -12.8011,19.57118 -22.6875,23.5 l 0.59375,11.40625 C 71.73445,114.69015 54.534,109.18597 37.9062,99.875 c 9.48259,15.77284 25.9279,26.25153 46.125,25.65625 17.0909,0.356 34.30267,-8.6157 42.84375,-31.9375 l 20.6875,0.84375 c 0.7114,6.4834 18.0248,30.53069 47,30.53125 22.4048,0 34.50532,-14.47355 40.1875,-25.65625 -16.9399,9.70021 -33.89905,19.61411 -50.84375,15.96875 l 1.1875,-8.5625 C 176.9634,99.727854 168.64018,95.005 162.0312,80.6875 168.9435,71.5024 177.22008,64.2113 185.68745,58.78125 L 185.0937,47.9375 c 16.4047,3.7151 32.04945,8.86739 46.09375,17.125 -8.3124,-14.3365 -15.86343,-29.0313 -19.5,-45.625 l 9.46875,2.84375 c 7.7851,-8.5561 17.66495,-14.41171 28.39065,-19.96875 10.7257,5.55704 20.60555,11.41265 28.39065,19.96875 l 9.46875,-2.84375 c -3.63657,16.5937 -11.1876,31.2885 -19.5,45.625 C 281.95055,56.80489 297.5953,51.6526 314,47.9375 l -0.59375,10.84375 C 321.87362,64.2113 330.1502,71.5024 337.0625,80.6875 330.45352,95.005 322.1303,99.727854 314,106.71875 l 1.1875,8.5625 c -16.9447,3.64536 -33.90385,-6.26854 -50.84375,-15.96875 5.68218,11.1827 17.7827,25.65625 40.1875,25.65625 28.9752,-5.6e-4 46.2886,-24.04785 47,-30.53125 l 20.6875,-0.84375 c 8.54108,23.3218 25.75285,32.2935 42.84375,31.9375 20.1971,0.59528 36.64241,-9.88341 46.125,-25.65625 -16.6278,9.31097 -33.82825,14.81515 -52.03125,16.53125 L 409.75,105 c -9.8864,-3.92882 -15.8138,-13.7647 -22.6875,-23.5 6.77622,-9.24237 13.40475,-19.309 23.28125,-25.5625 l -2.9375,-10.28125 c 19.08,4.78687 37.7297,12.3377 52.875,21.6875 C 449.17705,54.17625 444.3885,36.3435 443.4375,14.875 l 12.40625,1.6875 c 7.0149,-8.54108 14.5382,-14.78125 24.25,-14.78125 l -5e-5,0 c 9.70526,0 15.90625,11.375 15.90625,11.375 -25.7879,14.6296 -11.06983,35.585782 -15.90625,51.29502 -7.3843,3.493592 -10.7055,6.79889 -11.8125,16.01748 0.73644,10.8122 2.18736,15.02445 6.75,16.96875 l 0,38.53125 4.96875,0 c 9.97852,0 9.97852,14.4375 0,14.4375 l -4.8437,0 0,2.15625 2.5,0 0,29.75 -2.5,0 0,1.8125 4.84375,0 c 9.97852,0 9.97852,19.28125 0,19.28125 z"
     id="polygon14"
     inkscape:connector-curvature="0"
     transform="translate(0,-1.1939171)"
     sodipodi:nodetypes="ccsccccccsscccccccccccccccccccccccccccccccccccccccccccccccccccccccccccssccccccsc" /><g
     id="g18"
     style="fill:#ffd90f;fill-opacity:1;stroke:#000000;stroke-width:0.25;stroke-miterlimit:4;stroke-dasharray:none">
   
  </g><g
     id="g26"
     style="fill:#ffd90f;fill-opacity:1;stroke:#000000;stroke-width:0.25;stroke-miterlimit:4;stroke-dasharray:none">
   
  </g><g
     id="g34"
     style="fill:#ffd90f;fill-opacity:1;stroke:#000000;stroke-width:0.25;stroke-miterlimit:4;stroke-dasharray:none">
   
  </g><g
     id="g120"
     style="fill:#ffd90f;fill-opacity:1;stroke:#000000;stroke-width:0.25;stroke-miterlimit:4;stroke-dasharray:none">
   
  </g><g
     id="g128"
     style="fill:#ffd90f;fill-opacity:1;stroke:#000000;stroke-width:0.25;stroke-miterlimit:4;stroke-dasharray:none">
   
  </g><g
     id="g136"
     style="fill:#ffd90f;fill-opacity:1;stroke:#000000;stroke-width:0.25;stroke-miterlimit:4;stroke-dasharray:none">
   
  </g><g
     id="g146"
     style="fill:#ffd90f;fill-opacity:1;stroke:#000000;stroke-width:0.25;stroke-miterlimit:4;stroke-dasharray:none">
   
  </g><g
     id="g5570"
     style="stroke-width:1.5;stroke-miterlimit:4;stroke-dasharray:none"
     transform="translate(-0.9827485,0)"><path
       id="path5568"
       d="m 484.03945,148.228 -467.019703,0"
       style="fill:none;stroke:#a08700;stroke-width:1.5;stroke-linecap:round;stroke-miterlimit:4;stroke-opacity:1;stroke-dasharray:none"
       inkscape:connector-curvature="0"
       sodipodi:nodetypes="cc" /><path
       id="path156"
       d="m 17.019747,135.7829 467.019703,0"
       style="fill:none;stroke:#ffffff;stroke-width:1.5;stroke-linecap:round;stroke-miterlimit:4;stroke-dasharray:none"
       inkscape:connector-curvature="0"
       sodipodi:nodetypes="cc" /></g><path
     id="path22"
     d="m 15.4352,68.417 c 4.17232,-2.8766 9.53944,-2.58945 11.626,0.57515 2.38365,2.87547 0.595559,7.76495 -3.57761,10.6415 -4.17345,2.59314 -9.54086,2.30627 -11.6277,-0.57515 C 9.77441,75.89447 11.262031,71.00527 15.4352,68.417 z"
     class="fil5"
     inkscape:connector-curvature="0"
     style="fill:#ffffff;fill-opacity:1;stroke:none" /><g
     style="fill:#ffd90f;fill-opacity:1;stroke:#000000;stroke-width:0.25;stroke-miterlimit:4;stroke-dasharray:none"
     id="g5167"
     transform="matrix(-1,0,0,1,499.0937,0)">
   <path
   sodipodi:nodetypes="czczczczc"
   style="fill:none;stroke:#a08700;stroke-width:1;stroke-miterlimit:4;stroke-opacity:1;stroke-dasharray:none"
   inkscape:connector-curvature="0"
   class="fil4 str0"
   d="m 24.097485,94.702379 c 0,0 12.213976,36.829681 57.371198,36.829681 45.157217,0 55.758407,-36.829681 55.758407,-36.829681 0,0 9.4702,36.736921 53.96627,36.829681 44.49608,0.0927 58.35349,-38.829681 58.35349,-38.829681 0,0 13.85741,38.922381 58.35349,38.829681 44.49607,-0.0928 53.96627,-36.829681 53.96627,-36.829681 0,0 10.60119,36.829681 55.75841,36.829681 45.15722,0 57.37119,-36.829681 57.37119,-36.829681"
   id="path5169" />
  </g><g
     id="g4827"
     transform="matrix(-1,0,0,1,499.53235,0)"
     style="stroke-width:0.25;stroke-miterlimit:4;stroke-dasharray:none"><path
       transform="translate(-0.79175568,0)"
       style="fill:#a68c01;fill-opacity:1;stroke:none"
       d="m 249.711,57.0342 2.135,0.0876 -1.0675,-40.5975 z"
       id="polygon144"
       inkscape:connector-curvature="0"
       sodipodi:nodetypes="cccc" /><path
       style="fill:#a68c01;fill-opacity:1;stroke:none"
       d="m 329.731,80.35745 -58.976,-0.84105 0.049,1.6821 z"
       id="polygon152"
       inkscape:connector-curvature="0"
       sodipodi:nodetypes="cccc" /><path
       sodipodi:nodetypes="cccc"
       inkscape:connector-curvature="0"
       id="path4836"
       d="m 170.24,80.35745 58.976,-0.84105 -0.049,1.6821 z"
       style="fill:#a68c01;fill-opacity:1;stroke:none" /></g><g
     id="g4860"
     transform="translate(-0.46375,0)"
     style="stroke-width:0.25;stroke-miterlimit:4;stroke-dasharray:none"><path
       style="fill:#e5e5e5;fill-opacity:1;stroke:none"
       inkscape:connector-curvature="0"
       class="fil3"
       d="m 250.16,62.6502 c 9.53915,0 17.2854,7.76495 17.2854,16.9736 0,9.20325 -7.74624,16.6864 -17.2854,16.6864 -9.83764,0 -17.5842,-7.48262 -17.5842,-16.6864 2.8e-4,-9.2092 7.74624,-16.9736 17.5842,-16.9736 z"
       id="path126" /><path
       style="fill:#ffffff;fill-opacity:1;stroke:none"
       inkscape:connector-curvature="0"
       class="fil5"
       d="m 242.404,70.128 c 4.17175,-2.8766 9.53434,-2.58832 11.6209,0.575433 2.38394,2.87518 0.6001,7.76977 -3.57307,10.6464 -4.17288,2.58775 -9.54057,2.30117 -11.6272,-0.575433 -2.08517,-3.16857 -0.59386,-8.05805 3.57931,-10.6464 z"
       id="path132" /></g><path
     style="fill:#a68c01;fill-opacity:1;stroke:none"
     d="M 42.865456,81.729455 101.29,80.885705 42.865456,80.041955 z"
     id="polygon142"
     inkscape:connector-curvature="0"
     sodipodi:nodetypes="cccc" /><g
     id="g5194"
     style="stroke-width:0.25;stroke-miterlimit:4;stroke-dasharray:none"><g
       transform="translate(-0.19776646,0.27091064)"
       id="g5022"
       style="stroke-width:0.25;stroke-miterlimit:4;stroke-dasharray:none"><path
         id="path56"
         d="m 133.791,154.389 c 15.118,0 27.4601,5.24183 27.4601,11.651 0,6.40574 -12.3421,11.6461 -27.4601,11.6461 -15.2238,0 -27.5661,-5.24041 -27.5661,-11.6461 0,-6.40942 12.3423,-11.6507 27.5661,-11.651 z"
         class="fil8"
         inkscape:connector-curvature="0"
         style="fill:#004a8d;fill-opacity:1;stroke:none" /><path
         style="fill:#ffffff;fill-opacity:1;stroke:none"
         d="m 127.80602,158.02483 c -1.20912,-0.026 -2.63142,0.12679 -4.12465,0.4375 -3.98165,0.83396 -6.94159,2.74204 -6.63664,4.15625 0.30944,1.41392 3.87412,1.82857 7.75309,1 3.98165,-0.83367 6.94636,-2.74233 6.63665,-4.15625 -0.19041,-0.8837 -1.61326,-1.3941 -3.62845,-1.4375 z m 26.39153,1.28125 c 2.34583,1.50123 3.69047,3.33435 3.69047,5.25 0,5.57713 -11.4525,10.15569 -25.33711,10.15625 -13.47356,0 -24.60346,-4.24491 -25.21306,-9.65625 -0.10127,0.16611 -0.093,0.33417 -0.093,0.5 0,5.65962 11.74252,10.3125 26.23646,10.3125 14.39232,0 26.11242,-4.65795 26.11242,-10.3125 0,-2.3298 -2.02973,-4.50046 -5.39615,-6.25 z"
         id="path58"
         inkscape:connector-curvature="0" /></g><g
       transform="translate(0.28363348,0.28362774)"
       id="g4981"
       style="stroke-width:0.25;stroke-miterlimit:4;stroke-dasharray:none"><path
         transform="translate(-5e-5,-1.1939171)"
         style="fill:#ff867d;fill-opacity:1;stroke:none"
         d="m 21.022246,153.10818 -0.0066,14.12617 -7.765625,0 7.765625,14.07815 0,-14.07815 43.453125,0 z"
         id="polygon72"
         inkscape:connector-curvature="0"
         sodipodi:nodetypes="ccccccc" /><path
         style="fill:#ffffff;fill-opacity:1;stroke:none"
         d="m 21.015625,161.5 0,5.73435 19.484375,0 z m 0,5.73435 -3.953125,0 3.953125,7.32815 z"
         transform="translate(-5e-5,-1.1939171)"
         id="polygon82"
         inkscape:connector-curvature="0"
         sodipodi:nodetypes="cccccccc" /><path
         sodipodi:nodetypes="ccccccc"
         inkscape:connector-curvature="0"
         id="path5591"
         d="m 21.022196,180.11858 -0.0066,-14.12617 -7.765625,0 7.765625,-14.07815 0,14.07815 43.453125,0 z"
         style="fill:#e70924;fill-opacity:1;stroke:none" /></g><g
       style="stroke-width:0.22938725;stroke-miterlimit:4;stroke-dasharray:none"
       transform="matrix(1.08986,0,0,1.08986,-10.708304,-14.627282)"
       id="g5015"><g
         id="g4987"
         transform="matrix(0.86670223,0,0,1,11.753487,0)"
         style="stroke-width:0.24639639;stroke-miterlimit:4;stroke-dasharray:none"><path
           style="fill:#e5e5e5;fill-opacity:1;stroke:none"
           inkscape:connector-curvature="0"
           class="fil3"
           d="m 88.2264,155.389 c 3.28989,0 5.96665,2.24277 5.96665,4.90989 0,2.66003 -2.67676,4.90819 -5.96665,4.90819 -3.39336,-2.8e-4 -6.07011,-2.24759 -6.07011,-4.90819 0,-2.66712 2.67676,-4.90933 6.07011,-4.90989 z"
           id="path102" /><path
           style="fill:#ffffff;fill-opacity:1;stroke:none"
           inkscape:connector-curvature="0"
           class="fil5"
           d="m 85.5545,157.553 c 1.43773,-0.83395 3.29103,-0.74976 4.00734,0.16611 0.823748,0.83339 0.209764,2.24731 -1.23279,3.08098 -1.43915,0.74608 -3.29103,0.66274 -4.01244,-0.16583 -0.716315,-0.91616 -0.204662,-2.33008 1.23789,-3.08126 z"
           id="path104" /></g><use
         style="stroke-width:0.22938725;stroke-miterlimit:4;stroke-dasharray:none"
         x="0"
         y="0"
         xlink:href="#g4987"
         id="use4991"
         transform="translate(0,11.438755)"
         width="500"
         height="709" /></g><g
       transform="translate(-1.0780869,0.28362774)"
       id="g5053"
       style="stroke-width:0.25;stroke-miterlimit:4;stroke-dasharray:none"><path
         style="fill:#e70924;fill-opacity:1;stroke:none"
         d="m 250.625,153.07812 0,14.14063 47.21875,0 z m 0,14.14063 -47.21875,0 47.21875,14.17187 z"
         id="polygon38"
         inkscape:connector-curvature="0"
         sodipodi:nodetypes="cccccccc"
         transform="translate(-5e-5,-1.1939171)" /><path
         style="fill:#ff867d;fill-opacity:1;stroke:none"
         d="m 250.625,153.07812 -47.21875,14.14063 47.21875,0 z m 0,14.14063 0,14.17187 47.21875,-14.17187 z"
         transform="translate(-5e-5,-1.1939171)"
         id="polygon42"
         inkscape:connector-curvature="0"
         sodipodi:nodetypes="cccccccc" /><path
         style="fill:#ffffff;fill-opacity:1;stroke:none"
         d="m 250.625,153.07812 -11,3.27869 11,10.86194 z m 0,14.14063 0,14.17187 11,-3.23472 z"
         transform="translate(-5e-5,-1.1939171)"
         id="polygon46"
         inkscape:connector-curvature="0"
         sodipodi:nodetypes="cccccccc" /></g><use
       height="709"
       width="500"
       transform="translate(96.300987,0)"
       id="use5080"
       xlink:href="#g5015"
       y="0"
       x="0"
       style="stroke-width:0.25;stroke-miterlimit:4;stroke-dasharray:none" /><use
       id="use5130"
       xlink:href="#g5022"
       y="0"
       x="0"
       width="500"
       height="709"
       transform="translate(232.01326,0)"
       style="stroke-width:0.25;stroke-miterlimit:4;stroke-dasharray:none" /><use
       transform="matrix(-1,0,0,1,499.09374,0)"
       id="use5132"
       xlink:href="#g4981"
       y="0"
       x="0"
       width="500"
       height="709"
       style="stroke-width:0.25;stroke-miterlimit:4;stroke-dasharray:none" /><use
       id="use5134"
       xlink:href="#g5015"
       y="0"
       x="0"
       width="500"
       height="709"
       transform="translate(328.31424,0)"
       style="stroke-width:0.25;stroke-miterlimit:4;stroke-dasharray:none" /><use
       id="use5138"
       xlink:href="#use5080"
       y="0"
       x="0"
       width="500"
       height="709"
       transform="translate(135.71227,0)"
       style="stroke-width:0.25;stroke-miterlimit:4;stroke-dasharray:none" /></g><path
     sodipodi:nodetypes="cccc"
     inkscape:connector-curvature="0"
     id="path5232"
     d="m 456.22824,81.729455 -58.42454,-0.84375 58.42454,-0.84375 z"
     style="fill:#a68c01;fill-opacity:1;stroke:none" /><use
     x="0"
     y="0"
     xlink:href="#g4860"
     id="use5270"
     transform="translate(-112.70298,0)"
     width="500"
     height="709"
     style="stroke-width:0.25;stroke-miterlimit:4;stroke-dasharray:none" /><use
     height="709"
     width="500"
     transform="translate(-226.9734,0)"
     id="use5283"
     xlink:href="#g4860"
     y="0"
     x="0"
     style="stroke-width:0.25;stroke-miterlimit:4;stroke-dasharray:none" /><use
     height="709"
     width="500"
     transform="translate(226.0459,0)"
     id="use5296"
     xlink:href="#g4860"
     y="0"
     x="0"
     style="stroke-width:0.25;stroke-miterlimit:4;stroke-dasharray:none" /><use
     x="0"
     y="0"
     xlink:href="#g4860"
     id="use5298"
     transform="translate(111.77548,0)"
     width="500"
     height="709"
     style="stroke-width:0.25;stroke-miterlimit:4;stroke-dasharray:none" /><g
     id="g5574"
     transform="matrix(1,0,0,1.3453721,-0.9827485,1.4420429)"
     style="stroke-width:1.29321301;stroke-miterlimit:4;stroke-dasharray:none"><path
       style="fill:none;stroke:#a08700;stroke-width:1.29321301;stroke-linecap:round;stroke-miterlimit:4;stroke-opacity:1;stroke-dasharray:none"
       d="m 484.03945,148.228 -467.019703,0"
       id="path5576"
       inkscape:connector-curvature="0"
       sodipodi:nodetypes="cc" /><path
       style="fill:none;stroke:#ffffff;stroke-width:1.29321301;stroke-linecap:round;stroke-miterlimit:4;stroke-dasharray:none"
       d="m 17.019747,135.7829 467.019703,0"
       id="path5578"
       inkscape:connector-curvature="0"
       sodipodi:nodetypes="cc" /></g></g><path
   style="fill:#e70924;fill-opacity:1;stroke:none"
   d="m 250,201.5 -250,0 c 0,0 0,178.23529 0,265.64235 C 0,554.5494 60,706.5 250,706.5"
   id="path3863"
   inkscape:connector-curvature="0" />
  
  
  
  
  
  
  
  
  
  
  
  
  
  
  
  
  
  
  
  
  
  
  
  
  
  
  
  
  
  
  
  
  
  
  
  
  
  
  
  
  
  
  
  
  
  
  
  
  
  
  
  
  
  
  
  
  
  
  
  
  
  
  
  
  
  
  
  
  
  
  
  
  
  
  
  
  
  
  
  <path
   class="fil11"
   d="m 21.4299,536.317 17.0685,-10.7606 c 15.3366,17.1921 26.7154,34.384 34.1371,51.5767 L 57.7933,590.12 C 48.64022,571.6908 36.519,553.7563 21.4299,536.317 z"
   id="path188"
   inkscape:connector-curvature="0"
   style="fill:#ffffff" />
  <path
   class="fil11"
   d="m 41.4669,524.815 14.8422,-8.53427 c 13.1102,11.2552 23.747,26.4682 31.9108,45.6398 l -12.6159,12.9869 c -8.90561,-19.1713 -20.285,-35.8691 -34.1371,-50.0925 z"
   id="path190"
   inkscape:connector-curvature="0"
   style="fill:#ffffff" />
  <path
   class="fil11"
   d="M 90.8173,558.209 C 82.87093,542.687 72.9142,527.9684 60.0197,514.4245 l 3.71055,-1.85528 c 27.4581,-1.11317 21.5212,27.4581 32.2818,41.1871 l -5.19477,4.45266 z"
   id="path192"
   inkscape:connector-curvature="0"
   style="fill:#ffffff" />
  <path
   class="fil2"
   d="m 61.875,510.343 -0.742111,-5.19477 c 8.28681,-3.33921 11.626,-9.64715 10.0185,-18.9238 l 5.19477,-1.11317 c 5.31808,26.3452 32.157701,4.20548 59.368801,2.59739 l -7.42111,14.8422 c -10.266,4.824 -23.0057,6.43181 -38.218701,6.30794 l -2.22633,1.11317 c 9.091,7.2343 18.738201,18.2412 23.376501,35.9924 l -4.82372,14.1001 c -19.294901,-13.6055 -10.389501,-55.7822 -44.526601,-49.7214 z"
   id="path194"
   inkscape:connector-curvature="0"
   style="fill:#ffd90f" />
  <path
   class="fil2"
   d="m 95.641,512.941 c 7.97783,7.54413 14.4096,16.3256 17.4396,27.8291 10.7101,-2.16851 18.6231,-7.19008 20.8953,-11.8287 1.27106,-2.59512 0.21968,-13.1134 -4.93994,-22.6794 -9.64744,3.21591 -20.7791,5.44224 -33.395,6.679 z"
   id="path196"
   inkscape:connector-curvature="0"
   style="fill:#ffd90f" />
  <path
   class="fil11"
   d="m 79.3146,438.73 0.742111,46.3819 c 5.0709,22.0159 32.034299,2.10246 43.042399,0.37105 -3.3395,-20.6555 -5.19477,-40.19779 -10.0185,-61.9662 -3.83103,14.1636 -12.119,12.9266 -33.765999,15.2133 z"
   id="path198"
   inkscape:connector-curvature="0"
   style="fill:#ffffff" />
  <path
   class="fil11"
   d="m 90.8173,386.782 -14.8422,29.3134 2.96844,19.6659 c 14.5347,-0.62221 22.7225,-2.85534 27.6534,-6.07663 3.01436,-1.96923 8.29276,-21.5362 7.96791,-30.2868 l -23.7475,-12.6159 z"
   id="path200"
   inkscape:connector-curvature="0"
   style="fill:#ffffff" />
  <path
   class="fil11"
   d="m 51.4854,403.479 13.729,-32.2818 c 7.66829,4.45266 20.5316,8.16322 22.6344,13.358 0.989292,1.97915 -9.15279,18.8002 -13.729,28.2002 -6.06076,0.61824 -13.9765,-6.5554 -22.6344,-9.27638 z"
   id="path202"
   inkscape:connector-curvature="0"
   style="fill:#ffffff" />
  <path
   class="fil11"
   d="m 63.7302,370.827 -2.96844,6.679 -8.16322,-3.3395 c -3.71055,-1.73169 -0.371055,-8.65786 4.45266,-6.679 l 6.679,3.3395 z"
   id="path204"
   inkscape:connector-curvature="0"
   style="fill:#ffffff" />
  <path
   class="fil11"
   d="m 59.6486,380.474 -2.96844,5.56583 -8.16322,-3.3395 c -3.71055,-1.73169 -0.371055,-7.91575 4.45266,-5.93688 l 6.679,3.71055 z"
   id="path206"
   inkscape:connector-curvature="0"
   style="fill:#ffffff" />
  <path
   class="fil11"
   d="m 55.9381,389.008 -2.96844,6.30794 -8.16322,-3.3395 c -3.71055,-1.73169 -0.371055,-8.28681 4.45266,-6.30794 l 6.679,3.3395 z"
   id="path208"
   inkscape:connector-curvature="0"
   style="fill:#ffffff" />
  <path
   class="fil11"
   d="m 51.8565,397.914 -2.96844,5.56583 -7.42111,-3.3395 c -3.71055,-1.73169 -1.11317,-7.91575 3.71055,-5.93688 l 6.679,3.71055 z"
   id="path210"
   inkscape:connector-curvature="0"
   style="fill:#ffffff" />
  <path
   class="fil2"
   d="m 76.3461,373.795 -12.9869,-6.679 c -2.41172,-10.5131 6.86466,-13.9762 13.729,-11.3635 6.8641,2.61241 10.946,12.0438 -0.742111,18.0425 z"
   id="path212"
   inkscape:connector-curvature="0"
   style="fill:#ffd90f" />
  <path
   class="fil2"
   d="m 28.1089,412.756 4.45266,9.64744 c 16.0787,-9.46205 27.7047,-5.38129 34.8792,11.8738 l 7.79216,-2.96844 c -6.77197,-24.5832 -23.9023,-30.0869 -47.124,-18.5528 z"
   id="path214"
   inkscape:connector-curvature="0"
   style="fill:#ffd90f" />
  <path
   class="fil11"
   d="m 42.209,421.661 -24.1186,62.7083 c -6.49446,17.8727 -5.5046,30.9833 -1.11317,41.9292 10.7612,-7.42054 20.4092,-17.3152 24.4897,-32.6529 l 19.6659,-64.5636 c -2.22662,-9.15506 -12.6164,-11.0098 -18.9238,-7.42111 z M 17.3483,524.072 47.4038,435.0187 c 2.71559,-7.19263 7.17052,-7.43244 11.8738,-6.679 l 0,2.22633 c -4.45295,-0.24718 -7.91632,1.48479 -10.3895,5.19477 l -29.5486,87.1141 -1.99106,1.19707 z"
   id="path216"
   inkscape:connector-curvature="0"
   style="fill:#ffffff" />
  <path
   class="fil11"
   d="M 44.1202,602.20027 C 30.6604,584.28757 21.71784,564.02958 13.95574,541.68498 l 4.87712,-3.88367 c 13.1726,13.9754 25.1705,32.6512 36.3631,54.5446 l -11.0758,9.85442 z"
   id="path218"
   inkscape:connector-curvature="0"
   style="fill:#ffffff"
   sodipodi:nodetypes="cccccc" />
  
  
  
  
  
  <path
   class="fil11"
   d="m 183.952,420.548 1.85528,-6.30794 -3.3395,0 -3.3395,0.37106 -0.74211,-3.71055 -2.96844,-2.22634 -4.08161,1.11318 -3.3395,-4.08161 -3.71055,0.74211 -1.11317,0 -4.45266,-5.19477 -4.45266,1.85528 -0.74211,2.59739 1.85528,0.74211 1.11317,4.08161 -1.48422,0.74211 -0.74211,2.22633 0.74211,2.59739 -1.11317,1.11317 -1.11317,2.59739 1.85528,1.85528 -1.85528,1.85528 -0.74211,3.71055 1.11317,2.59739 -2.22633,1.11317 -1.11317,3.3395 1.11317,4.45266 -2.59739,2.96844 1.11317,3.71055 -2.59739,3.3395 0.74211,3.71055 -1.48422,1.11317 -0.74211,4.08161 1.48422,2.59739 -2.59739,0 0,2.22633 -0.37106,4.45266 -1.11317,0.74211 -1.11317,2.59739 2.59739,4.45266 -2.59739,1.11317 0,3.71055 1.11317,1.85528 -2.59739,1.48422 0,2.59739 1.48422,2.96844 -2.22633,1.48422 0,4.82372 1.11317,1.85528 -1.85528,2.59739 0,2.96844 2.59739,2.22633 -3.3395,2.59739 2.96844,4.82372 0,1.85528 -2.59739,0 -0.37105,3.71055 2.59739,4.82372 -2.22633,-0.74211 0.37105,4.45266 3.3395,3.3395 -2.96844,1.11317 1.85528,4.45266 3.71055,0 1.85528,0.74211 -2.22633,1.48422 1.85528,2.96844 4.82372,-0.37106 1.11317,1.85528 -1.85528,1.48422 2.22633,1.85528 5.93688,0.37106 1.48422,1.11317 -2.59739,1.11317 4.82372,3.3395 2.96844,-0.74211 2.59739,1.11317 -1.85528,1.11317 4.82372,3.3395 4.08161,0 1.85528,0.74211 -1.48422,1.85528 4.45266,2.59739 3.71055,-0.74211 1.48422,1.11317 0,1.85528 3.3395,1.85528 4.82372,0 -1.48422,2.59739 4.82372,1.85528 4.45266,-0.37106 -0.74211,1.85528 3.3395,2.22633 5.19477,0 -0.37105,2.59739 3.71055,2.22633 5.56583,0 -0.74211,1.85528 2.59739,2.59739 1.48422,-1.11317 3.3395,1.48422 -1.85528,1.11317 2.96844,2.22633 3.3395,-0.37105 1.85528,1.11317 -1.11317,0.74211 2.96844,2.59739 4.08161,0 -1.48422,2.96844 3.3395,1.85528 1.11317,-0.37106 3.3395,0.74212 -1.48422,2.22633 2.59739,2.22633 2.96844,1.48422 0.74211,1.85528 -1.48422,0.74211 4.01555,2.59739 0,-83.8585 -5.12872,-1.48422 0,2.96844 -1.85528,0 -1.11317,-3.3395 -4.82372,0 -1.11317,2.22633 -1.85528,-1.48422 0,-1.85528 -5.19477,-2.59739 0,2.96844 -1.85528,-1.48422 -2.22633,-4.08161 -1.85528,-1.11317 -1.48422,2.59739 -1.48422,-1.85528 0,-2.22633 -4.45266,-1.85528 -0.74212,2.59739 -1.48422,-1.11317 -1.48422,-3.3395 -3.3395,0 -1.11317,1.11317 -2.59739,-2.59739 -3.3395,0 -1.48422,1.48422 -1.85528,-2.59739 -4.45266,0 0,1.48422 -1.85528,0 -2.59739,-2.22633 -6.679,4.08161 0.74212,3.3395 -2.22633,-0.74211 -2.59739,1.48422 0,4.08161 -2.22633,-1.85528 -1.85528,0.74211 0,2.22633 -1.48422,1.11317 -1.11317,-2.22633 -1.85528,0.37105 -1.48422,1.85528 -2.59739,-1.85528 0,-2.22633 -1.85528,-0.37105 -5.19477,-1.85528 3.71055,-1.85528 0.37105,-1.85528 -2.22633,-3.71055 3.71055,1.48422 1.85528,-1.85528 -0.37105,-3.3395 3.3395,2.22633 1.85528,-0.37106 -0.74212,-2.22633 4.08161,2.22633 5.56583,0.74211 5.19477,-1.11317 1.11317,-5.56583 -2.22633,-0.74211 3.3395,-1.11317 0,-4.82372 -2.22633,-2.59739 2.59739,-0.37105 -0.37105,-3.3395 -2.59739,-2.96844 2.59739,0 0.37105,-3.3395 -2.96844,-3.71055 2.44942,0 -0.59414,-4.08161 -3.3395,-2.22633 2.59739,-0.74211 0.74211,-4.45266 -3.3395,-2.22633 2.59739,-1.48422 0,-3.3395 -2.96844,-2.22633 1.85528,-1.11317 0,-4.45266 -2.59739,-1.85528 2.59739,-1.11317 -0.74211,-5.19477 -2.96844,-2.96844 2.59739,0 0,-4.82372 -2.22633,-2.96844 2.22633,-1.11317 0,-3.71055 -1.11317,-1.48422 1.48422,-2.59739 z m -3.3395,86.4559 -6.30794,5.93688 c -5.81358,4.45068 -15.0486,-2.98772 -4.08161,-5.93688 l 10.3895,0 z m -4.37925,-80.3322 0.29707,5.78835 2.67137,-1.03975 -0.89121,-3.19295 z m 0,9.84643 0.59414,6.08542 2.07723,1.78243 0.54482,-4.40589 z m 0.24151,10.9653 2.5251,1.63389 0.89121,4.75314 -3.71339,1.93096 -0.89121,-2.97071 1.33682,-0.44561 0.59414,-3.26778 z m 0.44561,11.8828 c 2.17843,-0.44561 4.05978,2.97071 3.86192,4.90167 l -2.22803,2.37657 -1.48536,-2.37657 0.59414,-3.26778 z m 0.89121,11.1402 c 2.17843,-0.44561 4.05978,2.97071 3.86192,4.90167 l -0.89121,3.11925 -2.22803,-2.37657 0,-4.01046 z m 0.29707,11.2887 c 2.17843,-0.44561 3.76271,4.01046 3.56485,5.94142 l -1.78243,2.5251 -1.33682,-1.78243 0,-4.01046 z m -0.89121,11.8828 c 2.17843,-0.44561 3.91125,3.41632 2.67364,6.08996 l -2.22803,1.48536 -1.93096,-3.11925 1.93096,-1.78243 z m 0.20409,-76.4694 -0.14853,5.49128 2.96844,0.44561 -0.64347,-2.62347 z m -24.2668,108.553 3.86192,0.74268 0.59415,1.93096 -3.26778,-0.44561 z m 0.44561,7.42678 -3.41632,1.78243 -3.56485,-1.48536 c -0.58762,-1.56813 -2.6538,-3.66378 2.67364,-3.11925 z m 7.57531,5.79288 -3.86192,1.93096 c -2.37628,-0.14854 -3.36614,-0.89121 -2.97071,-2.22803 l 2.0795,-1.18828 2.97071,0.44561 1.78243,1.03975 z m -1.03975,-7.57531 3.71339,0.59414 0,2.67364 -3.26778,-1.18828 z m 6.08996,5.19874 3.86192,0.74268 0.59414,1.93096 -3.26778,-0.44561 z m -1.18828,5.79288 -2.5251,2.22803 3.71339,2.82217 3.41632,-1.48536 2.0795,-1.78243 -5.05021,-0.44561 -1.63389,-1.33682 z m 10.3975,-0.59414 5.19874,0.89121 -0.89121,2.0795 -4.01046,0.44561 z m 6.6841,10.1004 -3.41632,1.78243 -3.56485,-1.48536 c -0.58762,-1.56813 -3.24794,-3.51525 2.0795,-2.97071 z m 3.56485,-4.45607 4.90167,0.74268 -0.89121,2.0795 -5.05021,-0.14854 z m 8.76359,5.05021 4.01046,0.44561 -1.03975,2.37657 -3.56485,-0.59415 z m -0.89121,6.23849 -5.79288,0.74268 c -2.37628,-0.14854 -3.36614,-0.89122 -2.97071,-2.22803 l 2.0795,-1.18828 2.97071,0.4456 3.71339,2.22803 z m 6.83263,2.67364 -3.71339,0.14853 -3.71339,1.33682 4.15899,2.37657 4.6046,-2.97071 -2.22803,-0.14853 z m 2.97071,-4.15899 4.01046,0.4456 -1.03975,2.37657 -3.56485,-0.59414 z m 10.546,5.49581 2.49534,1.42611 1.51512,-0.0893 -1.03975,2.37657 -3.56485,-0.59415 z m -2.5251,5.64435 -3.41632,1.78243 -3.56485,-1.48536 c -0.58762,-1.56813 -3.24794,-3.66378 2.0795,-3.11925 z m 9.80334,5.19874 -3.86192,1.33682 c -2.37628,-0.14854 -3.36614,-0.89121 -2.97071,-2.22803 l 1.33682,-0.89121 3.11925,0.4456 z m 1.03975,-5.05021 4.75314,0 -0.59414,2.67364 -4.75314,-0.44561 z m 9.65481,3.41632 2.42929,0.91587 2.17531,-0.0247 -1.63389,2.22803 -4.45607,-0.29707 z m -7.1297,4.75314 -2.67364,1.33682 2.5251,1.93096 5.05021,-0.44561 1.33682,-1.03975 z m 9.2092,4.90167 -2.22803,2.82217 3.41632,1.93096 2.67364,-0.74268 1.93096,-0.89121 -1.78243,-1.78243 -2.5251,0 z m 7.1297,-5.34728 5.34728,2.0795 -1.78469,2.07553 -2.52284,0.44957 -2.5251,-3.11925 z m -2.0795,13.5167 1.93096,2.97071 c 2.17814,0.14825 4.15843,-0.49578 5.94142,-1.93096 l -1.78243,-0.44561 -3.11925,-1.03975 -2.97071,0.44561 z"
   id="path230"
   inkscape:connector-curvature="0"
   style="fill:#ffffff"
   sodipodi:nodetypes="cccccccccccccccccccccccccccccccccccccccccccccccccccccccccccccccccccccccccccccccccccccccccccccccccccccccccccccccccccccccccccccccccccccccccccccccccccccccccccccccccccccccccccccccccccccccccccccccccccccccccccccccccccccccccccccccccccccccccccccccccccccccccccccccccccccccccccccccccccccccccccccccccccccccccccccccccccccccccccccccccccccccccccccccccccccccccccccccccccccccccccccccccccccccccccccccccccccccc" />
  <path
   class="fil11"
   d="m 219.945,411.272 -14.4712,9.27638 c 12.9742,25.7879 15.107,50.8961 12.2448,75.6953 l 25.9739,21.5212 c 3.29358,-35.498 -2.30315,-70.996 -23.7475,-106.493 z"
   id="path232"
   style="fill:#ffffff"
   inkscape:connector-curvature="0" />
  <path
   class="fil2"
   d="m 218.831,397.171 -25.9739,17.4396 c -8.47219,7.1195 -7.35704,14.677 -2.88312,16.6805 8.35824,3.74315 15.1977,-1.90828 10.3042,-9.63043 l 28.2002,-19.6659 c 5.0709,-3.95802 4.35544,-10.1032 -1.25263,-13.8682 -7.62804,-5.12107 -15.1356,2.42731 -8.39481,9.04451 z"
   id="path234"
   style="fill:#ffd90f;fill-opacity:1"
   inkscape:connector-curvature="0" />
  <path
   class="fil11"
   d="m 171.336,375.65 c -5.80876,7.51975 -10.3045,8.23833 -11.8738,23.3765 l 4.68425,3.65698 4.9235,0.57317 4.12129,3.46451 4.66413,0.57515 2.49222,2.15688 1.21124,2.08743 c 4.04703,0.46573 8.0487,0.65962 11.9251,0.10176 l 20.5234,-13.729 c -0.0839,-2.24136 -0.51902,-5.0692 -1.11317,-8.16322 -4.73046,1.13726 -5.94057,-2.59115 -5.19477,-9.64744 0.55417,-0.56296 1.04513,-1.19027 1.85528,-1.11317 0.24746,0.0842 -0.66643,2.3451 0.30472,4.27295 0.39402,0.78208 -0.79143,2.47125 0.66615,4.40249 0.78916,0.34101 1.57861,0.2554 2.36863,-0.25625 -0.33959,-3.72189 0.0604,-8.11928 -1.21436,-9.20892 -1.04854,-0.89632 -2.26176,-0.84756 -4.2069,0.37445 -3.86079,2.42504 -4.21144,5.60155 -4.13773,9.53037 -0.72426,1.7932 -0.34186,3.24454 -0.3566,4.98501 -2.40662,0.55389 -4.81323,4.43651 -7.47553,4.41468 -4.43679,-0.0366 -5.61487,-3.97843 -13.8226,-4.59156 -0.0848,-1.59109 -2.0812,-2.64076 -2.3692,-4.0184 -0.4269,-2.04265 -2.14158,-2.00721 -2.36665,-3.68986 -0.24492,-1.83033 -5.15112,-5.85355 -5.60863,-9.55446 z"
   id="path236"
   inkscape:connector-curvature="0"
   style="fill:#ffffff" />
  <path
   class="fil11"
   d="m 194.719,395.022 c -1.57635,-1.68576 -4.55868,-1.83487 -4.72933,-3.13682 3.78964,-2.75896 7.55717,-5.58312 11.6952,-7.2978 -0.8314,2.13421 -1.19339,4.97225 -1.34192,8.13005 -1.25688,0.17065 -2.25808,0.40564 -3.38712,1.47232 0.53263,-2.90154 -1.04372,-3.92599 -3.57903,-4.09692 0.44759,1.64324 1.72573,2.64614 1.34221,4.92917 z"
   id="path238"
   style="fill:#ffffff"
   inkscape:connector-curvature="0" />
  <path
   class="fil11"
   d="m 202.324,380.939 c 0.85209,-3.30775 -2.12995,-5.97487 -3.57903,-5.50545 l -13.5485,8.9623 c -1.60299,1.17439 -3.69468,2.98828 -2.53588,5.01081 0.56891,0.99326 2.65862,2.07411 5.02838,0.62249 0.12813,-2.79553 -1.85329,-3.73408 -1.72573,-5.50545 4.36734,-0.0539 3.72898,2.63452 4.5377,4.0972 1.4709,-1.63843 3.14334,-2.78986 4.78602,-3.85172 2.40038,-1.55112 4.81096,-2.76605 7.03701,-3.83018 z"
   id="path240"
   inkscape:connector-curvature="0"
   style="fill:#ffffff" />
  <path
   class="fil11"
   d="m 197.787,373.129 c 1.21947,-1.83458 -0.47367,-3.94725 -3.32334,-4.2891 -4.09011,2.43269 -8.49969,6.46555 -11.8871,7.87408 -3.02485,1.21635 -1.83175,8.68451 3.1955,4.92917 0.57515,-2.49704 -1.1503,-2.94491 -1.72545,-4.41723 1.91792,-1.42016 4.0697,-0.31068 3.51496,3.13682 l 10.2254,-7.23374 z"
   id="path242"
   inkscape:connector-curvature="0"
   style="fill:#ffffff" />
  <path
   class="fil11"
   d="m 193.058,367.175 -7.09399,4.99323 c 0.11168,-4.07197 -1.01282,-3.43729 -2.08148,-3.70857 -0.94337,-0.23924 -1.54545,-0.01 -1.90063,1.21011 1.51937,1.77194 2.39981,3.22299 1.87313,3.97077 -4.8994,2.34709 -6.34819,-1.38728 -4.15389,-3.90501 2.34312,-2.13392 5.32573,-4.01159 7.9886,-6.01739 1.2223,-0.432 2.51887,-0.86627 3.53225,-0.53235 1.41987,0.468 2.6348,2.54891 1.836,3.9892 z"
   id="path244"
   inkscape:connector-curvature="0"
   style="fill:#ffffff" />
  <path
   class="fil2"
   d="m 188.967,354.692 c -3.11386,-4.50596 -10.6722,-5.37137 -16.1218,-1.59109 -4.2035,2.91628 -6.22092,9.13153 -4.16608,13.5712 3.26495,6.98117 7.32785,12.7922 11.7879,18.7472 l 1.21436,-0.96038 c -2.85931,-1.98992 -3.18954,-4.68936 -1.78951,-7.8738 -3.83471,-2.04888 -4.26047,-5.03632 -1.27814,-8.96202 l 5.4961,-3.84095 c -1.77874,-2.99821 -0.92636,-5.3881 1.72545,-7.36186 l 3.13172,-1.72828 z"
   id="path246"
   inkscape:connector-curvature="0"
   style="fill:#ffd90f" />
  
 <path
   style="fill:#1f1a17;fill-opacity:1;stroke:none"
   d="m 250,706.5 c 190,0 250.00002,-151.9506 250.00001,-239.35765 -10e-6,-87.40706 0,-265.64235 0,-265.64235 L 250,201.5"
   id="path3867"
   inkscape:connector-curvature="0" /><g
   transform="matrix(1.0064734,0,0,1.0064734,3.1339034,6.1507554)"
   style="fill-rule:evenodd"
   id="g3777"><g
     id="g3767"><path
       id="path3568-0"
       d="m 363.776,302.94 c -29.9877,-4.29137 -39.7667,13.1828 -35.9357,31.4136 l -5.26621,3.99572 18.4025,30.8634 7.64873,-5.01336 c -3.71055,-7.05005 -5.19874,-27.2994 14.8975,-24.5007 21.8044,3.03676 50.9868,61.2221 82.5367,65.2337 l -0.36737,-18.8371 c -16.3202,-7.27342 -51.5795,-78.814 -81.9162,-83.1552 z m 98.5885,62.5768 c -9.55956,4.63947 -3.50306,16.6272 6.29178,15.501 -1.52731,7.44407 -1.57039,14.8881 -1.24243,22.3325 26.244,-10.319 17.818,-48.9314 -5.04936,-37.8335 z m -157.543,-16.979 -5.20328,3.66463 c -8.12183,-10.7935 -33.4092,-12.553 -41.7756,13.0779 -12.6026,35.6533 25.4639,78.2686 31.6749,114.316 l 17.4056,8.45689 c 7.35109,-39.2746 -25.8514,-75.3537 -19.0933,-101.741 3.87893,-15.152 22.8475,-10.7099 28.0423,-3.28876 l 7.18753,-3.27884 -18.2381,-31.2066 z m -42.0336,141.356 c -14.9179,13.5057 17.4643,41.3445 34.253,17.3699 l -18.9369,-7.87493 c 4.0354,-10.4956 -6.45733,-17.5153 -15.3162,-9.49493 z"
       class="fil4"
       inkscape:connector-curvature="0"
       style="fill:#ffd90f;fill-opacity:1" /><path
       id="path3570-9"
       d="m 432.057,552.333 -132.213,-217.502 12.3236,-6.91087 130.819,216.807 c 0.70243,6.88111 -4.67887,7.67793 -10.9293,7.60621 z"
       class="fil4"
       inkscape:connector-curvature="0"
       style="fill:#ffd90f;fill-opacity:1" /><path
       id="path3572-4"
       d="m 296.403,333.557 16.9092,-9.94989 -10.7932,-15.2308 c 8.74092,-0.54624 16.492,-2.57613 23.2535,-6.08996 l -64.2093,-48.6661 11.7349,80.9416 c 6.1767,-4.2704 10.8692,-10.0244 14.0774,-17.2624 l 9.0275,16.2576 z"
       class="fil12 str2"
       inkscape:connector-curvature="0"
       style="fill:#ffffff;stroke:#ffffff;stroke-width:0.21461074" /><path
       id="path3574-8"
       d="m 387.351,447.092 37.061,9.24435 4.31178,12.7366 c -5.30277,-0.45865 -10.605,-0.79342 -15.9069,0.10913 l 17.6754,5.11484 4.28967,12.6712 c -5.06778,-0.61965 -9.64092,-0.74466 -13.7188,-0.37445 l 15.1858,4.7075 3.64989,10.781 c -4.05411,0.28828 -8.10652,-0.0575 -12.1584,0.22195 l 13.6633,4.22362 4.49008,13.2616 -16.6096,-3.28451 -41.9332,-69.4129 z"
       class="fil12"
       inkscape:connector-curvature="0"
       style="fill:#ffffff" /><path
       id="path3576-8"
       d="m 371.547,459.834 -9.42463,32.0559 11.0889,11.7763 5.868,-11.8089 c 0.36028,6.94035 -1.01735,11.2734 -2.64274,15.2342 l 7.72555,8.20432 4.9629,-9.40763 c -0.19729,5.64208 -0.88951,9.79966 -2.07553,12.4739 l 9.35972,9.93997 4.0235,-10.313 c -0.0111,4.32454 -0.51676,8.64936 -1.5171,12.9747 l 9.7098,10.3116 4.8274,-14.1106 -41.9057,-67.3308 z"
       class="fil12"
       inkscape:connector-curvature="0"
       style="fill:#ffffff" /><path
       id="path3578-2"
       d="m 281.54,496.985 23.7475,11.8738 c 4.94731,2.47351 8.4104,-3.58696 3.71055,-5.93688 l -24.8607,-12.6159 c -2.35021,-1.85528 -6.92646,5.56583 -2.59739,6.679 z"
       class="fil12"
       inkscape:connector-curvature="0"
       style="fill:#ffffff" /><path
       id="path3580-4"
       d="m 457.314,384.996 0.48501,25.7397 c 0.10091,5.3623 7.07641,5.6143 6.98032,0.52016 l -0.34299,-27.0298 c 0.55474,-2.85307 -8.14224,-3.44977 -7.12233,0.76989 z"
       class="fil12"
       inkscape:connector-curvature="0"
       style="fill:#ffffff" /><path
       id="path3582-5"
       d="m 286.734,480.659 c -3.71055,-2.10274 -8.90533,4.32879 -3.3395,7.05005 l 146.567,73.469 c 12.1221,4.88722 23.5006,-4.76022 23.7475,-17.8107 l 1.85528,-156.956 c 0.61824,-6.679 -7.29752,-6.30794 -7.05005,0 l -1.85528,156.585 c -0.61852,8.03934 -9.77131,12.3684 -16.3264,10.7606 l -143.598,-73.0979 z"
       class="fil12"
       inkscape:connector-curvature="0"
       style="fill:#ffffff" /></g></g><g
   id="g5350"><polyline
     style="fill:none;stroke:#ffffff;stroke-width:1.24968398"
     transform="matrix(1.1474122,0,0,1.1210269,-10.54336,-37.694787)"
     id="polyline228"
     points="75.6046,318.137 71.523,311.829 75.6046,304.779 "
     class="fil12 str2" /><polyline
     class="fil12 str2"
     points="75.6046,318.137 71.523,311.829 75.6046,304.779 "
     id="polyline5339"
     transform="matrix(-1.1474122,0,0,1.1210269,272.56237,-37.694787)"
     style="fill:none;stroke:#ffffff;stroke-width:1.24968398" /><path
     transform="translate(0,-2.5)"
     id="path5341"
     d="m 131,254.96875 c -3.55017,1.48394 -7.88688,3.46314 -11.96875,5.9375 1.60554,7.67793 4.05772,11.8574 6.65625,15.5625 L 122.71875,275.75 c -3.95745,-2.62885 -7.91667,-4.67407 -11.875,-6.3125 -2.10246,3.4628 -3.69905,7.42174 -4.8125,11.875 1.23506,3.95745 2.96004,7.91667 5.1875,11.875 4.94759,-1.42271 9.89674,-3.52607 14.84375,-5.9375 -1.36035,13.8526 -17.19425,17.68742 -20.78125,5.9375 l -1.84375,-0.375 c -12.962305,16.598 -20.044477,2.86006 -22.09375,-5.1875 4.020238,1.60724 7.85394,3.5825 11.6875,5.5625 2.22633,-3.3378 4.46173,-6.7939 6.6875,-11.125 -1.11317,-4.08189 -2.70947,-8.1687 -4.8125,-12.25 -4.94703,1.23676 -9.89589,3.44034 -14.84375,6.65625 l -1.5,0 c 2.84797,-4.94816 4.46258,-9.8973 3.34375,-14.84375 l -15.9375,-4.8125 c 4.02123,13.9133 7.58632,28.26065 9.625,44.15625 l -4.0625,2.21875 0,3.34375 3.875,0.78125 12.0625,7.1875 -12,6.34375 -1.53125,0.53125 c -3.965049,0 -3.529692,6.6875 -0.125,6.6875 l 114.40625,0 c 3.40469,0 3.8088,-6.6875 -0.15625,-6.6875 l -1.5,-0.53125 -12.03125,-6.34375 12.09375,-7.1875 3.875,-0.78125 0,-3.34375 -4.09375,-2.21875 c 2.03868,-15.8956 5.63502,-30.24295 9.65625,-44.15625 l -15.96875,4.8125 c -1.11883,4.94645 0.49578,9.89559 3.34375,14.84375 l -1.46875,0 c -4.94786,-3.21591 -9.89672,-5.41949 -14.84375,-6.65625 -2.10303,4.0813 -3.73058,8.16811 -4.84375,12.25 2.22577,4.3311 4.46117,7.7872 6.6875,11.125 3.83356,-1.98 7.66726,-3.95526 11.6875,-5.5625 -2.04928,8.04756 -9.10019,21.7855 -22.0625,5.1875 l -1.875,0.375 c -3.587,11.74992 -19.4209,7.9151 -20.78125,-5.9375 4.94701,2.41143 9.89616,4.51479 14.84375,5.9375 2.22746,-3.95833 3.98369,-7.91755 5.21875,-11.875 -1.11345,-4.45326 -2.74129,-8.4122 -4.84375,-11.875 -3.95833,1.63843 -7.91755,3.68365 -11.875,6.3125 l -2.96875,0.71875 c 2.59853,-3.7051 5.08196,-7.88457 6.6875,-15.5625 -4.08187,-2.47436 -8.44982,-4.45356 -12,-5.9375 z m 0,53.0625 L 142.25,314.5 131,321 119.75,314.5 131,308.03125 z"
     style="fill:#ffd90f"
     inkscape:connector-curvature="0" /><ellipse
     style="fill:#004a8d;fill-opacity:1;fill-rule:nonzero"
     transform="matrix(-1,0,0,1,207.26263,0)"
     sodipodi:ry="5.7512202"
     sodipodi:rx="8.1632204"
     sodipodi:cy="312.75601"
     sodipodi:cx="104.175"
     id="ellipse222"
     ry="5.7512202"
     rx="8.1632204"
     cy="312.75601"
     cx="104.175"
     class="fil1"
     d="m 112.33822,312.75601 c 0,3.17631 -3.65479,5.75122 -8.16322,5.75122 -4.508419,0 -8.163217,-2.57491 -8.163217,-5.75122 0,-3.17631 3.654798,-5.75122 8.163217,-5.75122 4.50843,0 8.16322,2.57491 8.16322,5.75122 z" /><ellipse
     transform="translate(-1.0873814,0)"
     id="ellipse224"
     ry="5.7512202"
     rx="8.1632204"
     cy="312.75601"
     cx="160.03101"
     class="fil1"
     sodipodi:cx="160.03101"
     sodipodi:cy="312.75601"
     sodipodi:rx="8.1632204"
     sodipodi:ry="5.7512202"
     style="fill:#004a8d;fill-opacity:1;fill-rule:nonzero"
     d="m 168.19423,312.75601 c 0,3.17631 -3.6548,5.75122 -8.16322,5.75122 -4.50843,0 -8.16322,-2.57491 -8.16322,-5.75122 0,-3.17631 3.65479,-5.75122 8.16322,-5.75122 4.50842,0 8.16322,2.57491 8.16322,5.75122 z" /></g></g>
</svg>