<svg xmlns="http://www.w3.org/2000/svg" version="1.0" width="731.12299" height="486.814" viewBox="0 0 731.123 486.814" xml:space="preserve">
  <path style="fill:#00237e;fill-opacity:1;stroke:none" d="M0-.00000239h731.12299v486.814H0z"/>
  <path style="fill:#fff;stroke:none" transform="translate(0 -.0000024)" d="m320.635 107.417-7.093 21.833h-22.956l18.571 13.492-7.094 21.832 18.572-13.493 18.572 13.494-7.094-21.833 18.572-13.492h-22.956zM320.635 175.003l-7.093 21.833h-22.956l18.571 13.493-7.094 21.832 18.572-13.494 18.572 13.494-7.094-21.832 18.572-13.493h-22.956zM320.635 242.589l-7.093 21.833h-22.956l18.571 13.494-7.094 21.831 18.572-13.493 18.572 13.493-7.094-21.832 18.572-13.493h-22.956zM320.635 310.175l-7.093 21.833h-22.956l18.571 13.493-7.094 21.832 18.572-13.493 18.572 13.493-7.094-21.833 18.572-13.492h-22.956z"/>
  <path d="M141.215 240.666c0-79.06 64.09-143.150002 143.15-143.150002 16.625 0 32.583 2.844002 47.427 8.055002-25.233-16.412002-55.345-25.955002-87.689-25.955002-88.945 0-161.05 72.104002-161.05 161.050002 0 88.945 72.104 161.05 161.05 161.05 32.345 0 62.457-9.543 87.69-25.955-14.844 5.211-30.803 8.055-47.428 8.055-79.06-.001-143.15-64.09-143.15-143.15z" style="fill:#fff;stroke:none"/>
</svg>
