<svg xmlns="http://www.w3.org/2000/svg" viewBox="0 0 1350 900"><g><rect height="900" width="1350" fill="#fff" paint-order="stroke fill markers"/><g><path d="M 800.53212,287.16897 H 543.65156 v -87.16902 h 256.88056 z" fill="#02983b"/><g><path d="M 0,0 -120.083,-62.198 V -13.78 L 14.229,55.071 V 24.779 C 14.229,14.559 9.83,5.088 0,0" fill="#004097" transform="matrix(1.91257 0 0 -1.91257 773.318 392.495)"/></g><path d="M 1099.9998,287.16897 H 837.3012 v -87.16902 h 262.6986 z" fill="#02983b"/><path d="M 506.87865,287.16897 H 250 v -87.16902 h 256.87865 z" fill="#02983b"/><g><path d="M 0,0 -120.087,-62.198 V -13.78 L 14.224,55.071 V 24.779 C 14.224,14.559 9.819,5.088 0,0" fill="#004097" transform="matrix(1.91257 0 0 -1.91257 479.675 392.495)"/></g><g><path d="M 0,0 V -23.377 C 0,-35.639 9.942,-45.579 22.206,-45.579 H 137.354 V 0 Z" fill="#004097" transform="matrix(1.91257 0 0 -1.91257 837.301 363.353)"/></g></g><g><path d="m 739.77946,712.17556 h 24.98576 V 557.93668 h -24.98576 z" fill="#004097"/><g><path d="m 0,0 c -11.775,0 -18.868,4.525 -18.868,10.108 0,5.584 7.093,10.11 18.868,10.11 11.783,0 18.875,-4.526 18.875,-10.11 C 18.875,4.525 11.783,0 0,0 M 18.875,66.376 H 1.704 c 0.095,0.977 0.148,1.967 0.148,2.993 v 4.639 h -44.341 v -9.279 h 30.995 C -12.316,60.024 -18.088,46.245 -44.99,38.286 l 3.513,-7.344 c 0,0 31.16,5.947 40.627,26.156 H 18.875 V 48.495 H -3.976 V 39.216 H 18.875 V 26.17 c -5.034,2.1 -11.381,3.334 -18.864,3.334 -19.929,0 -31.933,-8.684 -31.933,-19.396 0,-10.711 12.004,-19.387 31.933,-19.387 19.929,0 31.926,8.675 31.932,19.374 V 77.188 H 18.875 Z" fill="#004097" transform="matrix(1.91257 0 0 -1.91257 532.907 705.564)"/></g><g><path d="m 0,0 v 19.547 h 25.398 v 9.28 h -51.194 v 25.677 h 51.194 v 9.279 H -38.885 V 26.957 c 0,-4.093 3.32,-7.41 7.412,-7.41 h 18.401 V 0 H -45.896 V -9.281 H 32.821 V 0 Z" fill="#004097" transform="matrix(1.91257 0 0 -1.91257 879.066 686.009)"/></g><g><path d="M 0,0 H 30.697 C 29.074,-12.967 21.992,-34.314 -3.428,-46.466 L 0.731,-54.68 C 40.062,-39.711 44.872,-4.346 44.885,6.495 V 9.279 H 0 Z" fill="#004097" transform="matrix(1.91257 0 0 -1.91257 627.32 581.766)"/></g></g></g></svg>