<svg xmlns="http://www.w3.org/2000/svg" xml:space="preserve" width="414.23831" height="272.560733" version="1.1" style="clip-rule:evenodd;fill-rule:evenodd;image-rendering:optimizeQuality;shape-rendering:geometricPrecision;text-rendering:geometricPrecision" viewBox="0 0 4315.0397 2839.2715" id="svg812">
  <defs id="defs4">
    <style type="text/css" id="style2">
      .fil3{fill:#373435;fill-rule:nonzero}
    </style>
  </defs>
  <g id="Layer_x0020_1" transform="translate(-9930.0876 -2493.3491)">
    <path style="opacity:1;fill:#fff;fill-opacity:1;fill-rule:nonzero;stroke:none;stroke-width:2.27675152;stroke-linecap:round;stroke-linejoin:round;stroke-miterlimit:4;stroke-dasharray:none;stroke-dashoffset:0;stroke-opacity:1;paint-order:stroke markers fill" id="rect1749" d="M9930.001 2493.3491h4315.1284v2839.262H9930.001z"/>
    <g transform="matrix(1.69074 0 0 1.77258 7396.6564 -2062.3505)" style="clip-rule:evenodd;fill-rule:evenodd;image-rendering:optimizeQuality;shape-rendering:geometricPrecision;text-rendering:geometricPrecision" id="g1647-3-6">
      <path id="path7-4-5" d="M3005 2768c-1-1-2-1-3-2-5-1-10 3-17 8l-6 4c-20 11-36 61-39 82-1 0-1 1-2 1-12-21-35-41-59-44 9 36 41 144 83 134 21-5 66-94 66-144v-2c0-26-12-35-23-39z" style="fill:#f58430;fill-rule:nonzero"/>
      <path id="path9-3-8" d="M3288 3318c-53 2-70-1-121 16-7 2-13 7-19 14 1 11-6 28 4 32 1 0 0 2 1 3 3 3 6 3 9 7 2 3 4 0 6 1 1 1 1 3 2 3 5 2 10 1 15 4 3 2 5 2 8 2 2-1 4 3 4 4 10 4 18 0 28 0 29 0 24-3 53-4 25 0 48 3 73 3 13 0 28 0 41-1 23-1 47 2 70 3 12 0 25 4 37 5 13 0 25-3 38-1 4 0 8 0 12 2s8 4 12 4c11 1 21-3 32-8 7-2 13-3 19-7 3-1 6-6 7-11 3-9 6-18 2-28-1 0-2 1-3 0-1-2-1-6-2-6-5-2-9-2-14-3-6-1-13-4-19-5-29-7-195-32-295-28z" style="fill:#00ac83;fill-rule:nonzero"/>
      <path id="path11-7-2" d="M2780 3337c5 1 11 1 14 5 3 3-3 7-2 11 0 9 3 16 3 25 0 1-1 3-2 4l-6 6c-7 5-17 3-25 5-11 3-23 5-34 6-20 2-40-2-60-3-8 0-16 1-23 3-9 2-19 2-28 2-49-2-97-3-146-2-9 0-18 1-27 2-39 2-79 2-118 3-14 0-27 1-41 0-8 0-15 0-22 1-29 1-59 3-88 2h-34c-33 2-66 7-98 5-24-1-47-7-69-18-15-8-27-19-35-31 6-7 14-10 23-12 22-6 42-10 64-14 19-3 36-5 54-6 236-21 500-13 603-6 35 2 67 7 100 14z" style="fill:#027ec2;fill-rule:nonzero"/>
      <path id="path13-6-5" d="M3205 3117v3c2 5 6 7 10 11h14c0-3 3 0 3-3 3 0 8-1 10-5h2c2-4 6-7 10-7 6-7 11-13 17-20 0-3 1-5 3-7 3-12 6-26 11-38 0-4 2-9 1-13 1 0 2 0 2-1-1-5 2-8 5-11 2 0 4 0 6-3v-3c6 0 12 4 16 9h7c0 3 1 3 3 4 6 0 19-1 25 1 0 4 6 3 7 7s1 8 4 12c0 1 0 3-2 4 3 4 6 11 2 15 1 5 0 12 3 18-3 3-1 7-1 9 3 5 3 12 4 19 6 7 4 15 9 22v8c3 0 0 4 3 4 1 8-3 18-3 26-2 1-3 3-4 4v3c-2 0-3 0-3-1-3 4-7 7-10 11-3-1-4 1-6 1-3 0 0 4-3 4s-6 1-7 3c-3 1-13-1-16 1l-1-1c-2 1-3 3-6 3 0-1 0-3-1-3-2 4-8 7-12 5-1-3-1-5-4-6-1-9-1-16-6-23 1 0 1-1 1-2-1-4-3-7-3-11-3-5-5-12-9-16 1-1-2-2-1-4-2-2-3-4-6-6-2 0-2 1-3 2-1 6-7 11-8 17l-1-1c-1 4-5 6-5 10-2 1-3 5-6 6v2c-8 7-12 19-22 24-2 5-8 6-11 12-4 0-9 1-13 3-3-1-7-4-10-1 0-1-2-1-3-1l-1 1c-3-3-7 0-12-1-9-7-19-10-29-16-3 0 0-4-3-4-1 0-3 0-4-1 0-4 1-7-3-10l1-1c0-1-1-1-3-1-1-9-6-16-7-24-2-1-2-1-3-3 0-4-1-8-3-11-1-6 4-10 1-16 0-1 0-3 1-4-1-7 0-11 1-18-1 0-1-1-1-3 3-5 3-11 3-16 1-4 4-8 6-12l-1-1c3-3 1-7 6-9 0-1 0-3-1-3 0-3 3-4 4-5 1-3 7-13 10-15l-1-2c2-3 9-5 14-5 4 0 11 3 13 4 2 3 0 6 2 10h2v3c0 1 1 1 2 1 1 4 3 8 2 12 0 1 1 1 2 1-1 3 2 5 2 8-2 3 0 7-1 11 3 7 2 15 5 22 0 5 2 11 4 15z" class="fil3" style="fill:#373435;fill-rule:nonzero"/>
      <path id="path15-9-3" d="M2663 3167s5 4 7 6c1 3 4 6 6 7 3 1 6 3 6 3l2 4 5 4c5 1 6-1 10 4 2 0 3 0 3 1l2-1c2 3 5 4 6 6 5 0 9 2 12 5 2 0 2 3 2 2 5 1 8 5 12 2 2 0 3 0 3 1l2-1c3-1 4 2 7 1 2 0 2 1 2 3h3c3 3 17-1 20 2 18 2 48-2 48-2 0-3 5 0 5-3l2 1c6 2 13-5 19-2 2-1 2-1 3-3 3-1 8 4 11 1 0 1 1 1 3 2v-3c5-3 11-2 14-6 2 0 5 0 6 1 2-1 2-1 3-2 8-2 15-8 24-10 1-2 5-2 6-5h5c1-1 3-3 4-5 5 1 9-6 13-6 0-1 0-3 1-3l2 1c3-2 3-2 4-5 5 1 7-5 10-8h3c1-2 1-2 3-3 2 0 2 0 3-1 4-3 6-8 12-10 0-1-1-3 1-3 3 1 3-3 4-5 1-1 5-4 6-3 0 2 4-6 4-4 1 1 6-12 8-13l-13-34c-5 7-22 29-31 31 0 7-8 7-13 11 0 1 1 3-1 3-5 1-6 6-9 7 0-1-2-1-3-1-1 2-4 2-5 5-5 1-6 5-8 9l-2-1c-5 5-13 4-17 11-9 4-16 6-25 9-2 0-3 0-3-1-1 3-8 1-9 3-9 1-17 0-26 2 0-3-5 0-5-2-8 3-15-1-23-1-2-1-5-1-6-4-8 1-12 0-17-4-5 0-8-4-12-6v-3c-2-1-2-1-3-3 0-4 5-4 8-6 3-4 11-3 15-7 0-1 4-4 4-5 2-3 3-5 4-5 5-3 2-6 8-7 0-1 5-5 3-6 6-4 6-6 8-15 3-4 8-9 8-14 2-1 0-7 3-9 2-10-2-15-2-24-2-1-2-1-3-3 0-4-3-7-2-11-5-4-3-5-8-10l-3-3h-3c-2-3-6-4-6-7-6-1-12-5-18-8l-2 1-2-1c-2 1-2 1-3 3 0-4-5 0-6-3-3 0-6-1-9 1-9-3-19 2-29-2 0 3-6-1-6 3-3 1-8 1-9 3h-5c-5 4-9 9-18 9-3 0 0 4-3 4h-3c-8 7-14 15-23 21 0 1-3 3-2 5 0 1-2 1-3 1 0 3-2 4-3 5 0 1 0 3 2 3 0 1-2 5-4 5-2 5-2 11-6 14 0 11-3 16-4 28 1 6 2 16 2 22 5 3-1 3 2 7 2 0 1 2 1 4 2 3 7 5 5 8 0 1 3 3 4 3 2 3-2 6 1 7 0 1 5 0 4 3l3 6zm101-89c-3 1 0 4-3 6l2 1c-1 12-9 28-25 39-2 0-3 0-3-1 0-3-3-7-2-10 0-1-2-1-3-1 3-3-2-6 0-10-2 0-2-1-2-3 5-3 1-10 6-13l-2-2c2-3 4-7 7-10v-3c6-6 14-8 22-11 2 0 3 0 3 1 5 6 2 12 0 17z" class="fil3" style="fill:#373435;fill-rule:nonzero"/>
      <path id="path17-8-3" d="M3032 3064c0 2 0 4 1 6 11 10 9 28 16 40-3 4-1 10-2 14 2 2 2 2 4 3-3 10 4 19 3 28-2 2-2 2-3 4 0 2 0 4 2 4l-2 2 2 2-2 2c2 0 2 2 2 4-3 4 3 9-2 14 2 2 2 4 2 6-5 4-2 13-6 19l2 2-2 2-2-2c-2 0-2 2-2 4 2 4 6 7 2 11l2 2c-6 4-7 9-9 15-2 2-2 2-3 4 2 2 2 4 2 5-3 4-5 8-9 11 0 2 2 5-2 7l2 2c-2 4-3 9-5 13 2 0 2 2 2 4-5 4-11 8-9 15-3 6-8 8-11 13 2 4-6 5-6 9s-5 2-3 6l2 2h-3c-2 4-2 4-5 6 0 2 0 4-2 4-3 2-5 5-8 9 2 2-6 6-4 6-2 2-4 3-4 7-2 0-4 0-4 2v2c-1 1-2 1-4 2-14 16-34 22-48 38-4 2-7 3-11 5s-2 7-6 5c0-2-5 2-7 2-4 3-10 1-13 1 0-2-2-1-4-3l-2 2c-2-2-6-6-7-6-2-2 2-4 0-4l2-2c0-2-3-2-5-2-3-4 4-1 2-5l-7-1c-2-4-5-4-6-7 0-4 8-3 8-7 4 0 2 0 6-2l-1-3c4-2 3-5 5-5 0 2 1 0 3 0s4 0 4-2 0-4 2-5h4c8-7 3-2 11-11v-4c2-2 2-5 6-7 0 2 0 4 1 4 6-3 2-5 1-9 2-2 2-2 4-3 0 2 3 0 1 0 0 2 2-4 4-4 4-7 1 1 8-11 1-1 5-3 5-4 0 0 4-2 3-4 0-1 0-2-3 0 2-4 8-9 9-13 5 2 1-6 5-6-2 2-4-2-4 0h6c4-3-5-3-2-7 0-2-1-3-2-3 0-2-1-3 1-3l2 2c2-2-2-8 2-10v-6c5-4 3-3 5-9l-2-2c0 2 4-2 2-2v-4c3-2 6-14 6-18 0 4-4-8-1-7 5-8 2-18 2-27-4-1 3-4 1-7-2 0-4 0-4-1 2-2 2-2 3-4 0-2 0-4-2-3 0-2 0-4 1-4 0-2 0-4-2-3 2-2 2-2 3-4 0-2-2-2-4-1 1-8-7-13-4-21-2 0-2-2-2-3 5-6-2-13 1-19-4-1-2-5-3-9 2-2-3-4-3-6-4-9-3-16-6-25-3 3-6-25-9-36-5-7-2-15-4-23 2 0 4 0 4-2-2-5 3-8 4-14 4 0 7-3 12 0 4-2 1-6 1-8 8-1 13-2 21-3 0 2 0 4 2 4 6-1 8 3 14 2 0 2 0 4 2 4 4-1 6 1 8 3 2 0 4 0 4-2l2 2 2-2c2 2 4 1 6 1 2 2 3 7 6 5 9 14 20 26 27 41z" class="fil3" style="fill:#373435;fill-rule:nonzero"/>
      <path id="path19-5-5" d="M2199 3098c-1-3-5-4-7-4s-5 4-7 1c0 0-3 5-7 7-2 2-6 1-6 1-1 5-1 5 3 16 2 0 4 11 6 11-1-4 5 9 7 10 1 0 1 0 3 1 1 0 1 2 0 3l6 4c1 2 2 2 0 4 4 0 7 3 11 4 1 1 0 2 0 3 1 0 2 1 3 0 3 0 1 3 1 5l2-1c0 2 3 3 3 3 4 6 22 13 27 18l2-1c1 3 10 4 10 7l2-1c1 1 13 4 16 6 2-1-1-3 1-4 2 2 6 6 8 7 0 0 5 0 9 1 5 5 14 2 20 4 1 1 2 2 3 2l2-1 1 1c4-2 6 0 8-2l1 1 2-1c1 1 1 1 1 3 5 1 10 3 15 1 1 1 2 2 3 2l4-2c4 1 4 2 9 2l1 1c5-3 9-2 14-1 1-2 4 1 5-2l1 2c4-3 11-1 15-2l1 2c2-1 1 0 1 0 4-2 13-2 15-4 5 1 5 2 12 1 1 0 4 1 6 1 6-4 10-4 15-1 6-1 14-5 19-8 1 0 3 1 4 1 2-1 3 0 5-3 6-2 11-4 16-8 1 2 4-1 5 0 1-1 1-1 1-2 3 1 5-3 8-2 1-1 1-1 1-2 4-1 3-3 7-4 4-2 9-11 17-14 0-3 5-4 6-6 1-1 2-1 3-1l-1-1c2-1 1-5 3-3 1-1 3-4 2-5 4-3 4-13 10-15 1-1 1-1 1-2 2-3 1-9 3-10 0-1 0-2 1-2 2-5 3-12 4-18-1 0-1-1 0-3 1 0 2-1 2-2-1 0-1-2 0-3l2-1c-2-1 0-4-2-4l2-1c-2-6 1-12-1-17l2-1c-3-3-2-7 0-10-1-2 0-3 0-4-3-2 1-4-1-6 1-4-3-7 0-11-2-3-2-4-4-7 0-1 1-3 1-4-1 0-2-1-2-2 2-2 0-4 1-6-2 0-1-3-2-4-1-7-3-12-6-17 2-2-2-12-2-15l-2-1c-1-3-2-5-4-6v-3c-1 0-2 0-2-2v-3l-1 1c-2-2-3-5-3-8-4-6-6-11-13-20-3 2 0-5-3-3-3-8-6-10-11-14v-3h-3c-1 0-1-2-1-3-8-5-36-9-41-17-2 0-5-2-6 1-1-2-1-2-2-3-7 4-12-3-18-5l-1 1c-2-5-6 0-9 0-1-2-2-2-4-2-6 3-12 0-18 7l-1-2 14 26c0 1 4 18 7 26 1 0 3 3 4 5 0 1 0 1-1 3 2 3 4 7 6 10-1 0-2 1-2 3 2 5 1 10 3 15 2 2 0 3 2 5l-1 3c-1 2 1 5 1 5 1 5 0 1 4 5-3 4 2 11-1 15 2 2 2-1 2 1-1 1-1 1-1 2-1 1 1 2 2 2 1 3-1 5 1 8 1 0 0 4 1 4 0 3 4 3 1 5-1 0-1 5-2 9 1 1 0 8 0 9 1 0 2-1 2 0s0 1-1 2c1 0 1 2 1 4 0 4-2 6-4 9-1 8 3 14-3 17 2 2 0 4-1 5-2 1-1 5-3 5-2 5-3 4-5 9-3 2-4 4-7 6-1 1-1 1-1 2s-2 1-3 1c-2 2-9 5-10 8l1 1c-4 2-6 2-10 5-5 3-8 3-13 5-4-1-8 2-12 1-2 1-3 2-5 3-2-1-5 1-7-1-2-1-2 3-4 3-1 0-1 0-2-1l-1-1c-3 2-6 0-9 1l-1-1c-3 2-6 0-8 2-3-2-9-2-13-2 0-1-1-1-2-2l-2 1c0-1-9-1-10-1h-2l-1-1-2 1c-2-2-13-3-16-6-2 2-4 1-7 1-10-1-23-5-24-5l-1-2c-4 2-10 0-11-3-1 0-3 0-4-1-1-3-9-2-11-6 0 0-4-3-6-5-3 2-9-6-11-7h-4l-2-5-6-5c-2-5-5-1-6-5z" class="fil3" style="fill:#373435;fill-rule:nonzero"/>
      <path id="path21-2-9" d="M2294 2923h5c8 8 24 6 34 11 4-3 9-1 12-3 1 2 1 2 3 3 9-3 14 2 23 1 2-1 2-1 4-3 2 0 3 0 3 2l2-1 1 2 2-1c-1 2 1 2 3 2 4-3 7 1 12-3 1 2 3 2 4 2 5-4 7 0 13-2l1 2 2-1-1-2c1-2 2-1 4-1 3 2 4 6 9 3l1 2c3-2-19-3 15-4l4-2c1 2 2 2 4 3 4-2 8-3 12-4 2 0 4 3 7 0l1 2c4 0 9-1 12-1-1 1-2-2-1-1 5-3 11-6 16-2 6-1 8-4 14-4 2 3 7-3 9-1 3 1 3-2 5 0v2l2-2c4 0 4 0 7-1 1 1 3 2 4 0 3-1 6-1 10-2 1 2 4-1 3 0 2-1 4-1 7 1 1-1 2-2 3-2l2 1c2 0 2 0 3-2 18-2 28-10 46-10 3-1 6-3 9-4s6 2 7-1c-1-1 4-2 5-3 4 0 7-8 9-11-1-1 0-2 0-4h2c0-2-1-11 0-12 0-2-4-1-3-2l-1-1c-1-1 0-3 1-4-1-4-5 1-6-2l3-5c-2-3-8-5-11-6-2 2-2 1-5 3l-1-2c-3 2-5 0-6 1 1 1-1 1-2 2s-2 2-3 2c-1-1-3-2-5-1l-2 2c-9 1-28 2-30-1-2 1-2 1-4 1 1 1-1 2 0 1 1 1-4-1-5 1-7 0-22 2-19 0-4 0-10 2-13 0-1 5-6-3-7 0 2-1-3-1-1 0v2c-4 1-5-3-9-1-1-1-2-1-1-3-1-1-2-1-3 0l1 2c-2 1-6-4-9-2-1-1-3-1-4-2-5 3-10 3-16 3l-1-2c2 0-3 3-2 1-2 0-2 0-3-1-3 2-14 2-17 2 3 1-6-5-6-2-8 3-17-2-25-2-1-3-4 2-7 0 1-1 1-3-1-3-2 1-4 1-6 2-2 0-3 0-3-2-2 0-3 0-4 1-2 0-3 0-3-2-2 1-4 3-6 4-2 0-1-2-1-3-7 1-11-5-18-3 0-1-1-2-3-2-6 4-14 0-20 2-1-3-4-2-8-2-2 1-3-2-5-2-7-3-14-2-21-3 3-3-22-3-32-5-6-3-13 0-20-2 0 2-1 3-2 3-5-2-7 3-13 5-1 3-4 5-3 7-2 3-3 4-4 4-1 6-2 6-4 12 2 0 3 0 3 2-1 5 2 6 0 11 2 0 3 0 3 2-1 3 0 5 2 6 0 2-1 3-2 3l1 2-2 1c1 2 1 3 0 5 1 2 6 2 4 5 12 7 21 15 33 20z" class="fil3" style="fill:#373435;fill-rule:nonzero"/>
    </g>
    <path style="clip-rule:evenodd;fill:#727376;fill-rule:nonzero;stroke-width:.60334063;image-rendering:optimizeQuality;shape-rendering:geometricPrecision;text-rendering:geometricPrecision" d="M11249.984 4357.0434s8.426 252.0786 9.046 303.7675l30.775-16.5719 10.864-283.5743zm9.046 303.7675-.589.3192h.602v-.3192zm924.327-303.7675c.604 16.2902 1.201 31.9768 1.804 48.267-13.273-2.4134-34.992-6.6288-40.423-6.6288l1.216 30.7622 39.821-3.6212c0 9.6535.601 19.9143.601 30.7744-13.876-.6033-33.789.6053-43.442-.6015l-.601 26.5395 44.645-4.8242c.604 15.0835.6 31.3819 1.203 49.4822l31.376-13.2821c1.207-12.6701 11.469-106.1857 14.485-153.2462zm283.575 0s8.442 252.8026 9.046 304.0866l33.181-16.891 5.438-148.422c16.893 3.0167 49.47 7.8439 49.47 7.8439 1.207-10.2567 2.406-31.9774 2.406-31.9774s-34.985 2.4146-51.275 3.6213l4.198-114.6769zm52.464 3.5845.627.038-.602-.6016zm265.493-3.5845s8.443 252.8026 9.047 304.0866l33.181-16.891 10.864-283.5743zm-1594.626 9.047s2.411 36.2071 4.825 106.1946l.601.6015c-19.91-1.2066-43.442-3.0197-43.442-3.0197l2.418 33.1927s38.006-6.6392 41.626-7.2425c2.413 50.6806 2.418 149.0235 2.418 149.0234l29.559-14.4849v-1.2029c.604-9.0502 9.047-254.0029 9.047-254.0029zm1425.692 1.2153 4.223 28.9577s73.604-.5977 105.581-1.8045v-.6135l1.203-21.7152c-29.564 0-94.114-4.2209-111.007-4.8242zm-910.443.6015 5.426 109.8036c27.149.6033 117.658-.5965 198.505 1.8167h.601l-1.202-25.9503c-24.134 3.0168-121.278 3.6269-154.462 1.8169v-21.7275c47.061 0 97.739.6065 153.246 3.0197v-25.3364c-45.854 1.8099-85.673 3.6163-152.644 1.203v-18.7077c40.424 1.2066 106.799 1.8204 153.86.6133l.601-24.7472c-91.104 1.81-176.781 2.4189-203.932-1.8045zm-152.043 1.2029c-27.151 11.4635-171.353 4.2228-171.353 4.2228l2.419 24.735s103.173.6139 111.62.6139c-43.441 39.2173-133.336 88.0885-133.336 88.0885l24.735 11.4529-.601-.6014s72.998-33.1866 106.182-51.2867c28.96 16.8935 79.04 45.2562 95.331 54.3065l1.804.6014 17.506-34.9973s-82.067-31.3685-88.703-33.7819c5.43-3.0166 66.975-34.3957 66.975-34.3957zm533.354.6015 1.203 48.8808c-14.481.6033-45.853 0-56.712 0l-1.203-41.0367-45.247-4.2228 12.668 131.5311s76.618-2.4134 126.092 0v.6014l7.243-131.531zm1034.13 1.8168-206.951 1.203 4.223 142.3948 205.735-.6141h.602l-.602-27.7425s-118.855 6.0329-157.468 4.2228c-.604-6.0333-3.02-83.261-3.02-92.3111 77.227-3.0167 155.063 1.203 155.063 1.203zm-1969.308 18.094s-24.13 4.8365-33.18 4.8365c-13.877 0-82.662-2.4182-82.662-2.4182l6.039 30.1607s68.773-4.2209 82.65-4.8243c-22.927 44.0439-100.155 159.2857-100.155 159.2857l21.113 8.4456s24.746-27.7514 61.549-73.0019c11.464 13.8768 36.204 45.2507 47.064 68.1776l1.204 3.0198 25.336-38.017-1.203-1.203c-1.792-1.7921-36.671-35.4692-58.444-49.6049 2.575-3.2279 54.221-70.461 54.221-70.461zm1264.601 1.8167c-10.256 1.8101-24.128 4.8261-38.004 4.2227-32.581-.6033-68.789-1.813-89.906-3.0197l6.641 31.9775c52.491-2.4134 92.311-6.0272 92.311-6.0272-14.48 25.3402-75.425 107.3935-114.038 156.8675l19.91 9.6485c15.687-13.8769 41.629-42.2371 68.779-71.1975 13.274 13.2735 39.224 39.8189 62.151 68.7791l20.512-41.0243c-18.703-14.4802-48.271-33.1805-66.974-45.2473 27.149-29.5636 53.1-58.5235 66.373-72.4004l.601.6016zm306.493 24.735c-9.05 2.4134-26.544 4.2228-41.024 4.2228-33.788-.6034-62.744-2.4183-85.671-2.4183l7.243 31.9775c31.373-2.4134 87.474-7.8441 87.474-7.8441-18.1 28.9605-69.376 92.3115-106.784 136.3553l21.114 9.6608c18.1-15.6869 42.239-38.6201 66.373-62.1503 34.39 31.3736 60.936 62.1503 60.936 62.1503l21.714-39.8215c-20.514-14.4801-47.664-31.371-63.954-41.0243l61.549-61.549h-.614zm-675.074 26.3062c15.894-.057 32.979.3947 41.577.847l1.202 39.8214-56.11.6016-1.204-41.0246h-.613c4.675-.1508 9.85-.2268 15.148-.2457zm-92.974 62.9851c-155.059 6.6369-288.399 1.2031-288.399 1.2031h-.602l9.649 26.5517c142.992-5.43 276.332-3.0198 276.332-3.0198zm-321.579 7.2426c-155.059 6.6367-292.021 1.2029-292.021 1.2029l-.601.6015 9.649 26.5517s44.656-1.8149 109.214-2.4183c6.636 68.1776 7.844 87.4904 7.844 122.4841l41.626-19.3092s6.027-78.436 6.027-103.7763c3.619 0 115.242-.6015 115.242-.6015zm1359.931 14.485s3.616 58.5247 5.426 76.0216c-47.06 0-127.309-3.0198-127.309-3.0198l3.02 28.9578s158.075-3.6146 285.38-1.8045l1.816-27.7547s-52.485 2.4037-118.237 3.0075c.05-1.7844 2.995-71.1852 2.995-71.1852zm-774.087 9.6484c-42.234 3.62-182.217.6015-182.217.6015l6.04 25.3365c22.927 0 111.612-1.203 130.315-1.203l-1.804 21.7275c-27.15-.6034-98.942-1.8112-130.315-3.6212l13.871 69.3805c57.921-1.2065 168.934-1.2029 168.934-1.2029l2.418-26.5518c-30.77 4.8268-93.524 4.8262-130.328 4.2228v1.2031l-3.621-23.5198c50.68 1.2067 119.464-1.2153 119.464-1.2153zm-303.486 21.7152s-169.541 1.2171-211.775.6141l4.235 24.1335c80.848-2.4137 156.868-.6142 156.868-.6142s3.611 60.9431 3.008 78.44l38.016-18.1062z" id="path23-2"/>
    <path style="fill:#f58430;fill-opacity:1;stroke:none;stroke-width:10.41702271px;stroke-linecap:butt;stroke-linejoin:miter;stroke-opacity:1" d="M11387.179 5087.0869c397.548-279.8902 1058.433-362.2991 1557.912-7.7337l-37.611 188.8519h-1520.301z" id="path1785"/>
    <path style="clip-rule:evenodd;opacity:1;fill:#027ec2;fill-opacity:1;fill-rule:nonzero;stroke:none;stroke-width:2.27675152;stroke-linecap:round;stroke-linejoin:round;stroke-miterlimit:4;stroke-dasharray:none;stroke-dashoffset:0;stroke-opacity:1;paint-order:stroke markers fill;image-rendering:optimizeQuality;shape-rendering:geometricPrecision;text-rendering:geometricPrecision" d="M10032.32 4981.898c-56.6935.088-82.1318.4631-102.319.7935v349.9198h2291.379l87.548-133.1359c-856.65-200.8329-1911.249-218.1446-2276.608-217.5774z" id="rect1749-2-6"/>
    <path style="clip-rule:evenodd;fill:#00ac83;fill-opacity:1;fill-rule:evenodd;stroke:none;stroke-width:.5;stroke-linecap:butt;stroke-linejoin:miter;stroke-miterlimit:4;stroke-dasharray:none;stroke-opacity:1;image-rendering:optimizeQuality;shape-rendering:geometricPrecision;text-rendering:geometricPrecision" d="M1108.6704 511.91406h258.8237v-29.52344c-89.5825-9.79305-185.3915 6.26256-258.8237 29.52344z" transform="matrix(10.41702 0 0 10.41702 -.086619 0)" id="path1751-8"/>
  </g>
</svg>
