<?xml version="1.0" standalone="no"?>
<!DOCTYPE svg PUBLIC "-//W3C//DTD SVG 1.1//EN" 
  "http://www.w3.org/Graphics/SVG/1.1/DTD/svg11.dtd">
<svg xmlns="http://www.w3.org/2000/svg" version="1.1" width="600" height="2400" id="Flag_of_Eschen1">

<g transform="scale(4.6875,4.6875)">


<rect width="128" height="512" fill="rgb(0,51,153)" />

<g style="fill-opacity:1.0;fill-rule:evenodd;fill:white;stroke:none;">
  <polygon points="87.4665,511.984 87.4665,510.608 87.4025,509.2 
    87.2426,507.792 87.0506,506.352 86.8266,504.848 86.5066,503.345 
    86.1866,501.841 85.8026,500.273 85.3867,498.673 84.9387,497.073 
    84.4907,495.409 83.9788,493.745 82.9548,490.257 81.8989,486.674 
    81.3549,484.818 80.811,482.93 80.267,481.01 79.755,479.026 79.243,477.01 
    78.7631,474.962 78.3151,472.882 77.8671,470.771 77.4832,468.595 
    77.0992,466.387 76.7792,464.115 76.4912,461.811 76.2672,459.443 
    76.1072,457.043 75.9793,454.612 75.9153,452.116 75.9472,449.652 
    76.0432,447.252 76.1712,444.916 76.3952,442.644 76.6512,440.468 
    76.9712,438.325 77.3232,436.245 77.7391,434.229 78.1871,432.245 
    78.6671,430.293 79.1471,428.373 79.691,426.485 80.779,422.774 
    81.9309,419.158 83.0828,415.542 84.1707,411.894 84.6827,410.07 
    85.1947,408.214 85.6746,406.327 86.0906,404.439 86.5066,402.487 
    86.8586,400.503 87.1786,398.487 87.4345,396.407 87.6265,394.295 
    87.7545,392.119 87.8505,389.88 87.8505,387.576 87.7865,385.272 
    87.6585,383.032 87.4665,380.888 87.2426,378.776 86.9546,376.728 
    86.6346,374.745 86.2826,372.793 85.8986,370.905 85.4507,369.017 
    85.0027,367.193 84.5227,365.369 84.0108,363.545 82.9868,359.961 
    81.8989,356.378 80.8429,352.698 79.787,348.954 79.275,347.034 
    78.7951,345.05 78.3471,343.035 77.9311,340.923 77.5152,338.811 
    77.1632,336.571 76.8432,334.299 76.5552,331.931 76.2992,329.499 
    76.1392,326.94 76.0113,324.316 75.9153,321.564 75.9153,318.844 
    76.0113,316.252 76.1392,313.788 76.3312,311.453 76.5872,309.213 
    76.9072,307.101 77.2592,305.053 77.6432,303.069 78.0911,301.181 
    78.5391,299.357 79.0511,297.597 79.563,295.87 80.683,292.51 
    81.8029,289.246 82.9548,285.95 84.0748,282.622 84.5867,280.894 
    85.0987,279.135 85.5787,277.311 86.0266,275.423 86.4426,273.471 
    86.7946,271.423 87.1146,269.311 87.3705,267.071 87.5945,264.735 
    87.7545,262.304 87.8185,259.712 87.8505,257.024 87.7865,254.304 
    87.6585,251.744 87.4985,249.312 87.2745,246.977 86.9866,244.769 
    86.6666,242.657 86.3146,240.609 85.8986,238.657 85.4827,236.801 
    85.0347,234.977 84.5547,233.217 84.0427,231.49 82.9868,228.13 
    81.8989,224.802 80.811,221.442 79.755,218.018 79.275,216.226 
    78.7951,214.371 78.3151,212.483 77.8991,210.499 77.5152,208.419 
    77.1632,206.275 76.8432,204.003 76.5552,201.635 76.3632,199.14 
    76.1712,196.516 76.0752,193.732 76.0432,190.82 76.0432,187.876 
    76.1392,185.092 76.2672,182.437 76.4912,179.877 76.7472,177.477 
    77.0352,175.141 77.3872,172.901 77.8031,170.789 78.2191,168.709 
    78.6671,166.726 79.1471,164.806 79.659,162.95 80.203,161.126 
    80.715,159.366 81.2589,157.606 81.8349,155.91 82.9228,152.518 
    83.9788,149.127 84.4907,147.399 84.9707,145.671 85.4507,143.911 
    85.8666,142.087 86.2826,140.231 86.6346,138.311 86.9546,136.359 
    87.2105,134.28 87.4345,132.168 87.5945,129.96 87.6905,127.624 
    87.7225,125.224 87.6905,122.792 87.5945,120.424 87.4345,118.153 
    87.2426,115.913 86.9866,113.737 86.6666,111.625 86.3146,109.577 
    85.9306,107.561 85.5147,105.577 85.0667,103.626 84.5867,101.706 
    84.0748,99.8178 83.0508,96.106 81.9629,92.4262 80.8749,88.7145 
    79.851,85.0027 79.339,83.1148 78.8591,81.1949 78.4111,79.243 
    77.9951,77.2592 77.6112,75.2433 77.2592,73.1634 76.9392,71.0516 
    76.6832,68.8757 76.4592,66.6358 76.2992,64.364 76.2032,61.9961 
    76.1712,59.5643 76.2032,57.3564 76.2672,55.1805 76.3952,53.0367 
    76.5872,50.9568 76.7792,48.8769 77.0352,46.8611 77.3552,44.8772 
    77.6751,42.9253 78.0271,40.9734 78.4111,39.0536 78.8271,37.1657 
    79.243,35.3098 80.139,31.662 81.0989,28.0462 82.0909,24.4945 
    83.0508,21.0067 84.0108,17.5189 84.9067,14.0631 85.3227,12.3352 
    85.7386,10.5753 86.0906,8.84745 86.4426,7.08756 86.7626,5.35966 
    87.0186,3.56778 87.2745,1.80789 87.4665,0.015999 41.9014,0.015999 
    41.7094,1.80789 41.4854,3.56778 41.1974,5.35966 40.8774,7.08756 
    40.5575,8.84745 40.1735,10.5753 39.7895,12.3352 39.3415,14.0631 
    38.4456,17.5189 37.5177,21.0067 36.5257,24.4945 35.5658,28.0462 
    34.6058,31.662 33.7099,35.3098 33.2619,37.1657 32.8459,39.0536 
    32.462,40.9734 32.11,42.9253 31.79,44.8772 31.502,46.8611 31.246,48.8769 
    31.0221,50.9568 30.8621,53.0367 30.7341,55.1805 30.6381,57.3564 
    30.6381,59.5643 30.6701,61.9961 30.7661,64.364 30.9261,66.6358 
    31.1181,68.8757 31.374,71.0516 31.694,73.1634 32.046,75.2433 
    32.43,77.2592 32.8459,79.243 33.3259,81.1949 33.8059,83.1148 
    34.2859,85.0027 35.3418,88.7145 36.3977,92.4262 37.4857,96.106 
    38.5416,99.8178 39.0216,101.706 39.5015,103.626 39.9495,105.577 
    40.3655,107.561 40.7495,109.577 41.1014,111.625 41.4214,113.737 
    41.6774,115.913 41.9014,118.153 42.0614,120.424 42.1574,122.792 
    42.1894,125.224 42.1574,127.624 42.0614,129.96 41.9014,132.168 
    41.6774,134.28 41.3894,136.359 41.1014,138.311 40.7175,140.231 
    40.3335,142.087 39.8855,143.911 39.4375,145.671 38.9576,147.399 
    38.4456,149.127 37.3577,152.518 36.2697,155.91 35.7258,157.606 
    35.1818,159.366 34.6378,161.126 34.1259,162.95 33.6139,164.806 
    33.1339,166.726 32.654,168.709 32.238,170.789 31.854,172.901 
    31.502,175.141 31.1821,177.477 30.9261,179.877 30.7341,182.437 
    30.5741,185.092 30.5101,187.876 30.4781,190.82 30.5101,193.732 
    30.6381,196.516 30.7981,199.14 31.0221,201.635 31.278,204.003 
    31.598,206.275 31.95,208.419 32.366,210.499 32.782,212.483 
    33.2299,214.371 33.7099,216.226 34.2219,218.018 35.2778,221.442 
    36.3337,224.802 37.4217,228.13 38.4776,231.49 38.9896,233.217 
    39.4695,234.977 39.9175,236.801 40.3655,238.657 40.7495,240.609 
    41.1334,242.657 41.4534,244.769 41.7094,246.977 41.9334,249.312 
    42.1254,251.744 42.2214,254.304 42.2854,257.024 42.2854,259.712 
    42.1894,262.304 42.0294,264.735 41.8374,267.071 41.5494,269.311 
    41.2294,271.423 40.8774,273.471 40.4615,275.423 40.0135,277.311 
    39.5335,279.135 39.0536,280.894 38.5096,282.622 37.4217,285.95 
    36.2697,289.246 35.1178,292.51 34.0299,295.87 33.4859,297.597 
    33.0059,299.357 32.526,301.181 32.11,303.069 31.694,305.053 
    31.342,307.101 31.0221,309.213 30.7661,311.453 30.5741,313.788 
    30.4461,316.252 30.3821,318.844 30.3821,321.564 30.4461,324.316 
    30.5741,326.94 30.7661,329.499 30.9901,331.931 31.278,334.299 
    31.598,336.571 31.982,338.811 32.366,340.923 32.782,343.035 
    33.2619,345.05 33.7419,347.034 34.2219,348.954 35.2778,352.698 
    36.3657,356.378 37.4217,359.961 38.4776,363.545 38.9576,365.369 
    39.4375,367.193 39.9175,369.017 40.3335,370.905 40.7175,372.793 
    41.1014,374.745 41.4214,376.728 41.6774,378.776 41.9334,380.888 
    42.0934,383.032 42.2214,385.272 42.2854,387.576 42.2854,389.88 
    42.2214,392.119 42.0614,394.295 41.8694,396.407 41.6134,398.487 
    41.2934,400.503 40.9414,402.487 40.5575,404.439 40.1095,406.327 
    39.6295,408.214 39.1496,410.07 38.6056,411.894 37.5177,415.542 
    36.3657,419.158 35.2458,422.774 34.1259,426.485 33.6139,428.373 
    33.1019,430.293 32.622,432.245 32.174,434.229 31.79,436.245 
    31.406,438.325 31.1181,440.468 30.8301,442.644 30.6381,444.916 
    30.4781,447.252 30.3821,449.652 30.3821,452.116 30.4461,454.612 
    30.5421,457.043 30.7341,459.443 30.9581,461.811 31.246,464.115 
    31.566,466.387 31.918,468.595 32.302,470.771 32.75,472.882 
    33.1979,474.962 33.7099,477.01 34.1899,479.026 34.7338,481.01 
    35.2458,482.93 35.7898,484.818 36.3337,486.674 37.4217,490.257 
    38.4456,493.745 38.9256,495.409 39.4055,497.073 39.8535,498.673 
    40.2695,500.273 40.6215,501.841 40.9734,503.345 41.2614,504.848 
    41.5174,506.352 41.7094,507.792 41.8374,509.2 41.9014,510.608 
    41.9334,511.984 87.4665,511.984 87.4665,511.984 "/>
</g>

</g>
</svg>
