<svg xmlns="http://www.w3.org/2000/svg" xmlns:xlink="http://www.w3.org/1999/xlink" width="900" height="600.00006" version="1.0">
  <defs>
    <linearGradient xlink:href="#a" id="g" gradientUnits="userSpaceOnUse" gradientTransform="translate(-32.666019 -32.375559)" x1="-4.7561364" y1="461.60605" x2="719.94788" y2="461.60605"/>
    <linearGradient id="a">
      <stop style="stop-color:#e6a200;stop-opacity:1" offset="0"/>
      <stop offset=".25" style="stop-color:#ffff2a;stop-opacity:1"/>
      <stop offset=".5" style="stop-color:#ffff2a;stop-opacity:1"/>
      <stop style="stop-color:#e6a200;stop-opacity:1" offset="1"/>
    </linearGradient>
    <linearGradient xlink:href="#a" id="h" gradientUnits="userSpaceOnUse" gradientTransform="translate(-32.666019 -32.375559)" x1="-4.7561364" y1="461.60605" x2="719.94788" y2="461.60605"/>
    <linearGradient xlink:href="#a" id="i" gradientUnits="userSpaceOnUse" gradientTransform="translate(-32.666019 -32.375559)" x1="-4.7561364" y1="461.60605" x2="719.94788" y2="461.60605"/>
    <linearGradient xlink:href="#a" id="j" gradientUnits="userSpaceOnUse" gradientTransform="translate(-32.666019 -32.375559)" x1="-4.7561364" y1="461.60605" x2="719.94788" y2="461.60605"/>
    <linearGradient xlink:href="#a" id="k" gradientUnits="userSpaceOnUse" gradientTransform="translate(-32.666019 -32.375559)" x1="-4.7561364" y1="461.60605" x2="719.94788" y2="461.60605"/>
    <linearGradient y2="461.60605" x2="719.94788" y1="461.60605" x1="-4.7561364" gradientTransform="translate(-32.666019 -32.375559)" gradientUnits="userSpaceOnUse" id="l" xlink:href="#a"/>
    <linearGradient id="b">
      <stop style="stop-color:#e6a200;stop-opacity:1" offset="0"/>
      <stop offset=".25" style="stop-color:#ffff2a;stop-opacity:1"/>
      <stop offset=".5" style="stop-color:#ffff2a;stop-opacity:1"/>
      <stop style="stop-color:#e6a200;stop-opacity:1" offset="1"/>
    </linearGradient>
    <linearGradient xlink:href="#c" id="m" gradientUnits="userSpaceOnUse" gradientTransform="translate(-32.666019 -32.375559)" x1="-4.7561364" y1="461.60605" x2="719.94788" y2="461.60605"/>
    <linearGradient id="c">
      <stop style="stop-color:#e6a200;stop-opacity:1" offset="0"/>
      <stop offset=".25" style="stop-color:#ffff2a;stop-opacity:1"/>
      <stop offset=".5" style="stop-color:#ffff2a;stop-opacity:1"/>
      <stop style="stop-color:#e6a200;stop-opacity:1" offset="1"/>
    </linearGradient>
    <linearGradient xlink:href="#c" id="n" gradientUnits="userSpaceOnUse" gradientTransform="translate(-32.666019 -32.375559)" x1="-4.7561364" y1="461.60605" x2="719.94788" y2="461.60605"/>
    <linearGradient xlink:href="#c" id="o" gradientUnits="userSpaceOnUse" gradientTransform="translate(-32.666019 -32.375559)" x1="-4.7561364" y1="461.60605" x2="719.94788" y2="461.60605"/>
    <linearGradient xlink:href="#c" id="p" gradientUnits="userSpaceOnUse" gradientTransform="translate(-32.666019 -32.375559)" x1="-4.7561364" y1="461.60605" x2="719.94788" y2="461.60605"/>
    <linearGradient xlink:href="#c" id="q" gradientUnits="userSpaceOnUse" gradientTransform="translate(-32.666019 -32.375559)" x1="-4.7561364" y1="461.60605" x2="719.94788" y2="461.60605"/>
    <linearGradient y2="461.60605" x2="719.94788" y1="461.60605" x1="-4.7561364" gradientTransform="translate(-32.666019 -32.375559)" gradientUnits="userSpaceOnUse" id="r" xlink:href="#c"/>
    <linearGradient xlink:href="#d" id="s" gradientUnits="userSpaceOnUse" gradientTransform="translate(-32.666019 -32.375559)" x1="-4.7561364" y1="461.60605" x2="719.94788" y2="461.60605"/>
    <linearGradient id="d">
      <stop style="stop-color:#e6a200;stop-opacity:1" offset="0"/>
      <stop offset=".25" style="stop-color:#ffff2a;stop-opacity:1"/>
      <stop offset=".5" style="stop-color:#ffff2a;stop-opacity:1"/>
      <stop style="stop-color:#e6a200;stop-opacity:1" offset="1"/>
    </linearGradient>
    <linearGradient xlink:href="#d" id="t" gradientUnits="userSpaceOnUse" gradientTransform="translate(-32.666019 -32.375559)" x1="-4.7561364" y1="461.60605" x2="719.94788" y2="461.60605"/>
    <linearGradient xlink:href="#d" id="u" gradientUnits="userSpaceOnUse" gradientTransform="translate(-32.666019 -32.375559)" x1="-4.7561364" y1="461.60605" x2="719.94788" y2="461.60605"/>
    <linearGradient xlink:href="#d" id="v" gradientUnits="userSpaceOnUse" gradientTransform="translate(-32.666019 -32.375559)" x1="-4.7561364" y1="461.60605" x2="719.94788" y2="461.60605"/>
    <linearGradient xlink:href="#d" id="w" gradientUnits="userSpaceOnUse" gradientTransform="translate(-32.666019 -32.375559)" x1="-4.7561364" y1="461.60605" x2="719.94788" y2="461.60605"/>
    <linearGradient y2="461.60605" x2="719.94788" y1="461.60605" x1="-4.7561364" gradientTransform="translate(-32.666019 -32.375559)" gradientUnits="userSpaceOnUse" id="x" xlink:href="#d"/>
    <linearGradient xlink:href="#e" id="y" gradientUnits="userSpaceOnUse" gradientTransform="translate(-32.666019 -32.375559)" x1="-4.7561364" y1="461.60605" x2="719.94788" y2="461.60605"/>
    <linearGradient id="e">
      <stop style="stop-color:#e6a200;stop-opacity:1" offset="0"/>
      <stop offset=".25" style="stop-color:#ffff2a;stop-opacity:1"/>
      <stop offset=".5" style="stop-color:#ffff2a;stop-opacity:1"/>
      <stop style="stop-color:#e6a200;stop-opacity:1" offset="1"/>
    </linearGradient>
    <linearGradient xlink:href="#e" id="z" gradientUnits="userSpaceOnUse" gradientTransform="translate(-32.666019 -32.375559)" x1="-4.7561364" y1="461.60605" x2="719.94788" y2="461.60605"/>
    <linearGradient xlink:href="#e" id="A" gradientUnits="userSpaceOnUse" gradientTransform="translate(-32.666019 -32.375559)" x1="-4.7561364" y1="461.60605" x2="719.94788" y2="461.60605"/>
    <linearGradient xlink:href="#e" id="B" gradientUnits="userSpaceOnUse" gradientTransform="translate(-32.666019 -32.375559)" x1="-4.7561364" y1="461.60605" x2="719.94788" y2="461.60605"/>
    <linearGradient xlink:href="#e" id="C" gradientUnits="userSpaceOnUse" gradientTransform="translate(-32.666019 -32.375559)" x1="-4.7561364" y1="461.60605" x2="719.94788" y2="461.60605"/>
    <linearGradient y2="461.60605" x2="719.94788" y1="461.60605" x1="-4.7561364" gradientTransform="translate(-32.666019 -32.375559)" gradientUnits="userSpaceOnUse" id="D" xlink:href="#e"/>
    <linearGradient xlink:href="#f" id="E" gradientUnits="userSpaceOnUse" gradientTransform="translate(-32.666019 -32.375559)" x1="-4.7561364" y1="461.60605" x2="719.94788" y2="461.60605"/>
    <linearGradient id="f">
      <stop style="stop-color:#e6a200;stop-opacity:1" offset="0"/>
      <stop offset=".25" style="stop-color:#ffff2a;stop-opacity:1"/>
      <stop offset=".5" style="stop-color:#ffff2a;stop-opacity:1"/>
      <stop style="stop-color:#e6a200;stop-opacity:1" offset="1"/>
    </linearGradient>
    <linearGradient xlink:href="#f" id="F" gradientUnits="userSpaceOnUse" gradientTransform="translate(-32.666019 -32.375559)" x1="-4.7561364" y1="461.60605" x2="719.94788" y2="461.60605"/>
    <linearGradient xlink:href="#f" id="G" gradientUnits="userSpaceOnUse" gradientTransform="translate(-32.666019 -32.375559)" x1="-4.7561364" y1="461.60605" x2="719.94788" y2="461.60605"/>
    <linearGradient xlink:href="#f" id="H" gradientUnits="userSpaceOnUse" gradientTransform="translate(-32.666019 -32.375559)" x1="-4.7561364" y1="461.60605" x2="719.94788" y2="461.60605"/>
    <linearGradient xlink:href="#f" id="I" gradientUnits="userSpaceOnUse" gradientTransform="translate(-32.666019 -32.375559)" x1="-4.7561364" y1="461.60605" x2="719.94788" y2="461.60605"/>
    <linearGradient y2="461.60605" x2="719.94788" y1="461.60605" x1="-4.7561364" gradientTransform="translate(-32.666019 -32.375559)" gradientUnits="userSpaceOnUse" id="J" xlink:href="#f"/>
  </defs>
  <path style="fill:#002469;fill-opacity:1;fill-rule:evenodd;stroke:none" d="M0 0h900v600.00006H0z"/>
  <text xml:space="preserve" style="font-size:40px;font-style:normal;font-weight:400;line-height:125%;letter-spacing:0;word-spacing:0;fill:#000;fill-opacity:1;stroke:none;font-family:Times New Roman;-inkscape-font-specification:Times New Roman" x="326.38745" y="812.89105"/>
  <g transform="matrix(.15853 0 0 .15775 393.62396 226.94196)" style="fill:url(#g);fill-opacity:1;stroke:#000;stroke-width:19.51227188;display:inline">
    <path style="fill:url(#h);fill-opacity:1;fill-rule:evenodd;stroke:#000;stroke-width:19.51227188;stroke-linecap:butt;stroke-linejoin:miter;stroke-miterlimit:4;stroke-opacity:1;stroke-dasharray:none;display:inline" d="M405.11506 606.69929c1.42457-61.95601 16.75116-119.53947 45.28957-174.1086 74.71442-157.1858 302.92034-153.43174 252.61522 38.81131-18.53686 70.83937-81.50861 112.47386-156.31886 119.61501 5.39959-18.66537 35.10029-84.65245 11.12447-97.56156-38.33816 1.4484-85.94434 67.7051-97.39282 99.30072-1.6527 4.5361-1.19041 9.77801-3.03584 14.24007"/>
    <path style="fill:url(#i);fill-opacity:1;fill-rule:evenodd;stroke:#000;stroke-width:19.51227188;stroke-linecap:butt;stroke-linejoin:miter;stroke-miterlimit:4;stroke-opacity:1;stroke-dasharray:none" d="M310.07669 610.79534c-1.42457-61.95601-16.75116-119.53947-45.28957-174.1086C190.0727 279.50094-38.13322 283.255 12.171899 475.49805c18.536864 70.83937 81.508607 112.47386 156.318861 119.61501-5.39959-18.66537-35.10029-84.65245-11.12447-97.56156 38.33816 1.4484 85.94434 67.7051 97.39282 99.30072 1.6527 4.5361 1.19041 9.77801 3.03584 14.24007"/>
    <path style="fill:url(#j);fill-opacity:1;fill-rule:nonzero;stroke:#000;stroke-width:19.51227188;stroke-linecap:butt;stroke-linejoin:miter;stroke-miterlimit:4;stroke-opacity:1;stroke-dasharray:none" d="M353.17967 10.543268c-78.7143 84.84944-131.56461 182.961582-108.78125 298.031252 12.56957 63.48391 43.04182 122.27973 64.53125 183.4375 13.43648 38.36985 16.87223 78.45173 15.28125 118.78125h66.78125c-3.19651-40.62617 3.80671-79.99824 15.28125-118.78125 20.47419-61.5383 51.62579-119.90553 64.53125-183.4375 24.12802-118.77919-32.50691-208.35952-108.4375-297.656252L357.72674 5l-4.54707 5.543268z"/>
    <path style="fill:url(#k);fill-opacity:1;fill-rule:evenodd;stroke:#000;stroke-width:19.51227188;stroke-linecap:butt;stroke-linejoin:miter;stroke-miterlimit:4;stroke-opacity:1;stroke-dasharray:none" d="M290.89842 657.82452c-13.96166 39.13002-70.88818 110.79207-101.125 131.21875-7.84217 5.29785 37.48637-3.05157 57.78125-7.5 26.61901-5.83464 61.21745-34.19759 60.40625-24.1875-.0756 45.83826 12.81104 122.32424 46.40625 157.46875l3.18208 3.3876 3.28667-3.3876c33.57769-39.17095 46.23761-108.04198 46.40625-157.46875-.8112-10.01009 33.78725 18.35286 60.40625 24.1875 20.29488 4.44843 65.62342 12.79785 57.78125 7.5-30.23682-20.42668-87.13207-92.08873-101.09375-131.21875h-133.4375z"/>
    <path style="fill:url(#l);fill-opacity:1;stroke:#000;stroke-width:19.51227188;stroke-miterlimit:4;stroke-opacity:1;stroke-dasharray:none" d="M198.90587 608.80255H516.7936v51.503345H198.90587z"/>
  </g>
  <g style="display:inline">
    <path d="M306.59229 25.119729c-9.9123 0-17.95716 9.124481-17.95715 20.367024 0 11.242544 8.04485 20.367025 17.95715 20.367025 9.91229 0 17.95715-9.124481 17.95714-20.367025 0-11.242543-8.04485-20.367024-17.95714-20.367024zm0 8.492109c5.78217 0 10.48222 5.316764 10.48222 11.874915.00001 6.558152-4.70005 11.888952-10.48222 11.888952-5.78218 0-10.46985-5.3308-10.46985-11.888952 0-6.558151 4.68767-11.874915 10.46985-11.874915z" style="fill:#fff;fill-opacity:1;fill-rule:evenodd;stroke:#000;stroke-width:2.78752041;stroke-miterlimit:4;stroke-opacity:1;stroke-dasharray:none" transform="matrix(.92037 0 0 .92047 168.12706 -.07355104)"/>
    <path transform="matrix(.92037 0 0 .92047 169.50624471 -.07355104)" d="M304.625 47.15625c-4.83226-.265018-6.26782 4.627196-6.21875 9.5625.49454 49.74918-1.17521 87.87935-1.875 137.67182-15.8355-2.33182-39.06174-2.89486-50.85302-16.81469 3.79199-1.49101 10.89566-2.60263 16.5625-3.46875-13.21865-6.1756-25.33334-15.69401-37.53125-24.9375.37076 7.9822-1.32665 33.56181-2.4375 45.34375 4.07208-3.94674 5.04945-8.57779 9.3125-8.8125l1.4375-.84375c16.5101 22.58413 47.3271 27.81469 71.57177 27.81469.34388.00073.68136.00001 1 0 24.24467 0 55.06167-5.23056 71.57177-27.81469l1.4375.84375c4.26306.23471 5.24043 4.86576 9.3125 8.8125-1.11085-11.78194-2.80826-37.36155-2.4375-45.34375-12.1979 9.24349-24.31259 18.7619-37.53125 24.9375 5.66684.86612 12.77051 1.97774 16.5625 3.46875-12.07546 14.25531-35.72698 14.91953-52.00927 16.97094-.79954-30.13562-1.45826-81.97949-1.5625-106.85932-.13001-30.922478-.125-30.96875-.125-30.96875 0-4.942086-1.35524-9.297482-6.1875-9.5625z" style="color:#000;fill:#fff;fill-opacity:1;fill-rule:nonzero;stroke:#000;stroke-width:2.78752041;stroke-linecap:square;stroke-linejoin:miter;stroke-miterlimit:4;stroke-opacity:1;stroke-dasharray:none;stroke-dashoffset:0;marker:none;visibility:visible;display:inline;overflow:visible;enable-background:accumulate"/>
    <g transform="matrix(.36449 0 0 .41345 131.248156 -40.48042152)" style="fill:#fff;fill-opacity:1;stroke:#000;stroke-width:6.60926247;stroke-miterlimit:4;stroke-opacity:1;stroke-dasharray:none">
      <path style="fill:#fff;fill-opacity:1;fill-rule:evenodd;stroke:#000;stroke-width:6.60926247;stroke-miterlimit:4;stroke-opacity:1;stroke-dasharray:none;display:inline" d="m782.96875 249.65625-15.375 30.78125c33.27399 13.13981 69.50887 20.375 107.4375 20.375 38.17673 0 74.64136-7.32136 108.09375-20.625l-16.40625-30.40625c-28.84431 9.50741-59.67163 14.65625-91.6875 14.65625-32.15561 0-63.10963-5.19411-92.0625-14.78125z"/>
      <rect style="fill:#fff;fill-opacity:1;fill-rule:evenodd;stroke:#000;stroke-width:6.60926294;stroke-miterlimit:4;stroke-opacity:1;stroke-dasharray:none;display:inline" width="7.5573497" height="55.420628" x="-736.60876" y="638.88129" transform="scale(-1 1) rotate(26.41503)" ry="5.2467089" rx="5.6787796"/>
      <rect style="fill:#fff;fill-opacity:1;fill-rule:evenodd;stroke:#000;stroke-width:6.60926294;stroke-miterlimit:4;stroke-opacity:1;stroke-dasharray:none;display:inline" width="7.5573478" height="55.420612" x="-714.48407" y="633.69897" transform="scale(-1 1) rotate(26.41503)" ry="5.2467079" rx="5.6787786"/>
      <rect style="fill:#fff;fill-opacity:1;fill-rule:evenodd;stroke:#000;stroke-width:6.60926294;stroke-miterlimit:4;stroke-opacity:1;stroke-dasharray:none" width="7.5573525" height="55.42065" x="830.74225" y="-141.02827" transform="rotate(26.41504)" ry="5.2467108" rx="5.6787815"/>
      <rect style="fill:#fff;fill-opacity:1;fill-rule:evenodd;stroke:#000;stroke-width:6.60926294;stroke-miterlimit:4;stroke-opacity:1;stroke-dasharray:none;display:inline" width="7.5573506" height="55.420635" x="852.86694" y="-146.21059" transform="rotate(26.41504)" ry="5.2467093" rx="5.6787801"/>
    </g>
  </g>
  <g transform="matrix(.15853 0 0 .15775 168.52116 403.82099)" style="fill:url(#m);fill-opacity:1;stroke:#000;stroke-width:19.51227188;display:inline">
    <path style="fill:url(#n);fill-opacity:1;fill-rule:evenodd;stroke:#000;stroke-width:19.51227188;stroke-linecap:butt;stroke-linejoin:miter;stroke-miterlimit:4;stroke-opacity:1;stroke-dasharray:none;display:inline" d="M405.11506 606.69929c1.42457-61.95601 16.75116-119.53947 45.28957-174.1086 74.71442-157.1858 302.92034-153.43174 252.61522 38.81131-18.53686 70.83937-81.50861 112.47386-156.31886 119.61501 5.39959-18.66537 35.10029-84.65245 11.12447-97.56156-38.33816 1.4484-85.94434 67.7051-97.39282 99.30072-1.6527 4.5361-1.19041 9.77801-3.03584 14.24007"/>
    <path style="fill:url(#o);fill-opacity:1;fill-rule:evenodd;stroke:#000;stroke-width:19.51227188;stroke-linecap:butt;stroke-linejoin:miter;stroke-miterlimit:4;stroke-opacity:1;stroke-dasharray:none" d="M310.07669 610.79534c-1.42457-61.95601-16.75116-119.53947-45.28957-174.1086C190.0727 279.50094-38.13322 283.255 12.171899 475.49805c18.536864 70.83937 81.508607 112.47386 156.318861 119.61501-5.39959-18.66537-35.10029-84.65245-11.12447-97.56156 38.33816 1.4484 85.94434 67.7051 97.39282 99.30072 1.6527 4.5361 1.19041 9.77801 3.03584 14.24007"/>
    <path style="fill:url(#p);fill-opacity:1;fill-rule:nonzero;stroke:#000;stroke-width:19.51227188;stroke-linecap:butt;stroke-linejoin:miter;stroke-miterlimit:4;stroke-opacity:1;stroke-dasharray:none" d="M353.17967 10.543268c-78.7143 84.84944-131.56461 182.961582-108.78125 298.031252 12.56957 63.48391 43.04182 122.27973 64.53125 183.4375 13.43648 38.36985 16.87223 78.45173 15.28125 118.78125h66.78125c-3.19651-40.62617 3.80671-79.99824 15.28125-118.78125 20.47419-61.5383 51.62579-119.90553 64.53125-183.4375 24.12802-118.77919-32.50691-208.35952-108.4375-297.656252L357.72674 5l-4.54707 5.543268z"/>
    <path style="fill:url(#q);fill-opacity:1;fill-rule:evenodd;stroke:#000;stroke-width:19.51227188;stroke-linecap:butt;stroke-linejoin:miter;stroke-miterlimit:4;stroke-opacity:1;stroke-dasharray:none" d="M290.89842 657.82452c-13.96166 39.13002-70.88818 110.79207-101.125 131.21875-7.84217 5.29785 37.48637-3.05157 57.78125-7.5 26.61901-5.83464 61.21745-34.19759 60.40625-24.1875-.0756 45.83826 12.81104 122.32424 46.40625 157.46875l3.18208 3.3876 3.28667-3.3876c33.57769-39.17095 46.23761-108.04198 46.40625-157.46875-.8112-10.01009 33.78725 18.35286 60.40625 24.1875 20.29488 4.44843 65.62342 12.79785 57.78125 7.5-30.23682-20.42668-87.13207-92.08873-101.09375-131.21875h-133.4375z"/>
    <path style="fill:url(#r);fill-opacity:1;stroke:#000;stroke-width:19.51227188;stroke-miterlimit:4;stroke-opacity:1;stroke-dasharray:none" d="M198.90587 608.80255H516.7936v51.503345H198.90587z"/>
  </g>
  <g transform="matrix(.15853 0 0 .15775 618.34416 50.121939)" style="fill:url(#s);fill-opacity:1;stroke:#000;stroke-width:19.51227188;display:inline">
    <path style="fill:url(#t);fill-opacity:1;fill-rule:evenodd;stroke:#000;stroke-width:19.51227188;stroke-linecap:butt;stroke-linejoin:miter;stroke-miterlimit:4;stroke-opacity:1;stroke-dasharray:none;display:inline" d="M405.11506 606.69929c1.42457-61.95601 16.75116-119.53947 45.28957-174.1086 74.71442-157.1858 302.92034-153.43174 252.61522 38.81131-18.53686 70.83937-81.50861 112.47386-156.31886 119.61501 5.39959-18.66537 35.10029-84.65245 11.12447-97.56156-38.33816 1.4484-85.94434 67.7051-97.39282 99.30072-1.6527 4.5361-1.19041 9.77801-3.03584 14.24007"/>
    <path style="fill:url(#u);fill-opacity:1;fill-rule:evenodd;stroke:#000;stroke-width:19.51227188;stroke-linecap:butt;stroke-linejoin:miter;stroke-miterlimit:4;stroke-opacity:1;stroke-dasharray:none" d="M310.07669 610.79534c-1.42457-61.95601-16.75116-119.53947-45.28957-174.1086C190.0727 279.50094-38.13322 283.255 12.171899 475.49805c18.536864 70.83937 81.508607 112.47386 156.318861 119.61501-5.39959-18.66537-35.10029-84.65245-11.12447-97.56156 38.33816 1.4484 85.94434 67.7051 97.39282 99.30072 1.6527 4.5361 1.19041 9.77801 3.03584 14.24007"/>
    <path style="fill:url(#v);fill-opacity:1;fill-rule:nonzero;stroke:#000;stroke-width:19.51227188;stroke-linecap:butt;stroke-linejoin:miter;stroke-miterlimit:4;stroke-opacity:1;stroke-dasharray:none" d="M353.17967 10.543268c-78.7143 84.84944-131.56461 182.961582-108.78125 298.031252 12.56957 63.48391 43.04182 122.27973 64.53125 183.4375 13.43648 38.36985 16.87223 78.45173 15.28125 118.78125h66.78125c-3.19651-40.62617 3.80671-79.99824 15.28125-118.78125 20.47419-61.5383 51.62579-119.90553 64.53125-183.4375 24.12802-118.77919-32.50691-208.35952-108.4375-297.656252L357.72674 5l-4.54707 5.543268z"/>
    <path style="fill:url(#w);fill-opacity:1;fill-rule:evenodd;stroke:#000;stroke-width:19.51227188;stroke-linecap:butt;stroke-linejoin:miter;stroke-miterlimit:4;stroke-opacity:1;stroke-dasharray:none" d="M290.89842 657.82452c-13.96166 39.13002-70.88818 110.79207-101.125 131.21875-7.84217 5.29785 37.48637-3.05157 57.78125-7.5 26.61901-5.83464 61.21745-34.19759 60.40625-24.1875-.0756 45.83826 12.81104 122.32424 46.40625 157.46875l3.18208 3.3876 3.28667-3.3876c33.57769-39.17095 46.23761-108.04198 46.40625-157.46875-.8112-10.01009 33.78725 18.35286 60.40625 24.1875 20.29488 4.44843 65.62342 12.79785 57.78125 7.5-30.23682-20.42668-87.13207-92.08873-101.09375-131.21875h-133.4375z"/>
    <path style="fill:url(#x);fill-opacity:1;stroke:#000;stroke-width:19.51227188;stroke-miterlimit:4;stroke-opacity:1;stroke-dasharray:none" d="M198.90587 608.80255H516.7936v51.503345H198.90587z"/>
  </g>
  <g transform="matrix(.15853 0 0 .15775 618.90716 403.79399)" style="fill:url(#y);fill-opacity:1;stroke:#000;stroke-width:19.51227188;display:inline">
    <path style="fill:url(#z);fill-opacity:1;fill-rule:evenodd;stroke:#000;stroke-width:19.51227188;stroke-linecap:butt;stroke-linejoin:miter;stroke-miterlimit:4;stroke-opacity:1;stroke-dasharray:none;display:inline" d="M405.11506 606.69929c1.42457-61.95601 16.75116-119.53947 45.28957-174.1086 74.71442-157.1858 302.92034-153.43174 252.61522 38.81131-18.53686 70.83937-81.50861 112.47386-156.31886 119.61501 5.39959-18.66537 35.10029-84.65245 11.12447-97.56156-38.33816 1.4484-85.94434 67.7051-97.39282 99.30072-1.6527 4.5361-1.19041 9.77801-3.03584 14.24007"/>
    <path style="fill:url(#A);fill-opacity:1;fill-rule:evenodd;stroke:#000;stroke-width:19.51227188;stroke-linecap:butt;stroke-linejoin:miter;stroke-miterlimit:4;stroke-opacity:1;stroke-dasharray:none" d="M310.07669 610.79534c-1.42457-61.95601-16.75116-119.53947-45.28957-174.1086C190.0727 279.50094-38.13322 283.255 12.171899 475.49805c18.536864 70.83937 81.508607 112.47386 156.318861 119.61501-5.39959-18.66537-35.10029-84.65245-11.12447-97.56156 38.33816 1.4484 85.94434 67.7051 97.39282 99.30072 1.6527 4.5361 1.19041 9.77801 3.03584 14.24007"/>
    <path style="fill:url(#B);fill-opacity:1;fill-rule:nonzero;stroke:#000;stroke-width:19.51227188;stroke-linecap:butt;stroke-linejoin:miter;stroke-miterlimit:4;stroke-opacity:1;stroke-dasharray:none" d="M353.17967 10.543268c-78.7143 84.84944-131.56461 182.961582-108.78125 298.031252 12.56957 63.48391 43.04182 122.27973 64.53125 183.4375 13.43648 38.36985 16.87223 78.45173 15.28125 118.78125h66.78125c-3.19651-40.62617 3.80671-79.99824 15.28125-118.78125 20.47419-61.5383 51.62579-119.90553 64.53125-183.4375 24.12802-118.77919-32.50691-208.35952-108.4375-297.656252L357.72674 5l-4.54707 5.543268z"/>
    <path style="fill:url(#C);fill-opacity:1;fill-rule:evenodd;stroke:#000;stroke-width:19.51227188;stroke-linecap:butt;stroke-linejoin:miter;stroke-miterlimit:4;stroke-opacity:1;stroke-dasharray:none" d="M290.89842 657.82452c-13.96166 39.13002-70.88818 110.79207-101.125 131.21875-7.84217 5.29785 37.48637-3.05157 57.78125-7.5 26.61901-5.83464 61.21745-34.19759 60.40625-24.1875-.0756 45.83826 12.81104 122.32424 46.40625 157.46875l3.18208 3.3876 3.28667-3.3876c33.57769-39.17095 46.23761-108.04198 46.40625-157.46875-.8112-10.01009 33.78725 18.35286 60.40625 24.1875 20.29488 4.44843 65.62342 12.79785 57.78125 7.5-30.23682-20.42668-87.13207-92.08873-101.09375-131.21875h-133.4375z"/>
    <path style="fill:url(#D);fill-opacity:1;stroke:#000;stroke-width:19.51227188;stroke-miterlimit:4;stroke-opacity:1;stroke-dasharray:none" d="M198.90587 608.80255H516.7936v51.503345H198.90587z"/>
  </g>
  <g style="display:inline">
    <path d="M306.59229 25.119729c-9.9123 0-17.95716 9.124481-17.95715 20.367024 0 11.242544 8.04485 20.367025 17.95715 20.367025 9.91229 0 17.95715-9.124481 17.95714-20.367025 0-11.242543-8.04485-20.367024-17.95714-20.367024zm0 8.492109c5.78217 0 10.48222 5.316764 10.48222 11.874915.00001 6.558152-4.70005 11.888952-10.48222 11.888952-5.78218 0-10.46985-5.3308-10.46985-11.888952 0-6.558151 4.68767-11.874915 10.46985-11.874915z" style="fill:#fff;fill-opacity:1;fill-rule:evenodd;stroke:#000;stroke-width:2.78752041;stroke-miterlimit:4;stroke-opacity:1;stroke-dasharray:none" transform="matrix(.92037 0 0 -.92047 168.76486 599.17818)"/>
    <path transform="matrix(.92037 0 0 -.92047 170.14404471 599.17818)" d="M304.625 47.15625c-4.83226-.265018-6.26782 4.627196-6.21875 9.5625.49454 49.74918-1.17521 87.87935-1.875 137.67182-15.8355-2.33182-39.06174-2.89486-50.85302-16.81469 3.79199-1.49101 10.89566-2.60263 16.5625-3.46875-13.21865-6.1756-25.33334-15.69401-37.53125-24.9375.37076 7.9822-1.32665 33.56181-2.4375 45.34375 4.07208-3.94674 5.04945-8.57779 9.3125-8.8125l1.4375-.84375c16.5101 22.58413 47.3271 27.81469 71.57177 27.81469.34388.00073.68136.00001 1 0 24.24467 0 55.06167-5.23056 71.57177-27.81469l1.4375.84375c4.26306.23471 5.24043 4.86576 9.3125 8.8125-1.11085-11.78194-2.80826-37.36155-2.4375-45.34375-12.1979 9.24349-24.31259 18.7619-37.53125 24.9375 5.66684.86612 12.77051 1.97774 16.5625 3.46875-12.07546 14.25531-35.72698 14.91953-52.00927 16.97094-.79954-30.13562-1.45826-81.97949-1.5625-106.85932-.13001-30.922478-.125-30.96875-.125-30.96875 0-4.942086-1.35524-9.297482-6.1875-9.5625z" style="color:#000;fill:#fff;fill-opacity:1;fill-rule:nonzero;stroke:#000;stroke-width:2.78752041;stroke-linecap:square;stroke-linejoin:miter;stroke-miterlimit:4;stroke-opacity:1;stroke-dasharray:none;stroke-dashoffset:0;marker:none;visibility:visible;display:inline;overflow:visible;enable-background:accumulate"/>
    <g transform="matrix(.36449 0 0 -.41345 131.885956 639.58505048)" style="fill:#fff;fill-opacity:1;stroke:#000;stroke-width:6.60926247;stroke-miterlimit:4;stroke-opacity:1;stroke-dasharray:none">
      <path style="fill:#fff;fill-opacity:1;fill-rule:evenodd;stroke:#000;stroke-width:6.60926247;stroke-miterlimit:4;stroke-opacity:1;stroke-dasharray:none;display:inline" d="m782.96875 249.65625-15.375 30.78125c33.27399 13.13981 69.50887 20.375 107.4375 20.375 38.17673 0 74.64136-7.32136 108.09375-20.625l-16.40625-30.40625c-28.84431 9.50741-59.67163 14.65625-91.6875 14.65625-32.15561 0-63.10963-5.19411-92.0625-14.78125z"/>
      <rect style="fill:#fff;fill-opacity:1;fill-rule:evenodd;stroke:#000;stroke-width:6.60926294;stroke-miterlimit:4;stroke-opacity:1;stroke-dasharray:none;display:inline" width="7.5573497" height="55.420628" x="-736.60876" y="638.88129" transform="scale(-1 1) rotate(26.41503)" ry="5.2467089" rx="5.6787796"/>
      <rect style="fill:#fff;fill-opacity:1;fill-rule:evenodd;stroke:#000;stroke-width:6.60926294;stroke-miterlimit:4;stroke-opacity:1;stroke-dasharray:none;display:inline" width="7.5573478" height="55.420612" x="-714.48407" y="633.69897" transform="scale(-1 1) rotate(26.41503)" ry="5.2467079" rx="5.6787786"/>
      <rect style="fill:#fff;fill-opacity:1;fill-rule:evenodd;stroke:#000;stroke-width:6.60926294;stroke-miterlimit:4;stroke-opacity:1;stroke-dasharray:none" width="7.5573525" height="55.42065" x="830.74225" y="-141.02827" transform="rotate(26.41504)" ry="5.2467108" rx="5.6787815"/>
      <rect style="fill:#fff;fill-opacity:1;fill-rule:evenodd;stroke:#000;stroke-width:6.60926294;stroke-miterlimit:4;stroke-opacity:1;stroke-dasharray:none;display:inline" width="7.5573506" height="55.420635" x="852.86694" y="-146.21059" transform="rotate(26.41504)" ry="5.2467093" rx="5.6787801"/>
    </g>
  </g>
  <g style="display:inline">
    <path d="M306.59229 25.119729c-9.9123 0-17.95716 9.124481-17.95715 20.367024 0 11.242544 8.04485 20.367025 17.95715 20.367025 9.91229 0 17.95715-9.124481 17.95714-20.367025 0-11.242543-8.04485-20.367024-17.95714-20.367024zm0 8.492109c5.78217 0 10.48222 5.316764 10.48222 11.874915.00001 6.558152-4.70005 11.888952-10.48222 11.888952-5.78218 0-10.46985-5.3308-10.46985-11.888952 0-6.558151 4.68767-11.874915 10.46985-11.874915z" style="fill:#fff;fill-opacity:1;fill-rule:evenodd;stroke:#000;stroke-width:2.78752041;stroke-miterlimit:4;stroke-opacity:1;stroke-dasharray:none" transform="matrix(0 .92037 -.92047 0 871.03616 18.063439)"/>
    <path transform="matrix(0 .92037 -.92047 0 871.03616 19.44262371)" d="M304.625 47.15625c-4.83226-.265018-6.26782 4.627196-6.21875 9.5625.49454 49.74918-1.17521 87.87935-1.875 137.67182-15.8355-2.33182-39.06174-2.89486-50.85302-16.81469 3.79199-1.49101 10.89566-2.60263 16.5625-3.46875-13.21865-6.1756-25.33334-15.69401-37.53125-24.9375.37076 7.9822-1.32665 33.56181-2.4375 45.34375 4.07208-3.94674 5.04945-8.57779 9.3125-8.8125l1.4375-.84375c16.5101 22.58413 47.3271 27.81469 71.57177 27.81469.34388.00073.68136.00001 1 0 24.24467 0 55.06167-5.23056 71.57177-27.81469l1.4375.84375c4.26306.23471 5.24043 4.86576 9.3125 8.8125-1.11085-11.78194-2.80826-37.36155-2.4375-45.34375-12.1979 9.24349-24.31259 18.7619-37.53125 24.9375 5.66684.86612 12.77051 1.97774 16.5625 3.46875-12.07546 14.25531-35.72698 14.91953-52.00927 16.97094-.79954-30.13562-1.45826-81.97949-1.5625-106.85932-.13001-30.922478-.125-30.96875-.125-30.96875 0-4.942086-1.35524-9.297482-6.1875-9.5625z" style="color:#000;fill:#fff;fill-opacity:1;fill-rule:nonzero;stroke:#000;stroke-width:2.78752041;stroke-linecap:square;stroke-linejoin:miter;stroke-miterlimit:4;stroke-opacity:1;stroke-dasharray:none;stroke-dashoffset:0;marker:none;visibility:visible;display:inline;overflow:visible;enable-background:accumulate"/>
    <g transform="matrix(0 .36449 -.41345 0 911.44303048 -18.815465)" style="fill:#fff;fill-opacity:1;stroke:#000;stroke-width:6.60926247;stroke-miterlimit:4;stroke-opacity:1;stroke-dasharray:none">
      <path style="fill:#fff;fill-opacity:1;fill-rule:evenodd;stroke:#000;stroke-width:6.60926247;stroke-miterlimit:4;stroke-opacity:1;stroke-dasharray:none;display:inline" d="m782.96875 249.65625-15.375 30.78125c33.27399 13.13981 69.50887 20.375 107.4375 20.375 38.17673 0 74.64136-7.32136 108.09375-20.625l-16.40625-30.40625c-28.84431 9.50741-59.67163 14.65625-91.6875 14.65625-32.15561 0-63.10963-5.19411-92.0625-14.78125z"/>
      <rect style="fill:#fff;fill-opacity:1;fill-rule:evenodd;stroke:#000;stroke-width:6.60926294;stroke-miterlimit:4;stroke-opacity:1;stroke-dasharray:none;display:inline" width="7.5573497" height="55.420628" x="-736.60876" y="638.88129" transform="scale(-1 1) rotate(26.41503)" ry="5.2467089" rx="5.6787796"/>
      <rect style="fill:#fff;fill-opacity:1;fill-rule:evenodd;stroke:#000;stroke-width:6.60926294;stroke-miterlimit:4;stroke-opacity:1;stroke-dasharray:none;display:inline" width="7.5573478" height="55.420612" x="-714.48407" y="633.69897" transform="scale(-1 1) rotate(26.41503)" ry="5.2467079" rx="5.6787786"/>
      <rect style="fill:#fff;fill-opacity:1;fill-rule:evenodd;stroke:#000;stroke-width:6.60926294;stroke-miterlimit:4;stroke-opacity:1;stroke-dasharray:none" width="7.5573525" height="55.42065" x="830.74225" y="-141.02827" transform="rotate(26.41504)" ry="5.2467108" rx="5.6787815"/>
      <rect style="fill:#fff;fill-opacity:1;fill-rule:evenodd;stroke:#000;stroke-width:6.60926294;stroke-miterlimit:4;stroke-opacity:1;stroke-dasharray:none;display:inline" width="7.5573506" height="55.420635" x="852.86694" y="-146.21059" transform="rotate(26.41504)" ry="5.2467093" rx="5.6787801"/>
    </g>
  </g>
  <g style="display:inline">
    <path d="M306.59229 25.119729c-9.9123 0-17.95716 9.124481-17.95715 20.367024 0 11.242544 8.04485 20.367025 17.95715 20.367025 9.91229 0 17.95715-9.124481 17.95714-20.367025 0-11.242543-8.04485-20.367024-17.95714-20.367024zm0 8.492109c5.78217 0 10.48222 5.316764 10.48222 11.874915.00001 6.558152-4.70005 11.888952-10.48222 11.888952-5.78218 0-10.46985-5.3308-10.46985-11.888952 0-6.558151 4.68767-11.874915 10.46985-11.874915z" style="fill:#fff;fill-opacity:1;fill-rule:evenodd;stroke:#000;stroke-width:2.78752041;stroke-miterlimit:4;stroke-opacity:1;stroke-dasharray:none" transform="matrix(0 -.92037 .92047 0 29.333858 582.41865)"/>
    <path transform="matrix(0 -.92037 .92047 0 29.333858 581.03946529)" d="M304.625 47.15625c-4.83226-.265018-6.26782 4.627196-6.21875 9.5625.49454 49.74918-1.17521 87.87935-1.875 137.67182-15.8355-2.33182-39.06174-2.89486-50.85302-16.81469 3.79199-1.49101 10.89566-2.60263 16.5625-3.46875-13.21865-6.1756-25.33334-15.69401-37.53125-24.9375.37076 7.9822-1.32665 33.56181-2.4375 45.34375 4.07208-3.94674 5.04945-8.57779 9.3125-8.8125l1.4375-.84375c16.5101 22.58413 47.3271 27.81469 71.57177 27.81469.34388.00073.68136.00001 1 0 24.24467 0 55.06167-5.23056 71.57177-27.81469l1.4375.84375c4.26306.23471 5.24043 4.86576 9.3125 8.8125-1.11085-11.78194-2.80826-37.36155-2.4375-45.34375-12.1979 9.24349-24.31259 18.7619-37.53125 24.9375 5.66684.86612 12.77051 1.97774 16.5625 3.46875-12.07546 14.25531-35.72698 14.91953-52.00927 16.97094-.79954-30.13562-1.45826-81.97949-1.5625-106.85932-.13001-30.922478-.125-30.96875-.125-30.96875 0-4.942086-1.35524-9.297482-6.1875-9.5625z" style="color:#000;fill:#fff;fill-opacity:1;fill-rule:nonzero;stroke:#000;stroke-width:2.78752041;stroke-linecap:square;stroke-linejoin:miter;stroke-miterlimit:4;stroke-opacity:1;stroke-dasharray:none;stroke-dashoffset:0;marker:none;visibility:visible;display:inline;overflow:visible;enable-background:accumulate"/>
    <g transform="matrix(0 -.36449 .41345 0 -11.07301248 619.297554)" style="fill:#fff;fill-opacity:1;stroke:#000;stroke-width:6.60926247;stroke-miterlimit:4;stroke-opacity:1;stroke-dasharray:none">
      <path style="fill:#fff;fill-opacity:1;fill-rule:evenodd;stroke:#000;stroke-width:6.60926247;stroke-miterlimit:4;stroke-opacity:1;stroke-dasharray:none;display:inline" d="m782.96875 249.65625-15.375 30.78125c33.27399 13.13981 69.50887 20.375 107.4375 20.375 38.17673 0 74.64136-7.32136 108.09375-20.625l-16.40625-30.40625c-28.84431 9.50741-59.67163 14.65625-91.6875 14.65625-32.15561 0-63.10963-5.19411-92.0625-14.78125z"/>
      <rect style="fill:#fff;fill-opacity:1;fill-rule:evenodd;stroke:#000;stroke-width:6.60926294;stroke-miterlimit:4;stroke-opacity:1;stroke-dasharray:none;display:inline" width="7.5573497" height="55.420628" x="-736.60876" y="638.88129" transform="scale(-1 1) rotate(26.41503)" ry="5.2467089" rx="5.6787796"/>
      <rect style="fill:#fff;fill-opacity:1;fill-rule:evenodd;stroke:#000;stroke-width:6.60926294;stroke-miterlimit:4;stroke-opacity:1;stroke-dasharray:none;display:inline" width="7.5573478" height="55.420612" x="-714.48407" y="633.69897" transform="scale(-1 1) rotate(26.41503)" ry="5.2467079" rx="5.6787786"/>
      <rect style="fill:#fff;fill-opacity:1;fill-rule:evenodd;stroke:#000;stroke-width:6.60926294;stroke-miterlimit:4;stroke-opacity:1;stroke-dasharray:none" width="7.5573525" height="55.42065" x="830.74225" y="-141.02827" transform="rotate(26.41504)" ry="5.2467108" rx="5.6787815"/>
      <rect style="fill:#fff;fill-opacity:1;fill-rule:evenodd;stroke:#000;stroke-width:6.60926294;stroke-miterlimit:4;stroke-opacity:1;stroke-dasharray:none;display:inline" width="7.5573506" height="55.420635" x="852.86694" y="-146.21059" transform="rotate(26.41504)" ry="5.2467093" rx="5.6787801"/>
    </g>
  </g>
  <g transform="matrix(.15853 0 0 .15775 168.72116 50.113939)" style="fill:url(#E);fill-opacity:1;stroke:#000;stroke-width:19.51227188;display:inline">
    <path style="fill:url(#F);fill-opacity:1;fill-rule:evenodd;stroke:#000;stroke-width:19.51227188;stroke-linecap:butt;stroke-linejoin:miter;stroke-miterlimit:4;stroke-opacity:1;stroke-dasharray:none;display:inline" d="M405.11506 606.69929c1.42457-61.95601 16.75116-119.53947 45.28957-174.1086 74.71442-157.1858 302.92034-153.43174 252.61522 38.81131-18.53686 70.83937-81.50861 112.47386-156.31886 119.61501 5.39959-18.66537 35.10029-84.65245 11.12447-97.56156-38.33816 1.4484-85.94434 67.7051-97.39282 99.30072-1.6527 4.5361-1.19041 9.77801-3.03584 14.24007"/>
    <path style="fill:url(#G);fill-opacity:1;fill-rule:evenodd;stroke:#000;stroke-width:19.51227188;stroke-linecap:butt;stroke-linejoin:miter;stroke-miterlimit:4;stroke-opacity:1;stroke-dasharray:none" d="M310.07669 610.79534c-1.42457-61.95601-16.75116-119.53947-45.28957-174.1086C190.0727 279.50094-38.13322 283.255 12.171899 475.49805c18.536864 70.83937 81.508607 112.47386 156.318861 119.61501-5.39959-18.66537-35.10029-84.65245-11.12447-97.56156 38.33816 1.4484 85.94434 67.7051 97.39282 99.30072 1.6527 4.5361 1.19041 9.77801 3.03584 14.24007"/>
    <path style="fill:url(#H);fill-opacity:1;fill-rule:nonzero;stroke:#000;stroke-width:19.51227188;stroke-linecap:butt;stroke-linejoin:miter;stroke-miterlimit:4;stroke-opacity:1;stroke-dasharray:none" d="M353.17967 10.543268c-78.7143 84.84944-131.56461 182.961582-108.78125 298.031252 12.56957 63.48391 43.04182 122.27973 64.53125 183.4375 13.43648 38.36985 16.87223 78.45173 15.28125 118.78125h66.78125c-3.19651-40.62617 3.80671-79.99824 15.28125-118.78125 20.47419-61.5383 51.62579-119.90553 64.53125-183.4375 24.12802-118.77919-32.50691-208.35952-108.4375-297.656252L357.72674 5l-4.54707 5.543268z"/>
    <path style="fill:url(#I);fill-opacity:1;fill-rule:evenodd;stroke:#000;stroke-width:19.51227188;stroke-linecap:butt;stroke-linejoin:miter;stroke-miterlimit:4;stroke-opacity:1;stroke-dasharray:none" d="M290.89842 657.82452c-13.96166 39.13002-70.88818 110.79207-101.125 131.21875-7.84217 5.29785 37.48637-3.05157 57.78125-7.5 26.61901-5.83464 61.21745-34.19759 60.40625-24.1875-.0756 45.83826 12.81104 122.32424 46.40625 157.46875l3.18208 3.3876 3.28667-3.3876c33.57769-39.17095 46.23761-108.04198 46.40625-157.46875-.8112-10.01009 33.78725 18.35286 60.40625 24.1875 20.29488 4.44843 65.62342 12.79785 57.78125 7.5-30.23682-20.42668-87.13207-92.08873-101.09375-131.21875h-133.4375z"/>
    <path style="fill:url(#J);fill-opacity:1;stroke:#000;stroke-width:19.51227188;stroke-miterlimit:4;stroke-opacity:1;stroke-dasharray:none" d="M198.90587 608.80255H516.7936v51.503345H198.90587z"/>
  </g>
</svg>
