<?xml version="1.0" encoding="UTF-8" standalone="no"?>
<svg
   xmlns:dc="http://purl.org/dc/elements/1.1/"
   xmlns:cc="http://creativecommons.org/ns#"
   xmlns:rdf="http://www.w3.org/1999/02/22-rdf-syntax-ns#"
   xmlns:svg="http://www.w3.org/2000/svg"
   xmlns="http://www.w3.org/2000/svg"
   xml:space="preserve"
   enable-background="new 0 0 600 400"
   viewBox="0 0 600 400"
   height="400px"
   width="600px"
   y="0px"
   x="0px"
   id="svg1332"
   version="1.1"><metadata
   id="metadata26"><rdf:RDF><cc:Work
       rdf:about=""><dc:format>image/svg+xml</dc:format><dc:type
         rdf:resource="http://purl.org/dc/dcmitype/StillImage" /><dc:title></dc:title></cc:Work></rdf:RDF></metadata><defs
   id="defs24" />




<g
   id="g985" /><g
   id="g1514"><g
     id="g1531"><path
       id="path2230"
       d="M 0,400 V 200 h 600 v 200 z"
       style="fill:#078930" /><path
       id="path1343"
       d="M 0,200 V 0 H 599.999 L 600,200 Z"
       style="fill:#0f47af;fill-opacity:1" /><g
       id="g931"
       transform="matrix(1.0000938,0,0,1.0000938,1.8309839,-0.013601)"><g
         id="g997"><g
           transform="translate(-1.234375e-6)"
           id="g915"><path
             style="opacity:1;vector-effect:none;fill:#ffffff;fill-opacity:1;stroke:none;stroke-width:0.65546823;stroke-linecap:butt;stroke-linejoin:miter;stroke-miterlimit:4;stroke-dasharray:none;stroke-dashoffset:0;stroke-opacity:1;paint-order:normal"
             d="m 91.853516,20.011719 c -8.582284,10.710615 -20.351532,20.64719 -20.394532,33.876953 -0.01848,6.05043 0.922449,9.91814 9.501954,24.3125 6.449198,10.820233 7.189453,12.387747 7.189453,15.179687 v 3.113282 h 7.40625 v -3.113282 c 0,-2.79194 0.74025,-4.359454 7.189449,-15.179687 8.5795,-14.39436 9.52046,-18.26207 9.50196,-24.3125 -0.043,-13.229763 -11.81225,-23.166338 -20.394534,-33.876953 z"
             id="path909" /><path
             style="opacity:1;vector-effect:none;fill:#ffffff;fill-opacity:1;stroke:none;stroke-width:0.65546823;stroke-linecap:butt;stroke-linejoin:miter;stroke-miterlimit:4;stroke-dasharray:none;stroke-dashoffset:0;stroke-opacity:1;paint-order:normal"
             d="m 119.1392,67.799036 c -1.23556,0.0198 -2.43892,0.17885 -3.57948,0.48649 -4.10528,1.10728 -7.18359,4.39433 -13.18617,14.08232 -4.444498,7.173293 -5.256548,8.921713 -5.256548,11.306833 v 2.8203 h 2.819018 c 2.697,0 2.34347,0.169236 4.26951,-2.98673 1.92604,-3.155966 5.83258,-4.918052 9.30665,-5.080291 7.77428,-0.361817 11.45277,4.571129 16.40512,9.347231 0.19532,0.0175 1.56388,-1.22285 3.04178,-2.75501 6.57783,-6.81937 7.09493,-14.357463 1.40695,-20.528193 -3.92691,-4.26019 -9.87277,-6.7786 -15.22683,-6.69295 z"
             id="path911" /><path
             id="path913"
             d="m 64.568322,67.799036 c 1.23556,0.0198 2.43892,0.17885 3.57948,0.48649 4.10528,1.10728 7.183587,4.39433 13.186167,14.08232 4.4445,7.173293 5.25655,8.921713 5.25655,11.306833 v 2.8203 h -2.81902 c -2.697,0 -2.34347,0.169236 -4.26951,-2.98673 -1.92604,-3.155966 -5.832577,-4.918052 -9.306647,-5.080291 -7.77428,-0.361817 -11.45277,4.571129 -16.40512,9.347231 -0.19532,0.0175 -1.56388,-1.22285 -3.04178,-2.75501 -6.57783,-6.81937 -7.09493,-14.357463 -1.40695,-20.528193 3.92691,-4.26019 9.87277,-6.7786 15.22683,-6.69295 z"
             style="opacity:1;vector-effect:none;fill:#ffffff;fill-opacity:1;stroke:none;stroke-width:0.65546823;stroke-linecap:butt;stroke-linejoin:miter;stroke-miterlimit:4;stroke-dasharray:none;stroke-dashoffset:0;stroke-opacity:1;paint-order:normal" /></g><path
           id="rect917"
           d="m 81.854702,98.169464 h 19.998118 c 3.04671,0 5.49948,2.452776 5.49948,5.499486 0,3.04671 -2.45277,5.49948 -5.49948,5.49948 H 81.854702 c -3.046714,0 -5.499484,-2.45277 -5.499484,-5.49948 0,-3.04671 2.45277,-5.499486 5.499484,-5.499486 z"
           style="opacity:1;vector-effect:none;fill:#ffffff;fill-opacity:1;stroke:none;stroke-width:1.37687957;stroke-linecap:butt;stroke-linejoin:miter;stroke-miterlimit:4;stroke-dasharray:none;stroke-dashoffset:0;stroke-opacity:1;paint-order:normal" /><g
           id="g929"
           transform="translate(2.5909563e-4)"><g
             id="g927"
             transform="translate(-0.35547133)"><path
               id="path921"
               d="m 96.932471,110.91589 c 0.901483,6.9993 4.045129,15.60475 9.113829,19.9521 7.51999,5.6099 14.03667,-3.22615 12.39164,-9.80829 -2.09454,1.33951 -5.63847,1.12645 -7.97349,0.31463 -1.63464,-0.59988 -3.09732,-1.83775 -4.75741,-3.82054 -2.24883,-2.8964 -3.25036,-6.62561 -6.132209,-6.6379 z"
               style="opacity:1;vector-effect:none;fill:#ffffff;fill-opacity:1;stroke:none;stroke-width:0.65546823;stroke-linecap:butt;stroke-linejoin:miter;stroke-miterlimit:4;stroke-dasharray:none;stroke-dashoffset:0;stroke-opacity:1;paint-order:normal" /><path
               style="opacity:1;vector-effect:none;fill:#ffffff;fill-opacity:1;stroke:none;stroke-width:0.65546823;stroke-linecap:butt;stroke-linejoin:miter;stroke-miterlimit:4;stroke-dasharray:none;stroke-dashoffset:0;stroke-opacity:1;paint-order:normal"
               d="m 95.416267,110.84375 c -0.18141,3.43585 0.98429,6.93991 2.08984,9.69141 2.714533,6.66518 2.41362,10.95566 0.42969,14.9707 -1.98394,4.01504 -5.72656,9.49414 -5.72656,9.49414 0,0 -3.74263,-5.4791 -5.72657,-9.49414 -1.98393,-4.01504 -2.28485,-8.30552 0.42969,-14.9707 1.37124,-3.18248 2.08984,-6.29526 2.08984,-9.69141 z"
               id="path923" /><path
               style="opacity:1;vector-effect:none;fill:#ffffff;fill-opacity:1;stroke:none;stroke-width:0.65546823;stroke-linecap:butt;stroke-linejoin:miter;stroke-miterlimit:4;stroke-dasharray:none;stroke-dashoffset:0;stroke-opacity:1;paint-order:normal"
               d="m 87.485475,110.91589 c -0.90148,6.9993 -4.04513,15.60475 -9.113831,19.9521 -7.51999,5.6099 -14.03667,-3.22615 -12.39164,-9.80829 2.09454,1.33951 5.63847,1.12645 7.97349,0.31463 1.63464,-0.59988 3.09732,-1.83775 4.75741,-3.82054 2.248831,-2.8964 3.250361,-6.62561 6.132211,-6.6379 z"
               id="path925" /></g></g></g></g><path
       style="color:#000000;font-style:normal;font-variant:normal;font-weight:normal;font-stretch:normal;font-size:medium;line-height:normal;font-family:sans-serif;font-variant-ligatures:normal;font-variant-position:normal;font-variant-caps:normal;font-variant-numeric:normal;font-variant-alternates:normal;font-feature-settings:normal;text-indent:0;text-align:start;text-decoration:none;text-decoration-line:none;text-decoration-style:solid;text-decoration-color:#000000;letter-spacing:normal;word-spacing:normal;text-transform:none;writing-mode:lr-tb;direction:ltr;text-orientation:mixed;dominant-baseline:auto;baseline-shift:baseline;text-anchor:start;white-space:normal;shape-padding:0;clip-rule:nonzero;display:inline;overflow:visible;visibility:visible;opacity:1;isolation:auto;mix-blend-mode:normal;color-interpolation:sRGB;color-interpolation-filters:linearRGB;solid-color:#000000;solid-opacity:1;vector-effect:none;fill:#fcdd09;fill-opacity:1;fill-rule:nonzero;stroke:none;stroke-width:52.5;stroke-linecap:butt;stroke-linejoin:round;stroke-miterlimit:4;stroke-dasharray:none;stroke-dashoffset:0;stroke-opacity:1;paint-order:normal;color-rendering:auto;image-rendering:auto;shape-rendering:auto;text-rendering:auto;enable-background:accumulate"
       d="m 157.77148,159.38086 c -14.7693,0 -29.53957,3.23127 -43.20898,9.69531 -6.15609,2.91113 -13.51262,4.36719 -20.869141,4.36719 -7.356032,0 -14.71304,-1.45606 -20.86914,-4.36719 C 49.90434,158.23772 23.919541,156.61061 0,163.94531 v 56.4668 c 2.9487788,-1.07015 5.8836763,-2.19914 8.7460938,-3.55273 12.3121902,-5.82224 29.4260812,-5.82226 41.7382812,0 13.669997,6.46431 28.439028,9.69559 43.208984,9.69531 14.768651,-2.9e-4 29.538231,-3.23156 43.207031,-9.69531 12.31219,-5.82224 29.42608,-5.82226 41.73828,0 27.33879,12.92807 59.07723,12.92807 86.41602,0 12.3122,-5.82224 29.42609,-5.82226 41.73828,0 13.44804,6.35936 28.20755,9.54101 43.20703,9.54101 H 600 V 173.59961 H 350 c -7.49624,0 -14.83336,-1.67013 -20.86719,-4.52344 -27.3388,-12.92808 -59.07918,-12.92808 -86.41797,0 -12.3122,5.82225 -29.42412,5.82225 -41.73632,0 -13.6694,-6.46404 -28.43773,-9.69531 -43.20704,-9.69531 z"
       id="path1439" /></g></g></svg>