<?xml version="1.0" encoding="UTF-8" standalone="no"?>
<!-- Created with Inkscape (http://www.inkscape.org/) -->

<svg
   xmlns:dc="http://purl.org/dc/elements/1.1/"
   xmlns:cc="http://creativecommons.org/ns#"
   xmlns:rdf="http://www.w3.org/1999/02/22-rdf-syntax-ns#"
   xmlns:svg="http://www.w3.org/2000/svg"
   xmlns="http://www.w3.org/2000/svg"
   xmlns:sodipodi="http://sodipodi.sourceforge.net/DTD/sodipodi-0.dtd"
   xmlns:inkscape="http://www.inkscape.org/namespaces/inkscape"
   width="32mm"
   height="26mm"
   viewBox="0 0 113.38581 92.125983"
   id="svg14844"
   version="1.1"
   inkscape:version="0.91 r13725"
   sodipodi:docname="TRC-logo.svg">
  <defs
     id="defs14846" />
  <sodipodi:namedview
     id="base"
     pagecolor="#ffffff"
     bordercolor="#666666"
     borderopacity="1.0"
     inkscape:pageopacity="0.0"
     inkscape:pageshadow="2"
     inkscape:zoom="1.42"
     inkscape:cx="108.33993"
     inkscape:cy="10.489305"
     inkscape:document-units="px"
     inkscape:current-layer="layer1"
     showgrid="false"
     units="mm"
     width="36mm"
     inkscape:window-width="2560"
     inkscape:window-height="1381"
     inkscape:window-x="1920"
     inkscape:window-y="0"
     inkscape:window-maximized="1" />
  <metadata
     id="metadata14849">
    <rdf:RDF>
      <cc:Work
         rdf:about="">
        <dc:format>image/svg+xml</dc:format>
        <dc:type
           rdf:resource="http://purl.org/dc/dcmitype/StillImage" />
        <dc:title></dc:title>
      </cc:Work>
    </rdf:RDF>
  </metadata>
  <g
     inkscape:label="Layer 1"
     inkscape:groupmode="layer"
     id="layer1"
     transform="translate(0,-960.23622)">
    <g
       transform="matrix(1.25,0,0,1.25,-583.15816,909.18005)"
       id="g14819">
      <path
         style="fill:#ffcf8a;fill-opacity:1;fill-rule:evenodd;stroke:none"
         d="m 540.28906,64.910156 c -5.36328,-4.070312 -12.04687,-6.863281 -18.23437,-7.8125 -6.3711,-0.972656 -13.10157,-0.125 -18.24219,2.515625 l -7.75391,-12.070312 c 4.01172,-1.636719 8.40235,-2.539063 13,-2.535157 13.82813,0 25.75391,8.148438 31.23047,19.902344"
         id="path1019"
         inkscape:connector-curvature="0" />
      <path
         style="fill:#005997;fill-opacity:1;fill-rule:evenodd;stroke:none"
         d="m 541.42578,67.660156 c -0.33984,-0.933594 -0.71875,-1.851562 -1.13672,-2.75 -5.36328,-4.070312 -12.04297,-6.863281 -18.23437,-7.8125 -6.3711,-0.972656 -13.10157,-0.125 -18.24219,2.515625 l 1.71875,2.667969 c 5.02344,-2.570312 11.59766,-3.394531 17.81641,-2.441406 6.14843,0.941406 12.79687,3.746094 18.07812,7.820312"
         id="path1021"
         inkscape:connector-curvature="0" />
      <path
         style="fill:#005997;fill-opacity:1;fill-rule:evenodd;stroke:none"
         d="m 543.4375,77.453125 c -26.16797,-19.582031 -40.59375,11.941406 -65.24609,-5.9375 l 0.48437,-0.746094 c 5.33203,3.390625 10.42969,4.230469 14.67188,4.242188 16.28515,0.03906 25.04296,-16.210938 49.8164,-0.351563 0.12891,0.917969 0.22266,1.851563 0.27344,2.792969"
         id="path1023"
         inkscape:connector-curvature="0" />
      <path
         style="fill:#005997;fill-opacity:1;fill-rule:evenodd;stroke:none"
         d="m 542.78906,72.46875 c -4.98047,-3.71875 -11.14453,-6.277344 -16.85937,-7.148438 -5.92188,-0.90625 -12.17578,-0.128906 -16.97657,2.300782 l -1.70703,-2.671875 c 4.91016,-2.5 11.32422,-3.296875 17.39063,-2.371094 5.98047,0.914063 12.4375,3.632813 17.58984,7.578125 0.21485,0.761719 0.40235,1.53125 0.5625,2.3125"
         id="path1025"
         inkscape:connector-curvature="0" />
      <path
         style="fill:#005997;fill-opacity:1;fill-rule:nonzero;stroke:none"
         d="m 472.70703,103.93359 0,3.42188 -1.00781,0 0,-8.26172 2.14453,0 c 0.36328,0 0.66797,0.01172 0.92187,0.03906 0.25391,0.02734 0.48438,0.06641 0.69532,0.125 0.57812,0.15625 1.01953,0.425782 1.32031,0.80078 0.30469,0.375 0.45703,0.84766 0.45703,1.41016 0,0.33594 -0.0508,0.63281 -0.16016,0.89844 -0.10546,0.26172 -0.25781,0.48828 -0.44921,0.68359 -0.19532,0.19531 -0.42579,0.35156 -0.69532,0.47656 -0.26953,0.1211 -0.57031,0.21485 -0.89843,0.26954 l 0,0.0273 2.69921,3.53125 -1.26562,0 -2.54688,-3.42188 z m 0,-3.93359 0,3.02734 0.99219,0 c 0.3125,0 0.57422,-0.0117 0.78906,-0.0312 0.22266,-0.0195 0.41797,-0.0586 0.58984,-0.10937 0.35157,-0.10938 0.6211,-0.28125 0.8086,-0.51563 0.1875,-0.23437 0.28515,-0.53906 0.28515,-0.92187 -0.004,-0.35156 -0.0976,-0.63672 -0.27343,-0.85547 -0.17578,-0.21484 -0.42188,-0.37109 -0.73438,-0.46484 -0.14844,-0.043 -0.32422,-0.0781 -0.53125,-0.0977 C 474.42578,100.01172 474.16406,100 473.84766,100 Z m 8.10156,2.15625 c -0.21484,0 -0.41797,0.043 -0.60547,0.12891 -0.1875,0.0859 -0.35156,0.20312 -0.49218,0.35156 -0.14063,0.14844 -0.25391,0.32422 -0.33985,0.52344 -0.0859,0.19922 -0.14062,0.41406 -0.16015,0.63672 l 2.96484,0 c 0,-0.23047 -0.0312,-0.44532 -0.0898,-0.64454 -0.0625,-0.19921 -0.14844,-0.37109 -0.26172,-0.51953 -0.11719,-0.14843 -0.25781,-0.26562 -0.42578,-0.35156 -0.17188,-0.0859 -0.36719,-0.125 -0.58985,-0.125 z m 0.52735,4.52344 c 0.3164,0 0.60547,-0.0273 0.86718,-0.0781 0.26172,-0.0508 0.52344,-0.125 0.78125,-0.22265 l 0,0.79687 c -0.21093,0.10547 -0.46875,0.1836 -0.77734,0.2461 -0.30859,0.0586 -0.64062,0.0898 -0.99609,0.0898 -0.41797,0 -0.8125,-0.0547 -1.1836,-0.16016 -0.36718,-0.10937 -0.6914,-0.28125 -0.96484,-0.51953 -0.27734,-0.23828 -0.49609,-0.55078 -0.65234,-0.9375 -0.16016,-0.38281 -0.23829,-0.84765 -0.23829,-1.39062 0,-0.53516 0.0742,-1 0.22266,-1.39453 0.14844,-0.39454 0.34766,-0.71875 0.59375,-0.98438 0.24609,-0.26172 0.53125,-0.46094 0.85156,-0.59375 0.32032,-0.13281 0.65625,-0.19531 1.00782,-0.19531 0.32812,0 0.63671,0.0508 0.92187,0.16015 0.28906,0.10938 0.53516,0.28125 0.74609,0.51954 0.21094,0.23046 0.375,0.53515 0.4961,0.90625 0.12109,0.37109 0.18359,0.8164 0.18359,1.33203 0,0.0508 0,0.0937 0,0.1289 0,0.0352 -0.004,0.11719 -0.008,0.23828 l -4.02734,0 c 0,0.375 0.0586,0.69141 0.17187,0.95313 0.10938,0.26172 0.26563,0.47266 0.46094,0.63672 0.19531,0.16406 0.42578,0.28125 0.6875,0.35547 0.26562,0.0742 0.55078,0.11328 0.85547,0.11328 z m 3.82812,-2.21875 c 0,0.46094 0.0547,0.83594 0.16406,1.1289 0.11329,0.29297 0.25391,0.51954 0.42579,0.6836 0.17187,0.16015 0.35546,0.27344 0.55859,0.33203 0.20312,0.0586 0.39062,0.0898 0.57422,0.0898 0.29687,0 0.57422,-0.0586 0.83594,-0.17968 0.25781,-0.11719 0.48437,-0.28125 0.68359,-0.48829 l 0,-3.0664 c -0.0547,-0.0742 -0.12891,-0.16016 -0.22266,-0.25391 -0.0937,-0.0977 -0.20703,-0.18359 -0.32812,-0.26562 -0.12891,-0.0781 -0.27344,-0.14453 -0.4336,-0.20313 -0.16015,-0.0547 -0.33593,-0.082 -0.52343,-0.082 -0.28516,0 -0.53516,0.0547 -0.75,0.16797 -0.21485,0.11328 -0.39844,0.27344 -0.54297,0.47266 -0.14844,0.20312 -0.25781,0.44531 -0.33203,0.72656 -0.0742,0.28125 -0.10938,0.59375 -0.10938,0.9375 z m 1.61328,-3.125 c 0.25391,0.004 0.47657,0.0352 0.66407,0.0977 0.1914,0.0625 0.35156,0.13672 0.48828,0.23047 0.13672,0.0937 0.24609,0.1836 0.32422,0.27735 0.082,0.0898 0.13671,0.16015 0.16406,0.21484 l 0.0273,0 0.19531,-0.66797 0.72266,0 0,6.21485 c 0,0.45312 -0.0742,0.84765 -0.22266,1.18359 -0.14843,0.33594 -0.35546,0.61328 -0.62109,0.83594 -0.26953,0.22265 -0.59375,0.38672 -0.96875,0.49609 -0.375,0.10938 -0.79297,0.16406 -1.25,0.16406 -0.39062,0 -0.73437,-0.0352 -1.03906,-0.10156 -0.30469,-0.0664 -0.54297,-0.14844 -0.71485,-0.24609 l 0,-0.80469 c 0.13672,0.0547 0.27344,0.10547 0.40625,0.14453 0.13282,0.0391 0.26563,0.0703 0.40625,0.0977 0.14063,0.0273 0.28516,0.043 0.42969,0.0586 0.14844,0.0117 0.3086,0.0195 0.48438,0.0195 0.6875,0 1.21484,-0.16015 1.58203,-0.48047 0.36719,-0.32422 0.55078,-0.8125 0.55078,-1.47265 l 0,-0.78516 -0.0195,0 c -0.20703,0.23047 -0.45313,0.40625 -0.73047,0.52344 -0.28125,0.11719 -0.59766,0.17578 -0.95703,0.17578 -0.16406,0 -0.33985,-0.0195 -0.53125,-0.0547 -0.1875,-0.0391 -0.375,-0.10156 -0.56641,-0.1875 -0.1914,-0.0898 -0.37109,-0.20703 -0.54297,-0.35547 -0.17578,-0.14453 -0.32422,-0.32812 -0.45703,-0.54687 -0.13281,-0.22266 -0.23828,-0.48047 -0.32031,-0.78516 -0.0781,-0.29687 -0.12109,-0.64453 -0.12109,-1.04297 0,-0.54687 0.0742,-1.02343 0.22656,-1.42187 0.14453,-0.40235 0.34375,-0.73438 0.58594,-0.9961 0.24218,-0.26562 0.51953,-0.46484 0.83203,-0.59375 0.3125,-0.1289 0.63672,-0.1914 0.97265,-0.1914 z m 5.15625,6.01953 -0.95703,0 0,-5.86719 0.95703,0 z m -0.95703,0 z m 0.98047,-7.23438 -1.00781,0 0,-1.066402 1.00781,0 z m -1.00781,0 z m 6.82422,4.3086 c 0,-0.36328 -0.043,-0.6836 -0.13282,-0.96875 -0.0859,-0.28125 -0.21093,-0.51953 -0.36718,-0.71485 -0.16016,-0.19531 -0.34766,-0.34375 -0.56641,-0.44531 -0.21875,-0.10156 -0.45703,-0.15234 -0.71484,-0.15234 -0.26172,0 -0.5,0.0508 -0.71875,0.15234 -0.21875,0.10156 -0.40625,0.25 -0.5625,0.44531 -0.16016,0.19532 -0.28516,0.4336 -0.3711,0.71485 -0.0898,0.28515 -0.13281,0.60547 -0.13281,0.96875 0,0.35547 0.043,0.67578 0.13281,0.96094 0.0859,0.28125 0.21094,0.51953 0.3711,0.71093 0.16015,0.19532 0.35156,0.34375 0.57031,0.44532 0.21484,0.0977 0.45703,0.14843 0.71484,0.14843 0.26172,0 0.4961,-0.0508 0.71485,-0.14843 0.21484,-0.10157 0.40234,-0.25 0.5625,-0.44532 0.15625,-0.1914 0.28125,-0.42968 0.36718,-0.71093 0.0899,-0.28516 0.13282,-0.60547 0.13282,-0.96094 z m 1.0039,0 c 0,0.46094 -0.0664,0.8789 -0.19922,1.26172 -0.1289,0.3789 -0.3164,0.69922 -0.55859,0.96875 -0.23828,0.26953 -0.53125,0.48047 -0.875,0.6289 -0.33984,0.14844 -0.72266,0.22266 -1.14844,0.22266 -0.43359,0 -0.82812,-0.0742 -1.17187,-0.22266 -0.34375,-0.14843 -0.63281,-0.35937 -0.875,-0.6289 -0.24219,-0.26953 -0.42578,-0.58985 -0.55469,-0.96875 -0.125,-0.38282 -0.19141,-0.80078 -0.19141,-1.26172 0,-0.46485 0.0703,-0.89063 0.19922,-1.26563 0.13282,-0.3789 0.32032,-0.70703 0.5586,-0.97656 0.24218,-0.27344 0.53515,-0.48437 0.8789,-0.62891 0.34375,-0.14843 0.72657,-0.22265 1.15235,-0.22265 0.42968,0 0.82031,0.0742 1.16406,0.22265 0.34766,0.14454 0.64062,0.35547 0.87891,0.62891 0.23828,0.26953 0.42187,0.59766 0.55078,0.97656 0.1289,0.375 0.1914,0.80078 0.1914,1.26563 z m 2.13672,-2.125 0.0156,0 c 0.10547,-0.13672 0.22656,-0.26172 0.35547,-0.38281 0.13281,-0.11329 0.27734,-0.21875 0.4375,-0.30469 0.16015,-0.0898 0.33593,-0.16016 0.52734,-0.20703 0.19141,-0.0508 0.39844,-0.0742 0.62891,-0.0742 0.26562,0 0.51562,0.0352 0.75,0.10937 0.23437,0.0742 0.4414,0.19532 0.61328,0.35938 0.17187,0.16406 0.30859,0.3789 0.41015,0.64453 0.10157,0.26562 0.15235,0.58984 0.15235,0.98047 l 0,3.92578 -0.95703,0 0,-3.77344 c 0,-0.5039 -0.10157,-0.87109 -0.29688,-1.09375 -0.19141,-0.22265 -0.48047,-0.33203 -0.85156,-0.33203 -0.33203,0 -0.64844,0.0898 -0.96094,0.27734 -0.30859,0.17969 -0.57422,0.4336 -0.79297,0.75391 l 0,4.16797 -0.96094,0 0,-5.86719 0.74219,0 z m 8.8711,4.40234 -0.0234,0 c -0.0742,0.0977 -0.17578,0.19922 -0.29688,0.29688 -0.11718,0.0937 -0.25781,0.17968 -0.41015,0.25781 -0.15625,0.0781 -0.33203,0.13672 -0.51563,0.17969 -0.18359,0.0469 -0.38281,0.0703 -0.59375,0.0703 -0.28125,0 -0.54297,-0.043 -0.78125,-0.12891 -0.23828,-0.082 -0.4375,-0.20703 -0.60937,-0.37109 -0.17188,-0.16016 -0.30469,-0.35938 -0.39844,-0.59375 -0.0937,-0.23438 -0.14453,-0.5 -0.14453,-0.79688 0,-0.29296 0.0547,-0.55468 0.16015,-0.78515 0.10547,-0.23047 0.25,-0.42578 0.44141,-0.58594 0.1875,-0.16016 0.41406,-0.28516 0.67969,-0.37109 0.26562,-0.0859 0.55859,-0.12891 0.88281,-0.12891 0.30469,0.004 0.58594,0.0312 0.84766,0.0781 0.25781,0.0508 0.48828,0.11328 0.6914,0.1875 l 0.0234,0 0,-0.40625 c 0,-0.16016 -0.0117,-0.30469 -0.0312,-0.42579 -0.0195,-0.125 -0.0547,-0.23437 -0.10547,-0.33203 -0.10547,-0.19531 -0.27734,-0.35937 -0.51172,-0.48828 -0.23437,-0.1289 -0.55078,-0.19531 -0.95312,-0.19531 -0.29297,0 -0.57422,0.0273 -0.83594,0.0859 -0.26172,0.0547 -0.51953,0.13281 -0.78125,0.23047 l 0,-0.80469 c 0.0977,-0.0508 0.21484,-0.0977 0.34766,-0.13672 0.13672,-0.0469 0.27734,-0.082 0.42578,-0.11328 0.14844,-0.0312 0.30469,-0.0547 0.46875,-0.0703 0.16406,-0.0195 0.32812,-0.0234 0.49609,-0.0234 0.58985,0 1.07422,0.10156 1.45313,0.3125 0.375,0.21094 0.64843,0.48828 0.8125,0.83594 0.0586,0.13281 0.10547,0.27734 0.13281,0.43359 0.0273,0.16016 0.0391,0.33203 0.0391,0.52344 l 0,3.91406 -0.80469,0 z m -0.0469,-1.92578 c -0.17578,-0.0508 -0.38672,-0.0977 -0.62891,-0.14062 -0.24609,-0.0469 -0.51171,-0.0703 -0.80468,-0.0742 -0.40625,0 -0.72657,0.0859 -0.95703,0.25781 -0.23047,0.17187 -0.34766,0.4375 -0.34766,0.79687 0,0.1836 0.0312,0.33985 0.0898,0.47657 0.0547,0.13672 0.13672,0.24609 0.23828,0.33593 0.0977,0.0898 0.21875,0.15235 0.35547,0.19922 0.13672,0.043 0.28516,0.0625 0.44141,0.0625 0.20703,0 0.39844,-0.0312 0.57422,-0.0898 0.17969,-0.0586 0.33594,-0.12891 0.47265,-0.21094 0.14063,-0.082 0.25782,-0.16406 0.35157,-0.24609 0.0976,-0.0859 0.16797,-0.14844 0.21484,-0.19141 z m 3.52344,2.57422 -0.95703,0 0,-8.941408 0.95703,0 z m -0.95313,0 z m 8.79297,-7.519532 c -0.45312,0 -0.88281,0.07031 -1.28125,0.218752 -0.39453,0.14453 -0.74219,0.36328 -1.03125,0.65234 -0.29297,0.28906 -0.52344,0.65235 -0.6914,1.08203 -0.17188,0.42969 -0.25782,0.92969 -0.25782,1.50391 0,0.56641 0.082,1.0625 0.23828,1.48047 0.15625,0.41406 0.375,0.76172 0.66407,1.03515 0.28906,0.27344 0.63672,0.47657 1.04297,0.60938 0.40234,0.13281 0.85937,0.19531 1.35546,0.19531 0.13282,0 0.28125,-0.004 0.4336,-0.0195 0.14844,-0.0156 0.30469,-0.0352 0.45703,-0.0625 0.15625,-0.0273 0.30469,-0.0547 0.45312,-0.0898 0.14454,-0.0391 0.27735,-0.0742 0.39063,-0.11719 l 0,0.89062 c -0.24219,0.0937 -0.52344,0.16797 -0.84375,0.21875 -0.32422,0.0508 -0.65234,0.0781 -0.98828,0.0781 -0.6875,0 -1.29688,-0.0937 -1.82813,-0.28906 -0.53125,-0.19141 -0.98047,-0.46485 -1.33984,-0.82422 -0.35938,-0.35547 -0.63281,-0.79688 -0.82031,-1.3125 -0.1836,-0.51563 -0.27344,-1.10156 -0.27344,-1.75781 0,-0.64063 0.0937,-1.23047 0.29297,-1.76954 0.19531,-0.54296 0.47656,-1.0039 0.84375,-1.39062 0.37109,-0.390626 0.8164,-0.691408 1.33984,-0.906251 0.52735,-0.214844 1.11719,-0.324219 1.76953,-0.324219 0.17578,0 0.34375,0.0078 0.51172,0.02344 0.17188,0.01172 0.33203,0.03516 0.48828,0.05859 0.15625,0.02734 0.29688,0.05859 0.42969,0.09766 0.12891,0.03516 0.24219,0.07422 0.33594,0.117187 l 0,0.886713 c -0.24219,-0.082 -0.51172,-0.148432 -0.8086,-0.203119 -0.28906,-0.05859 -0.58593,-0.08203 -0.88281,-0.08203 z m 7.2461,4.593752 c 0,-0.36328 -0.0469,-0.6836 -0.13282,-0.96875 -0.0898,-0.28125 -0.21093,-0.51953 -0.37109,-0.71485 -0.16016,-0.19531 -0.34766,-0.34375 -0.56641,-0.44531 -0.21875,-0.10156 -0.45312,-0.15234 -0.71484,-0.15234 -0.25781,0 -0.5,0.0508 -0.71484,0.15234 -0.21875,0.10156 -0.41016,0.25 -0.56641,0.44531 -0.16016,0.19532 -0.28125,0.4336 -0.37109,0.71485 -0.0899,0.28515 -0.13282,0.60547 -0.13282,0.96875 0,0.35547 0.043,0.67578 0.13282,0.96094 0.0898,0.28125 0.21093,0.51953 0.375,0.71093 0.16015,0.19532 0.34765,0.34375 0.5664,0.44532 0.21875,0.0977 0.45703,0.14843 0.71875,0.14843 0.25781,0 0.4961,-0.0508 0.71094,-0.14843 0.21484,-0.10157 0.40234,-0.25 0.5625,-0.44532 0.16016,-0.1914 0.28125,-0.42968 0.37109,-0.71093 0.0859,-0.28516 0.13282,-0.60547 0.13282,-0.96094 z m 1,0 c 0,0.46094 -0.0625,0.8789 -0.19532,1.26172 -0.13281,0.3789 -0.32031,0.69922 -0.5625,0.96875 -0.23828,0.26953 -0.53125,0.48047 -0.875,0.6289 -0.33984,0.14844 -0.72265,0.22266 -1.14453,0.22266 -0.4375,0 -0.82812,-0.0742 -1.17187,-0.22266 -0.34375,-0.14843 -0.63672,-0.35937 -0.87891,-0.6289 -0.23828,-0.26953 -0.42187,-0.58985 -0.55078,-0.96875 -0.12891,-0.38282 -0.19141,-0.80078 -0.19141,-1.26172 0,-0.46485 0.0664,-0.89063 0.19532,-1.26563 0.13281,-0.3789 0.32031,-0.70703 0.55859,-0.97656 0.24219,-0.27344 0.53516,-0.48437 0.87891,-0.62891 0.34375,-0.14843 0.72656,-0.22265 1.15234,-0.22265 0.43359,0 0.82031,0.0742 1.16797,0.22265 0.34375,0.14454 0.63672,0.35547 0.875,0.62891 0.24219,0.26953 0.42578,0.59766 0.55078,0.97656 0.12891,0.375 0.19141,0.80078 0.19141,1.26563 z m 3.53906,3.08203 c -0.30469,0 -0.57813,-0.0312 -0.82422,-0.0977 -0.24219,-0.0664 -0.45313,-0.16015 -0.63672,-0.27734 -0.18359,-0.12109 -0.33984,-0.26563 -0.46484,-0.42969 -0.12891,-0.16797 -0.23047,-0.35156 -0.30469,-0.54687 -0.0586,-0.14844 -0.0977,-0.3125 -0.12109,-0.48828 -0.0274,-0.17969 -0.0391,-0.3711 -0.0391,-0.58204 l 0,-3.60156 0.95703,0 0,3.59766 c 0,0.32422 0.043,0.59375 0.12891,0.8125 0.10156,0.25 0.25781,0.4414 0.48047,0.58203 0.21875,0.14453 0.5,0.21484 0.84375,0.21484 0.36328,0 0.65234,-0.0781 0.87109,-0.23437 0.22266,-0.15625 0.37891,-0.36719 0.47266,-0.62891 0.0703,-0.20312 0.10547,-0.45312 0.10547,-0.74609 l 0,-3.59766 0.95703,0 0,3.60938 c 0,0.19531 -0.0117,0.3789 -0.0312,0.55078 -0.0234,0.17187 -0.0625,0.32812 -0.10938,0.47265 -0.0742,0.20313 -0.17578,0.38672 -0.30468,0.5586 -0.13282,0.17187 -0.28907,0.32031 -0.48047,0.4414 -0.1875,0.125 -0.41016,0.22266 -0.65625,0.28907 -0.25,0.0664 -0.53125,0.10156 -0.84375,0.10156 z m 4.83984,-5.20703 0.0195,0 c 0.10547,-0.13672 0.22657,-0.26172 0.35547,-0.38281 0.12891,-0.11329 0.27344,-0.21875 0.4375,-0.30469 0.15625,-0.0898 0.33203,-0.16016 0.52735,-0.20703 0.1914,-0.0508 0.39843,-0.0742 0.625,-0.0742 0.26953,0 0.51953,0.0352 0.7539,0.10937 0.23438,0.0742 0.4375,0.19532 0.61328,0.35938 0.17188,0.16406 0.3086,0.3789 0.41016,0.64453 0.10156,0.26562 0.15234,0.58984 0.15234,0.98047 l 0,3.92578 -0.95703,0 0,-3.77344 c 0,-0.5039 -0.10156,-0.87109 -0.29687,-1.09375 -0.19532,-0.22265 -0.48047,-0.33203 -0.85547,-0.33203 -0.32813,0 -0.64844,0.0898 -0.95703,0.27734 -0.3086,0.17969 -0.57422,0.4336 -0.79688,0.75391 l 0,4.16797 -0.95703,0 0,-5.86719 0.74219,0 z m 7.96094,-0.96875 c 0.28516,0 0.55469,0.0273 0.81641,0.0898 0.26171,0.0586 0.48046,0.14063 0.66796,0.25 l 0,0.79688 c -0.26171,-0.10157 -0.5,-0.17188 -0.71875,-0.22657 -0.21484,-0.0469 -0.4414,-0.0703 -0.66406,-0.0703 -0.24219,0 -0.47656,0.0391 -0.71094,0.11719 -0.23828,0.0781 -0.44531,0.20703 -0.63281,0.38672 -0.18359,0.17578 -0.33203,0.41406 -0.44531,0.70703 -0.11328,0.29687 -0.17188,0.66016 -0.17188,1.09766 0,0.3164 0.043,0.60937 0.12891,0.8789 0.082,0.26563 0.21094,0.5 0.375,0.69141 0.16797,0.19531 0.375,0.34765 0.625,0.45703 0.25391,0.11328 0.54297,0.16797 0.87109,0.16797 0.24219,0 0.48438,-0.0273 0.72657,-0.0781 0.24218,-0.0508 0.47656,-0.125 0.71093,-0.22265 l 0,0.79687 c -0.0703,0.043 -0.16406,0.082 -0.27734,0.125 -0.11328,0.043 -0.23828,0.0781 -0.375,0.10938 -0.13281,0.0312 -0.27734,0.0547 -0.42969,0.0742 -0.15234,0.0195 -0.30468,0.0273 -0.45703,0.0273 -0.39453,0 -0.76953,-0.0586 -1.12109,-0.17969 -0.35156,-0.11719 -0.66016,-0.30078 -0.92578,-0.55078 -0.26172,-0.24609 -0.46875,-0.55859 -0.6211,-0.9375 -0.15625,-0.37891 -0.23047,-0.82812 -0.23047,-1.34375 0,-0.39062 0.0391,-0.73828 0.1211,-1.04687 0.082,-0.3086 0.1914,-0.58204 0.32812,-0.81641 0.14063,-0.23438 0.30469,-0.43359 0.49219,-0.59766 0.1875,-0.16797 0.38672,-0.30078 0.59766,-0.40234 0.21484,-0.10938 0.43359,-0.18359 0.66015,-0.23047 0.22657,-0.0469 0.44532,-0.0703 0.66016,-0.0703 z m 3.74219,6.01953 -0.95703,0 0,-5.86719 0.95703,0 z m -0.95703,0 z m 0.98437,-7.23438 -1.00781,0 0,-1.066402 1.00781,0 z m -1.00781,0 z m 3.61328,7.23438 -0.95703,0 0,-8.941408 0.95703,0 z m 0,0"
         id="path1027"
         inkscape:connector-curvature="0" />
      <path
         style="fill:#005997;fill-opacity:1;fill-rule:nonzero;stroke:none"
         d="m 481.72656,93.621094 -1.6289,0 0,-11.90625 -4.46875,0 0,-1.472656 10.5664,0 0,1.472656 -4.46875,0 z m 10.44141,-1.050782 -0.0391,0 c -0.125,0.160157 -0.28516,0.320313 -0.48047,0.476563 -0.19532,0.152344 -0.41797,0.292969 -0.66797,0.417969 -0.25391,0.125 -0.53125,0.222656 -0.83203,0.296875 -0.29688,0.07422 -0.61719,0.105469 -0.96094,0.105469 -0.45703,0 -0.87891,-0.06641 -1.26172,-0.203126 -0.38672,-0.136718 -0.71484,-0.335937 -0.98828,-0.601562 -0.27734,-0.261719 -0.49219,-0.582031 -0.64844,-0.960938 -0.15234,-0.382812 -0.23047,-0.8125 -0.23047,-1.289062 0,-0.476562 0.0859,-0.898438 0.25782,-1.269531 0.16796,-0.375 0.40625,-0.6875 0.71484,-0.953125 0.30469,-0.257813 0.67187,-0.457032 1.10156,-0.597656 0.42969,-0.136719 0.90625,-0.210938 1.42578,-0.210938 0.49219,0.0078 0.94922,0.05078 1.36719,0.128906 0.42188,0.08203 0.79688,0.183594 1.12109,0.300782 l 0.043,0 0,-0.65625 c 0,-0.261719 -0.0195,-0.492188 -0.0508,-0.691407 -0.0312,-0.199219 -0.0898,-0.378906 -0.17187,-0.53125 -0.17188,-0.320312 -0.44532,-0.582031 -0.82813,-0.796875 -0.3789,-0.207031 -0.89062,-0.3125 -1.53906,-0.3125 -0.48047,0 -0.93359,0.04297 -1.35547,0.136719 -0.42187,0.08984 -0.84375,0.214844 -1.26172,0.371094 l 0,-1.296875 c 0.15625,-0.08203 0.34766,-0.15625 0.5625,-0.226563 0.21875,-0.07031 0.44141,-0.128906 0.6836,-0.179687 0.23828,-0.05078 0.49218,-0.08594 0.75781,-0.117188 0.26953,-0.02344 0.53515,-0.03516 0.80078,-0.03516 0.96094,0 1.74609,0.167969 2.35547,0.507812 0.60937,0.34375 1.05078,0.789063 1.3164,1.347657 0.0977,0.214843 0.16797,0.449219 0.21485,0.707031 0.043,0.257812 0.0625,0.539062 0.0625,0.847656 l 0,6.335938 -1.30078,0 z m -0.0781,-3.121093 c -0.28906,-0.07813 -0.6289,-0.15625 -1.02343,-0.226563 -0.39063,-0.07422 -0.82422,-0.113281 -1.29688,-0.121094 -0.66016,0 -1.17578,0.140626 -1.55078,0.421876 -0.37109,0.277343 -0.55859,0.707031 -0.55859,1.289062 0,0.292969 0.0469,0.546875 0.13671,0.765625 0.0937,0.222656 0.22266,0.40625 0.38672,0.546875 0.16407,0.144531 0.35547,0.25 0.58203,0.320312 0.21875,0.07031 0.46094,0.105469 0.71094,0.105469 0.33594,0 0.64453,-0.05078 0.9336,-0.144531 0.28515,-0.09766 0.53906,-0.210938 0.76562,-0.34375 0.21875,-0.136719 0.41016,-0.269531 0.56641,-0.402344 0.15625,-0.132812 0.26953,-0.238281 0.34765,-0.308594 z m 9.76563,-4.066407 -0.11719,0 c -0.37109,0 -0.73047,0.03516 -1.08203,0.09766 -0.35156,0.07031 -0.68359,0.171875 -0.99219,0.308593 -0.3125,0.136719 -0.59375,0.304688 -0.83984,0.503907 -0.25391,0.199219 -0.46094,0.433593 -0.625,0.710937 l 0,6.617188 -1.55469,0 0,-9.496094 1.20313,0 0.30078,1.507812 0.0312,0 c 0.15234,-0.246093 0.33984,-0.476562 0.5625,-0.691406 0.22265,-0.210937 0.47265,-0.398437 0.7539,-0.558594 0.27735,-0.160156 0.58594,-0.285156 0.92188,-0.375 0.33203,-0.08984 0.67969,-0.132812 1.05078,-0.132812 0.0625,0 0.13281,0 0.20312,0.0039 0.0703,0.0039 0.12891,0.0078 0.1836,0.01172 z m 7.21875,7.1875 -0.0352,0 c -0.1289,0.160157 -0.28906,0.320313 -0.48437,0.476563 -0.19141,0.152344 -0.41407,0.292969 -0.66797,0.417969 -0.25,0.125 -0.53125,0.222656 -0.82813,0.296875 -0.30078,0.07422 -0.62109,0.105469 -0.96093,0.105469 -0.45704,0 -0.88282,-0.06641 -1.26563,-0.203126 -0.38281,-0.136718 -0.71094,-0.335937 -0.98828,-0.601562 -0.27734,-0.261719 -0.49219,-0.582031 -0.64453,-0.960938 -0.15235,-0.382812 -0.23047,-0.8125 -0.23047,-1.289062 0,-0.476562 0.0859,-0.898438 0.25391,-1.269531 0.17187,-0.375 0.41015,-0.6875 0.71875,-0.953125 0.30078,-0.257813 0.67187,-0.457032 1.10156,-0.597656 0.42969,-0.136719 0.90234,-0.210938 1.42578,-0.210938 0.49219,0.0078 0.94922,0.05078 1.36719,0.128906 0.42187,0.08203 0.79687,0.183594 1.12109,0.300782 l 0.0391,0 0,-0.65625 c 0,-0.261719 -0.0156,-0.492188 -0.0508,-0.691407 -0.0312,-0.199219 -0.0898,-0.378906 -0.17187,-0.53125 -0.16797,-0.320312 -0.44532,-0.582031 -0.82813,-0.796875 -0.3789,-0.207031 -0.89062,-0.3125 -1.53906,-0.3125 -0.47656,0 -0.92969,0.04297 -1.35547,0.136719 -0.42187,0.08984 -0.83984,0.214844 -1.26172,0.371094 l 0,-1.296875 c 0.15625,-0.08203 0.34766,-0.15625 0.5625,-0.226563 0.21875,-0.07031 0.44531,-0.128906 0.6875,-0.179687 0.23828,-0.05078 0.49219,-0.08594 0.75781,-0.117188 0.26954,-0.02344 0.53516,-0.03516 0.80079,-0.03516 0.96093,0 1.74609,0.167969 2.35546,0.507812 0.60547,0.34375 1.04688,0.789063 1.3125,1.347657 0.0977,0.214843 0.17188,0.449219 0.21485,0.707031 0.043,0.257812 0.0664,0.539062 0.0664,0.847656 l 0,6.335938 -1.30078,0 z m -0.0781,-3.121093 c -0.28515,-0.07813 -0.6289,-0.15625 -1.01953,-0.226563 -0.39453,-0.07422 -0.82422,-0.113281 -1.30078,-0.121094 -0.65625,0 -1.17187,0.140626 -1.54687,0.421876 -0.375,0.277343 -0.5625,0.707031 -0.5625,1.289062 0,0.292969 0.0508,0.546875 0.14062,0.765625 0.0937,0.222656 0.22266,0.40625 0.38672,0.546875 0.16406,0.144531 0.35547,0.25 0.57812,0.320312 0.22266,0.07031 0.46094,0.105469 0.71485,0.105469 0.33594,0 0.64453,-0.05078 0.92969,-0.144531 0.28906,-0.09766 0.54296,-0.210938 0.76562,-0.34375 0.22266,-0.136719 0.41406,-0.269531 0.57031,-0.402344 0.15625,-0.132812 0.26953,-0.238281 0.34375,-0.308594 z m 6.0586,-4.003907 0.0312,0 c 0.17187,-0.222656 0.36718,-0.425781 0.57422,-0.617187 0.21093,-0.1875 0.44531,-0.355469 0.70703,-0.5 0.25781,-0.140625 0.54297,-0.253906 0.85156,-0.335937 0.30859,-0.08203 0.64844,-0.117188 1.01562,-0.117188 0.4336,0 0.83985,0.05859 1.21875,0.175781 0.37891,0.121094 0.71094,0.316407 0.98829,0.582031 0.28125,0.265626 0.5039,0.613282 0.66796,1.042969 0.16407,0.429688 0.2461,0.960938 0.2461,1.585938 l 0,6.359375 -1.55078,0 0,-6.109375 c 0,-0.816407 -0.16016,-1.410157 -0.47657,-1.769531 -0.3125,-0.359376 -0.77734,-0.539063 -1.38281,-0.539063 -0.53515,0 -1.05078,0.148437 -1.55078,0.445313 -0.5,0.292968 -0.92969,0.703124 -1.28906,1.222656 l 0,6.75 -1.55078,0 0,-9.496094 1.19922,0 z m 14.86718,7.125 -0.0391,0 c -0.125,0.160157 -0.28515,0.320313 -0.48047,0.476563 -0.19531,0.152344 -0.41797,0.292969 -0.66797,0.417969 -0.2539,0.125 -0.53125,0.222656 -0.83203,0.296875 -0.29687,0.07422 -0.62109,0.105469 -0.96093,0.105469 -0.45704,0 -0.87891,-0.06641 -1.26172,-0.203126 -0.38672,-0.136718 -0.71485,-0.335937 -0.98828,-0.601562 -0.27735,-0.261719 -0.49219,-0.582031 -0.64454,-0.960938 -0.15625,-0.382812 -0.23437,-0.8125 -0.23437,-1.289062 0,-0.476562 0.0859,-0.898438 0.25781,-1.269531 0.16797,-0.375 0.41016,-0.6875 0.71485,-0.953125 0.30468,-0.257813 0.67187,-0.457032 1.10156,-0.597656 0.42969,-0.136719 0.90625,-0.210938 1.42578,-0.210938 0.49219,0.0078 0.94922,0.05078 1.37109,0.128906 0.41797,0.08203 0.79297,0.183594 1.11719,0.300782 l 0.043,0 0,-0.65625 c 0,-0.261719 -0.0195,-0.492188 -0.0508,-0.691407 -0.0312,-0.199219 -0.0898,-0.378906 -0.17188,-0.53125 -0.17187,-0.320312 -0.44922,-0.582031 -0.82812,-0.796875 -0.37891,-0.207031 -0.89063,-0.3125 -1.53906,-0.3125 -0.48047,0 -0.9336,0.04297 -1.35547,0.136719 -0.42188,0.08984 -0.84375,0.214844 -1.26172,0.371094 l 0,-1.296875 c 0.15625,-0.08203 0.34765,-0.15625 0.5625,-0.226563 0.21875,-0.07031 0.4414,-0.128906 0.68359,-0.179687 0.24219,-0.05078 0.49219,-0.08594 0.75781,-0.117188 0.26954,-0.02344 0.53907,-0.03516 0.80469,-0.03516 0.95703,0 1.74219,0.167969 2.35156,0.507812 0.60938,0.34375 1.04688,0.789063 1.31641,1.347657 0.0977,0.214843 0.16797,0.449219 0.21484,0.707031 0.043,0.257812 0.0625,0.539062 0.0625,0.847656 l 0,6.335938 -1.30078,0 z m -0.0781,-3.121093 c -0.28906,-0.07813 -0.62891,-0.15625 -1.02344,-0.226563 -0.39062,-0.07422 -0.82422,-0.113281 -1.29687,-0.121094 -0.66016,0 -1.17578,0.140626 -1.55078,0.421876 -0.3711,0.277343 -0.5586,0.707031 -0.5586,1.289062 0,0.292969 0.0469,0.546875 0.14063,0.765625 0.0898,0.222656 0.21875,0.40625 0.38281,0.546875 0.16406,0.144531 0.35547,0.25 0.58203,0.320312 0.22266,0.07031 0.46094,0.105469 0.71094,0.105469 0.33594,0 0.64844,-0.05078 0.93359,-0.144531 0.28516,-0.09766 0.53906,-0.210938 0.76563,-0.34375 0.21875,-0.136719 0.41015,-0.269531 0.57031,-0.402344 0.15625,-0.132812 0.26953,-0.238281 0.34375,-0.308594 z m 10.70312,-5.324219 2.02344,0 -4.64062,4.367188 4.6289,5.128906 -1.92968,0 -4.5586,-5.058594 -0.0195,0 0,5.058594 -1.54687,0 0,-14.476563 1.54687,0 0,9.21875 0.0195,0 z m 5.48438,9.496094 -1.55078,0 0,-9.496094 1.55078,0 z m -1.55078,0 z m 1.58984,-11.707032 -1.6289,0 0,-1.730468 1.6289,0 z m 0,0"
         id="path1029"
         inkscape:connector-curvature="0" />
      <path
         style="fill:#789cbf;fill-opacity:1;fill-rule:evenodd;stroke:none"
         d="m 493.21484,72.308594 c -4.51562,0 -9.34375,-1.355469 -13.08203,-3.816406 l 13.08203,-19.980469 13.08203,19.980469 c -3.73828,2.460937 -8.5664,3.816406 -13.08203,3.816406"
         id="path1031"
         inkscape:connector-curvature="0" />
    </g>
  </g>
</svg>
