<svg xmlns="http://www.w3.org/2000/svg" width="900" height="600" version="1.0">
  <g transform="translate(-159.09187 -109.52031)">
    <path style="fill:navy;fill-rule:evenodd;stroke:none;stroke-width:1.39315665px;stroke-linecap:butt;stroke-linejoin:miter;stroke-opacity:1" d="M159.09187 109.52031h900v600h-900z"/>
    <circle style="fill:#fff" cx="609.09192" cy="409.52032" r="240"/>
    <circle style="fill:#18de9c;fill-opacity:1" cx="609.09192" cy="409.52032" r="225"/>
    <path style="opacity:1;fill:#fff;fill-opacity:1;fill-rule:nonzero;stroke:none;stroke-width:.5;stroke-linejoin:round;stroke-miterlimit:4;stroke-dasharray:none;stroke-opacity:1" d="m834.09192 409.52032-42.07842 24.08209 34.41173 34.1522-46.87754 12.37081 24.39994 41.8949-48.48202-.18351 12.72533 46.78254-46.78254-12.72533.18352 48.48202-41.89491-24.39994-12.37081 46.87754-34.1522-34.41174-24.08208 42.07842-24.08208-42.07842-34.15221 34.41174-12.3708-46.87754-41.89491 24.39994.18352-48.48202-46.78255 12.72533 12.72534-46.78254-48.48203.18351 24.39995-41.8949-46.87754-12.37081 34.41173-34.1522-42.07842-24.08209 42.07842-24.08208-34.41173-34.1522 46.87753-12.37081-24.39994-41.89491 48.48203.18352-12.72534-46.78254 46.78254 12.72533-.18351-48.48202 41.89491 24.39994 12.3708-46.87754 34.15221 34.41174 24.08208-42.07843 24.08208 42.07843 34.1522-34.41174 12.37081 46.87754 41.89491-24.39994-.18352 48.48202 46.78254-12.72533-12.72533 46.78254 48.48202-.18352-24.39994 41.89491 46.87754 12.37081-34.41173 34.1522z"/>
    <circle style="fill:#000" cx="609.09192" cy="409.52371" r="184.5"/>
    <g style="fill:#fff;fill-opacity:1">
      <path d="m188.83491 942.28672-25.4558 106.39518s35.3553 26.0381 43.84053 50.3625c4.24264 12.1623 18.12575 12.4152 33.23397 12.4152 14.96 0 30.40552-7.0097 30.40552-7.0097l-22.62737-172.97405-7.77797-4.24345z" style="fill:#fff;fill-opacity:1;fill-rule:evenodd;stroke:none;stroke-width:1px;stroke-linecap:butt;stroke-linejoin:miter;stroke-opacity:1" transform="matrix(1.36232 0 0 1.40044 281.51794 -1018.0173)"/>
      <path style="fill:#fff;fill-opacity:1;fill-rule:evenodd;stroke:none;stroke-width:1px;stroke-linecap:butt;stroke-linejoin:miter;stroke-opacity:1" d="m292.0726 942.28672 25.4558 106.39518s-35.3553 26.0381-43.84054 50.3625c-4.24263 12.1623-18.12574 12.4152-33.23396 12.4152-14.96 0-30.40552-7.0097-30.40552-7.0097l22.62736-172.97405 7.77798-4.24345z" transform="matrix(1.36232 0 0 1.40044 281.51794 -1018.0173)"/>
    </g>
    <g style="fill:red;fill-opacity:1">
      <path d="m185.22767 934.80758-27.16509 116.71712s37.7293 28.5641 46.7843 55.2485c4.52752 13.3421 19.33775 13.6889 35.46556 13.6889 16.0194 0 32.44715-7.759 32.44715-7.759l-24.14673-189.75522-8.30018-4.58576z" style="fill:red;fill-opacity:1;fill-rule:evenodd;stroke:none;stroke-width:1px;stroke-linecap:butt;stroke-linejoin:miter;stroke-opacity:1" transform="matrix(1.05407 0 0 1.2766 355.78557 -891.85688)"/>
      <path style="fill:red;fill-opacity:1;fill-rule:evenodd;stroke:none;stroke-width:1px;stroke-linecap:butt;stroke-linejoin:miter;stroke-opacity:1" d="m295.39761 934.80758 27.1651 116.71712s-37.72931 28.5641-46.78431 55.2485c-4.52751 13.3421-19.33775 13.6889-35.46555 13.6889-16.01941 0-32.44716-7.759-32.44716-7.759l24.14673-189.75522 8.30019-4.58576z" transform="matrix(1.05407 0 0 1.2766 355.78557 -891.85688)"/>
    </g>
    <g style="fill:#fff;fill-opacity:1">
      <path d="m184.79795 934.80758-27.16508 116.71712s37.72931 28.5641 46.7843 55.2485c4.52752 13.3421 20.83393 13.6889 36.77109 13.6889 16.19763 0 31.14162-7.759 31.14162-7.759l-24.14673-189.75522-6.99454-4.58576z" style="fill:#fff;fill-opacity:1;fill-rule:evenodd;stroke:none;stroke-width:1px;stroke-linecap:butt;stroke-linejoin:miter;stroke-opacity:1" transform="matrix(.73785 0 0 1.2766 431.13116 -891.85688)"/>
      <path style="fill:#fff;fill-opacity:1;fill-rule:evenodd;stroke:none;stroke-width:1px;stroke-linecap:butt;stroke-linejoin:miter;stroke-opacity:1" d="M297.57892 934.80758 324.744 1051.5247s-37.72931 28.5641-46.7843 55.2485c-4.52751 13.3421-20.83393 13.6889-36.77109 13.6889-16.19763 0-31.14162-7.759-31.14162-7.759l24.14674-189.75522 6.99453-4.58576z" transform="matrix(.73785 0 0 1.2766 431.13116 -891.85688)"/>
    </g>
    <g style="fill:red;fill-opacity:1">
      <path d="m183.43428 934.80758-20.76134 116.71712s31.32556 28.5641 40.38056 55.2485c4.52751 13.3421 23.36633 13.6889 40.60618 13.6889 17.16802 0 27.30653-7.759 27.30653-7.759l-24.14673-189.75522-3.15912-4.58576z" style="fill:red;fill-opacity:1;fill-rule:evenodd;stroke:none;stroke-width:1px;stroke-linecap:butt;stroke-linejoin:miter;stroke-opacity:1" transform="matrix(.37478 0 0 1.2766 517.77279 -891.85688)"/>
      <path style="fill:red;fill-opacity:1;fill-rule:evenodd;stroke:none;stroke-width:1px;stroke-linecap:butt;stroke-linejoin:miter;stroke-opacity:1" d="m303.88608 934.8076 20.76133 116.7171s-31.32555 28.5641-40.38056 55.2485c-4.52751 13.3421-23.36632 13.6889-40.60618 13.6889-17.16801 0-27.30652-7.759-27.30652-7.759l24.14673-189.7552 3.15911-4.58576z" transform="matrix(.37478 0 0 1.2766 517.77279 -891.85688)"/>
    </g>
  </g>
</svg>
