<svg version="1.1" id="svg116" xmlns="http://www.w3.org/2000/svg" x="0" y="0" viewBox="0 0 1100 687.9" xml:space="preserve"><style>.st1{fill:#eaab22}.st3{fill:#fff}</style><path id="polygon20" fill="#c21f32" d="M659.8 0H1100v687.9H0V0h440.2z"/><path id="rect22" class="st1" d="M238.5 0h623.1v687.9H238.5z"/><path id="polygon24" fill="#081f40" d="M693.5 0H816.3v687.9h-532V0H652.6z"/><path id="polygon26" class="st3" d="M613.2 157l-1.3-11.7 11.8-4.3-12.6-3-1.3-11.6-6.5 9.8-12.6-3 8.6 9.1-6.4 9.9 11.7-4.3z"/><path id="polygon28" class="st3" d="M654.9 176.5l1.5-11.7 12.4-1.4-11.5-5.8 1.4-11.7-8.6 8-11.4-5.8 6.2 10.8-8.7 8.1 12.4-1.4z"/><path id="polygon30" class="st3" d="M696.6 187l4.8-10.7-10.5 5.3-9.4-9 2.9 12.1-10.6 5.4 12.3 2.2 2.8 12.2 4.8-10.8L706 196z"/><path id="polygon32" class="st3" d="M737.3 234.9l-7.2-10.8 7-9.4-11.5 2.8-7.1-10.6.1 12.4-11.4 2.9 11.4 4.8.2 12.5 6.9-9.4z"/><path id="polygon34" class="st3" d="M750.6 259.6l-5.3-11.8-2 12.4-11.7 1 10.6 6.6-1.8 12.3 8.4-8.2 10.6 6.6-5.5-11.7 8.4-8.2z"/><path id="polygon36" class="st3" d="M769 327.2l-2.1-12.6 10.3-5.8-11.6-2.2-2.2-12.7-5 11.4-11.6-2.1 8.5 9.2-5 11.5 10.2-5.8z"/><path id="polygon38" class="st3" d="M762.5 352.7l-10.9-4.6 6.3 10.9-7.3 10 11.2-3.4 6.3 10.7.8-12.8L780 360l-10.8-4.5.7-12.9z"/><path id="polygon40" class="st3" d="M772.7 412.1l-9.5-6.9 3.4-12.5-9.3 8.2-9.7-6.9 3.7 12-9.3 8.1 11.7-.7 3.7 11.9 3.6-12.5z"/><path id="polygon42" class="st3" d="M736.2 470.4l5.9-11.5 11.7 1.4-8.1-8.5 5.9-11.5-10.9 6.1-8.1-8.5 1.4 12.3-10.9 6.3 11.7 1.4z"/><path id="polygon44" class="st3" d="M712.5 499.8l11 4.7-5.4-10.7 8.9-9.7-12.3 3.1-5.4-10.9-2.2 12.7-12.3 3 11 4.8-2.2 12.7z"/><path id="polygon46" class="st3" d="M485.7 144.9l-.6 11.8 8-9.7 12 3.6-7-9.5 8-9.6-12.4 3.8-7.1-9.4-.6 11.7-12.3 3.8z"/><path id="polygon48" class="st3" d="M428.5 164.8l12.5.7 2.2 11.5 5.6-11.2 12.4.7-9.1-7.6 5.6-11.2-11.1 6.5-9.1-7.5 2.2 11.6z"/><path id="polygon50" class="st3" d="M391.3 195.8l12.2-2.3 4.9 10.8 2.8-12.2 12.3-2.2-10.6-5.4 2.9-12.1-9.4 9-10.6-5.3 4.9 10.7z"/><path id="polygon52" class="st3" d="M378.6 219.7l.1-12.4-7.1 10.6-11.5-2.8 7.1 9.4-7.3 10.8 11.6-4.8 6.9 9.4.2-12.5 11.5-4.8z"/><path id="polygon54" class="st3" d="M354.2 260.4l-2.5-12.4-4.8 12-11.8-.5 8.7 7.9-4.9 11.9 10.3-7.1 8.7 7.9-2.3-12.2 10.3-7z"/><path id="polygon56" class="st3" d="M350.3 303.4l-11.5 2.7-5.5-11.1-1.6 12.7-11.5 2.7 10.6 5.3-1.6 12.7 8.1-9.5 10.4 5.4-5.5-11.3z"/><path id="polygon58" class="st3" d="M345.3 347.5l-10.6 5.1-7.9-9.7 1.3 12.9-10.6 5 11.4 2.8 1.3 12.9 5.8-11.1 11.4 2.9-7.9-9.7z"/><path id="polygon60" class="st3" d="M334.6 405.5l-9.3 7.2 11.8.3 4 12.4 3.3-12.1 11.7.3-9.6-7.8 3.2-12-9.4 7.2-9.6-7.8z"/><path id="polygon62" class="st3" d="M351.9 452.1l-7.5 9.1 11.5-2.3 6.7 11.1.5-12.6 11.6-2.2-11.3-5.5.5-12.4-7.5 9.1-11.2-5.3z"/><path id="polygon64" class="st3" d="M379.5 492.9l-5.4 10.5 10.9-4.7 8.8 9.5-2.2-12.3 10.9-4.7-12.2-2.9-2.1-12.4-5.4 10.6-12.1-3z"/><path id="path66" class="st3" d="M408 528.7c1 .7 1.7 1.1 2.2 1.1.4 0 1-.4 1.6-1.2l7.4-9.6c.6-.8.9-1.4.8-1.9-.1-.5-.6-1.1-1.6-1.9l.3-.4 7 5.5-.3.4c-1-.7-1.7-1.1-2.2-1.1-.5 0-1 .4-1.6 1.2l-7.4 9.6c-.6.8-.9 1.5-.8 1.9.1.4.7 1 1.6 1.9l-.3.4-7-5.5.3-.4z"/><path id="path68" class="st3" d="M416.9 535.6c1.1.6 1.9.8 2.4.7.5-.1 1.2-.8 2-2l6.7-10.2-.1-.6c-.1-.6-.3-1.1-.5-1.3-.2-.3-.5-.6-1.1-.9l.3-.4 4.4 2.8 2.5 17.6 5.1-7.6c.8-1.2 1.2-2.2 1-2.8-.1-.4-.6-1-1.5-1.7l.3-.4 6 4-.3.4c-1-.5-1.8-.8-2.3-.6-.5.1-1.2.8-2 2l-8 12.1-.4-.3-2.9-20.1-6 8.8c-.8 1.2-1.2 2.2-1 2.8.1.4.6 1 1.4 1.7l-.3.4-6-4 .3-.4z"/><path id="path70" class="st3" d="M467.4 543.5c1 .7 1.6 1.2 1.7 1.3.4.2.7.2 1 .2.2-.1.5-.2.7-.4l.6.3-2.2 5.8-.6-.3c0-1.6-.2-2.8-.6-3.7-.6-1.6-1.9-2.8-3.8-3.6s-3.8-.9-5.9-.2c-2 .6-3.6 2.5-4.9 5.4-1.1 2.5-1.2 4.7-.3 6.7.9 2 2.4 3.4 4.4 4.4.3.1.7.3 1.3.4l1.5.3c.7.1 1.3.1 1.5 0 .2-.1.4-.2.5-.5l1.8-4.3c.4-1.1.5-1.7.3-2.1-.2-.4-.9-.9-1.9-1.4l.2-.5 7.6 3.2-.2.5c-.7-.3-1.3-.3-1.6-.3-.5.1-1 .6-1.4 1.5l-2.2 5.2c-.1.3-1.2.3-3.1.1-1.9-.2-3.6-.6-5.2-1.4-2.9-1.3-5-3.1-6.3-5.4-1.5-2.7-1.6-5.3-.3-8.1 1.1-2.5 2.9-4.3 5.3-5.2 2.8-1.2 5.8-1 8.9.3 1.2.3 2.2.9 3.2 1.8z"/><path id="path72" class="st3" d="M477.3 549.8c2.3-1 4.9-1.1 7.6-.3 2.7.8 4.7 2.4 6 4.6 1.4 2.4 1.8 5 .8 7.9-.9 2.9-2.7 5-5.3 6-2.3.9-4.8 1-7.4.2-2.8-.8-4.9-2.5-6.2-4.8-1.3-2.3-1.6-4.9-.7-7.6.8-2.9 2.6-4.8 5.2-6zm-2 13.9c.8 1.8 2.1 2.9 3.9 3.4 1.8.5 3.4.3 5.2-.6 1.7-.9 2.9-2.8 3.8-5.7.9-2.9.9-5.3.1-6.9-.8-1.7-2.2-2.8-3.8-3.3-1.8-.5-3.5-.3-5.2.6-1.7.9-2.9 2.9-3.8 5.7-.9 2.8-.9 5-.2 6.8z"/><path id="path74" class="st3" d="M492.2 571.8c1.2.1 1.9.1 2.3-.1.4-.2.7-.8 1-1.9l2.5-12.6c.2-1.1.2-1.7-.1-2.1-.3-.3-1-.7-2.1-1l.1-.5 8.5 1.7c2.9.5 5.2 1.5 7 2.8 3.3 2.2 4.4 5.3 3.7 9.2-.3 1.4-.8 2.6-1.8 3.8-.8 1.2-2 2-3.5 2.6-1 .4-1.9.6-2.8.7-1.7.2-3.7.1-6-.4l-8.7-1.7-.1-.5zm6.5.5c.2.2.7.4 1.5.5 2.4.5 4.6.4 6.4-.1 2.6-.8 4.3-3 5-6.1.5-2.9 0-5.3-1.7-7.2-1.5-1.6-3.6-2.6-6.5-3.3-.7-.1-1.2-.2-1.5-.1-.3.1-.4.3-.5.8l-2.9 14.4c-.1.6 0 .9.2 1.1z"/><path id="path76" class="st3" d="M534 559.8v.6c-.6 0-1.1.1-1.4.1-.5.1-.8.5-.8.9 0 .2 0 .5.1.6.1.2.1.5.2.8l4.7 11.7 3.5-8.6-1.5-3.8c-.3-.7-.8-1.1-1.3-1.4-.3-.1-.9-.2-1.5-.2v-.6h8.8v.6c-.9 0-1.4.1-1.7.1-.5.2-.8.6-.8 1 0 .2 0 .3.1.5.1.1.1.5.3.8l4.7 11.6 3.6-10.3c.2-.6.4-1.1.4-1.6 0-.2.1-.5.1-.7 0-.6-.3-1-.9-1.3-.3-.1-.8-.2-1.4-.2v-.6h6.5v.6c-.5.1-1.1.2-1.3.3-.5.3-.5.7-.8 1.4l-3.5 9.2-1.3 3.5-2.1 5.6h-.5l-1.4-3.5-3.8-9.6-5.1 13.1h-.5L533 574l-2.7-7.3c-1.1-3-1.9-4.8-2.4-5.5-.4-.7-1.2-1-2.1-1.1v-.6l8.2.3z"/><path id="path78" class="st3" d="M557 578c1.3-.2 2.1-.5 2.5-.8.4-.3.5-.9.4-2.1l-1.5-12.4c-.1-1-.4-1.6-.8-1.9-.5-.3-.5-.3-.5-.6l-.1-.5 16.7-1.6.6 4-.9.1c-.5-1.2-1.1-2-1.7-2.3s-2-.3-4.1-.1l-4.9.5c-.5 0-.8.1-.9.3-.1.1-.1.4-.1.7l.8 6.2 5.4-.5c1.5-.1 2.5-.4 2.8-.8.4-.4.6-1.1.7-2.3l.8-.1.8 6.5-.8.1c-.4-1-.8-1.8-1.3-2.1-.5-.3-1.4-.4-3-.2l-5.4.5.8 6.9c.1.5.4.8.8.9s1.8 0 4-.2c2.4-.2 4.1-.6 5.2-1.1 1.1-.5 2-1.6 2.7-3.3l.9-.1-1.1 4.8-19.2 1.9.4-.4z"/><path id="path80" class="st3" d="M586.1 557l19.2-4.5 1.6 4.4-.8.2c-.8-1.3-1.6-2.1-2.5-2.4-.7-.3-2.1-.2-4.1.3l-1.9.4 4.3 13.3c.4 1 .7 1.6 1.2 1.7s1.4.1 2.8-.2l.1.5-10 2.3-.1-.5c1.4-.4 2.2-.8 2.6-1.2.2-.4.2-1.1-.1-2.2l-4.2-13-1.9.4c-1.9.4-3 1-3.6 1.5-.6.6-.8 1.6-.7 3.1l-.8.2-1.1-4.3z"/><path id="path82" class="st3" d="M613.2 568c1-.5 1.7-.9 1.8-1.3.2-.4 0-1.1-.4-2.2l-4.3-11.2c-.3-.9-.7-1.4-1.1-1.6-.4-.2-1.1-.1-2.2.2l-.2-.5 7.9-3.1c1.6-.6 3.2-.9 4.4-1 2.3-.1 3.9.8 4.7 2.8.5 1.3.4 2.4-.3 3.5-.7 1-1.7 1.9-3.3 2.9l8.5 4.4c.5.3 1 .4 1.4.5.4 0 .9 0 1.5-.2l.2.5-4.6 1.7-10.2-5.3-1.2.5 1.9 5.1c.4.9.7 1.5 1.2 1.6.4.1 1.2 0 2.3-.3l.2.5-7.9 3.1-.3-.6zm6.4-12.7c1.3-1.1 1.6-2.4 1.1-4.1-.6-1.5-1.6-2.2-3.3-2.3-.8 0-1.8.2-3.1.6-.8.3-1.3.5-1.4.7s-.1.4 0 .8l2.4 6.4c2.2-.7 3.5-1.4 4.3-2.1z"/><path id="path84" class="st3" d="M633.7 540.3l.2.5c-1 .6-1.7 1.1-1.9 1.6-.2.4 0 1.1.4 2l4.1 8.2c.6 1.4 1.4 2.3 2.2 2.8 1.5.9 3.2.9 5.3-.1 2.3-1.1 3.6-2.6 3.6-4.4 0-1-.3-2.3-1.1-4l-3.3-6.6c-.7-1.4-1.4-2.2-1.9-2.3-.5-.2-1.4 0-2.4.4l-.2-.5 6.5-3.2.2.5c-1 .6-1.7 1.3-1.8 1.8-.1.5.1 1.5.7 2.8l3.3 6.6c.8 1.8 1.3 3.2 1.1 4.6-.2 2.4-1.9 4.3-4.9 5.9s-5.5 1.7-7.5.4c-1-.6-2-1.8-2.8-3.3l-4-7.9c-.4-.9-.9-1.5-1.4-1.6-.4-.1-1.3.1-2.3.5l-.2-.5 8.1-4.2z"/><path id="path86" class="st3" d="M654.6 544.4c1.3.8 2.4 1.4 3.5 1.6 1.9.4 3.8.2 5.5-.7.9-.5 1.6-1.3 1.9-2.1.3-.8.2-1.8-.3-2.6-.6-.8-1.4-1.3-2.4-1.5-.7-.1-2.1-.1-4 0l-3.4.1c-1 0-1.9 0-2.6-.2-1.4-.3-2.3-.9-3-1.8-.8-1.3-1-2.5-.6-3.9.5-1.4 1.5-2.5 3.1-3.5.7-.4 1.6-.7 2.6-.9 1.1-.3 1.7-.4 1.8-.5.3-.2.6-.4.6-.6s0-.5-.1-.8l.6-.3 4.1 4.8-.7.4c-1.5-1.3-3.1-1.9-4.5-1.9-1.5 0-2.7.3-3.8.8-.8.4-1.4 1.1-1.7 1.8-.3.7-.2 1.5.2 2.1.5.6 1 1.1 1.7 1.3.8.2 1.8.2 3.1.2l3.4-.2c2.2-.1 3.8 0 4.9.3s2.1.9 2.6 1.9c.9 1.3 1 2.6.5 4.2-.6 1.5-1.7 2.8-3.5 3.8-.9.5-1.9.9-3.1 1.2-1.1.3-1.8.4-1.9.5-.3.2-.6.4-.6.6 0 .2 0 .5.1.7l-.7.4-4.3-4.6 1-.6z"/><path id="path88" class="st3" d="M662.1 524.9l14.6-11 3.1 3.9-.6.4c-1.3-1.1-2.3-1.5-3-1.6-.8 0-1.8.5-3.3 1.6l-1.4 1.1 9 11.9c.6.9 1.3 1.3 1.7 1.3s1.3-.4 2.4-1.1l.3.4-7.5 5.7-.3-.4c1.1-.9 1.6-1.6 1.7-2 .1-.4-.2-1.2-1-2.1l-8.8-11.7-1.5 1.1c-1.4 1.1-2.3 2-2.5 2.8s0 1.8.6 3.3l-.6.4-2.9-4z"/><path id="path90" d="M566.4 275.4c-7.3-6.4-14.5-12.9-21.6-19.6-7.7-7.1-12.5-7.3-20.6-.8-.5.4-1 .8-1.4 1.2-18.4 16.6-28.7 37.2-32 61.7-1.7 12.5 10.6 32.9 24.3 39.4 4.6 2.3 4.4-16.2 23.1-23.1 7.1 0 9.7 4.3 21.7 18.4 7.6-14.8 9.3-23.8 6.8-40.4-.4-2.9-1.5-5.6-2.3-8.4l1-.5c1.4 2.7 3.2 5.1 4.1 7.9 2.9 8.1 1.6 16.3.4 24.4-1.5 10-4.9 19.3-9.9 28 .3.4.6.8 1 1.2 2.7-1.6 6.7-2.6 7.9-5 4.6-9.3 9.4-18.9 12.3-28.7 6.3-21.2 2.5-40.4-14.8-55.7h0zm-56.5 13.8c-2.6 5.5-4.9 11.2-7.5 16.7-.4.9-1.5 1.5-2.3 2.3-.3-1.1-1.2-2.4-.9-3.3 2.5-8.9 6.5-16.9 12.5-23.9 1-1.1 1.7-2.4 2.6-3.6.4.4.9.8 1.3 1.1-1.9 3.6-4 7.1-5.7 10.7h0z" fill="#fff" stroke="#000" stroke-width=".092"/><path id="path92" class="st3" d="M446.8 339.2c3.5 2.5 6.7 5.5 10.5 7.4 10.6 5.2 21.4 10.1 32.2 14.9 3.5 1.5 3.6 1.3 4.6 6.2-5.3-1.1-10.5-2-15.4-3.3-15.4-4-27.8-12.6-37.3-25.4-5.3-7.1-8.4-15.1-7.1-24.1 1.3-9.1 6-13.8 15.2-14.7 12.4-1.2 24 2.4 35.2 7 .8.3 1.8 2 1.6 2.8-4 16.5.9 30.5 11.9 42.7-2.3 4.6-1.5 5 3.5 6.1 4.6 1 9.2 3.1 13.3 5.3 4.6 2.5 8.8 5.7 13.2 8.5 5.4 3.4 11.4 2.7 17.1 1.3 7.9-1.9 15.7-4 23.5-6.1 8.6-2.2 17.1-1.6 25.4 1.4 3.8 1.3 3.9 1.8 1.4 4.6-7.9 9.2-16 18.3-26.5 24.6-13 7.9-26.8 10.3-41 3.7-8.9-4-14.4-11.7-19.5-19.6-4.7-7.2-9.3-14.5-13.9-21.6-.6-.9-1.5-1.7-2.5-2.1-13.9-6.5-27.7-12.9-41.7-19.4-1-.5-2-.8-3-1.2-.3.4-.5.8-.7 1z"/><path id="path94" class="st3" d="M649.3 311.7c-.9 3.6-2.1 7-2.5 10.6-2.9 23.1-19.6 43-42.2 49.3-.2.1-.5 0-.9 0-1.7-8.4-10-6.9-15.5-9.9 5.1-3.3 10.1-6.3 15.1-9.4-.2-.5-.5-.9-.7-1.4-6 2.6-12.1 5.1-18.2 7.7 11-11.6 22.7-22.2 31.5-35.5-.3-.3-.6-.7-1-1l-37.5 37.2c-.3-.3-.7-.5-1-.8.2-.7.4-1.5.7-2.2 6.8-13.7 12-27.9 11.9-43.5 0-.8.2-1.8.6-2.5 7.9-13 17.6-24.3 32.3-30 8.8-3.5 18-4.3 27.2-1.9 5.4 1.5 7.2 3.9 6.5 9.7-.4 3.9-1.6 7.5-2.5 11.3-.4 1.7-.9 3.3-.6 5.2.9-1.1 1.7-2.2 2.7-3.5 5.1 2.7 6.6 7.5 6.9 12.4 1 14.1.2 28.1-5.5 41.5-1.1 2.7-2.7 3.6-5.5 3.9-6.7 1-13.4 2.7-20.6 4.1 7.2-6.7 13.4-14 17.5-22.8 4.2-9.2 2.3-19 2.7-28.4-.4.1-.9 0-1.4-.1zm-40.9 35.8c.3.4.6.9.9 1.3 2.7-.7 4.4-2.5 5.8-4.8-.3-.4-.6-.8-1-1.3-1.8 1.7-3.8 3.3-5.7 4.8z"/><path id="path96" class="st3" d="M588.5 404.2c16.1 6.3 47.3 10.6 61.8 6.6-2.6-.5-5.2-1.1-7.8-1.4-11.7-1.1-23.4-1.7-35.1-3.1-9-1.1-16.7-5.5-23.8-11.4 5-5.4 9.7-10.9 14.8-15.6 1.8-1.7 5.1-1.6 7.7-2.4 12-3.6 24.1-7.5 36.1-10.8 9.3-2.5 18.7-3.3 28.1-.7 9.7 2.7 17 8.5 21.6 17.2 6 11.5-2 26.1-14.9 27.6-5 .6-10.2.9-15.8 1.3l2.1 2.8c-.1.2-.2.5-.4.6-8.4 2.3-16.8 4.9-25.4 6.5-14.9 2.8-29.2 1-41.4-9-2.7-2.4-5.1-5.4-7.6-8.2z"/><path id="path98" class="st3" d="M519.8 404.6c6.4 2.5 12.4 4.8 18.7 7.2-1.7 3.2-3.5 6.6-5.2 10.1.3.3.6.7.9 1 1.5-1.2 3.3-2.1 4.3-3.5 1.4-1.8 2-4 3.3-5.8.8-1.1 2.5-1.5 3.8-2.2.5 1.1 1.6 2.3 1.4 3.3-.7 4.3-1.6 8.6-2.6 12.8-.8 3.8-1.9 7.4-2.8 11.3 5.2-2.7 7.2-8.7 9.4-27.6 1.3-.3 2.7-.6 4.6-1 .6 3.9 1.2 7.4 1.8 11.4 3.3-2.3 3.3-5 2.6-7.7-.8-3.4.1-4.9 3.5-6.4 5.3-2.3 10.3-5.4 15.7-8.5 1.8 2.8 3.5 5.8 5.6 8.5 3.1 3.8 6.7 7 9.9 10.7 1.6 1.9 3.5 4.1 3.8 6.4.6 3.8.5 7.7-.2 11.5-1 4.8-3.7 8.8-9 10-12.1 2.7-24.3 5.2-36.4 7.8-2.9.6-5.8 1-8.6 2 13.2 2.4 26.1-.9 38.9-3.5-13.2 7.8-27.4 12.4-42.9 12.4-9.9 0-29.6-9.7-37.4-18.4 10.7 4.2 20 9.6 30.9 10 .1-.3.3-.7.4-1-1.2-.5-2.4-1-3.5-1.5-11.1-4.8-22.2-9.6-33.2-14.6-4.7-2.2-8.6-9.4-7.9-14.5.1-1 .9-2.4 1.6-2.6 11-3.7 20.4-10.3 28.6-17.6z"/><path id="path100" class="st3" d="M453.5 414.3c3.4-.6 6.1-1.1 8.8-1.6 0-.5 0-.9.1-1.4-2.6-.4-5.1-1.2-7.7-1.1-10.4.4-20.4-.9-30.3-3.9-8.4-2.6-13.8-8.3-17-16.2-2.5-6.1-.1-12.8 6.1-17.4 11.6-8.4 24.7-11.4 38.8-11 7.1.2 12.7 4.1 19.2 5.9 7.6 2 15.3 3.6 22.8 5.5 1.6.4 3.3 1.6 4.1 3 2.2 3.3 4 6.8 6.3 10.9h-24.5c-.1.4-.1.7-.2 1.1 4.3 1 8.7 2.2 13.1 2.8 3.5.5 7 .5 10.5-.1 3.2-.5 4.8.5 6.4 3 1 1.6 2.3 2.9 3.7 4.6-12.8 7.4-27.3 8.7-41.6 12.1 4.8 2.9 14 1.3 38.2-6-2.8 4.3-16.1 11.1-26.5 13.7-10.3 2.9-20 .7-30.3-3.9z"/><path id="path102" d="M519.2 360.1l5.7-9.5c7.9-12.3 15.8-17.1 23.7-5.4l10.2 10.5c-.9 3.5-2.3 6-3.8 9.5-11 4.7-22.5 3.6-28.5 0-2.3-.9-4.4-1.8-7.3-5.1z" fill="#eaaa22"/><path id="polygon104" class="st1" d="M554.2 124.8L548 107l-6.4 17.8 6.4 9.1z"/><path id="polygon106" class="st1" d="M536.1 140.4l-5.3 17.9 15.8-10.5v-10z"/><path id="polygon108" class="st1" d="M539.5 126.4h-19l14.6 11.5 10.6-2.6z"/><path id="polygon110" class="st1" d="M560.7 137.9l14.6-11.5h-19l-6.2 8.9z"/><path id="polygon112" class="st1" d="M559.7 140.4l-10.5-2.6v10l15.8 10.5z"/></svg>